<svg width="139" height="155" viewBox="0 0 139 155" fill="none" xmlns="http://www.w3.org/2000/svg">
<g opacity="0.2">
<path d="M77.6652 154.366C105.939 154.366 128.859 151.769 128.859 148.567C128.859 145.364 105.939 142.768 77.6652 142.768C49.3918 142.768 26.4717 145.364 26.4717 148.567C26.4717 151.769 49.3918 154.366 77.6652 154.366Z" fill="#650000"/>
</g>
<path d="M113.191 122.268L93.9189 84.6804L58.0781 14.78C62.1203 2.04561 97.2198 -3.38836 116.975 6.58103C121.286 8.75675 124.75 12.143 127.075 16.2065C128.954 19.4914 130.093 23.2216 130.333 27.1144L131.895 52.4658V71.8368C135.916 109.581 126.528 121.166 113.191 122.268Z" fill="#F44906"/>
<g opacity="0.55">
<path d="M127.76 17.489C125.446 13.7428 122.142 10.6285 118.086 8.58078C98.3317 -1.38862 63.2321 4.04536 59.19 16.7797L113.274 122.26C113.247 122.262 113.218 122.265 113.191 122.268L58.0781 14.78C62.1203 2.04561 97.2198 -3.38836 116.975 6.58103C121.731 8.98339 125.456 12.8549 127.76 17.489Z" fill="white"/>
</g>
<path d="M78.9281 3.49121C78.9089 3.50321 78.8648 3.54576 78.8252 3.58299C78.7855 3.61829 78.7449 3.6602 78.7043 3.70356C78.6223 3.78739 78.5403 3.87319 78.4627 3.96773C78.2994 4.14702 78.1559 4.34843 78.0038 4.54446C77.7226 4.95262 77.4552 5.38057 77.2401 5.83763C76.8031 6.74738 76.4974 7.74101 76.3797 8.77683C76.3437 9.03487 76.3465 9.29628 76.3272 9.55849C76.3216 9.68957 76.3098 9.82149 76.309 9.95321L76.3305 10.3481C76.3488 10.6115 76.35 10.8794 76.3821 11.1437L76.5109 11.9357C76.5344 12.068 76.55 12.2029 76.5799 12.334L76.6864 12.7238L76.9009 13.5092C77.0736 14.0236 77.2856 14.5272 77.4789 15.0432C77.2093 14.5681 76.9171 14.098 76.6607 13.6074L76.318 12.8489L76.1459 12.4669C76.0938 12.3375 76.0558 12.203 76.0099 12.0709L75.7458 11.2694C75.6683 10.9986 75.6214 10.7194 75.5579 10.4422L75.4687 10.024C75.4471 9.88325 75.4366 9.74108 75.42 9.59891C75.395 9.31457 75.3487 9.02826 75.3426 8.74057C75.291 7.58669 75.4493 6.41185 75.7874 5.27797C75.9532 4.70892 76.1828 4.15806 76.4428 3.61621C76.5856 3.35139 76.7216 3.08177 76.8884 2.82399C76.9658 2.69302 77.0533 2.56402 77.1438 2.4355C77.1875 2.37119 77.2328 2.30662 77.285 2.24049C77.3355 2.1749 77.3802 2.11341 77.4566 2.02734L78.9281 3.49121Z" fill="white"/>
<path d="M99.7686 1.8396C100.584 2.60851 101.289 3.50307 101.88 4.48054C102.469 5.45919 102.933 6.54241 103.157 7.7141C103.393 8.88089 103.354 10.1388 103.021 11.334C102.688 12.5303 102.066 13.6361 101.31 14.6032L99.7762 13.2055C100.51 12.5165 101.138 11.7218 101.554 10.8123C101.968 9.90444 102.173 8.88441 102.127 7.83702C102.093 6.7891 101.83 5.72583 101.417 4.71321C101.001 3.7007 100.454 2.72279 99.7686 1.8396Z" fill="white"/>
<path d="M120.906 8.13208C121.547 10.207 122.038 12.3365 122.251 14.506C122.466 16.6715 122.388 18.882 121.901 21.0049C121.42 23.1276 120.523 25.1419 119.292 26.9012C118.065 28.6656 116.525 30.176 114.832 31.4493C116.431 30.0586 117.842 28.4541 118.911 26.6543C119.984 24.8584 120.698 22.873 121.009 20.8339C121.326 18.7937 121.249 16.7121 120.901 14.6834C120.553 12.6516 119.944 10.6691 119.196 8.74182L120.906 8.13208Z" fill="white"/>
<path d="M130.519 30.1575C130.773 32.9265 130.429 35.7414 129.726 38.4463C129.019 41.1553 127.953 43.7731 126.609 46.2464C125.262 48.7177 123.634 51.0534 121.682 53.1366C120.706 54.1771 119.643 55.1508 118.473 56.0133C117.303 56.8734 116.023 57.6265 114.607 58.1625L113.943 56.1959C115.151 55.823 116.328 55.2358 117.438 54.5208C118.55 53.8045 119.599 52.9608 120.581 52.0369C122.546 50.1869 124.259 48.0362 125.714 45.7219C127.166 43.4049 128.368 40.9149 129.228 38.3005C130.083 35.6889 130.6 32.9363 130.519 30.1575Z" fill="white"/>
<path d="M119.962 86.8864C121.069 86.8837 122.173 86.8175 123.268 86.7118C124.362 86.6045 125.449 86.4493 126.513 86.2309C127.575 86.0106 128.619 85.7292 129.594 85.344C130.568 84.9645 131.476 84.4633 132.157 83.8406L133.424 85.4846C132.336 86.194 131.182 86.5803 130.045 86.8341C128.905 87.0877 127.768 87.2059 126.64 87.2607C125.512 87.3126 124.391 87.2958 123.278 87.2306C122.164 87.1637 121.057 87.0562 119.962 86.8864Z" fill="white"/>
<path d="M117.101 107.417C117.184 107.717 117.314 108.079 117.444 108.408C117.574 108.746 117.719 109.08 117.875 109.409C118.185 110.069 118.541 110.709 118.945 111.324C119.357 111.931 119.82 112.503 120.346 113.03C120.882 113.542 121.488 113.986 122.167 114.343C121.429 114.15 120.706 113.844 120.03 113.441C119.365 113.026 118.738 112.538 118.156 111.998C117.583 111.451 117.048 110.86 116.554 110.234C116.307 109.92 116.069 109.599 115.843 109.266C115.612 108.929 115.404 108.611 115.185 108.215L117.101 107.417Z" fill="white"/>
<g opacity="0.3">
<path d="M113.029 121.948L93.9189 84.6804L113.922 21.2751C113.922 21.2751 116.759 11.8123 122.254 12.8842C123.107 13.9267 123.867 15.0386 124.536 16.2064C126.416 19.4914 127.555 23.2215 127.795 27.1144L129.357 52.4658V71.8367C133.135 107.296 125.078 119.668 113.029 121.948Z" fill="#650000"/>
</g>
<path d="M5.61585 55.3792L17.0427 88.618C17.2989 89.3633 16.9025 90.1753 16.1571 90.4316C15.4117 90.6878 14.5998 90.2912 14.3436 89.546C14.3398 89.5347 14.334 89.5172 14.3305 89.5059L3.88989 55.9443C3.74084 55.4655 4.00838 54.9565 4.4872 54.8075C4.95706 54.6612 5.45635 54.9173 5.61585 55.3792Z" fill="#650000"/>
<path d="M113.192 123.045C112.791 123.045 112.451 122.737 112.417 122.33C112.382 121.902 112.701 121.526 113.129 121.491C118.306 121.063 122.289 119.083 125.306 115.436C131.45 108.008 133.407 93.3674 131.122 71.92C131.119 71.8927 131.118 71.8652 131.118 71.8376V52.4908L129.556 27.1618C129.031 18.6579 124.076 11.0381 116.624 7.27649C102.41 0.101883 81.1986 1.16047 68.903 6.32909C63.3728 8.65365 59.8862 11.657 58.8202 15.0143C58.69 15.424 58.2518 15.6505 57.8427 15.5207C57.4331 15.3906 57.2063 14.9529 57.3366 14.5433C58.545 10.7376 62.3359 7.40095 68.2997 4.89412C80.9211 -0.411334 102.709 -1.49077 117.325 5.88685C125.269 9.89674 130.551 18.0122 131.109 27.0661L132.673 52.4189C132.674 52.4349 132.674 52.4508 132.674 52.4668V71.7963C135.032 93.9617 133.014 108.561 126.505 116.428C123.253 120.359 118.796 122.585 113.257 123.042C113.235 123.044 113.213 123.045 113.192 123.045Z" fill="#650000"/>
<path d="M28.1326 50.5032C28.1326 56.3291 25.037 61.0539 21.2135 61.0539H7.92986C7.74855 61.0539 7.56991 61.0432 7.39126 61.0219C4.28233 60.6592 1.75198 57.1637 1.14939 52.6016C1.05874 51.9244 1.01074 51.2231 1.01074 50.5033C1.01074 44.6774 4.10635 39.9526 7.92986 39.9526H21.2135C25.037 39.9526 28.1326 44.6773 28.1326 50.5032Z" fill="white"/>
<path d="M21.2142 61.1873H7.93042C7.74553 61.1873 7.55884 61.1762 7.37582 61.1544C4.24811 60.7895 1.63335 57.2796 1.01775 52.6191C0.925071 51.9273 0.87793 51.2153 0.87793 50.5033C0.87793 44.6121 4.04158 39.8193 7.93042 39.8193H21.2142C25.1027 39.8193 28.2664 44.6121 28.2664 50.5033C28.2664 56.3944 25.1027 61.1873 21.2142 61.1873ZM7.93042 40.086C4.18871 40.086 1.14456 44.7592 1.14456 50.5033C1.14456 51.2034 1.1909 51.9035 1.28204 52.584C1.8817 57.1235 4.40041 60.5387 7.40702 60.8896C7.5799 60.9103 7.75593 60.9207 7.93036 60.9207H21.2141C24.9558 60.9207 27.9997 56.2475 27.9997 50.5033C27.9997 44.7592 24.9558 40.086 21.2141 40.086H7.93042Z" fill="#650000"/>
<path d="M65.8693 130.573V144.027C65.8693 146.094 64.1949 147.765 62.1285 147.765H49.4448C47.9916 147.765 46.7704 146.627 46.7198 145.176C46.5571 140.537 50.4526 137.921 55.068 138.996L54.4148 133.764L54.0575 130.912C54.0575 130.912 56.3559 124.448 65.8693 130.573Z" fill="white"/>
<path d="M62.128 147.899H49.4445C47.9207 147.899 46.6386 146.68 46.586 145.181C46.5123 143.078 47.2708 141.262 48.7216 140.068C50.2978 138.771 52.5446 138.322 54.912 138.825L53.921 130.897L53.9316 130.867C53.9605 130.785 54.669 128.856 56.8943 128.098C59.2271 127.303 62.2705 128.098 65.9411 130.461L66.0023 130.5V144.027C66.0023 146.162 64.2642 147.899 62.128 147.899ZM53.0448 138.89C51.4497 138.89 49.9962 139.364 48.8912 140.274C47.5059 141.414 46.7818 143.153 46.8526 145.172C46.9 146.529 48.0628 147.632 49.4445 147.632H62.128C64.1174 147.632 65.7356 146.015 65.7356 144.027V130.646C62.1671 128.361 59.2229 127.588 56.9852 128.349C55.0234 129.015 54.2889 130.691 54.1936 130.929L55.2236 139.169L55.0375 139.126C54.3593 138.968 53.6906 138.89 53.0448 138.89Z" fill="#650000"/>
<g opacity="0.3">
<path d="M65.8691 141.132V144.027C65.8691 146.094 64.1946 147.765 62.1282 147.765H49.4445C47.9913 147.765 46.7701 146.627 46.7195 145.176C46.6955 144.467 46.7648 143.806 46.9195 143.195C47.3274 144.182 48.3166 144.87 49.4445 144.87H62.1282C64.1946 144.87 65.8691 143.198 65.8691 141.132Z" fill="#650000"/>
</g>
<path d="M28.1337 50.503C28.1337 56.3299 25.036 61.0542 21.2145 61.0542H7.92871C11.7476 61.0542 14.8453 56.3299 14.8453 50.503C14.8453 44.676 11.7476 39.9517 7.92871 39.9517H21.2145C25.036 39.9517 28.1337 44.676 28.1337 50.503Z" fill="#6D445B"/>
<g opacity="0.3">
<path d="M28.1324 50.5033C28.1324 56.3291 25.0368 61.0539 21.2133 61.0539H7.92969C10.7987 61.0539 13.2623 58.3876 14.3075 54.5881H22.4052C24.7809 54.5881 26.8793 52.759 28.1244 49.9753C28.1298 50.1513 28.1324 50.3273 28.1324 50.5033Z" fill="#650000"/>
</g>
<g opacity="0.55">
<path d="M28.1324 50.7699C28.1324 51.0152 28.1271 51.2604 28.1138 51.5031C27.8685 46.0185 24.8742 41.6857 21.2133 41.6857H11.4492C10.4174 40.7552 9.21486 40.2192 7.92969 40.2192H21.2133C25.0368 40.2192 28.1324 44.944 28.1324 50.7699Z" fill="white"/>
</g>
<g opacity="0.3">
<path d="M65.8694 130.573V140.297C62.6059 132.295 55.0682 134.954 55.0682 134.954L54.4149 133.765L54.0576 130.912C54.0576 130.912 56.356 124.448 65.8694 130.573Z" fill="#650000"/>
</g>
<path d="M101.533 129.656V145.067C101.533 146.561 100.325 147.766 98.8349 147.766H89.78C88.3962 147.766 87.2204 146.697 87.1537 145.315C87.0364 142.934 88.3589 141.047 90.4439 140.297L89.4547 133.725L88.9801 130.573C88.9801 130.573 91.6705 121.358 101.533 129.656Z" fill="white"/>
<path d="M98.8352 147.899H89.7803C88.3027 147.899 87.0906 146.767 87.0211 145.322C86.9052 142.974 88.1576 141.025 90.2964 140.21L88.8443 130.564L88.8526 130.536C88.8623 130.502 89.8697 127.157 92.7914 126.274C95.1987 125.546 98.1678 126.65 101.619 129.554L101.667 129.594V145.067C101.667 146.629 100.396 147.899 98.8352 147.899ZM89.1169 130.584L90.5925 140.386L90.4894 140.423C88.4026 141.173 87.1757 143.045 87.2872 145.309C87.3502 146.612 88.4454 147.632 89.7803 147.632H98.8352C100.25 147.632 101.4 146.482 101.4 145.067V129.718C98.0431 126.906 95.1737 125.833 92.8706 126.529C90.224 127.328 89.2174 130.269 89.1169 130.584Z" fill="#650000"/>
<g opacity="0.3">
<path d="M101.535 142.206V145.067C101.535 146.56 100.327 147.766 98.8362 147.766H89.7814C88.3975 147.766 87.2217 146.696 87.155 145.315C87.1204 144.633 87.2057 143.99 87.395 143.403C87.8109 144.297 88.7362 144.905 89.7814 144.905H98.8362C100.327 144.905 101.535 143.699 101.535 142.206Z" fill="#650000"/>
</g>
<path d="M55.2457 138.239C55.9556 138.33 56.6177 138.625 57.2137 138.996C57.5109 139.185 57.7965 139.39 58.0463 139.646C58.2921 139.908 58.5186 140.192 58.6713 140.563C58.2705 140.578 57.9306 140.526 57.5979 140.475C57.2691 140.418 56.964 140.332 56.6591 140.256C56.0511 140.098 55.463 139.965 54.8917 139.755L54.8769 139.749C54.4713 139.6 54.2634 139.151 54.4125 138.745C54.5407 138.396 54.892 138.194 55.2457 138.239Z" fill="#650000"/>
<path d="M62.1285 148.545H49.4428C47.5454 148.545 46.0071 147.077 45.9409 145.204C45.8613 142.948 46.6679 140.977 48.2123 139.653C49.8884 138.216 52.3008 137.667 54.8294 138.151C55.2517 138.231 55.5288 138.639 55.4481 139.061C55.3676 139.484 54.9588 139.76 54.5378 139.68C52.4756 139.286 50.5401 139.707 49.2255 140.834C48.0309 141.858 47.4333 143.35 47.4965 145.149C47.5325 146.163 48.4055 146.988 49.4429 146.988H62.1285C63.7619 146.988 65.0907 145.66 65.0907 144.026V130.573C65.0907 130.143 65.439 129.795 65.869 129.795C66.2988 129.795 66.6473 130.143 66.6473 130.573V144.026C66.6471 146.518 64.6201 148.545 62.1285 148.545Z" fill="#650000"/>
<path d="M21.215 61.8092H7.92916C3.69764 61.8092 0.254883 56.7372 0.254883 50.5029C0.254883 44.2685 3.6977 39.1965 7.92916 39.1965H21.215C25.4465 39.1965 28.8893 44.2685 28.8893 50.5029C28.8893 56.7372 25.4464 61.8092 21.215 61.8092ZM7.92916 40.7067C4.53039 40.7067 1.76509 45.1012 1.76509 50.5029C1.76509 55.9045 4.53034 60.299 7.92916 60.299H21.215C24.6138 60.299 27.379 55.9045 27.379 50.5029C27.379 45.1012 24.6138 40.7067 21.215 40.7067H7.92916Z" fill="#650000"/>
<path d="M7.92888 61.702C7.57058 61.702 7.28027 61.4115 7.28027 61.0534C7.28027 60.6953 7.57058 60.4048 7.92888 60.4048C11.386 60.4048 14.1986 55.9629 14.1986 50.5031C14.1986 45.0431 11.386 40.6012 7.92888 40.6012C7.57058 40.6012 7.28027 40.3107 7.28027 39.9526C7.28027 39.5944 7.57058 39.304 7.92888 39.304C12.1013 39.304 15.4959 44.328 15.4959 50.5031C15.4959 56.6782 12.1013 61.702 7.92888 61.702Z" fill="#650000"/>
<g opacity="0.3">
<path d="M101.535 129.656V139.17C99.5348 133.493 93.6635 132.664 89.7131 135.433L89.4561 133.725L88.9814 130.573C88.9814 130.573 91.6718 121.358 101.535 129.656Z" fill="#650000"/>
</g>
<path d="M7.65859 55.3993C9.0735 55.3993 10.2205 53.2909 10.2205 50.6901C10.2205 48.0893 9.0735 45.981 7.65859 45.981C6.24369 45.981 5.09668 48.0893 5.09668 50.6901C5.09668 53.2909 6.24369 55.3993 7.65859 55.3993Z" fill="#F44906"/>
<g opacity="0.55">
<path d="M9.42848 47.2824C9.14852 47.0877 8.84189 46.9811 8.5246 46.9811C7.10878 46.9811 5.96226 49.0901 5.96226 51.6898C5.96226 53.031 6.26622 54.2415 6.75416 55.0974C5.78628 54.4281 5.0957 52.7083 5.0957 50.6899C5.0957 48.0903 6.24222 45.9812 7.65804 45.9812C8.34595 45.9812 8.96721 46.4771 9.42848 47.2824Z" fill="white"/>
</g>
<path d="M7.65779 56.048C5.85749 56.048 4.44727 53.6946 4.44727 50.6903C4.44727 47.686 5.85749 45.3325 7.65779 45.3325C9.45809 45.3325 10.8683 47.686 10.8683 50.6903C10.8683 53.6946 9.45809 56.048 7.65779 56.048ZM7.65779 46.6297C6.75268 46.6297 5.74449 48.2974 5.74449 50.6903C5.74449 53.0832 6.75268 54.7507 7.65779 54.7507C8.5629 54.7507 9.57109 53.0832 9.57109 50.6903C9.57109 48.2974 8.5629 46.6297 7.65779 46.6297Z" fill="#650000"/>
<path d="M21.7093 50.7732L19.0609 85.2213C19.0005 86.0071 18.3145 86.5951 17.5287 86.5347C16.7429 86.4742 16.1548 85.7882 16.2152 85.0024C16.2161 84.9903 16.2179 84.9718 16.2191 84.9597L19.9009 50.6068C19.9543 50.1082 20.4019 49.7471 20.9007 49.8007C21.3897 49.8531 21.7463 50.2861 21.7093 50.7732Z" fill="#650000"/>
<path d="M35.0808 93.1128L34.5152 101.327C25.8293 107.034 5.41937 103.508 7.4949 86.108C7.92556 83.7523 9.05928 82.1334 10.4239 81.1735C13.3504 79.1136 17.3457 80.0994 17.74 83.3709C21.3592 83.7705 21.5978 86.9563 20.6872 88.9929V88.9956C22.5033 91.8934 29.2876 91.9739 32.0117 87.7762L34.4815 92.0698L35.0808 93.1128Z" fill="white"/>
<path d="M24.9677 103.967C21.1291 103.967 17.1713 103.001 14.0767 101.087C8.97106 97.9279 6.587 92.6027 7.3637 86.0924C7.87121 83.3138 9.26681 81.8253 10.3482 81.0645C11.9722 79.9215 14.0587 79.6449 15.6652 80.3595C16.8917 80.9054 17.6679 81.9296 17.8595 83.2509C19.2271 83.4253 20.2405 84.0262 20.794 84.9925C21.5364 86.2888 21.3083 87.89 20.8386 88.9826C21.6221 90.1697 23.3596 90.9142 25.3961 90.9305C27.5049 90.9451 30.3402 90.1084 31.9009 87.7037L32.0194 87.5208L35.2175 93.0817L35.2149 93.1221L34.6446 101.402L34.5895 101.438C32.017 103.128 28.544 103.967 24.9677 103.967ZM13.7368 80.2328C12.6357 80.2328 11.4816 80.5928 10.5018 81.2826C9.46082 82.0148 8.1172 83.4505 7.62718 86.1321C6.64971 94.3286 10.6711 98.6662 14.217 100.86C20.0938 104.497 29.1244 104.667 34.3878 101.251L34.9461 93.1442L32.0038 88.0283C30.3633 90.3861 27.5205 91.2199 25.3939 91.197C23.2346 91.18 21.3882 90.3635 20.5753 89.0664L20.555 89.0339L20.5667 88.9386C21.0076 87.9524 21.271 86.3619 20.5625 85.125C20.0316 84.1983 19.0776 83.6528 17.7264 83.5036L17.6212 83.492L17.6087 83.3871C17.4548 82.1123 16.7263 81.1236 15.5569 80.6031C14.9976 80.3543 14.376 80.2328 13.7368 80.2328Z" fill="#650000"/>
<path d="M128.31 104.37C127.49 104.419 127.018 104.577 126.943 105.395C126.572 109.325 120.83 109.348 120.205 104.92C120.104 104.201 120.138 103.366 120.35 102.408C119.211 102.398 118.013 102.136 116.819 101.721V101.718C116.594 101.643 116.368 101.557 116.142 101.469C117.297 104.105 115.732 105.143 113.864 105.996C117.18 107.322 117.496 110.581 114.124 112.223C116.843 114.104 115.6 118.364 113.431 118.104C113.836 123.407 112.51 124.676 109.454 121.91C108.126 128.37 106.263 128.121 104.18 125.109C104.18 130.625 99.1465 130.765 96.5703 128.451H96.5677C96.3964 128.298 96.2408 128.137 96.0929 127.963C94.9254 131.076 91.3582 131.707 89.8015 129.066C88.7638 132.309 85.002 132.763 83.9642 129.39C82.1481 133.152 79.0764 133.761 76.5703 130.752C74.1705 133.541 71.0857 133.253 70.6681 129.584C68.3331 132.373 64.7503 132.75 62.0418 129.001C59.6705 132.443 57.4057 132.327 55.2316 129.26C53.6101 132.957 49.8976 131.8 49.6537 128.677C46.9011 133.855 42.3246 130.947 43.4713 126.666C40.2699 130.902 36.438 127.657 40.8769 124.157C34.9099 122.255 39.5798 118.364 39.5798 118.364C34.4766 115.424 37.634 111.185 37.634 111.185C29.3787 109.629 36.8972 104.354 36.8972 104.354C32.2273 101.934 35.8594 98.3017 35.8594 98.3017C34.5752 97.1213 34.1965 96.0498 34.2042 95.1937C34.2146 93.9172 35.0811 93.113 35.0811 93.113C35.0811 93.113 33.784 79.3628 32.92 75.2975C32.0561 71.2321 33.4389 69.4161 33.4389 69.4161C31.8823 66.4766 34.4766 65.0056 34.4766 65.0056C30.5851 63.449 31.8823 57.8296 34.9099 57.7414C30.6707 54.9758 29.9183 47.7661 34.391 45.4623C31.9679 43.7318 32.383 38.8855 34.9956 38.2836C31.9679 36.8152 31.7396 32.1505 35.4288 30.6743C31.5373 26.5233 35.5689 21.6511 38.3682 22.9769C37.7923 19.7495 40.7032 17.1836 43.902 19.1735C44.4002 16.6907 48.3566 14.4595 50.5618 17.508C53.0161 12.9808 57.18 13.3751 59.5124 15.9513C62.3377 13.619 66.9712 12.9678 69.7601 15.6919C71.2726 11.9976 74.884 12.5787 77.4784 15.0433C80.3114 11.8963 83.4687 12.5553 86.8181 15.4973C89.5292 13.2065 92.453 12.6409 95.8335 15.7568C98.721 12.4126 101.009 13.261 102.968 16.4054C105.837 13.536 107.866 13.6891 109 17.054C111.854 15.3495 113.537 16.1927 114.051 17.9931C114.461 19.4355 114.119 21.4955 113.021 23.3453C117.273 29.4862 115.045 31.5072 113.021 33.6579C115.616 34.6956 116.199 38.0035 113.345 39.3006C116.199 40.5978 115.499 44.1002 113.345 44.8785C116.311 47.3614 116.025 49.4498 113.799 51.2996C117.87 53.6709 116.16 55.8137 113.345 57.9152C118.337 60.258 116.892 63.1636 114.513 66.1524L115.226 83.0158C115.366 83.1351 115.499 83.2544 115.623 83.3712C117.434 85.0705 117.899 86.6997 117.543 87.7842C117.312 88.4847 116.739 88.9594 115.961 89.0736C116.461 89.4809 116.993 89.8623 117.551 90.2177C121.284 92.6149 126.234 93.8939 132.025 94.0626C133.758 94.1378 135.143 94.5944 136.14 95.2819C139.922 97.8839 138.072 103.768 128.31 104.37Z" fill="white"/>
<path d="M79.9454 132.798C78.7742 132.798 77.6168 132.168 76.5695 130.956C75.2793 132.399 73.779 133.03 72.5341 132.647C71.4988 132.328 70.8104 131.356 70.5765 129.894C69.373 131.227 67.8982 131.926 66.4112 131.876C64.809 131.818 63.3027 130.905 62.0453 129.23C60.884 130.865 59.7063 131.697 58.5432 131.705C58.5375 131.705 58.532 131.705 58.5265 131.705C57.4282 131.705 56.3296 130.971 55.2581 129.523C54.3697 131.36 52.979 131.84 51.9458 131.665C50.7356 131.46 49.8193 130.449 49.574 129.094C48.157 131.499 46.3918 131.874 45.1779 131.396C43.921 130.901 42.8829 129.29 43.2245 127.182C41.9934 128.592 40.7443 128.939 39.9418 128.769C39.3375 128.64 38.913 128.233 38.7768 127.65C38.5399 126.635 39.2205 125.359 40.6042 124.207C38.9088 123.625 37.9482 122.811 37.7475 121.784C37.4528 120.277 38.887 118.816 39.3546 118.386C37.8155 117.46 36.8963 116.319 36.6216 114.991C36.2662 113.272 37.0921 111.774 37.4106 111.277C35.1687 110.824 33.9119 110.034 33.6728 108.928C33.2673 107.05 35.9246 104.914 36.6479 104.372C35.3288 103.644 34.5779 102.742 34.4146 101.687C34.1691 100.102 35.3231 98.6913 35.6712 98.3077C34.6 97.2916 34.0618 96.244 34.0714 95.1924C34.0808 94.0351 34.7533 93.2588 34.9429 93.0629C34.8463 92.0482 33.6129 79.1967 32.7901 75.3252C32.0065 71.6381 33.0364 69.7842 33.284 69.4061C32.0269 66.9465 33.6048 65.4747 34.2011 65.032C32.168 64.0928 31.7355 62.0858 31.997 60.6122C32.2766 59.0373 33.2955 57.8714 34.5388 57.6465C32.4151 56.0932 31.1015 53.2679 31.2439 50.4927C31.359 48.2479 32.4133 46.4199 34.1467 45.4429C32.7841 44.335 32.4641 42.3116 32.756 40.8478C33.0138 39.5548 33.7108 38.6088 34.6503 38.2499C33.3168 37.4682 32.5063 35.9908 32.5627 34.3983C32.6218 32.7307 33.6048 31.3329 35.2033 30.6249C33.058 28.2215 33.5168 25.6848 34.5823 24.2231C35.5392 22.9107 36.9964 22.3355 38.2014 22.7637C38.0027 21.199 38.6073 19.7065 39.7791 18.9126C40.9391 18.127 42.4014 18.1482 43.8142 18.9652C44.1835 17.5792 45.5559 16.3166 47.087 15.9835C48.4352 15.6901 49.6567 16.1446 50.5451 17.2643C51.9468 14.7954 53.6934 14.0963 54.9253 13.9483C56.5561 13.7532 58.2671 14.4316 59.526 15.7688C62.3343 13.5195 66.8366 12.8172 69.7133 15.4632C70.315 14.1095 71.2573 13.2615 72.4481 13.0063C73.9885 12.6757 75.8596 13.3655 77.4714 14.8537C80.1109 12.0021 83.1704 12.1552 86.8204 15.3219C89.8807 12.7839 92.8285 12.864 95.8232 15.5664C97.1373 14.077 98.3614 13.4009 99.5545 13.4906C100.763 13.5846 101.889 14.4692 102.993 16.1939C104.53 14.6899 105.846 14.0535 106.909 14.3022C107.818 14.5152 108.546 15.3743 109.073 16.8567C110.506 16.032 111.758 15.7929 112.701 16.1667C113.415 16.4497 113.927 17.0686 114.18 17.9564C114.612 19.4776 114.229 21.533 113.18 23.3395C117.299 29.3272 115.269 31.4752 113.305 33.552L113.25 33.6104C114.518 34.1877 115.345 35.3401 115.374 36.5932C115.4 37.7284 114.774 38.7029 113.647 39.3011C114.775 39.9096 115.412 40.9667 115.363 42.1756C115.316 43.3793 114.616 44.4535 113.599 44.919C114.965 46.1059 115.656 47.2706 115.654 48.3834C115.652 49.3845 115.12 50.3336 114.029 51.2802C115.532 52.1874 116.29 53.1103 116.347 54.098C116.427 55.5138 115.034 56.8033 113.601 57.8897C115.436 58.7867 116.467 59.8116 116.749 61.0185C117.149 62.7301 115.981 64.5175 114.649 66.1962L115.358 82.9522C115.483 83.0602 115.602 83.1682 115.715 83.2739C117.366 84.8229 118.097 86.5245 117.67 87.8256C117.451 88.4916 116.947 88.9612 116.266 89.1462C116.692 89.4804 117.148 89.8022 117.623 90.1051C121.308 92.4716 126.155 93.7582 132.029 93.9291C133.695 94.0015 135.142 94.4313 136.216 95.1721C137.758 96.2333 138.411 97.8328 137.963 99.4509C137.355 101.643 134.502 104.122 128.319 104.503C127.512 104.551 127.142 104.693 127.076 105.407C126.883 107.447 125.332 108.393 123.879 108.427C122.291 108.456 120.419 107.387 120.074 104.938C119.971 104.212 120.009 103.405 120.187 102.539C119.155 102.508 118.009 102.276 116.776 101.847L116.687 101.814C116.584 101.778 116.481 101.741 116.383 101.704C117.31 104.148 115.808 105.22 114.192 105.991C115.685 106.672 116.593 107.798 116.639 109.048C116.685 110.304 115.864 111.46 114.378 112.244C115.887 113.416 116.061 115.314 115.563 116.627C115.171 117.663 114.418 118.27 113.576 118.249C113.788 121.228 113.444 122.896 112.527 123.345C111.821 123.691 110.843 123.304 109.538 122.163C108.856 125.37 107.996 127.037 106.914 127.258C106.143 127.415 105.287 126.843 104.304 125.512C104.208 127.543 103.373 129.004 101.929 129.648C100.28 130.383 98.0631 129.945 96.52 128.584H96.5198L96.4794 128.55C96.3599 128.443 96.2469 128.332 96.1373 128.213C95.5009 129.718 94.2487 130.718 92.8262 130.842C91.642 130.944 90.5442 130.398 89.837 129.368C89.2592 130.871 88.0068 131.86 86.6577 131.851C85.4457 131.844 84.4483 131.059 83.9419 129.733C83.0051 131.527 81.7365 132.602 80.3463 132.773C80.2125 132.79 80.0789 132.798 79.9454 132.798ZM76.5726 130.546L76.6734 130.667C77.8048 132.026 79.0629 132.662 80.3138 132.509C81.6832 132.34 82.9372 131.212 83.8449 129.332L83.9926 129.026L84.0923 129.351C84.5206 130.743 85.4801 131.577 86.6592 131.584C86.6638 131.584 86.6685 131.584 86.6732 131.584C87.9798 131.584 89.1849 130.558 89.6752 129.025L89.7661 128.742L89.9171 128.998C90.5691 130.104 91.6213 130.677 92.8032 130.576C94.1858 130.456 95.3987 129.437 95.9689 127.916L96.0483 127.704L96.1952 127.877C96.3321 128.038 96.4719 128.183 96.6222 128.32L96.66 128.352C98.1053 129.65 100.276 130.093 101.82 129.404C103.256 128.764 104.047 127.239 104.047 125.109V124.682L104.29 125.034C105.305 126.5 106.144 127.144 106.861 126.997C107.839 126.798 108.667 125.077 109.324 121.884L109.371 121.655L109.544 121.812C110.828 122.973 111.791 123.409 112.41 123.106C113.222 122.708 113.521 121.029 113.299 118.115L113.287 117.953L113.448 117.972C114.226 118.066 114.943 117.514 115.314 116.533C115.795 115.264 115.604 113.409 114.049 112.333L113.861 112.203L114.066 112.103C115.576 111.368 116.416 110.258 116.373 109.057C116.328 107.841 115.372 106.743 113.816 106.121L113.526 106.005L113.81 105.875C115.618 105.049 117.147 104.095 116.021 101.523L115.892 101.228L116.191 101.345C116.392 101.424 116.628 101.514 116.862 101.592L116.954 101.626C118.189 102.048 119.332 102.266 120.352 102.275L120.517 102.277L120.481 102.438C120.282 103.333 120.234 104.162 120.338 104.901C120.657 107.162 122.29 108.161 123.795 108.161C123.821 108.161 123.847 108.161 123.874 108.16C125.208 108.129 126.634 107.259 126.811 105.382C126.901 104.402 127.568 104.281 128.303 104.237C134.346 103.864 137.123 101.484 137.706 99.3799C138.123 97.8764 137.51 96.3856 136.065 95.3918C135.033 94.6794 133.634 94.2658 132.02 94.1958C126.099 94.0234 121.206 92.7226 117.48 90.33C116.913 89.9687 116.374 89.5807 115.877 89.177L115.642 88.9858L115.942 88.9418C116.664 88.8359 117.201 88.3989 117.417 87.7426C117.811 86.5426 117.106 84.9447 115.533 83.4685C115.41 83.3531 115.279 83.2352 115.141 83.1174L115.097 83.0796L115.094 83.0215L114.378 66.1082L114.409 66.0693C115.651 64.5102 116.868 62.6981 116.49 61.0795C116.217 59.9142 115.17 58.9187 113.289 58.0359L113.088 57.9415L113.267 57.8084C114.617 56.8001 116.158 55.4687 116.081 54.1134C116.028 53.1871 115.26 52.3044 113.733 51.4149L113.569 51.319L113.715 51.1971C114.838 50.2637 115.386 49.3431 115.387 48.383C115.389 47.3086 114.674 46.1639 113.261 44.9809L113.083 44.8321L113.301 44.7533C114.328 44.3819 115.05 43.3418 115.097 42.1651C115.145 40.9655 114.487 39.9657 113.291 39.4221L113.024 39.3008L113.291 39.1794C114.471 38.6432 115.133 37.7029 115.107 36.5997C115.079 35.3955 114.242 34.2894 112.973 33.7818L112.791 33.7092L113.112 33.369C115.097 31.2689 116.973 29.2852 112.913 23.4213L112.864 23.351L112.908 23.2775C113.953 21.5143 114.343 19.5035 113.924 18.0297C113.694 17.2246 113.238 16.6662 112.603 16.4149C111.71 16.0607 110.488 16.3213 109.069 17.1687L108.927 17.2534L108.875 17.0968C108.375 15.6127 107.693 14.76 106.848 14.5621C105.855 14.3284 104.582 14.9814 103.063 16.4999L102.944 16.6186L102.856 16.4761C101.771 14.7357 100.685 13.8462 99.5343 13.7567C98.4162 13.6713 97.2065 14.3721 95.9355 15.8441L95.8455 15.9484L95.7442 15.8551C92.7612 13.1056 89.9525 13.0246 86.9049 15.5994L86.8174 15.6736L86.731 15.5977C83.1348 12.4389 80.1404 12.2866 77.5785 15.1328L77.4868 15.2346L77.3874 15.1402C75.8173 13.6486 73.993 12.9483 72.5042 13.2673C71.3522 13.5144 70.4463 14.3704 69.8844 15.7428L69.8095 15.926L69.6678 15.7876C66.9104 13.0942 62.2938 13.8292 59.5983 16.0545L59.5001 16.1355L59.4145 16.0411C58.206 14.7068 56.5406 14.0239 54.9575 14.2134C53.7587 14.3574 52.0433 15.0569 50.6799 17.5719L50.5788 17.7582L50.4547 17.5865C49.6235 16.4376 48.4481 15.9607 47.1439 16.2446C45.6433 16.5708 44.3062 17.8415 44.0336 19.2L43.9958 19.3887L43.8326 19.2872C42.4637 18.4357 41.0412 18.3803 39.9292 19.1338C38.7853 19.9087 38.2247 21.4081 38.5004 22.9538L38.546 23.2084L38.3121 23.0976C37.1834 22.5633 35.7382 23.0907 34.7983 24.3806C33.7716 25.7886 33.3466 28.2579 35.5271 30.5837L35.6604 30.7261L35.4792 30.7986C33.8776 31.4394 32.8871 32.7889 32.8295 34.4082C32.773 36.0067 33.6463 37.481 35.0545 38.1641L35.3948 38.329L35.0264 38.4139C34.0335 38.6427 33.2829 39.5721 33.0178 40.9003C32.7306 42.341 33.0623 44.3492 34.4697 45.3542L34.6473 45.4811L34.453 45.5811C32.6972 46.4857 31.6247 48.2809 31.5104 50.5068C31.3664 53.3181 32.7621 56.1808 34.9837 57.6301L35.3399 57.8626L34.9147 57.8751C33.6359 57.9123 32.5444 59.0572 32.2601 60.6592C32.0064 62.0875 32.448 64.0505 34.527 64.8822L34.7837 64.9849L34.5433 65.1219C34.4421 65.1795 32.0817 66.567 33.5575 69.354L33.5974 69.4289L33.5461 69.4968C33.5328 69.5147 32.2127 71.3237 33.0514 75.2701C33.907 79.2964 35.2019 92.9633 35.2149 93.1009L35.2209 93.1661L35.173 93.211C35.1647 93.2187 34.3483 93.9946 34.3384 95.195C34.3293 96.1999 34.8717 97.2122 35.9504 98.2038L36.0528 98.2979L35.9546 98.3963C35.9392 98.4117 34.4165 99.9603 34.6784 101.648C34.8362 102.663 35.6036 103.534 36.9596 104.236L37.1546 104.338L36.9747 104.464C36.9401 104.488 33.5119 106.92 33.9337 108.872C34.155 109.896 35.4085 110.63 37.6595 111.055L37.8689 111.094L37.7418 111.265C37.7291 111.282 36.4795 112.993 36.8836 114.939C37.1523 116.234 38.0821 117.347 39.6473 118.249L39.8129 118.344L39.666 118.467C39.6462 118.483 37.696 120.132 38.0097 121.734C38.1995 122.703 39.178 123.476 40.9182 124.031L41.1574 124.107L40.9603 124.262C39.5322 125.388 38.8132 126.632 39.0369 127.59C39.1484 128.068 39.4983 128.402 39.9972 128.508C40.7956 128.678 42.0998 128.261 43.3655 126.586L43.7777 126.041L43.6009 126.701C43.0046 128.926 44.0188 130.653 45.2756 131.148C46.4393 131.606 48.1714 131.183 49.5368 128.614L49.7519 128.21L49.7873 128.667C49.8993 130.099 50.7845 131.198 51.9903 131.403C53.2467 131.616 54.414 130.795 55.1103 129.207L55.205 128.992L55.3412 129.184C56.407 130.687 57.4816 131.456 58.5414 131.439C59.6483 131.431 60.7892 130.586 61.9326 128.926L62.0399 128.77L62.1505 128.923C63.3798 130.625 64.8564 131.554 66.4206 131.61C67.9094 131.663 69.383 130.913 70.5664 129.5L70.7661 129.261L70.8012 129.57C70.9734 131.083 71.6168 132.086 72.6125 132.392C73.7699 132.748 75.2473 132.087 76.4701 130.666L76.5726 130.546Z" fill="#650000"/>
<path d="M79.958 133.442C78.7847 133.442 77.6109 132.903 76.5616 131.887C75.2084 133.16 73.6755 133.672 72.3436 133.263C71.3799 132.966 70.6485 132.209 70.2332 131.116C69.0716 132.077 67.7371 132.566 66.3873 132.52C65.2513 132.479 63.6369 132.035 62.0626 130.27C60.9234 131.659 59.7671 132.342 58.5466 132.35C58.5396 132.35 58.5326 132.35 58.5255 132.35C57.4303 132.35 56.3636 131.779 55.3434 130.649C54.3107 132.107 52.9184 132.483 51.8373 132.301C50.7781 132.121 49.9039 131.45 49.3834 130.491C47.9013 132.272 46.1906 132.488 44.9407 131.996C43.7557 131.529 42.7566 130.325 42.5468 128.672C41.6355 129.319 40.6806 129.584 39.8073 129.399C38.9608 129.22 38.3406 128.621 38.1482 127.797C37.9024 126.744 38.3632 125.555 39.4269 124.426C38.0932 123.79 37.317 122.946 37.1139 121.908C36.8446 120.53 37.6773 119.259 38.3473 118.493C37.0501 117.552 36.2583 116.421 35.9893 115.121C35.7081 113.762 36.0749 112.528 36.445 111.714C34.4254 111.173 33.3089 110.301 33.0418 109.063C32.6528 107.262 34.3911 105.423 35.5402 104.433C34.5262 103.693 33.9344 102.805 33.7766 101.785C33.555 100.354 34.2802 99.0677 34.8083 98.3495C33.8925 97.3455 33.4277 96.2974 33.4254 95.226C33.4227 94.1094 33.9394 93.275 34.2742 92.8517C34.0695 90.7253 32.929 79.0839 32.1586 75.459C31.4626 72.184 32.1466 70.2041 32.5591 69.3835C31.7342 67.5039 32.3185 66.0456 33.1106 65.1423C31.4475 63.9434 31.0975 61.9861 31.3616 60.4992C31.6032 59.1379 32.3336 58.0361 33.3051 57.4419C31.5206 55.6935 30.4661 53.0544 30.5992 50.4593C30.7098 48.3008 31.6185 46.4872 33.1324 45.3381C32.067 44.0336 31.8313 42.1831 32.1229 40.7214C32.3374 39.6452 32.8244 38.7698 33.499 38.1954C32.4614 37.2398 31.8654 35.85 31.9178 34.375C31.9764 32.7229 32.8156 31.303 34.212 30.4225C32.4068 27.926 32.946 25.3715 34.0604 23.8428C34.9676 22.5985 36.2792 21.9248 37.5222 21.9817C37.5782 20.5033 38.2646 19.159 39.4168 18.3783C40.5835 17.5879 42.0456 17.4894 43.461 18.0733C44.0969 16.7596 45.4374 15.6818 46.9491 15.353C48.2406 15.0719 49.466 15.3871 50.4369 16.2231C51.6024 14.5366 53.1405 13.5127 54.8479 13.3076C56.5086 13.1086 58.2315 13.7059 59.5806 14.9208C62.4102 12.9276 66.5458 12.3295 69.5067 14.464C70.3514 13.076 71.4627 12.5574 72.312 12.3753C73.9061 12.0338 75.7785 12.6262 77.4361 13.9704C80.1261 11.4189 83.2812 11.5918 86.8323 14.489C89.8314 12.2227 92.8336 12.2843 95.7721 14.6733C97.074 13.3469 98.3329 12.7467 99.6039 12.8473C100.86 12.9449 102.01 13.7205 103.102 15.2115C104.592 13.9044 105.892 13.4016 107.055 13.6738C108.029 13.9021 108.816 14.6674 109.403 15.9531C111.884 14.7686 113.276 15.5728 113.912 16.2066C115.355 17.6465 115.345 20.6326 113.935 23.3053C117.703 28.9635 116.111 31.4494 114.275 33.4579C115.331 34.2052 115.989 35.3488 116.018 36.5781C116.042 37.6335 115.592 38.5946 114.775 39.3052C115.606 40.0458 116.053 41.0666 116.007 42.2011C115.963 43.3176 115.446 44.3436 114.644 45.0134C115.757 46.1421 116.3 47.2513 116.298 48.3843C116.296 49.3523 115.879 50.2907 115.055 51.1835C116.296 52.0767 116.931 53.0238 116.99 54.0611C117.071 55.4881 116.024 56.7246 114.766 57.7858C116.241 58.6679 117.099 59.684 117.376 60.8712C117.823 62.78 116.672 64.6555 115.303 66.4074L115.99 82.6504C117.903 84.382 118.77 86.3351 118.314 87.9221C118.162 88.4529 117.869 88.8999 117.472 89.232C121.072 91.7135 126.077 93.1097 132.047 93.2841C136.621 93.4808 138.722 96.0826 138.744 98.4169C138.772 101.446 135.572 104.702 128.358 105.146C128.357 105.146 128.357 105.146 128.357 105.146C127.88 105.175 127.78 105.239 127.765 105.251C127.766 105.251 127.732 105.302 127.717 105.468C127.571 107.013 126.71 108.216 125.354 108.771C123.927 109.354 122.231 109.076 121.03 108.063C120.249 107.404 119.08 105.923 119.434 103.132C118.755 103.058 118.04 102.91 117.293 102.69C117.482 104.367 116.517 105.373 115.514 106.012C116.601 106.797 117.241 107.861 117.283 109.024C117.329 110.302 116.664 111.477 115.426 112.356C116.583 113.713 116.665 115.538 116.166 116.855C115.783 117.866 115.079 118.564 114.255 118.802C114.401 121.775 113.947 123.367 112.81 123.924C111.845 124.397 110.749 123.876 109.936 123.306C109.211 126.205 108.301 127.633 107.042 127.89C106.178 128.066 105.401 127.632 104.745 127.012C104.216 129.165 102.817 130.019 101.908 130.352C100.144 130.998 97.911 130.525 96.319 129.259C95.5217 130.537 94.2742 131.363 92.8814 131.484C91.799 131.578 90.7793 131.224 89.983 130.51C89.2105 131.734 87.9865 132.495 86.6723 132.495C86.666 132.495 86.6595 132.495 86.6533 132.495C85.556 132.489 84.5843 131.952 83.9125 131.029C82.9483 132.418 81.7414 133.251 80.4242 133.413C80.2691 133.432 80.1134 133.442 79.958 133.442ZM76.5704 129.974C76.5724 129.974 76.5745 129.974 76.5766 129.974C76.8055 129.975 77.0221 130.078 77.1685 130.254C78.1525 131.436 79.2156 131.995 80.2342 131.868C81.3786 131.727 82.4543 130.727 83.2633 129.051C83.4023 128.763 83.7012 128.587 84.0231 128.614C84.3423 128.638 84.6141 128.855 84.7081 129.161C85.0542 130.286 85.7664 130.934 86.6621 130.939C86.6652 130.939 86.6686 130.939 86.6715 130.939C87.526 130.939 88.5934 130.287 89.0602 128.828C89.1537 128.536 89.4102 128.326 89.7151 128.292C90.0171 128.257 90.3163 128.406 90.472 128.67C90.9925 129.553 91.8184 130.015 92.7464 129.933C93.8791 129.835 94.8821 128.975 95.3641 127.69C95.4612 127.431 95.6877 127.243 95.9598 127.196C96.2338 127.149 96.509 127.249 96.6871 127.46C97.8265 128.807 99.8854 129.435 101.373 128.89C102.7 128.404 103.401 127.097 103.401 125.109C103.401 124.768 103.623 124.468 103.948 124.366C104.273 124.265 104.626 124.386 104.82 124.666C105.994 126.364 106.58 126.396 106.731 126.365C106.908 126.329 107.831 125.937 108.692 121.754C108.748 121.48 108.947 121.257 109.212 121.171C109.478 121.084 109.769 121.146 109.976 121.333C111.542 122.75 112.07 122.554 112.125 122.527C112.21 122.485 112.948 122.008 112.655 118.163C112.637 117.931 112.724 117.703 112.893 117.542C113.061 117.381 113.291 117.304 113.524 117.331C114.082 117.4 114.505 116.845 114.71 116.304C115.105 115.262 114.951 113.742 113.681 112.863C113.453 112.706 113.327 112.44 113.348 112.164C113.369 111.888 113.534 111.644 113.783 111.523C115.053 110.905 115.761 110.015 115.727 109.08C115.693 108.127 114.888 107.244 113.575 106.719C113.286 106.604 113.094 106.327 113.086 106.015C113.079 105.704 113.258 105.418 113.541 105.289C115.514 104.387 116.255 103.667 115.429 101.782C115.303 101.493 115.363 101.156 115.582 100.929C115.801 100.702 116.135 100.63 116.429 100.746C117.884 101.322 119.206 101.619 120.358 101.63C120.592 101.632 120.814 101.74 120.96 101.924C121.106 102.108 121.161 102.348 121.11 102.578C120.685 104.486 121.013 106.012 122.034 106.873C122.797 107.517 123.869 107.696 124.766 107.33C125.579 106.998 126.077 106.285 126.167 105.322C126.319 103.711 127.679 103.628 128.262 103.593C134.424 103.213 137.208 100.651 137.188 98.4316C137.169 96.4477 135.032 94.9707 131.991 94.84C125.1 94.6386 119.384 92.8534 115.47 89.6778C115.231 89.4834 115.128 89.1657 115.21 88.868C115.291 88.5703 115.541 88.3489 115.846 88.3036C116.344 88.2295 116.69 87.9417 116.818 87.4929C117.052 86.6792 116.624 85.2313 114.721 83.6076C114.557 83.4672 114.458 83.2646 114.449 83.0485L113.735 66.1851C113.727 65.9979 113.787 65.814 113.904 65.6675C115.049 64.2291 116.177 62.5767 115.861 61.2261C115.639 60.279 114.682 59.402 113.015 58.6197C112.767 58.5034 112.599 58.2658 112.571 57.9937C112.543 57.7216 112.661 57.455 112.88 57.2913C114.006 56.4507 115.496 55.2102 115.436 54.1498C115.388 53.298 114.306 52.4954 113.408 51.9721C113.188 51.8441 113.045 51.6172 113.024 51.3639C113.003 51.1107 113.107 50.8632 113.302 50.7009C114.256 49.9084 114.74 49.128 114.742 48.3817C114.743 47.5075 114.105 46.5297 112.846 45.4753C112.632 45.2965 112.53 45.0171 112.579 44.7429C112.628 44.4686 112.819 44.2412 113.081 44.1465C113.852 43.8678 114.416 43.0422 114.452 42.1392C114.474 41.596 114.317 40.5971 113.023 40.009C112.746 39.8827 112.567 39.6057 112.567 39.3005C112.567 38.9953 112.746 38.7183 113.023 38.592C113.97 38.1615 114.481 37.4591 114.462 36.6143C114.44 35.6689 113.761 34.792 112.732 34.3803C112.493 34.2848 112.317 34.0773 112.261 33.8259C112.206 33.5746 112.278 33.312 112.454 33.1245L112.642 32.9256C114.521 30.9383 116.144 29.2219 112.382 23.7882C112.208 23.538 112.197 23.2096 112.352 22.9478C113.757 20.5821 113.685 18.1789 112.812 17.3091C111.926 16.4245 110.293 17.188 109.399 17.722C109.197 17.8432 108.951 17.8657 108.73 17.784C108.51 17.7025 108.338 17.5254 108.262 17.3024C107.971 16.4373 107.463 15.3685 106.7 15.1897C105.951 15.0142 104.849 15.6244 103.519 16.9556C103.351 17.1235 103.114 17.2056 102.88 17.1785C102.644 17.1516 102.433 17.0183 102.308 16.8168C101.353 15.2842 100.403 14.4709 99.4834 14.3995C98.5864 14.3304 97.5527 14.9569 96.4227 16.2653C96.2849 16.4248 96.0883 16.5217 95.8779 16.5338C95.6675 16.545 95.4613 16.4718 95.3061 16.329C92.5723 13.8089 90.1094 13.7353 87.3204 16.0916C87.0261 16.3403 86.5942 16.3364 86.3044 16.0819C81.9422 12.2502 79.5084 13.9515 78.057 15.564C77.9164 15.7201 77.7188 15.8127 77.5089 15.821C77.3004 15.8292 77.0949 15.7522 76.9423 15.6074C75.548 14.2826 73.8979 13.6281 72.6387 13.8975C71.6909 14.1007 70.9647 14.8036 70.4804 15.9867C70.3822 16.2262 70.1716 16.4014 69.9179 16.4539C69.6654 16.5061 69.4016 16.4295 69.2162 16.2486C66.7147 13.8049 62.4887 14.5037 60.008 16.5513C59.6872 16.8161 59.2149 16.7822 58.9355 16.4735C57.8674 15.2938 56.4087 14.6873 55.0334 14.8533C53.531 15.0338 52.2213 16.0799 51.2461 17.8787C51.1185 18.114 50.8792 18.2672 50.612 18.2845C50.3511 18.3022 50.0881 18.181 49.9311 17.964C49.0703 16.7739 48.0136 16.7141 47.2801 16.8743C46.0352 17.1449 44.8867 18.222 44.6651 19.3264C44.6149 19.5766 44.4451 19.7864 44.2107 19.8877C43.9769 19.9891 43.7079 19.9692 43.4907 19.8342C42.3487 19.1235 41.1822 19.0626 40.2898 19.6673C39.3569 20.2994 38.9033 21.5447 39.1345 22.84C39.1855 23.1267 39.0723 23.4181 38.8408 23.5951C38.6093 23.7721 38.2984 23.8049 38.0352 23.6801C37.1902 23.2802 36.0734 23.7242 35.3183 24.76C34.3948 26.0269 34.088 28.1059 35.9967 30.1419C36.1724 30.3295 36.2443 30.5919 36.1886 30.8429C36.1328 31.0939 35.9566 31.3013 35.7178 31.3968C34.3404 31.948 33.5223 33.0537 33.4733 34.4304C33.4256 35.7739 34.1566 37.0114 35.335 37.5831C35.6321 37.7271 35.8061 38.0428 35.7688 38.3708C35.7319 38.6988 35.4918 38.9677 35.1702 39.0419C34.4317 39.2119 33.8633 39.9536 33.6495 41.0259C33.4014 42.2696 33.6693 43.9901 34.8434 44.8287C35.0642 44.9863 35.1871 45.2476 35.1673 45.5183C35.1478 45.7888 34.9887 46.0297 34.7476 46.154C32.6304 47.2445 32.2135 49.3695 32.1536 50.5391C32.0208 53.129 33.2993 55.7614 35.335 57.0893C35.6201 57.2752 35.7511 57.6246 35.6589 57.9521C35.5667 58.2796 35.2725 58.5093 34.9324 58.5192C33.8008 58.5521 33.0824 59.7098 32.8941 60.7714C32.6725 62.0185 33.048 63.5958 34.7655 64.2829C35.0433 64.394 35.2329 64.6545 35.253 64.9529C35.2733 65.2513 35.1207 65.535 34.8603 65.6825C34.5437 65.8685 32.997 66.9181 34.1268 69.0516C34.2687 69.3198 34.2419 69.646 34.0581 69.8874C34.0531 69.8948 32.916 71.535 33.6813 75.1355C34.5447 79.1981 35.8029 92.4765 35.856 93.0399C35.8787 93.2808 35.7881 93.5187 35.6107 93.6834C35.6094 93.6847 34.971 94.3112 34.9819 95.2425C34.9916 96.0439 35.4639 96.8804 36.3861 97.7288C36.5424 97.8722 36.633 98.0734 36.6374 98.2853C36.6419 98.4974 36.5598 98.702 36.4099 98.8519C36.3984 98.8635 35.1012 100.196 35.3157 101.553C35.442 102.352 36.0945 103.062 37.2556 103.663C37.4969 103.789 37.6558 104.031 37.6738 104.302C37.692 104.574 37.567 104.835 37.3444 104.991C36.3276 105.707 34.3094 107.564 34.5635 108.736C34.7204 109.461 35.8623 110.059 37.7781 110.42C38.0419 110.47 38.2614 110.652 38.3591 110.902C38.4564 111.152 38.4184 111.435 38.258 111.65C38.2489 111.663 37.1673 113.164 37.5162 114.818C37.749 115.92 38.5739 116.886 39.9682 117.689C40.1888 117.817 40.3333 118.043 40.3551 118.297C40.377 118.551 40.2737 118.799 40.0781 118.962C39.6115 119.354 38.4414 120.597 38.6421 121.612C38.8194 122.508 40.0838 123.087 41.1134 123.416C41.3876 123.503 41.5915 123.735 41.6428 124.018C41.6943 124.302 41.585 124.59 41.359 124.768C39.9131 125.908 39.5423 126.922 39.6641 127.443C39.7186 127.677 39.8756 127.823 40.1302 127.877C40.7064 127.999 41.7654 127.633 42.8502 126.197C43.0749 125.899 43.478 125.803 43.8128 125.966C44.1474 126.13 44.3193 126.508 44.2229 126.867C43.7235 128.732 44.514 130.155 45.511 130.548C46.6684 131.003 47.9912 130.146 48.9666 128.311C49.1291 128.006 49.4735 127.844 49.8125 127.915C50.1513 127.985 50.4028 128.271 50.4296 128.616C50.5317 129.924 51.3407 130.638 52.0972 130.766C53.0471 130.927 53.9492 130.247 54.519 128.948C54.6315 128.691 54.8736 128.514 55.1528 128.486C55.4293 128.457 55.7045 128.581 55.8665 128.81C56.7997 130.126 57.6942 130.794 58.5258 130.794C58.5291 130.794 58.5326 130.794 58.5362 130.794C59.4199 130.788 60.3838 130.036 61.4007 128.559C61.5442 128.351 61.78 128.225 62.0329 128.223C62.2967 128.219 62.5248 128.34 62.6727 128.545C63.7811 130.079 65.0848 130.916 66.443 130.965C67.7251 131.008 69.0182 130.343 70.0712 129.085C70.2709 128.846 70.5938 128.749 70.8919 128.839C71.1901 128.929 71.4062 129.187 71.4414 129.497C71.5827 130.74 72.066 131.549 72.8016 131.775C73.7091 132.055 74.9274 131.468 75.9804 130.244C76.1282 130.072 76.3438 129.974 76.5704 129.974Z" fill="#650000"/>
<path d="M115.543 89.5923C115.289 89.476 115.077 89.3022 114.884 89.1095C114.69 88.918 114.528 88.6922 114.374 88.4638C114.069 88.0032 113.81 87.5082 113.663 86.9476C113.648 86.8913 113.682 86.8338 113.738 86.819C113.762 86.8126 113.788 86.8157 113.809 86.8255C114.329 87.0651 114.777 87.3368 115.216 87.606C115.433 87.7426 115.652 87.8726 115.847 88.0272C116.044 88.1808 116.23 88.344 116.38 88.5548L116.389 88.5663C116.61 88.8754 116.538 89.3051 116.229 89.5261C116.022 89.6744 115.76 89.6906 115.543 89.5923Z" fill="#650000"/>
<path d="M106.592 94.7459C107.554 95.1131 108.318 95.7017 109.087 96.2852C109.477 96.5702 109.868 96.8525 110.267 97.1237C110.658 97.4051 111.059 97.6703 111.46 97.9357C112.26 98.4686 113.081 98.9609 113.905 99.4406C114.733 99.9131 115.578 100.338 116.43 100.746L116.451 100.756C116.839 100.942 117.003 101.407 116.817 101.795C116.644 102.156 116.225 102.322 115.855 102.193C114.89 101.852 113.958 101.431 113.069 100.948C112.181 100.463 111.321 99.934 110.498 99.3586C110.088 99.0687 109.678 98.7789 109.28 98.4741C108.883 98.1694 108.494 97.8539 108.108 97.5362C107.331 96.9066 106.581 96.2404 106.09 95.2834C105.992 95.0913 106.067 94.8558 106.259 94.7574C106.362 94.7051 106.476 94.7021 106.576 94.7396L106.592 94.7459Z" fill="#650000"/>
<g opacity="0.6">
<path d="M41.5687 27.4744C41.5588 26.6955 41.7393 25.8593 42.262 25.1691C42.7625 24.4729 43.67 23.9923 44.6047 24.026C45.5413 24.0413 46.4119 24.4859 47.0632 25.0788C47.3935 25.376 47.6758 25.714 47.9267 26.0674C48.1739 26.4234 48.374 26.8024 48.5573 27.1859L47.1714 27.2872C47.3327 26.6121 47.6944 25.9236 48.2706 25.427C48.8464 24.9342 49.581 24.6598 50.304 24.6161C51.028 24.5745 51.7583 24.7228 52.4014 25.1017C52.722 25.2905 53.0213 25.5375 53.2655 25.8463C53.5077 26.1554 53.688 26.529 53.7711 26.9208L52.3879 26.8567C52.6898 26.0322 53.2274 25.3398 53.8821 24.826C54.5353 24.3119 55.3244 23.9586 56.1653 23.8842C56.5838 23.8452 57.014 23.8872 57.4165 24.0123C57.8195 24.1383 58.1835 24.3635 58.4801 24.6368C59.0818 25.1907 59.3749 25.9353 59.5132 26.6528C59.3318 26.3299 59.1315 26.0267 58.9069 25.7551C58.681 25.4838 58.4132 25.2621 58.134 25.091C57.5671 24.7481 56.914 24.6987 56.3141 24.8486C55.7106 25.0002 55.1529 25.3414 54.704 25.777C54.2569 26.2158 53.9174 26.7529 53.753 27.3137C53.6425 27.6904 53.2476 27.9063 52.8708 27.7959C52.632 27.7259 52.4579 27.5415 52.3906 27.3199L52.3697 27.2496C52.2695 26.9107 52.0132 26.6228 51.6492 26.4241C51.2859 26.2309 50.8362 26.1315 50.4073 26.1664C49.9776 26.1969 49.5729 26.3432 49.2647 26.6015C48.9471 26.8512 48.7318 27.2248 48.592 27.6615L48.5752 27.7143C48.4526 28.0971 48.0427 28.3082 47.6598 28.1856C47.446 28.1171 47.2844 27.9559 47.2061 27.7628C46.9451 27.111 46.6071 26.4964 46.1558 26.0051C45.7117 25.5108 45.1475 25.1454 44.5254 25.0368C43.9083 24.9277 43.2311 25.1055 42.702 25.5724C42.4404 25.8046 42.2091 26.092 42.0212 26.4163C41.8363 26.742 41.6866 27.099 41.5687 27.4744Z" fill="#650000"/>
<path d="M68.2906 26.9988C68.1411 26.3187 68.4504 25.568 68.9699 25.0541C69.4919 24.5341 70.2144 24.2115 70.9773 24.1708C71.7334 24.1222 72.5647 24.3963 73.1015 24.9782C73.6442 25.5563 73.8076 26.3489 73.6091 26.9988C73.1663 26.4691 72.7585 26.1119 72.3392 25.9359C71.926 25.7557 71.5081 25.7059 71.0591 25.7248C70.6117 25.7483 70.1465 25.85 69.6872 26.0409C69.2247 26.2345 68.771 26.5091 68.2906 26.9988Z" fill="#650000"/>
<path d="M78.1924 35.8666C78.2623 35.0233 78.7206 34.1782 79.51 33.6359C79.9022 33.3665 80.3767 33.1816 80.8877 33.1284C81.3989 33.0802 81.9449 33.1777 82.4284 33.4304C82.6634 33.5667 82.8888 33.727 83.0739 33.9255C83.2628 34.1208 83.4117 34.3464 83.5299 34.5796C83.7623 35.0508 83.8415 35.5553 83.8164 36.021C83.7552 36.9569 83.3589 37.757 82.7757 38.3708C82.7597 37.5214 82.7593 36.7565 82.5958 36.112C82.5123 35.7938 82.397 35.5143 82.2401 35.2982C82.0855 35.0818 81.9051 34.9171 81.6915 34.8012C81.4768 34.687 81.227 34.6193 80.9512 34.6C80.6746 34.587 80.3763 34.6272 80.0699 34.7197C79.4505 34.9031 78.838 35.314 78.1924 35.8666Z" fill="#650000"/>
<path d="M90.1914 26.8151C90.3824 26.2429 90.6553 25.6973 91.0576 25.2017C91.2653 24.9605 91.495 24.7182 91.7965 24.535C92.0822 24.3314 92.4484 24.2148 92.8288 24.1511C93.0177 24.1472 93.2197 24.1312 93.4069 24.1619C93.5907 24.1984 93.7938 24.2192 93.9573 24.2964C94.3124 24.4179 94.6177 24.6013 94.8951 24.8027C95.0272 24.9072 95.1616 25.0113 95.2914 25.1195L95.6346 25.4671C95.8692 25.6971 96.0437 25.9535 96.2465 26.1997L94.8884 26.3917C95.1381 25.6907 95.575 25.0124 96.1962 24.5253C96.8147 24.0378 97.5958 23.7691 98.3518 23.7661C99.1096 23.7537 99.8357 23.9922 100.422 24.3845C101.009 24.778 101.464 25.3267 101.704 25.9395C101.181 25.539 100.638 25.2514 100.08 25.0965C99.5261 24.9421 98.9662 24.9081 98.4588 25.0136C97.9519 25.1192 97.5047 25.3457 97.1537 25.6747C96.7979 25.9999 96.5372 26.4283 96.3475 26.9143C96.1895 27.3192 95.7331 27.5193 95.3283 27.3612C95.1906 27.3074 95.0767 27.2193 94.9925 27.1105L94.9894 27.1061C94.667 26.687 94.3506 26.2478 93.9895 25.9346C93.6293 25.6153 93.266 25.3876 92.8746 25.3413C92.4837 25.3003 92.0089 25.4581 91.5497 25.748C91.0864 26.033 90.647 26.4214 90.1914 26.8151Z" fill="#650000"/>
<path d="M97.1738 32.923C97.7903 32.7595 98.5256 32.7916 99.1561 33.1875C99.789 33.5709 100.231 34.3096 100.317 35.0707C100.407 35.8331 100.227 36.5885 99.9119 37.2373C99.5907 37.8873 99.145 38.444 98.6524 38.9348L98.4876 37.6897C99.2114 38.0819 99.9132 38.5953 100.435 39.3129C100.962 40.0167 101.27 40.9527 101.171 41.863L101.157 42.0323C101.146 42.0878 101.131 42.1428 101.119 42.1979L101.036 42.5252C100.969 42.7384 100.862 42.9357 100.774 43.135C100.652 43.3167 100.537 43.5015 100.401 43.6647C100.329 43.7433 100.256 43.82 100.182 43.8948C100.108 43.9697 100.038 44.0475 99.9519 44.1069C99.3092 44.6357 98.5382 44.9203 97.7791 44.9868C98.4233 44.5744 98.9795 44.1031 99.36 43.5503C99.4643 43.4203 99.5236 43.2616 99.611 43.1285C99.6831 42.9853 99.7263 42.8313 99.7889 42.6913C99.816 42.5383 99.8662 42.3947 99.8794 42.2462L99.8954 42.0254C99.898 41.9889 99.9032 41.953 99.9043 41.9167L99.8924 41.8075C99.8587 41.229 99.6169 40.6925 99.2351 40.2295C98.8492 39.7674 98.3337 39.3816 97.7627 39.0527L97.7471 39.0438C97.3749 38.8293 97.2469 38.3538 97.4613 37.9815C97.4985 37.9169 97.5466 37.857 97.5978 37.8076C98.0005 37.4225 98.3712 37.0147 98.6549 36.5633C98.9352 36.1127 99.1191 35.6216 99.161 35.127C99.1895 34.6362 99.0596 34.1442 98.711 33.7402C98.6733 33.6833 98.6225 33.6401 98.5698 33.5975L98.4144 33.4591C98.3005 33.3796 98.1758 33.3077 98.0498 33.2266L97.6307 33.0528C97.4832 33.0103 97.3311 32.9718 97.1738 32.923Z" fill="#650000"/>
<path d="M97.5205 50.0024C98.1544 49.7604 98.8985 49.8096 99.5595 50.1783C99.725 50.2671 99.8735 50.3971 100.026 50.5199C100.162 50.6629 100.297 50.8163 100.407 50.9896C100.505 51.1734 100.615 51.3542 100.662 51.5654C100.69 51.6685 100.713 51.7737 100.736 51.8782C100.746 51.9846 100.749 52.0927 100.753 52.2004C100.767 52.4184 100.712 52.6246 100.669 52.8322C100.649 52.9379 100.602 53.0292 100.561 53.1236C100.519 53.2171 100.478 53.3112 100.43 53.4008C100.322 53.568 100.201 53.722 100.076 53.8695C99.9404 53.9996 99.7952 54.1166 99.6517 54.2291C99.0469 54.6319 98.3651 54.7827 97.6936 54.7155C98.1276 54.1816 98.5276 53.7699 98.8046 53.3454C99.0875 52.9244 99.2009 52.5359 99.1968 52.2033C99.1943 51.8725 99.0964 51.5052 98.798 51.1313C98.5109 50.752 98.0763 50.3994 97.5205 50.0024Z" fill="#650000"/>
<path d="M100.593 98.5493C101.136 98.7384 101.627 99.1088 101.998 99.6009C102.178 99.8515 102.329 100.138 102.418 100.463C102.507 100.787 102.51 101.153 102.424 101.501C102.335 101.849 102.16 102.172 101.94 102.436C101.72 102.7 101.468 102.918 101.203 103.104C100.67 103.467 100.1 103.714 99.5297 103.906L99.4649 102.539C100.27 102.669 101.119 103.006 101.745 103.682C102.056 104.014 102.31 104.418 102.456 104.864C102.6 105.309 102.643 105.785 102.591 106.24C102.483 107.159 102.013 107.95 101.439 108.537C101.149 108.833 100.834 109.089 100.504 109.313C100.173 109.534 99.8258 109.714 99.4762 109.88L99.2414 108.532C99.6492 108.59 100.061 108.692 100.465 108.856C100.868 109.019 101.264 109.262 101.593 109.601C101.924 109.937 102.155 110.389 102.248 110.847C102.34 111.307 102.291 111.764 102.175 112.173C101.932 112.995 101.424 113.637 100.857 114.152C100.287 114.669 99.6317 115.057 98.9471 115.337C99.2303 115.097 99.4996 114.85 99.7544 114.594C100.007 114.335 100.233 114.058 100.444 113.778C100.651 113.496 100.83 113.197 100.964 112.89C101.105 112.586 101.202 112.27 101.241 111.965C101.28 111.661 101.255 111.368 101.172 111.116C101.081 110.867 100.935 110.659 100.734 110.492C100.329 110.159 99.7217 109.996 99.0856 109.948C98.6977 109.919 98.4066 109.581 98.4356 109.193C98.4539 108.946 98.5977 108.739 98.7997 108.628L98.8508 108.6C99.4161 108.296 99.9314 107.927 100.329 107.493C100.722 107.059 100.995 106.556 101.047 106.059C101.112 105.562 100.96 105.085 100.629 104.704C100.3 104.322 99.7856 104.052 99.208 103.921L99.1469 103.908C98.7727 103.823 98.5378 103.451 98.6223 103.077C98.683 102.809 98.8922 102.612 99.1432 102.554C99.65 102.436 100.137 102.279 100.569 102.066C100.995 101.849 101.36 101.572 101.536 101.204C101.724 100.843 101.713 100.348 101.524 99.8682C101.335 99.3898 101.019 98.9271 100.593 98.5493Z" fill="#650000"/>
<path d="M62.0278 110.559C61.6919 111.306 61.4127 111.967 61.3369 112.595C61.2481 113.218 61.359 113.758 61.6143 114.191C61.8759 114.62 62.3007 114.965 62.8875 115.179C63.4756 115.398 64.188 115.454 65.0076 115.488C64.4229 116.057 63.6011 116.414 62.6894 116.387C62.2363 116.373 61.7671 116.25 61.3407 116.013C60.9153 115.777 60.5379 115.422 60.2796 114.991C60.0251 114.557 59.8862 114.061 59.8777 113.575C59.8664 113.088 59.9825 112.619 60.1785 112.213C60.5731 111.396 61.2601 110.831 62.0278 110.559Z" fill="#650000"/>
<path d="M85.9424 106.62C86.7116 106.287 87.6226 106.237 88.4937 106.574C88.9258 106.744 89.3426 107.023 89.6746 107.409C90.0034 107.798 90.2296 108.297 90.3047 108.817C90.3699 109.339 90.2867 109.864 90.0988 110.315C89.9099 110.768 89.6307 111.154 89.306 111.463C88.6539 112.083 87.858 112.442 87.0234 112.544C87.5409 111.879 88.0232 111.299 88.3494 110.7C88.6835 110.107 88.8254 109.525 88.7625 109.025C88.7277 108.774 88.6404 108.535 88.502 108.3C88.3579 108.069 88.1562 107.848 87.9065 107.644C87.4042 107.23 86.7239 106.929 85.9424 106.62Z" fill="#650000"/>
</g>
<g opacity="0.3">
<path d="M128.311 104.37C127.761 104.403 127.366 104.484 127.146 104.782C124.23 100.206 120.38 103.84 120.255 103.96C120.304 103.047 120.351 102.408 120.351 102.408C118.888 102.167 117.554 101.84 116.356 101.467L116.82 101.718C116.594 101.643 116.369 101.557 116.143 101.469C117.297 104.105 115.733 105.143 113.865 105.996C117.181 107.322 117.497 110.581 114.125 112.223C116.843 114.104 115.601 118.364 113.432 118.104C113.837 123.407 112.511 124.676 109.455 121.91C108.126 128.37 106.264 128.121 104.18 125.109C104.18 130.625 99.1473 130.765 96.571 128.451C101.067 127.812 98.9475 124.331 98.9475 124.331C102.624 121.822 100.029 119.402 100.029 119.402C102.709 116.374 99.6946 114.833 99.6946 114.833C103.783 110.944 100.084 108.993 100.084 108.993C103.067 105.101 100.281 102.896 100.281 102.896C102.665 100.968 102.006 99.6635 101.303 99.0097C101.202 98.9941 101.093 98.9578 100.971 98.9059C99.6869 96.0521 96.942 98.1665 96.942 98.1665C95.0014 96.1274 93.3852 98.7969 93.3852 98.7969C90.8712 96.2207 89.2834 99.3807 89.2834 99.3807C87.0782 97.1339 85.2155 100.034 85.2155 100.034C82.1204 97.6606 80.4574 100.538 80.4574 100.538C78.8307 98.4104 76.6307 100.849 76.6307 100.849C74.6798 98.317 72.8715 101.077 72.8715 101.077C69.8879 98.125 67.4207 100.932 67.1301 101.287H67.0653C65.0883 99.3314 61.4225 101.241 61.2695 101.321H61.2617C59.1213 99.5259 56.7864 101.217 56.7864 101.217C55.9614 98.5894 53.3359 100.942 53.2295 101.038C53.2269 101.038 53.2244 101.038 53.2244 101.038C51.8286 99.3184 49.6156 100.693 49.53 100.748C49.53 100.748 49.5274 100.751 49.5248 100.748C47.3897 97.7332 44.5955 100.143 44.5955 100.143C42.7769 97.684 40.6028 99.3807 40.6028 99.3807C39.3367 95.8964 36.6827 98.1691 36.6827 98.1691C36.5349 98.1068 36.3895 98.0446 36.2495 97.9823C35.4063 97.1417 34.7343 96.2 34.2051 95.1934C34.2154 93.9169 35.082 93.1127 35.082 93.1127C44.8861 97.5153 74.48 97.4219 93.1336 93.7509C93.1361 93.7509 93.1413 93.7509 93.144 93.7483C93.4916 93.6808 93.8367 93.6108 94.1765 93.5408C95.8266 93.1957 97.3806 92.8221 98.8178 92.42C99.5106 92.0931 100.201 91.761 100.888 91.4237C105.976 88.9384 110.887 86.2532 115.624 83.3708C115.712 83.4564 115.803 83.5395 115.884 83.6251C115.956 83.6977 116.026 83.7704 116.094 83.8431C116.104 83.8535 116.115 83.8639 116.125 83.8768C116.187 83.9442 116.247 84.0091 116.304 84.0765C116.332 84.1077 116.361 84.1414 116.387 84.1725C116.439 84.2347 116.488 84.297 116.537 84.3593C116.615 84.4554 116.688 84.5539 116.758 84.6499C116.807 84.7225 116.854 84.7925 116.901 84.8626C116.953 84.943 117.002 85.0234 117.049 85.1013C117.095 85.1817 117.139 85.2595 117.181 85.3374C117.217 85.4074 117.253 85.4775 117.282 85.5475C117.362 85.7162 117.43 85.8822 117.482 86.0457C117.503 86.1053 117.521 86.165 117.536 86.2247C117.541 86.2428 117.547 86.2636 117.552 86.2817C117.567 86.3389 117.58 86.3959 117.591 86.453C117.604 86.51 117.614 86.5671 117.622 86.6242C117.624 86.6372 117.624 86.6502 117.627 86.6631C117.637 86.7306 117.645 86.7954 117.648 86.8629C117.653 86.9277 117.656 86.9926 117.656 87.0575C117.656 87.3195 117.617 87.5634 117.544 87.7839H117.541C117.313 88.4843 116.74 88.9591 115.961 89.0733C116.462 89.4806 116.994 89.862 117.552 90.2174C117.015 90.1655 116.517 90.1395 116.05 90.1395C113.957 90.1395 112.555 90.6384 111.629 91.3886C110.253 92.5034 110.292 94.6229 111.684 95.7177C118.269 100.897 137.917 103.515 136.14 95.2815C139.923 97.8838 138.073 103.768 128.311 104.37Z" fill="#650000"/>
</g>
<g opacity="0.3">
<path d="M114.514 66.1523L115.227 83.0157C115.367 83.135 115.499 83.2543 115.624 83.3711C110.887 86.2534 105.975 88.9386 100.888 91.424L100.592 73.9146C102.195 70.5419 100.543 69.1565 100.543 69.1565C102.79 66.4766 100.543 64.6605 100.543 64.6605C102.097 62.24 100.543 60.5692 100.543 60.5692C102.271 54.8331 99.57 51.0453 99.57 51.0453C100.714 49.8856 99.4221 48.0125 99.4221 48.0125C101.456 45.5478 99.2146 44.2351 99.2146 44.2351C101.773 40.6315 98.8592 38.2836 98.8592 38.2836C100.413 33.6578 98.182 33.0611 98.182 33.0611C99.9229 27.9658 96.5684 25.3895 96.5684 25.3895C98.2625 23.96 99.7932 24.1157 101.21 25.3895C101.22 22.8808 102.585 22.3593 105.174 23.6253C105.044 20.0814 107.898 21.1191 107.898 21.1191C111.66 14.4153 114.049 17.9929 114.049 17.9929C114.049 17.9929 114.049 17.9929 114.052 17.9929C114.462 19.4354 114.119 21.4953 113.022 23.3451C117.274 29.486 115.045 31.507 113.022 33.6577C115.616 34.6954 116.2 38.0033 113.346 39.3004C116.2 40.5976 115.499 44.1 113.346 44.8784C116.311 47.3612 116.026 49.4496 113.8 51.2994C117.871 53.6707 116.161 55.8135 113.346 57.915C118.338 60.2579 116.893 63.1636 114.514 66.1523Z" fill="#650000"/>
</g>
<path d="M132.884 70.0359C132.399 71.3383 131.538 72.4669 130.43 73.3074C120.745 80.6391 110.217 87.0238 98.8177 92.4201C97.3804 92.8222 95.8264 93.1958 94.1763 93.5409C93.8365 93.6109 93.4914 93.681 93.1438 93.7484C93.1412 93.751 93.136 93.751 93.1334 93.751C74.4799 97.4221 44.8859 97.5155 35.0818 93.1128C28.2508 86.2792 32.6379 72.817 32.6379 72.817C32.6379 72.817 33.1801 77.8371 40.4444 79.0331C53.4084 81.5055 77.6217 81.4615 93.9091 77.3987C95.1414 77.0925 96.3426 76.6852 97.5049 76.1819H97.5075C98.5271 75.7435 99.513 75.2324 100.465 74.6564L114.514 66.1521C120.909 61.6301 126.865 57.0796 131.896 52.4668C134.975 55.5153 135.045 64.2583 132.884 70.0359Z" fill="#6D445B"/>
<g opacity="0.55">
<path d="M35.65 93.3542C35.4528 93.2764 35.2634 93.1959 35.0818 93.1129C28.2508 86.2793 32.6379 72.8171 32.6379 72.8171C32.6379 72.8171 32.7988 74.3141 34.1348 75.8681C33.3228 79.0774 31.691 87.6544 35.65 93.3542Z" fill="white"/>
</g>
<g opacity="0.55">
<path d="M99.8449 77.7437C99.684 77.819 99.5231 77.8916 99.3597 77.9617H99.3571C98.1948 78.465 96.9936 78.8723 95.7613 79.1784C79.4739 83.2412 55.2606 83.2853 42.2965 80.8129C38.641 80.211 36.6901 78.6414 35.6523 77.23C36.7783 78.0109 38.3272 78.6855 40.4442 79.0331C53.4082 81.5055 77.6215 81.4614 93.9089 77.3986C95.1412 77.0925 96.3424 76.6852 97.5047 76.1819H97.5073C98.5554 76.2571 99.326 76.8357 99.8449 77.7437Z" fill="white"/>
</g>
<path d="M61.9165 97.2412C49.6257 97.2412 39.5873 95.9886 34.7627 93.823C34.6765 93.7842 34.5979 93.7301 34.531 93.6633C27.4441 86.5745 31.7123 73.1431 31.8974 72.5748C32.011 72.2259 32.3536 72.0035 32.7179 72.0418C33.083 72.0798 33.3717 72.3675 33.4113 72.7323C33.4326 72.9089 34.0271 77.1888 40.5703 78.2646C53.294 80.6906 77.219 80.7589 93.7208 76.6442C95.9309 76.0932 98.0642 75.2005 100.062 73.9911L114.086 65.5007C121.379 60.343 126.872 56.0189 131.369 51.8933C131.675 51.6131 132.148 51.6215 132.443 51.9139C135.804 55.2419 135.833 64.3707 133.613 70.3095C133.081 71.7347 132.142 72.9856 130.9 73.9267C121.159 81.3024 110.477 87.761 99.1503 93.1237C99.1105 93.1425 99.0693 93.1579 99.0269 93.1697C90.5861 95.5296 77.6515 97.0453 64.4269 97.224C63.5812 97.2355 62.7428 97.2412 61.9165 97.2412ZM35.5316 92.4611C46.109 97.0767 80.6775 96.6619 98.5442 91.6884C109.752 86.3771 120.321 79.9839 129.96 72.6858C130.967 71.9231 131.726 70.9129 132.155 69.7646C134.249 64.1618 134.038 56.6683 131.825 53.584C127.386 57.5957 122.003 61.8094 114.963 66.7877C114.948 66.7984 114.932 66.8086 114.916 66.8181L100.868 75.3227C98.7371 76.613 96.459 77.5659 94.0973 78.1547C77.3914 82.3205 53.1643 82.2509 40.2982 79.7971C35.9207 79.0777 33.8048 77.0388 32.788 75.3619C31.9238 79.3762 30.8802 87.6767 35.5316 92.4611Z" fill="#650000"/>
<path d="M72.9055 73.4178C73.8514 76.4699 72.8158 80.1167 70.218 82.2381C69.3267 82.9661 68.2486 83.5148 67.0055 83.7971C64.6754 84.3453 62.5415 83.7936 60.8416 82.5985C58.1706 80.7211 56.5734 77.2569 56.9744 73.9907C57.0824 73.0962 58.0592 72.5908 58.8495 73.0261C61.6717 74.5861 66.5292 74.2343 69.6423 72.1935C70.8508 71.4022 72.4782 72.0364 72.9055 73.4178Z" fill="#650000"/>
<path d="M70.2181 82.238C69.3269 82.966 68.2487 83.5147 67.0057 83.7969C64.6756 84.3451 62.5416 83.7935 60.8418 82.5984C62.4116 78.3798 68.5127 77.7237 70.2181 82.238Z" fill="#ED4425"/>
<path d="M65.1968 84.7894C63.1385 84.7894 61.1773 84.023 59.5306 82.547C57.1283 80.3939 55.8217 76.9982 56.2019 73.8962C56.2852 73.2168 56.6986 72.6254 57.3079 72.3144C57.9134 72.005 58.6307 72.0165 59.2254 72.3451C61.8035 73.7692 66.3782 73.4015 69.2156 71.5425C69.9824 71.04 70.9224 70.9318 71.7934 71.2445C72.6779 71.5625 73.372 72.2885 73.6501 73.1864C74.3701 75.5093 74.043 78.207 72.7753 80.4026C71.5403 82.5415 69.5535 84.0162 67.1814 84.5551C66.5149 84.7119 65.8506 84.7894 65.1968 84.7894ZM58.2399 73.6455C58.1443 73.6455 58.0655 73.6755 58.0157 73.7009C57.9446 73.7371 57.7762 73.8473 57.747 74.0855C57.4267 76.6977 58.5347 79.564 60.5696 81.3879C62.3498 82.9835 64.5717 83.5699 66.8276 83.0393C66.8297 83.0388 66.8318 83.0383 66.8339 83.0379C68.7797 82.5966 70.411 81.3842 71.4273 79.6243C72.4821 77.7976 72.7571 75.5632 72.1634 73.6472C72.027 73.207 71.7002 72.8652 71.2667 72.7094C70.8592 72.5625 70.4231 72.6123 70.0687 72.8444C66.7498 75.0193 61.5482 75.4063 58.473 73.7077C58.3896 73.6617 58.3102 73.6455 58.2399 73.6455Z" fill="#650000"/>
<path d="M80.8243 69.6264C84.3429 69.6264 87.1954 65.4844 87.1954 60.3751C87.1954 55.2657 84.3429 51.1238 80.8243 51.1238C77.3056 51.1238 74.4531 55.2657 74.4531 60.3751C74.4531 65.4844 77.3056 69.6264 80.8243 69.6264Z" fill="white"/>
<path d="M80.8247 69.7871C77.2231 69.7871 74.293 65.5648 74.293 60.3751C74.293 55.1854 77.2231 50.9631 80.8247 50.9631C84.4263 50.9631 87.3564 55.1854 87.3564 60.3751C87.3564 65.5648 84.4263 69.7871 80.8247 69.7871ZM80.8247 51.2845C77.4001 51.2845 74.6143 55.3625 74.6143 60.3751C74.6143 65.3877 77.4001 69.4657 80.8247 69.4657C84.2493 69.4657 87.0351 65.3877 87.0351 60.3751C87.0351 55.3625 84.2493 51.2845 80.8247 51.2845Z" fill="#650000"/>
<path d="M80.8243 69.6264C84.3429 69.6264 87.1954 65.4844 87.1954 60.3751C87.1954 55.2657 84.3429 51.1238 80.8243 51.1238C77.3056 51.1238 74.4531 55.2657 74.4531 60.3751C74.4531 65.4844 77.3056 69.6264 80.8243 69.6264Z" fill="white"/>
<path d="M80.8247 69.7871C77.2231 69.7871 74.293 65.5648 74.293 60.3751C74.293 55.1854 77.2231 50.9631 80.8247 50.9631C84.4263 50.9631 87.3564 55.1854 87.3564 60.3751C87.3564 65.5648 84.4263 69.7871 80.8247 69.7871ZM80.8247 51.2845C77.4001 51.2845 74.6143 55.3625 74.6143 60.3751C74.6143 65.3877 77.4001 69.4657 80.8247 69.4657C84.2493 69.4657 87.0351 65.3877 87.0351 60.3751C87.0351 55.3625 84.2493 51.2845 80.8247 51.2845Z" fill="#650000"/>
<path d="M82.0095 68.0514C84.8737 68.0514 87.1957 64.6798 87.1957 60.5207C87.1957 56.3616 84.8737 52.99 82.0095 52.99C79.1452 52.99 76.8232 56.3616 76.8232 60.5207C76.8232 64.6798 79.1452 68.0514 82.0095 68.0514Z" fill="#650000"/>
<path d="M80.8243 51.1237C84.3431 51.1237 87.1954 55.2656 87.1954 60.375C87.1954 65.4844 84.3432 69.6263 80.8243 69.6263C77.3055 69.6263 74.4533 65.4844 74.4533 60.375C74.4533 55.2656 77.3055 51.1237 80.8243 51.1237ZM80.8243 49.5239C78.5804 49.5239 76.5124 50.7321 75.0017 52.9259C73.6164 54.9375 72.8535 57.5831 72.8535 60.375C72.8535 63.167 73.6165 65.8125 75.0017 67.8241C76.5124 70.018 78.5804 71.2261 80.8243 71.2261C83.0683 71.2261 85.1363 70.018 86.647 67.8241C88.0323 65.8125 88.7952 63.167 88.7952 60.375C88.7952 57.5831 88.0322 54.9376 86.647 52.9259C85.1363 50.7321 83.0683 49.5239 80.8243 49.5239Z" fill="#650000"/>
<path d="M78.8441 60.375C80.1334 60.375 81.1785 59.3299 81.1785 58.0407C81.1785 56.7514 80.1334 55.7063 78.8441 55.7063C77.5549 55.7063 76.5098 56.7514 76.5098 58.0407C76.5098 59.3299 77.5549 60.375 78.8441 60.375Z" fill="white"/>
<g opacity="0.3">
<path d="M132.885 70.0367C132.399 71.3378 131.538 72.4657 130.429 73.3082C120.745 80.638 110.218 87.0238 98.8169 92.4205C97.3797 92.8231 95.8253 93.1964 94.1748 93.5403C99.4568 91.9112 101.982 82.2138 100.011 78.0596C100.299 77.9024 100.585 77.737 100.867 77.5664L114.916 69.0635C121.313 64.5414 127.269 59.9899 132.298 55.3772C133.255 56.3264 133.924 57.8276 134.322 59.6193C134.551 63.0643 134.031 66.9678 132.885 70.0367Z" fill="#650000"/>
</g>
<path d="M24.959 104.65C21.0256 104.65 16.9759 103.64 13.7365 101.635C8.40535 98.3364 5.91452 92.7891 6.72253 86.015C6.72434 85.999 6.72695 85.9829 6.72983 85.9671C7.57138 81.3662 10.8369 79.3186 13.7237 79.3186C13.7458 79.3186 13.7674 79.3187 13.7896 79.319C16.2416 79.3455 18.1291 80.859 18.4866 83.0851C18.5548 83.5095 18.2661 83.9088 17.8416 83.977C17.419 84.0435 17.0181 83.7564 16.9498 83.3319C16.6621 81.5411 15.0586 80.8894 13.7729 80.8755C13.7565 80.8754 13.7401 80.8752 13.7237 80.8752C11.4901 80.8752 8.95163 82.5227 8.26526 86.2238C7.33776 94.0755 11.1727 98.2184 14.5553 100.312C20.2596 103.841 29.0222 104.005 34.0893 100.677C34.4484 100.441 34.9311 100.541 35.1671 100.9C35.4032 101.26 35.3033 101.742 34.9439 101.978C32.2268 103.763 28.6439 104.65 24.959 104.65Z" fill="#650000"/>
<path d="M15.0186 89.756C15.2608 89.215 15.5137 88.6977 15.7415 88.1775C15.9707 87.6592 16.1768 87.1414 16.3523 86.6282C16.5291 86.1149 16.6564 85.6014 16.7667 85.1071C16.8797 84.6098 16.9279 84.1317 16.9857 83.6522L16.993 83.5922C17.0445 83.1636 17.4339 82.8579 17.8627 82.9095C18.2121 82.9517 18.4798 83.2192 18.5389 83.5484C18.6587 84.2201 18.5826 84.902 18.404 85.5198C18.2293 86.1432 17.9396 86.7102 17.6174 87.2355C16.9647 88.285 16.1394 89.171 15.1917 89.8957C15.1416 89.9341 15.0697 89.9246 15.0313 89.8744C15.005 89.84 15.0012 89.7953 15.0178 89.7582L15.0186 89.756Z" fill="#650000"/>
<path d="M19.6254 91.1882C19.3825 91.1882 19.1432 91.075 18.9914 90.8622C18.7414 90.5124 18.8224 90.0264 19.1721 89.7765C19.9712 89.2056 20.6191 87.4647 20.2563 86.0757C19.9631 84.9523 19.088 84.3028 17.6551 84.1449C17.2278 84.0979 16.9195 83.7133 16.9667 83.286C17.0135 82.8586 17.4012 82.5484 17.8254 82.5977C20.6313 82.9068 21.4966 84.6632 21.7627 85.6826C22.3095 87.7781 21.3326 90.1462 20.0773 91.0431C19.9399 91.1411 19.7819 91.1882 19.6254 91.1882Z" fill="#650000"/>
<path d="M25.4573 91.8416C25.432 91.8416 25.407 91.8415 25.382 91.8412C22.9696 91.8203 20.9682 90.9101 20.0285 89.4064C19.8007 89.0418 19.9116 88.5617 20.2762 88.3339C20.6402 88.1062 21.1209 88.2167 21.3487 88.5815C21.9952 89.616 23.5458 90.2687 25.3953 90.2847C27.3521 90.3088 29.9411 89.5402 31.3615 87.353C31.5959 86.9928 32.0775 86.89 32.4381 87.1241C32.7985 87.3582 32.9011 87.8403 32.667 88.2008C30.9224 90.8874 27.8143 91.8416 25.4573 91.8416Z" fill="#650000"/>
<g opacity="0.3">
<path d="M35.0818 93.1129L34.5162 101.327C25.8303 107.034 5.42035 103.509 7.49587 86.1081C7.92654 83.7524 9.06026 82.1336 10.4249 81.1736C7.84868 99.8972 30.2147 104.699 34.4825 92.07L35.0818 93.1129Z" fill="#650000"/>
</g>
<path d="M90.4443 141.075C90.0657 141.075 89.734 140.798 89.6756 140.413L88.21 130.689C88.1459 130.264 88.4386 129.868 88.8635 129.804C89.2892 129.738 89.685 130.032 89.7493 130.457L91.215 140.181C91.2791 140.606 90.9864 141.002 90.5615 141.066C90.5221 141.072 90.4828 141.075 90.4443 141.075Z" fill="#650000"/>
<path d="M90.4502 139.472C90.9123 139.307 91.3984 139.221 91.8803 139.198C92.1213 139.182 92.3622 139.187 92.6002 139.206C92.8385 139.22 93.0746 139.25 93.3063 139.296C93.7712 139.378 94.2191 139.519 94.6477 139.687C95.0762 139.852 95.4796 140.103 95.7598 140.563C95.7828 140.601 95.7707 140.65 95.7328 140.673C95.7261 140.677 95.7175 140.681 95.7101 140.683C95.1927 140.815 94.7788 140.787 94.3734 140.733C93.9684 140.682 93.5659 140.665 93.1729 140.663C92.9758 140.666 92.7809 140.672 92.5882 140.685C92.4919 140.691 92.3958 140.698 92.3009 140.711C92.2053 140.719 92.1106 140.729 92.0167 140.743C91.64 140.795 91.2743 140.871 90.9124 140.959L90.8967 140.963C90.4786 141.064 90.0573 140.808 89.9557 140.39C89.8606 140 90.0812 139.606 90.4502 139.472Z" fill="#650000"/>
<path d="M98.8355 148.545H89.7809C87.9593 148.545 86.4631 147.142 86.3754 145.352C86.2439 142.676 87.7002 140.459 90.1754 139.564C90.5806 139.418 91.0258 139.628 91.172 140.032C91.318 140.436 91.1087 140.882 90.7046 141.028C88.8967 141.681 87.8336 143.309 87.9302 145.276C87.9773 146.236 88.7902 146.989 89.781 146.989H98.8356C99.8948 146.989 100.756 146.127 100.756 145.068V129.655C100.756 129.225 101.105 128.876 101.535 128.876C101.965 128.876 102.313 129.225 102.313 129.655V145.068C102.313 146.985 100.753 148.545 98.8355 148.545Z" fill="#650000"/>
<path d="M55.0679 139.776C54.6812 139.776 54.3459 139.488 54.2966 139.094L53.2864 131.009C53.233 130.582 53.5356 130.193 53.9621 130.14C54.3862 130.087 54.7776 130.389 54.831 130.816L55.8413 138.901C55.8946 139.327 55.5921 139.716 55.1656 139.77C55.1328 139.774 55.1002 139.776 55.0679 139.776Z" fill="#650000"/>
<g opacity="0.3">
<path d="M132.158 74.4649C132.158 74.4649 126.782 84.3664 117.621 86.6244L115.961 83.1657L131.168 72.667L132.158 74.4649Z" fill="#650000"/>
</g>
<g opacity="0.3">
<path d="M7.39128 61.0221C4.28235 60.6594 1.752 57.1639 1.14941 52.6018L1.32006 52.4659C5.60484 60.2276 10.0309 59.6729 14.5717 52.1326C14.5717 52.1326 14.8463 59.1423 7.39128 61.0221Z" fill="#792937"/>
<path d="M7.40022 61.1572L7.37601 61.1544C4.24777 60.7894 1.63301 57.2796 1.01746 52.6191L1.00781 52.5444L1.36062 52.263L1.43693 52.4012C3.43252 56.0161 5.50228 57.869 7.589 57.9082C7.6114 57.9086 7.63433 57.9088 7.65694 57.9088C9.83399 57.9088 12.1218 55.943 14.4576 52.0636L14.6878 51.6816L14.7052 52.1271C14.7078 52.1983 14.8973 59.2667 7.42385 61.1513L7.40022 61.1572ZM1.29738 52.6988C1.92231 57.1687 4.4118 60.5235 7.38252 60.8867C13.482 59.336 14.3144 54.2399 14.4235 52.6293C12.1251 56.3108 9.85042 58.1753 7.65667 58.1755C7.63246 58.1755 7.60825 58.1752 7.58404 58.1748C5.42885 58.1342 3.31429 56.292 1.29738 52.6988Z" fill="#650000"/>
</g>
<path d="M50.1612 69.6261C53.6799 69.6261 56.5323 65.4842 56.5323 60.3748C56.5323 55.2655 53.6799 51.1235 50.1612 51.1235C46.6425 51.1235 43.79 55.2655 43.79 60.3748C43.79 65.4842 46.6425 69.6261 50.1612 69.6261Z" fill="white"/>
<path d="M50.1616 69.7871C46.56 69.7871 43.6299 65.5648 43.6299 60.3751C43.6299 55.1854 46.56 50.9631 50.1616 50.9631C53.7632 50.9631 56.6933 55.1854 56.6933 60.3751C56.6933 65.5648 53.7632 69.7871 50.1616 69.7871ZM50.1616 51.2845C46.737 51.2845 43.9512 55.3625 43.9512 60.3751C43.9512 65.3877 46.737 69.4657 50.1616 69.4657C53.5862 69.4657 56.372 65.3877 56.372 60.3751C56.372 55.3625 53.5862 51.2845 50.1616 51.2845Z" fill="#650000"/>
<path d="M51.3464 68.0514C54.2106 68.0514 56.5326 64.6798 56.5326 60.5207C56.5326 56.3616 54.2106 52.99 51.3464 52.99C48.4821 52.99 46.1602 56.3616 46.1602 60.5207C46.1602 64.6798 48.4821 68.0514 51.3464 68.0514Z" fill="#650000"/>
<path d="M50.1622 51.1237C53.681 51.1237 56.5333 55.2656 56.5333 60.375C56.5333 65.4844 53.6811 69.6263 50.1622 69.6263C46.6434 69.6263 43.7912 65.4844 43.7912 60.375C43.7912 55.2656 46.6434 51.1237 50.1622 51.1237ZM50.1622 49.5239C47.9183 49.5239 45.8503 50.7321 44.3396 52.9259C42.9543 54.9375 42.1914 57.5831 42.1914 60.375C42.1914 63.167 42.9544 65.8125 44.3396 67.8241C45.8503 70.018 47.9183 71.2261 50.1622 71.2261C52.4062 71.2261 54.4742 70.018 55.985 67.8241C57.3702 65.8125 58.1331 63.167 58.1331 60.375C58.1331 57.5831 57.3702 54.9376 55.985 52.9259C54.4742 50.7321 52.4062 49.5239 50.1622 49.5239Z" fill="#650000"/>
<path d="M48.1811 60.375C49.4703 60.375 50.5154 59.3299 50.5154 58.0407C50.5154 56.7514 49.4703 55.7063 48.1811 55.7063C46.8918 55.7063 45.8467 56.7514 45.8467 58.0407C45.8467 59.3299 46.8918 60.375 48.1811 60.375Z" fill="white"/>
</svg>
