<svg width="147" height="159" viewBox="0 0 147 159" fill="none" xmlns="http://www.w3.org/2000/svg">
<path d="M36.335 66.7593C36.335 66.7593 40.1957 29.9739 50.3757 28.4601C60.5558 26.9464 77.3075 64.0344 77.3075 64.0344C77.3075 64.0344 56.9226 82.3607 46.0233 81.9019C35.1239 81.4432 36.335 66.7593 36.335 66.7593Z" fill="#F9754B"/>
<g opacity="0.4">
<path d="M37.5658 69.1814C37.5658 69.1814 41.4266 32.396 51.6065 30.8822C58.7006 29.8273 68.9843 47.5156 74.5682 58.3381C69.3973 48.0031 58.0294 27.322 50.3755 28.4602C40.1955 29.9739 36.3348 66.7593 36.3348 66.7593C36.3348 66.7593 35.7848 73.4382 38.7699 77.9279C37.186 73.7928 37.5658 69.1814 37.5658 69.1814Z" fill="white"/>
</g>
<path d="M69.1869 63.4286C69.1869 63.4286 59.3119 42.841 54.7863 39.3592C50.2607 35.8775 46.1545 42.9857 43.1921 59.3414C40.2296 75.6971 50.7223 80.686 69.1869 63.4286Z" fill="#FA518F"/>
<g opacity="0.2">
<path d="M75.157 65.889C75.157 65.889 67.2168 50.8643 61.2373 42.614C55.2578 34.3638 51.322 33.9854 47.7645 37.6185C44.2071 41.2517 41.5237 53.4039 40.746 61.5196C39.9684 69.6353 44.5773 71.5884 44.5773 71.5884C44.5773 71.5884 41.8723 68.3391 42.7698 62.5962C43.6673 56.8534 50.1865 44.2035 53.2898 44.2792C56.3931 44.3549 65.8533 66.3795 65.8533 66.3795C65.8533 66.3795 59.4288 71.0773 52.1207 74.2166C44.8126 77.3558 37.8729 75.3413 36.4229 70.5583C36.4229 70.5583 36.6101 81.2687 45.3424 81.9103C54.0747 82.5518 75.157 65.889 75.157 65.889Z" fill="#150971"/>
</g>
<path d="M46.425 82.7103C46.2778 82.7103 46.1334 82.7074 45.9891 82.7012C43.0962 82.5796 40.7372 81.5073 38.978 79.5146C34.911 74.9073 35.5098 67.0268 35.5374 66.6938C35.5379 66.6878 35.5384 66.6818 35.5391 66.6758C35.5487 66.5834 36.5353 57.32 38.7593 47.992C41.8122 35.1872 45.6807 28.3495 50.2576 27.6689C54.8285 26.9916 60.915 32.9099 68.3443 45.2677C73.7661 54.2863 77.994 63.6122 78.036 63.7052C78.1794 64.0229 78.1008 64.3965 77.8419 64.6296C77.0104 65.3768 57.5999 82.7103 46.425 82.7103ZM37.1311 66.8321C37.1108 67.1068 36.615 74.4254 40.1809 78.4598C41.6403 80.1109 43.6172 81.0001 46.0563 81.103C46.1826 81.1082 46.3114 81.1108 46.4405 81.1108C56.1082 81.112 73.3665 66.4171 76.3335 63.8262C71.521 53.3128 58.2164 28.0969 50.4929 29.2515C42.6496 30.4177 38.1897 56.7636 37.1311 66.8321Z" fill="#150971"/>
<path d="M50.0602 75.0077C48.6359 75.0077 47.3553 74.7085 46.2398 74.1002C42.4059 72.0099 41.0445 66.7178 42.4063 59.199C44.7122 46.4691 47.6864 39.3187 51.2466 37.9462C52.1632 37.5934 53.6062 37.4413 55.2754 38.7253C59.8989 42.2824 69.503 62.2353 69.9096 63.0829C70.0606 63.3979 69.9898 63.7747 69.7344 64.0132C62.0531 71.1926 55.1454 75.0077 50.0602 75.0077ZM52.5676 39.2969C52.3159 39.2969 52.0679 39.3443 51.8221 39.4391C50.1314 40.0908 46.8647 43.5615 43.9806 59.4842C42.7693 66.1716 43.8719 70.9871 47.0057 72.6958C51.3248 75.0515 59.2285 71.5201 68.2103 63.2454C66.6338 60.0117 58.2287 43.0159 54.3 39.9934C53.6949 39.5279 53.1224 39.2969 52.5676 39.2969Z" fill="#150971"/>
<path d="M132.008 66.7593C132.008 66.7593 128.147 29.9739 117.967 28.4601C107.787 26.9464 91.0352 64.0344 91.0352 64.0344C91.0352 64.0344 111.42 82.3607 122.319 81.9019C133.219 81.4432 132.008 66.7593 132.008 66.7593Z" fill="white"/>
<g opacity="0.4">
<path d="M130.777 69.1814C130.777 69.1814 126.916 32.396 116.736 30.8822C109.642 29.8273 99.3583 47.5156 93.7744 58.3381C98.9454 48.0031 110.313 27.322 117.967 28.4602C128.147 29.9739 132.008 66.7593 132.008 66.7593C132.008 66.7593 132.558 73.4382 129.573 77.9279C131.157 73.7928 130.777 69.1814 130.777 69.1814Z" fill="white"/>
</g>
<path d="M99.1543 63.4289C99.1543 63.4289 109.029 42.8412 113.555 39.3595C118.081 35.8777 122.187 42.9859 125.149 59.3416C128.112 75.6973 117.619 80.6862 99.1543 63.4289Z" fill="#FA518F"/>
<g opacity="0.2">
<path d="M93.1855 65.889C93.1855 65.889 101.126 50.8643 107.105 42.614C113.085 34.3638 117.021 33.9854 120.578 37.6185C124.135 41.2517 126.819 53.4039 127.596 61.5196C128.374 69.6353 123.765 71.5884 123.765 71.5884C123.765 71.5884 126.47 68.3391 125.573 62.5962C124.675 56.8534 118.156 44.2035 115.053 44.2792C111.949 44.3549 102.489 66.3795 102.489 66.3795C102.489 66.3795 108.914 71.0773 116.222 74.2166C123.53 77.3557 130.47 75.3413 131.92 70.5583C131.92 70.5583 131.732 81.2687 123 81.9103C114.268 82.5518 93.1855 65.889 93.1855 65.889Z" fill="#150971"/>
</g>
<path d="M121.917 82.7102C110.743 82.7102 91.3319 65.3767 90.5005 64.6294C90.2415 64.3964 90.1628 64.0227 90.3063 63.705C90.3484 63.6121 94.5763 54.2862 99.9981 45.2675C107.427 32.9102 113.511 26.9925 118.085 27.6687C122.662 28.3494 126.53 35.187 129.583 47.9919C131.807 57.3199 132.794 66.5833 132.803 66.6757C132.804 66.6817 132.804 66.6877 132.805 66.6937C132.832 67.0267 133.431 74.9072 129.364 79.5144C127.605 81.5071 125.246 82.5794 122.353 82.701C122.21 82.707 122.064 82.7102 121.917 82.7102ZM92.0087 63.8261C94.9757 66.417 112.234 81.1107 121.902 81.1107C122.031 81.1107 122.159 81.108 122.286 81.1029C124.727 81 126.705 80.1095 128.165 78.4558C131.735 74.4112 131.232 67.1075 131.211 66.8325C130.153 56.764 125.693 30.4176 117.849 29.2513C110.127 28.1015 96.8214 53.3126 92.0087 63.8261Z" fill="#150971"/>
<path d="M118.284 75.0076C113.198 75.0076 106.291 71.193 98.6092 64.0132C98.3539 63.7746 98.2831 63.3979 98.4341 63.0828C98.8407 62.2353 108.445 42.2823 113.068 38.7252C114.737 37.441 116.18 37.5931 117.097 37.9462C120.657 39.3187 123.632 46.469 125.937 59.1987C127.299 66.7178 125.938 72.0098 122.104 74.1001C120.989 74.7084 119.707 75.0076 118.284 75.0076ZM100.133 63.2453C109.115 71.5198 117.019 75.0503 121.338 72.6957C124.472 70.987 125.574 66.1715 124.363 59.4841C121.479 43.5614 118.212 40.0907 116.522 39.439C115.734 39.1354 114.923 39.3166 114.044 39.9933C110.115 43.0158 101.71 60.0116 100.133 63.2453Z" fill="#150971"/>
<path d="M112.51 62.7333C112.51 62.7333 110.882 54.852 106.306 52.1982C101.73 49.5444 94.3746 53.6317 93.4541 53.8588C92.5336 54.0858 94.5859 67.2159 97.4288 69.5579C100.272 71.9 112.51 62.7333 112.51 62.7333Z" fill="#FFCE96"/>
<g opacity="0.4">
<path d="M93.454 55.7937C94.3745 55.5666 101.73 51.4793 106.306 54.1331C109.577 56.0302 111.341 60.597 112.081 63.0481C112.356 62.8484 112.51 62.7335 112.51 62.7335C112.51 62.7335 110.882 54.8523 106.306 52.1985C101.73 49.5447 94.3745 53.632 93.454 53.859C93.2232 53.916 93.1794 54.7847 93.288 56.0911C93.3248 55.9161 93.3795 55.812 93.454 55.7937Z" fill="white"/>
</g>
<path d="M98.7281 70.7431C97.9767 70.7431 97.3785 70.5528 96.9205 70.1755C94.0009 67.7703 92.0114 56.1608 92.513 53.9549C92.6499 53.3526 92.9963 53.1479 93.2627 53.0821C93.3597 53.0558 93.7252 52.8972 94.0475 52.7571C96.5833 51.6564 102.522 49.0784 106.707 51.5065C111.537 54.3077 113.224 62.2353 113.293 62.5715C113.356 62.8751 113.238 63.1876 112.989 63.3735C112.959 63.3966 109.854 65.7153 106.44 67.714C102.968 69.7463 100.448 70.7431 98.7281 70.7431ZM94.0355 54.5007C93.7817 56.5598 95.6429 67.0504 97.9377 68.9407C99.3576 70.1109 106.044 66.5054 111.61 62.4054C111.174 60.6915 109.483 54.9657 105.905 52.8902C102.418 50.8683 96.7996 53.3065 94.6846 54.2246C94.4074 54.345 94.1997 54.4348 94.0355 54.5007Z" fill="#150971"/>
<path d="M77.3451 76.0307C77.3451 76.0307 73.708 52.6659 73.7635 51.2844C73.819 49.9029 72.7172 46.9361 73.6353 45.7988C74.5533 44.6616 79.6132 46.4146 81.0681 45.8664C82.5231 45.3182 85.4029 44.9149 87.0261 45.5112C88.6494 46.1075 90.4508 46.2474 91.0771 46.2143C91.7034 46.1813 94.7883 46.5529 94.7883 46.5529L96.1371 72.9529L77.3451 76.0307Z" fill="#FFCE96"/>
<g opacity="0.4">
<path d="M75.996 53.3932C76.0515 52.0118 74.9496 49.0449 75.8677 47.9076C76.7857 46.7705 81.8456 48.5234 83.3006 47.9752C84.7556 47.427 87.6353 47.0238 89.2586 47.6201C90.8819 48.2164 92.6833 48.3563 93.3096 48.3232C93.5598 48.31 94.2028 48.3616 94.8842 48.428L94.7883 46.5529C94.7883 46.5529 91.7035 46.1811 91.0771 46.2143C90.4509 46.2474 88.6495 46.1075 87.0262 45.5113C85.4029 44.915 82.5231 45.3182 81.0682 45.8664C79.6132 46.4146 74.5533 44.6615 73.6353 45.7988C72.7172 46.936 73.8191 49.9029 73.7636 51.2844C73.708 52.6659 77.3451 76.0307 77.3451 76.0307L79.204 75.7262C78.2777 69.7209 75.9514 54.5003 75.996 53.3932Z" fill="white"/>
</g>
<g opacity="0.2">
<path d="M76.5082 70.6045C76.5082 70.6045 82.3628 71.2795 88.1053 65.3659C93.8477 59.4522 93.1731 46.3718 93.1731 46.3718L94.7879 46.5529L96.1368 72.9529L77.3447 76.0307L76.4521 70.2384" fill="#150971"/>
</g>
<path d="M77.3449 76.8306C77.1774 76.8306 77.0129 76.778 76.8756 76.6785C76.7029 76.5532 76.5873 76.3645 76.5545 76.1538C76.181 73.7544 72.9072 52.6709 72.9641 51.2523C72.9796 50.8675 72.8704 50.2486 72.7548 49.5932C72.4849 48.0632 72.179 46.329 73.0128 45.2963C73.8175 44.2988 75.6919 44.5819 77.8624 44.9091C78.9102 45.0672 80.3456 45.2833 80.7859 45.1177C82.2771 44.5563 85.3789 44.0538 87.3019 44.7607C88.8196 45.3179 90.5007 45.4442 91.0348 45.4156C91.6965 45.381 94.3572 45.6952 94.8839 45.7588C95.2703 45.8054 95.5672 46.1233 95.5871 46.5121L96.9359 72.9121C96.9567 73.319 96.6684 73.6765 96.2663 73.7424L77.4742 76.8201C77.4312 76.8272 77.388 76.8306 77.3449 76.8306ZM74.939 46.2024C74.6092 46.2024 74.354 46.235 74.2401 46.3191C73.8809 46.7678 74.1513 48.3009 74.3303 49.3154C74.4613 50.058 74.5849 50.7595 74.5626 51.3167C74.5381 52.328 76.5664 65.8034 78.0115 75.111L95.3017 72.2793L94.0239 47.269C92.8407 47.1349 91.4383 46.9974 91.1192 47.0133C90.4565 47.0466 88.5156 46.9109 86.7502 46.2623C85.3496 45.7476 82.6614 46.121 81.35 46.6149C80.5191 46.9284 79.1776 46.7258 77.6236 46.4909C76.8886 46.3803 75.71 46.2024 74.939 46.2024Z" fill="#150971"/>
<path d="M77.2462 98.6325L15.7418 2.36422C15.7418 2.36422 10.3804 1.66804 9.39746 7.18414L74.9238 100.08C74.9238 100.08 76.7899 100.31 77.2462 98.6325Z" fill="#EFBE8E"/>
<g opacity="0.2">
<path d="M10.6347 4.30542C10.0726 4.99861 9.62111 5.92927 9.39746 7.18415L74.9238 100.08C74.9238 100.08 76.7899 100.31 77.2463 98.6325L75.4735 95.8577C75.3111 95.8599 75.2064 95.8478 75.2064 95.8478L10.6347 4.30542Z" fill="#150971"/>
</g>
<path d="M75.1727 100.894C75.0467 100.894 74.93 100.887 74.826 100.874C74.6021 100.846 74.4003 100.726 74.2703 100.541L8.74395 7.64523C8.62077 7.47054 8.57261 7.25414 8.61005 7.04376C9.49346 2.08632 13.73 1.2958 15.8449 1.57129C16.0794 1.60174 16.2885 1.73431 16.416 1.93375L77.9204 98.202C78.0419 98.392 78.0774 98.6248 78.0182 98.8425C77.5728 100.48 76.1162 100.894 75.1727 100.894ZM10.2495 7.0042L75.3447 99.2891C75.6594 99.2641 76.1062 99.148 76.3528 98.7199L15.2848 3.13461C14.2116 3.10442 11.072 3.34578 10.2495 7.0042Z" fill="#150971"/>
<path d="M11.2095 6.41833C11.5094 6.15079 11.8055 5.96164 12.0757 5.7767C12.349 5.59662 12.6163 5.44378 12.8819 5.27954C13.1455 5.11364 13.4159 4.95078 13.6912 4.76142C13.836 4.67428 13.9705 4.56987 14.127 4.47511C14.2814 4.37784 14.4286 4.26676 14.6179 4.17104L14.6525 4.15355C14.7975 4.08022 14.9744 4.13835 15.0477 4.28329C15.073 4.3332 15.0825 4.38808 15.0784 4.44002C15.0427 4.87628 14.8975 5.29409 14.6619 5.65885C14.4383 6.03427 14.117 6.34697 13.7606 6.60481C13.4039 6.86467 12.9877 7.04209 12.5539 7.11754C12.116 7.18548 11.6724 7.17268 11.2205 6.95143C11.0746 6.87997 11.0143 6.70378 11.0857 6.55788C11.1028 6.5229 11.1259 6.49282 11.1532 6.46835L11.2095 6.41833Z" fill="#150971"/>
<path d="M73.9987 100.974L8.63036 7.28666C8.63036 7.28666 3.24518 6.80907 2.4873 12.3606L71.737 102.515C71.737 102.515 73.611 102.669 73.9987 100.974Z" fill="#EFBE8E"/>
<g opacity="0.2">
<path d="M3.60647 9.43408C3.07299 10.1496 2.65976 11.0978 2.4873 12.3607L71.7371 102.515C71.7371 102.515 73.611 102.669 73.9988 100.974L72.1145 98.2739C71.9524 98.2827 71.8473 98.2749 71.8473 98.2749L3.60647 9.43408Z" fill="#150971"/>
</g>
<path d="M71.8922 103.321C71.814 103.321 71.7401 103.318 71.6715 103.312C71.4467 103.294 71.2402 103.181 71.1029 103.002L1.85302 12.8478C1.72291 12.6786 1.66596 12.4641 1.69486 12.2523C2.37595 7.26338 6.57626 6.30286 8.70106 6.49004C8.93676 6.51089 9.15108 6.63509 9.28642 6.82904L74.6549 100.517C74.784 100.702 74.8289 100.933 74.7786 101.153C74.3828 102.883 72.8272 103.321 71.8922 103.321ZM3.33129 12.1461L72.1254 101.707C72.4389 101.67 72.8807 101.536 73.1096 101.098L8.20502 8.07496C7.13379 8.09058 4.00432 8.45747 3.33129 12.1461Z" fill="#150971"/>
<path d="M4.26605 11.5218C4.55481 11.2423 4.84298 11.0412 5.1054 10.8455C5.37118 10.6545 5.632 10.4909 5.89074 10.316C6.1474 10.1395 6.411 9.9658 6.67827 9.76535C6.81948 9.67234 6.94965 9.5626 7.10211 9.46154C7.25238 9.35809 7.39498 9.24114 7.58024 9.13774L7.6141 9.11887C7.75595 9.03973 7.93513 9.09055 8.01426 9.23245C8.04151 9.2813 8.05324 9.33575 8.05127 9.38779C8.0333 9.82512 7.90521 10.2485 7.6847 10.6226C7.47657 11.0068 7.16818 11.3322 6.82268 11.6044C6.4768 11.8786 6.06816 12.0727 5.63782 12.1658C5.2031 12.2515 4.75932 12.2568 4.29879 12.0541C4.15011 11.9886 4.0826 11.815 4.14803 11.6663C4.16371 11.6307 4.18563 11.5997 4.21192 11.5741L4.26605 11.5218Z" fill="#150971"/>
<path d="M67.6494 81.7968C67.6494 81.7968 74.2216 69.8401 90.9957 66.3756C107.77 62.9111 115.922 76.7064 115.922 76.7064C115.922 76.7064 104.792 87.0575 95.1682 84.8936C85.5449 82.7298 67.9398 91.4642 67.6494 81.7968Z" fill="#FFCB57"/>
<g opacity="0.4">
<path d="M83.0485 68.8912C83.0485 68.8912 80.2456 72.2792 83.8701 72.9767L86.0686 72.017C86.0686 72.017 83.2783 74.9941 86.6561 76.3176L87.3169 76.0374C87.3169 76.0374 85.5697 79.3442 89.1356 79.9806C89.1356 79.9806 91.8087 78.6898 93.1726 78.6891C94.5365 78.6884 95.71 78.6923 95.71 78.6923C95.71 78.6923 98.1602 76.2525 94.7181 74.416C94.7181 74.416 97.5157 72.0182 95.1191 70.0335L97.3512 70.1362C97.3512 70.1362 100.203 67.1926 97.6186 65.8551C95.0339 64.5175 84.0594 67.6446 83.0485 68.8912Z" fill="white"/>
</g>
<g opacity="0.2">
<path d="M77.9858 71.5907C77.9858 71.5907 77.1115 75.6115 81.5878 74.4784L82.716 73.8306C82.716 73.8306 80.4134 77.6161 83.6916 77.8961C83.6916 77.8961 84.8652 82.3551 88.104 80.8945C91.3427 79.4338 90.7872 78.5783 93.6308 78.6552C96.4745 78.7321 98.4518 80.1672 98.4518 80.1672C98.4518 80.1672 102.898 76.7214 97.8647 74.6366C97.8647 74.6366 102.149 72.8235 98.7509 70.3347L103.014 71.5824C103.014 71.5824 108.346 70.8108 104.708 67.4304C104.708 67.4304 112.345 70.5948 115.922 76.7062C115.922 76.7062 111.031 80.6841 106.63 82.9458C102.23 85.2074 97.7992 85.3308 96.4837 85.1122C95.1682 84.8935 92.1213 84.1855 87.9654 84.7324C83.8095 85.2794 75.3582 86.8106 72.1005 86.3465C68.8429 85.8824 68.1533 84.3027 67.963 83.602C67.7727 82.9012 67.6494 81.7966 67.6494 81.7966C67.6494 81.7966 71.5533 75.3285 77.9858 71.5907Z" fill="#150971"/>
</g>
<path d="M73.9408 87.2494C71.7249 87.2494 69.8544 86.8813 68.5771 85.8215C67.4835 84.9141 66.9024 83.5682 66.85 81.8207C66.8457 81.678 66.8797 81.5367 66.9485 81.4114C67.2242 80.9102 73.8932 69.0911 90.8339 65.5921C99.7864 63.7439 106.317 66.7487 110.22 69.5955C114.44 72.673 116.524 76.1527 116.61 76.2993C116.801 76.623 116.742 77.0359 116.466 77.2919C115.999 77.7262 104.913 87.9064 94.9927 85.6739C91.477 84.8839 86.7729 85.6213 82.2234 86.3348C79.2646 86.799 76.3913 87.2494 73.9408 87.2494ZM68.4594 81.9977C68.5335 83.1671 68.9073 84.0165 69.5987 84.5904C71.7327 86.3604 76.7081 85.5806 81.9756 84.7544C86.6733 84.0175 91.5309 83.2559 95.3438 84.1131C103.329 85.9084 112.628 78.4891 114.872 76.5651C114.129 75.4944 112.242 73.0379 109.226 70.8507C103.94 67.0163 97.8609 65.774 91.1576 67.1588C76.101 70.2685 69.3769 80.4917 68.4594 81.9977Z" fill="#150971"/>
<path d="M69.5443 86.3305C69.3938 86.3305 69.2417 86.2883 69.1065 86.1995C68.7372 85.9574 68.634 85.4619 68.8759 85.0926C69.1751 84.6359 76.3583 73.8623 89.8598 70.0123C95.5477 68.3901 101.497 69.336 107.065 72.7471C111.239 75.3045 113.704 78.3052 113.807 78.4318C114.086 78.7744 114.034 79.2783 113.692 79.5572C113.349 79.8355 112.845 79.784 112.566 79.4416C112.472 79.3265 102.991 67.9311 90.2985 71.5506C77.3875 75.2322 70.2841 85.8626 70.2138 85.9696C70.0602 86.2035 69.8048 86.3305 69.5443 86.3305Z" fill="#150971"/>
<path d="M75.442 87.2012C75.3175 87.2012 75.191 87.172 75.0728 87.1103C74.6811 86.9059 74.5291 86.4229 74.7334 86.0313C74.9472 85.6214 80.1021 75.9714 91.8635 73.9066C98.099 72.8127 102.451 74.9762 105.003 76.9846C107.764 79.1567 109.04 81.5759 109.093 81.678C109.297 82.0699 109.145 82.5529 108.753 82.7567C108.361 82.9603 107.878 82.808 107.674 82.4159C107.485 82.0558 102.91 73.5923 92.14 75.4824C81.1476 77.4121 76.2006 86.6776 76.1519 86.7707C76.0093 87.0445 75.7306 87.2012 75.442 87.2012Z" fill="#150971"/>
<path d="M83.8089 86.079C83.6556 86.079 83.5007 86.0351 83.3641 85.9431C82.9974 85.6971 82.8994 85.2008 83.1452 84.8341C83.303 84.5988 87.0728 79.0549 92.5638 77.9743C98.209 76.862 103.508 83.5635 103.731 83.8491C104.002 84.1975 103.94 84.6995 103.592 84.9714C103.244 85.2429 102.741 85.1815 102.469 84.8331C102.42 84.7708 97.5523 78.6253 92.8726 79.5439C88.0399 80.4951 84.509 85.6731 84.4738 85.7252C84.3194 85.9549 84.0664 86.079 83.8089 86.079Z" fill="#150971"/>
<path d="M40.1952 75.4387C40.1952 75.4387 27.0516 68.8452 26.5466 68.0126C26.0416 67.18 27.3283 64.9468 27.0256 62.733C26.7228 60.5192 30.8213 47.7277 32.1403 47.652C33.4592 47.5763 40.1952 50.2254 40.1952 50.2254C40.1952 50.2254 43.3189 52.9922 46.4022 54.0856C49.4855 55.1791 66.7505 64.1524 66.7505 64.1524C66.7505 64.1524 61.7796 77.3656 60.8651 78.0252C59.9506 78.6849 56.3176 80.1574 55.7877 80.4051C55.2579 80.6528 40.1952 75.4387 40.1952 75.4387Z" fill="#FFCE96"/>
<g opacity="0.4">
<path d="M28.0007 65.0453C27.698 62.8315 31.7965 50.0399 33.1153 49.9643C34.4343 49.8886 41.1703 52.5377 41.1703 52.5377C41.1703 52.5377 44.294 55.3044 47.3773 56.3979C49.8951 57.2908 61.8675 63.4371 66.1754 65.6621C66.5299 64.736 66.7495 64.1524 66.7495 64.1524C66.7495 64.1524 49.4845 55.1791 46.4012 54.0857C43.3179 52.9922 40.1943 50.2255 40.1943 50.2255C40.1943 50.2255 33.4582 47.5763 32.1393 47.652C30.8204 47.7277 26.7219 60.5193 27.0246 62.733C27.3273 64.9468 26.0406 67.18 26.5456 68.0126C26.6223 68.1389 26.9911 68.3984 27.5594 68.7468C27.7918 67.7106 28.1826 66.3756 28.0007 65.0453Z" fill="white"/>
</g>
<g opacity="0.2">
<path d="M26.4277 65.5288C26.4277 65.5288 32.5888 69.7586 42.5798 69.6992C52.5709 69.6399 57.1902 62.5576 57.1902 62.5576L65.8914 66.4041C65.8914 66.4041 60.8425 78.4919 60.2263 79.4588C59.6101 80.4257 56.9018 80.8798 56.9018 80.8798C56.9018 80.8798 40.5845 74.9409 40.1952 75.0919C39.8059 75.2428 26.6571 68.3769 26.5466 68.0126C26.4361 67.6483 26.4277 65.5288 26.4277 65.5288Z" fill="#150971"/>
</g>
<path d="M55.7776 81.2105C55.2056 81.2105 53.6404 80.8001 47.5393 78.7741C43.7466 77.5143 39.97 76.2077 39.9322 76.1947C39.899 76.1833 39.8667 76.1694 39.8352 76.1538C39.8023 76.1371 36.5048 74.4821 33.1882 72.7467C26.2926 69.1383 26.0433 68.7271 25.8614 68.4272C25.4493 67.7481 25.6599 66.8547 25.9037 65.8202C26.1219 64.8948 26.3691 63.8457 26.2318 62.8412C25.9202 60.5647 29.4344 49.4824 31.115 47.441C31.2286 47.303 31.5745 46.883 32.0932 46.8533C33.4771 46.7607 38.8682 48.8445 40.4867 49.4808C40.5736 49.515 40.6542 49.5644 40.7241 49.6264C40.7543 49.6529 43.7721 52.3047 46.6681 53.3316C49.7683 54.4309 66.4111 63.0749 67.118 63.4423C67.4773 63.629 67.6404 64.0547 67.4979 64.4339C67.4854 64.4669 66.2366 67.784 64.8918 71.1387C62.0916 78.1258 61.6343 78.4558 61.3318 78.674C60.6077 79.196 58.6351 80.055 56.8429 80.8192C56.4978 80.9664 56.2382 81.0768 56.125 81.1296C56.0345 81.1719 55.9524 81.2105 55.7776 81.2105ZM40.5055 74.7001C45.7408 76.5118 54.2308 79.3586 55.6297 79.5992C55.7743 79.5359 55.9755 79.45 56.2155 79.3477C57.2541 78.9047 59.6593 77.8794 60.3563 77.4042C60.9777 76.6391 63.5229 70.4155 65.7497 64.535C62.6178 62.9136 48.7998 55.7851 46.1334 54.8394C43.2325 53.8108 40.3717 51.4338 39.7733 50.9195C36.8233 49.7645 33.3253 48.5626 32.3405 48.4571C31.0463 49.8535 27.5545 60.7071 27.8167 62.6246C27.9945 63.9233 27.6985 65.1787 27.4608 66.1871C27.3465 66.6725 27.1927 67.325 27.2281 67.5703C28.1403 68.3319 34.6576 71.7655 40.5055 74.7001Z" fill="#150971"/>
<path d="M103.471 64.6065C103.471 64.6065 105.197 59.3082 108.384 59.3082C108.384 59.3082 108.824 55.5238 113.187 55.5994C113.187 55.5994 117.171 52.1177 120.502 53.8585C123.832 55.5994 125.724 57.643 125.724 57.643C125.724 57.643 126.481 59.611 125.724 60.3678C125.724 60.3678 127.314 63.3954 125.649 64.6065C125.649 64.6065 123.227 71.3446 120.123 74.4092C117.02 77.4738 110.367 82.0207 104.989 80.9961C99.6113 79.9716 100.747 75.9915 100.747 75.9915C100.747 75.9915 98.7031 72.0503 101.731 70.0314C101.731 70.0314 100.306 67.1042 103.1 64.9093" fill="#FF9D9C"/>
<path d="M121.336 59.7993C121.336 59.7993 121.772 61.8061 121.336 62.9226C120.899 64.039 120.496 64.6426 120.496 64.6426C120.496 64.6426 120.309 69.1193 119.019 70.7183C117.728 72.3174 115.049 75.0483 115.049 75.0483C115.049 75.0483 120.242 74.2135 122.283 71.6051C124.324 68.9967 126.116 64.0986 126.116 64.0986C126.116 64.0986 126.337 63.0331 126.296 61.9655C126.254 60.8979 125.954 60.0008 125.954 60.0008C125.954 60.0008 126.444 58.812 125.838 57.9863C125.232 57.1606 124.538 56.541 124.238 56.3031C123.937 56.0651 121.479 55.1833 121.479 55.1833L121.713 56.2051L121.143 58.5134L121.336 59.7993Z" fill="#F7727D"/>
<g opacity="0.4">
<path d="M126.538 63.3456C126.594 62.6968 126.431 62.003 126.251 61.4666C126.198 61.6313 126.12 61.7807 126.002 61.8987C126.002 61.8987 126.337 62.5377 126.538 63.3456Z" fill="white"/>
<path d="M103.378 66.4401L103.75 66.1374C103.75 66.1374 105.475 60.8391 108.662 60.8391C108.662 60.8391 109.102 57.0545 113.465 57.1303C113.465 57.1303 117.449 53.6485 120.78 55.3894C124.11 57.1303 126.002 59.1739 126.002 59.1739C126.002 59.1739 126.098 59.4241 126.187 59.7778C126.287 58.9071 125.867 57.8115 125.867 57.8115C125.867 57.8115 123.974 55.7678 120.644 54.027C117.314 52.2861 113.329 55.7679 113.329 55.7679C108.966 55.6922 108.526 59.4767 108.526 59.4767C105.339 59.4767 103.614 64.775 103.614 64.775L103.242 65.0778C101.253 66.6405 101.402 68.5733 101.653 69.5578C101.707 68.5981 102.101 67.443 103.378 66.4401Z" fill="white"/>
<path d="M102.008 71.5623C102.008 71.5623 101.769 71.0705 101.679 70.3396C100.081 71.5383 100.076 73.318 100.352 74.5941C100.383 73.5289 100.773 72.3857 102.008 71.5623Z" fill="white"/>
<path d="M100.789 76.9744C100.785 77.2934 100.818 77.6816 100.936 78.0949C100.962 77.7445 101.025 77.5223 101.025 77.5223C101.025 77.5223 100.918 77.3154 100.789 76.9744Z" fill="white"/>
</g>
<path d="M114.38 57.4738C115.7 58.0306 116.912 58.8181 117.864 59.9563C118.099 60.241 118.308 60.5524 118.485 60.8857C118.574 61.0525 118.654 61.225 118.724 61.4028C118.792 61.5812 118.856 61.7563 118.902 61.9708C118.986 62.3782 118.987 62.7602 118.969 63.1329C118.95 63.5057 118.899 63.867 118.834 64.2226C118.566 65.6416 118.102 66.9813 117.552 68.2833C116.99 69.5803 116.334 70.8362 115.552 72.0316C115.161 72.6298 114.732 73.2081 114.251 73.7582C113.768 74.3063 113.236 74.8314 112.588 75.2759C112.264 75.4924 111.897 75.6998 111.504 75.8336C111.138 75.9694 110.755 76.0622 110.367 76.1296C109.589 76.2556 108.775 76.2254 107.998 76.0181C107.22 75.8171 106.483 75.4296 105.87 74.8966C105.565 74.6282 105.288 74.3279 105.051 73.9991C104.819 73.6683 104.62 73.3158 104.461 72.9482C104.153 72.2105 103.988 71.4256 103.97 70.6551C103.945 69.8836 104.035 69.1257 104.202 68.3987C104.533 66.9264 105.249 65.5385 106.255 64.4127C107.26 63.2888 108.548 62.3958 110.066 61.9834C110.824 61.7891 111.662 61.7087 112.511 61.9579C112.931 62.082 113.347 62.2992 113.691 62.6088C114.036 62.9121 114.293 63.3256 114.454 63.6819C114.794 64.4273 114.922 65.2131 114.935 65.9745C114.946 66.7384 114.839 67.4882 114.637 68.2105C114.433 68.932 114.135 69.6302 113.715 70.2714C113.293 70.906 112.742 71.4993 112.01 71.8873C111.647 72.0796 111.238 72.2121 110.818 72.2541C110.607 72.2775 110.394 72.2712 110.216 72.2623C110.028 72.2528 109.839 72.2359 109.649 72.208C109.27 72.1511 108.885 72.0625 108.512 71.8897C108.14 71.7214 107.774 71.4708 107.501 71.1114C107.225 70.7545 107.078 70.2996 107.066 69.8716C107.052 69.4416 107.149 69.0415 107.285 68.6784C107.566 67.9518 108.013 67.3593 108.492 66.824C108.73 66.5591 108.999 66.286 109.325 66.0669C109.645 65.8515 110.059 65.6579 110.525 65.7078C110.992 65.7537 111.361 66.0444 111.602 66.3427C111.851 66.6523 112.017 66.9748 112.144 67.3433C112.192 67.4824 112.119 67.6341 111.98 67.6822C111.846 67.7285 111.701 67.6623 111.647 67.5339L111.64 67.5176C111.408 66.9615 110.944 66.3785 110.471 66.3807C110.239 66.3717 109.987 66.4888 109.752 66.6686C109.515 66.8489 109.306 67.0806 109.099 67.3414C108.688 67.8537 108.331 68.4109 108.14 68.985C108.048 69.2704 108 69.5586 108.022 69.8185C108.045 70.079 108.136 70.3037 108.292 70.4876C108.602 70.86 109.185 71.0572 109.789 71.1195C109.941 71.1361 110.096 71.1441 110.253 71.1461C110.418 71.1478 110.551 71.1457 110.682 71.1253C110.948 71.0873 111.204 70.9935 111.444 70.8535C111.926 70.5743 112.336 70.1166 112.652 69.5935C112.973 69.0709 113.208 68.4794 113.36 67.8701C113.512 67.2603 113.582 66.6283 113.555 66.0134C113.53 65.3995 113.4 64.8006 113.154 64.2945C113.023 64.0279 112.9 63.8494 112.724 63.6964C112.551 63.5473 112.341 63.4387 112.099 63.3717C111.617 63.2344 111.027 63.2792 110.46 63.4388C109.312 63.766 108.246 64.5201 107.424 65.4485C106.598 66.3848 106.015 67.5287 105.748 68.7491C105.471 69.9792 105.48 71.2532 105.925 72.3271C106.363 73.4009 107.286 74.2122 108.402 74.5077C108.957 74.6618 109.55 74.6839 110.134 74.6058C110.426 74.5599 110.717 74.4977 111 74.3984C111.263 74.3165 111.505 74.1855 111.757 74.0263C112.255 73.7009 112.726 73.2635 113.162 72.7862C113.599 72.3069 114.002 71.7821 114.386 71.2401C115.151 70.1518 115.817 68.9757 116.391 67.7605C116.963 66.5467 117.467 65.2856 117.767 64.0036C117.909 63.3708 118.02 62.7056 117.943 62.1497C117.926 62.0253 117.882 61.8715 117.835 61.7255C117.787 61.5792 117.731 61.4348 117.666 61.293C117.536 61.0089 117.372 60.7368 117.188 60.4748C116.816 59.9512 116.349 59.4806 115.834 59.0619C115.321 58.6452 114.752 58.2618 114.17 57.9638L114.155 57.9563C114.024 57.8892 113.972 57.7287 114.04 57.5977C114.103 57.4731 114.253 57.4205 114.38 57.4738Z" fill="white"/>
<g opacity="0.2">
<path d="M101.434 70.2494C101.434 70.2494 108.937 74.976 114.275 71.0591C119.612 67.1421 118.506 64.8147 118.789 64.1618C119.073 63.509 120.549 61.7208 120.123 60.472C119.698 59.223 120.675 58.3716 120.675 58.3716C120.675 58.3716 121.401 59.7624 121.287 61.7492C121.174 63.7361 120.379 64.8094 120.379 64.8094L120.294 67.5963C120.294 67.5963 122.65 66.0068 123.444 64.2186C124.239 62.4304 125.005 60.3017 125.147 60.33C125.289 60.3584 126.652 61.4086 126.538 62.6007C126.425 63.7929 125.654 64.5989 125.574 64.8094C125.494 65.0199 123.78 69.9493 121.226 73.1413C118.673 76.3332 115.087 78.7868 112.286 79.7721C109.484 80.7574 107.691 81.7314 104.456 80.8231C101.22 79.9149 100.908 78.8831 100.652 77.7811C100.397 76.6791 100.652 75.7895 100.652 75.7895C100.652 75.7895 99.7079 73.9435 100.01 72.6432C100.312 71.3429 101.434 70.2494 101.434 70.2494Z" fill="#150971"/>
</g>
<path d="M106.601 81.9436C106.006 81.9436 105.418 81.8922 104.839 81.7821C102.761 81.3861 101.301 80.5258 100.5 79.2249C99.7303 77.9766 99.8133 76.6859 99.9088 76.0977C99.1951 74.5318 98.6491 71.6147 100.773 69.7579C100.361 68.3612 100.373 66.0342 102.605 64.2802C102.658 64.2388 102.714 64.2052 102.773 64.1789C103.107 63.2444 104.743 59.1199 107.719 58.5695C108.154 57.0132 109.597 54.8676 112.9 54.8002C113.871 54.0313 117.56 51.4178 120.872 53.1499C124.286 54.9343 126.23 57.0119 126.311 57.0996C126.38 57.1741 126.434 57.261 126.471 57.3559C126.606 57.7081 127.166 59.3082 126.64 60.4302C127.234 61.7876 127.661 63.8988 126.323 65.0895C125.873 66.2927 123.603 72.0972 120.685 74.9786C118.082 77.5488 112.107 81.943 106.601 81.9436ZM103.768 65.349C103.722 65.4193 103.664 65.4834 103.594 65.5383C101.36 67.2933 102.406 69.5891 102.452 69.686C102.621 70.0443 102.504 70.4773 102.174 70.697C99.7866 72.289 101.388 75.4899 101.458 75.6253C101.55 75.8058 101.571 76.0161 101.516 76.2112C101.514 76.2167 101.218 77.3594 101.872 78.4031C102.432 79.2962 103.531 79.9042 105.139 80.2104C110.041 81.1457 116.45 76.9127 119.561 73.8402C122.497 70.9403 124.872 64.4018 124.896 64.3359C124.95 64.1851 125.048 64.0541 125.178 63.9599C126.237 63.1899 125.029 60.7639 125.016 60.7397C124.853 60.4296 124.911 60.0499 125.159 59.8023C125.34 59.6206 125.273 58.7972 125.03 58.0768C124.595 57.6414 122.855 55.9916 120.131 54.5673C117.331 53.1042 113.748 56.1713 113.712 56.2025C113.563 56.3322 113.379 56.4035 113.173 56.3993C109.583 56.328 109.192 59.2756 109.178 59.4008C109.131 59.8041 108.789 60.1082 108.383 60.1082C106.253 60.1082 104.664 63.5346 104.232 64.8551C104.155 65.0892 103.98 65.2641 103.768 65.349Z" fill="#150971"/>
<path d="M121.194 53.46C121.331 53.701 121.426 53.8983 121.527 54.1211C121.625 54.3389 121.717 54.5584 121.796 54.7849C121.953 55.2376 122.088 55.7028 122.162 56.1969C122.235 56.6899 122.265 57.2043 122.196 57.7375C122.118 58.2699 121.937 58.8129 121.629 59.2948L121.621 58.4024C121.664 58.467 121.677 58.4936 121.701 58.5343C121.724 58.5741 121.738 58.6059 121.757 58.6421C121.795 58.7132 121.824 58.7814 121.855 58.8502C121.914 58.988 121.965 59.1244 122.009 59.2624C122.098 59.5375 122.16 59.8153 122.2 60.094C122.282 60.6515 122.275 61.21 122.204 61.7517C122.131 62.2935 121.989 62.8143 121.808 63.3135C121.72 63.5641 121.605 63.8001 121.504 64.0431C121.386 64.2761 121.264 64.5057 121.141 64.735L121.233 64.3796C121.213 64.994 121.157 65.5574 121.083 66.1416C121.008 66.7203 120.905 67.2967 120.771 67.8696C120.64 68.4426 120.464 69.0107 120.244 69.5687C120.033 70.1278 119.746 70.6736 119.391 71.1853L119.109 71.5594L118.826 71.8865C118.636 72.1031 118.442 72.3151 118.243 72.5206C117.851 72.9385 117.438 73.3331 117.017 73.7163C116.168 74.4771 115.284 75.1947 114.318 75.8102C114.287 75.8302 114.245 75.8209 114.225 75.7895C114.209 75.7647 114.213 75.7324 114.23 75.7105C114.937 74.8189 115.675 73.9707 116.392 73.1127C116.752 72.6853 117.111 72.2589 117.462 71.8308L117.98 71.1835L118.233 70.8575L118.442 70.5445C118.704 70.1167 118.925 69.6472 119.084 69.1427C119.252 68.6437 119.379 68.1238 119.476 67.594C119.578 67.0659 119.651 66.5283 119.698 65.9875C119.745 65.4524 119.774 64.8915 119.769 64.3796C119.768 64.271 119.792 64.168 119.836 64.0761L119.861 64.0241L120.151 63.4243C120.227 63.2192 120.32 63.0182 120.385 62.8115C120.52 62.3992 120.62 61.9814 120.664 61.5646C120.703 61.1486 120.7 60.7345 120.635 60.3381C120.603 60.1399 120.555 59.946 120.492 59.7634C120.462 59.672 120.426 59.5824 120.389 59.4999C120.37 59.4588 120.351 59.4161 120.331 59.3813L120.289 59.3062L120.275 59.2818C120.12 59.002 120.133 58.6729 120.281 58.4137C120.433 58.1493 120.543 57.8547 120.592 57.5214C120.635 57.1857 120.616 56.82 120.561 56.4495C120.507 56.0779 120.397 55.6994 120.267 55.3276C120.203 55.1411 120.131 54.9551 120.053 54.7731C119.978 54.5961 119.884 54.3983 119.807 54.2574L119.796 54.2357C119.585 53.8475 119.729 53.362 120.117 53.1514C120.501 52.9434 120.98 53.0822 121.194 53.46Z" fill="#150971"/>
<path d="M109.425 73.0892C109.425 73.0892 111.15 67.7909 114.337 67.7909C114.337 67.7909 114.777 64.0064 119.14 64.0821C119.14 64.0821 123.124 60.6003 126.455 62.3412C129.785 64.0821 131.677 66.1257 131.677 66.1257C131.677 66.1257 132.434 68.0936 131.677 68.8505C131.677 68.8505 133.267 71.8781 131.602 73.0892C131.602 73.0892 129.18 79.8272 126.076 82.8919C122.973 85.9565 116.32 90.5034 110.942 89.4788C105.564 88.4542 106.7 84.4742 106.7 84.4742C106.7 84.4742 104.656 80.5329 107.684 78.514C107.684 78.514 106.259 75.5869 109.053 73.3919" fill="#FF9D9C"/>
<path d="M127.289 68.2816C127.289 68.2816 127.726 70.2884 127.289 71.4048C126.852 72.5213 126.449 73.1248 126.449 73.1248C126.449 73.1248 126.262 77.6015 124.972 79.2005C123.681 80.7995 121.002 83.5305 121.002 83.5305C121.002 83.5305 126.195 82.6956 128.236 80.0873C130.277 77.4789 132.069 72.5808 132.069 72.5808C132.069 72.5808 132.29 71.5153 132.249 70.4477C132.207 69.3801 131.907 68.4829 131.907 68.4829C131.907 68.4829 132.397 67.2941 131.791 66.4685C131.185 65.6428 130.492 65.0232 130.191 64.7852C129.89 64.5472 127.432 63.6655 127.432 63.6655L127.666 64.6873L127.097 66.9956L127.289 68.2816Z" fill="#F7727D"/>
<g opacity="0.4">
<path d="M132.491 71.8282C132.548 71.1795 132.384 70.4857 132.204 69.9492C132.151 70.1139 132.073 70.2634 131.955 70.3814C131.955 70.3814 132.29 71.0203 132.491 71.8282Z" fill="white"/>
<path d="M109.331 74.9225L109.703 74.6198C109.703 74.6198 111.428 69.3214 114.615 69.3214C114.615 69.3214 115.055 65.5369 119.418 65.6126C119.418 65.6126 123.403 62.1309 126.733 63.8718C130.063 65.6126 131.956 67.6563 131.956 67.6563C131.956 67.6563 132.051 67.9065 132.14 68.2602C132.24 67.3895 131.82 66.2939 131.82 66.2939C131.82 66.2939 129.927 64.2502 126.597 62.5094C123.267 60.7686 119.282 64.2503 119.282 64.2503C114.919 64.1746 114.479 67.9591 114.479 67.9591C111.292 67.9591 109.567 73.2574 109.567 73.2574L109.195 73.5602C107.206 75.1229 107.355 77.0558 107.606 78.0402C107.66 77.0805 108.054 75.9254 109.331 74.9225Z" fill="white"/>
<path d="M107.962 80.0447C107.962 80.0447 107.723 79.553 107.632 78.822C106.034 80.0206 106.029 81.8004 106.305 83.0766C106.336 82.0114 106.727 80.8682 107.962 80.0447Z" fill="white"/>
<path d="M106.743 85.4568C106.738 85.7759 106.771 86.1641 106.889 86.5773C106.915 86.2269 106.978 86.0048 106.978 86.0048C106.978 86.0048 106.871 85.7978 106.743 85.4568Z" fill="white"/>
</g>
<path d="M120.333 65.9563C121.653 66.513 122.865 67.3006 123.817 68.4387C124.052 68.7234 124.261 69.0348 124.438 69.3681C124.527 69.5349 124.607 69.7075 124.677 69.8852C124.745 70.0637 124.809 70.2387 124.855 70.4532C124.939 70.8606 124.94 71.2426 124.922 71.6153C124.903 71.9881 124.852 72.3495 124.787 72.705C124.519 74.124 124.055 75.4637 123.505 76.7657C122.943 78.0627 122.287 79.3185 121.505 80.514C121.114 81.1122 120.685 81.6905 120.204 82.2406C119.721 82.7887 119.189 83.3138 118.541 83.7582C118.217 83.9748 117.85 84.1821 117.457 84.3159C117.091 84.4517 116.708 84.5445 116.32 84.612C115.542 84.7379 114.728 84.7077 113.951 84.5004C113.173 84.2995 112.436 83.9119 111.823 83.3789C111.518 83.1105 111.241 82.8102 111.005 82.4814C110.772 82.1506 110.573 81.7981 110.414 81.4304C110.106 80.6928 109.941 79.9079 109.923 79.1373C109.898 78.3659 109.989 77.6079 110.155 76.8809C110.486 75.4086 111.202 74.0208 112.208 72.8949C113.213 71.771 114.501 70.878 116.019 70.4657C116.777 70.2713 117.615 70.191 118.464 70.4402C118.885 70.5642 119.3 70.7815 119.644 71.0911C119.989 71.3944 120.246 71.8079 120.407 72.1642C120.748 72.9096 120.876 73.6954 120.888 74.4568C120.899 75.2207 120.792 75.9704 120.59 76.6928C120.386 77.4143 120.089 78.1125 119.668 78.7537C119.246 79.3883 118.695 79.9816 117.963 80.3696C117.6 80.5619 117.191 80.6944 116.771 80.7363C116.56 80.7598 116.347 80.7535 116.169 80.7446C115.981 80.7351 115.792 80.7182 115.602 80.6903C115.223 80.6334 114.838 80.5447 114.465 80.372C114.094 80.2037 113.728 79.953 113.454 79.5937C113.178 79.2367 113.031 78.7819 113.019 78.3538C113.005 77.9238 113.102 77.5237 113.238 77.1606C113.519 76.434 113.966 75.8415 114.445 75.3062C114.683 75.0413 114.952 74.7682 115.278 74.5491C115.598 74.3337 116.013 74.1402 116.478 74.19C116.946 74.2359 117.314 74.5266 117.555 74.8249C117.804 75.1345 117.97 75.4571 118.097 75.8256C118.146 75.9646 118.072 76.1163 117.933 76.1644C117.799 76.2107 117.654 76.1446 117.6 76.0161L117.593 75.9998C117.361 75.4437 116.897 74.8607 116.425 74.8629C116.193 74.8538 115.94 74.971 115.706 75.1508C115.468 75.3312 115.259 75.5628 115.052 75.8236C114.641 76.3359 114.284 76.8931 114.093 77.4673C114.001 77.7527 113.953 78.0408 113.976 78.3008C113.999 78.5612 114.089 78.7859 114.245 78.9698C114.556 79.3422 115.138 79.5395 115.742 79.6017C115.894 79.6183 116.049 79.6263 116.206 79.6283C116.372 79.63 116.504 79.6279 116.635 79.6075C116.901 79.5696 117.157 79.4757 117.397 79.3358C117.88 79.0566 118.289 78.5988 118.605 78.0757C118.926 77.5532 119.161 76.9616 119.314 76.3523C119.465 75.7425 119.535 75.1105 119.508 74.4956C119.483 73.8817 119.353 73.2828 119.107 72.7768C118.976 72.5101 118.853 72.3316 118.677 72.1787C118.504 72.0295 118.294 71.9209 118.053 71.8538C117.57 71.7165 116.98 71.7613 116.413 71.9209C115.265 72.2482 114.199 73.0022 113.377 73.9307C112.551 74.867 111.968 76.0109 111.701 77.2313C111.424 78.4613 111.433 79.7353 111.878 80.8093C112.316 81.883 113.239 82.6943 114.355 82.9899C114.91 83.144 115.503 83.1661 116.087 83.0879C116.379 83.0421 116.67 82.9799 116.953 82.8805C117.216 82.7987 117.458 82.6677 117.71 82.5084C118.208 82.183 118.679 81.7457 119.115 81.2683C119.552 80.7891 119.955 80.2642 120.339 79.7223C121.104 78.6339 121.77 77.4579 122.344 76.2426C122.916 75.0289 123.42 73.7678 123.72 72.4857C123.862 71.8529 123.973 71.1877 123.896 70.6318C123.879 70.5074 123.835 70.3536 123.788 70.2076C123.74 70.0613 123.684 69.9169 123.619 69.7751C123.489 69.491 123.325 69.2189 123.141 68.9569C122.769 68.4333 122.302 67.9627 121.787 67.5441C121.274 67.1274 120.705 66.744 120.123 66.4459L120.108 66.4384C119.977 66.3713 119.925 66.2108 119.993 66.0799C120.057 65.9555 120.206 65.903 120.333 65.9563Z" fill="white"/>
<g opacity="0.2">
<path d="M107.387 78.7319C107.387 78.7319 114.89 83.4585 120.228 79.5415C125.566 75.6246 124.459 73.2971 124.742 72.6443C125.026 71.9914 126.502 70.2032 126.077 68.9544C125.651 67.7055 126.628 66.854 126.628 66.854C126.628 66.854 127.354 68.2448 127.24 70.2317C127.127 72.2185 126.332 73.2918 126.332 73.2918L126.247 76.0787C126.247 76.0787 128.603 74.4892 129.397 72.701C130.192 70.9129 130.959 68.7841 131.1 68.8125C131.242 68.8408 132.605 69.8911 132.491 71.0832C132.378 72.2753 131.607 73.0813 131.527 73.2918C131.447 73.5023 129.733 78.4318 127.179 81.6237C124.626 84.8157 121.04 87.2693 118.239 88.2546C115.438 89.2399 113.644 90.2139 110.409 89.3056C107.173 88.3973 106.861 87.3656 106.605 86.2635C106.35 85.1615 106.605 84.2719 106.605 84.2719C106.605 84.2719 105.661 82.4259 105.963 81.1256C106.265 79.8254 107.387 78.7319 107.387 78.7319Z" fill="#150971"/>
</g>
<path d="M112.555 90.4258C111.961 90.4258 111.372 90.3745 110.793 90.2644C108.716 89.8686 107.255 89.0083 106.454 87.7074C105.684 86.4592 105.767 85.1682 105.863 84.58C105.149 83.0143 104.603 80.0972 106.727 78.2402C106.315 76.8438 106.327 74.5167 108.559 72.7627C108.612 72.7216 108.668 72.6878 108.727 72.6615C109.061 71.7277 110.697 67.6022 113.673 67.0518C114.108 65.4954 115.551 63.3502 118.853 63.2827C119.825 62.5138 123.514 59.9001 126.826 61.6324C130.24 63.4168 132.184 65.4944 132.265 65.5822C132.334 65.6566 132.388 65.7436 132.425 65.8384C132.56 66.1907 133.12 67.7905 132.594 68.9127C133.188 70.2701 133.615 72.3813 132.277 73.5717C131.827 74.775 129.557 80.5797 126.639 83.4608C124.037 86.0311 118.062 90.4255 112.555 90.4258ZM109.722 73.8319C109.676 73.9022 109.618 73.966 109.548 74.0209C107.314 75.7759 108.36 78.0714 108.406 78.1683C108.575 78.5266 108.458 78.9594 108.128 79.1794C105.725 80.7823 107.341 83.971 107.411 84.1059C107.505 84.2871 107.526 84.4972 107.47 84.6936C107.468 84.6993 107.172 85.8421 107.826 86.8857C108.386 87.7788 109.485 88.3865 111.093 88.6928C115.995 89.6292 122.404 85.395 125.515 82.3225C128.451 79.4229 130.826 72.8842 130.85 72.8182C130.904 72.6675 131.002 72.5365 131.132 72.4422C132.028 71.7903 131.296 69.8496 130.969 69.2211C130.808 68.9114 130.866 68.5318 131.113 68.285C131.294 68.1032 131.227 67.2799 130.984 66.5594C130.549 66.1241 128.809 64.474 126.085 63.0499C123.272 61.5809 119.703 64.6534 119.667 64.6843C119.518 64.815 119.324 64.877 119.127 64.882C115.619 64.8132 115.172 67.5738 115.132 67.8878C115.08 68.2867 114.74 68.5906 114.338 68.5906C112.2 68.5906 110.616 72.0165 110.186 73.3366C110.11 73.5715 109.935 73.747 109.722 73.8319Z" fill="#150971"/>
<path d="M127.148 61.9422C127.285 62.1831 127.379 62.3805 127.481 62.6033C127.579 62.821 127.671 63.0405 127.75 63.2671C127.907 63.7198 128.042 64.185 128.116 64.6791C128.188 65.172 128.219 65.6865 128.15 66.2196C128.072 66.7521 127.891 67.295 127.583 67.7769L127.575 66.8845C127.618 66.9492 127.631 66.9758 127.655 67.0165C127.678 67.0563 127.692 67.0881 127.711 67.1243C127.749 67.1954 127.778 67.2636 127.809 67.3324C127.868 67.4703 127.919 67.6066 127.963 67.7446C128.052 68.0197 128.114 68.2975 128.154 68.5762C128.236 69.1338 128.229 69.6923 128.158 70.234C128.085 70.7758 127.943 71.2966 127.762 71.7957C127.674 72.0464 127.559 72.2824 127.458 72.5254C127.34 72.7583 127.218 72.988 127.095 73.2173L127.187 72.8619C127.167 73.4763 127.111 74.0397 127.037 74.6239C126.962 75.2026 126.86 75.779 126.725 76.3518C126.594 76.9248 126.418 77.4929 126.198 78.0509C125.987 78.6101 125.7 79.1558 125.345 79.6675L125.063 80.0416L124.78 80.3687C124.59 80.5853 124.396 80.7973 124.197 81.0028C123.805 81.4207 123.392 81.8153 122.971 82.1985C122.122 82.9593 121.239 83.6769 120.272 84.2924C120.241 84.3124 120.199 84.3032 120.179 84.2717C120.163 84.2469 120.167 84.2146 120.184 84.1927C120.892 83.3011 121.629 82.4529 122.346 81.5949C122.706 81.1676 123.065 80.7412 123.416 80.313L123.934 79.6657L124.187 79.3396L124.396 79.0267C124.658 78.5989 124.879 78.1293 125.038 77.6249C125.206 77.1259 125.334 76.606 125.43 76.0762C125.532 75.5481 125.605 75.0105 125.652 74.4697C125.699 73.9346 125.729 73.3737 125.723 72.8618C125.722 72.7532 125.746 72.6502 125.79 72.5583L125.815 72.5064L126.105 71.9065C126.181 71.7014 126.274 71.5004 126.339 71.2937C126.474 70.8815 126.574 70.4636 126.618 70.0468C126.657 69.6308 126.655 69.2168 126.589 68.8203C126.557 68.6221 126.509 68.4282 126.446 68.2456C126.416 68.1542 126.38 68.0646 126.343 67.9821C126.324 67.941 126.305 67.8984 126.285 67.8635L126.243 67.7884L126.23 67.764C126.074 67.4842 126.088 67.1551 126.235 66.8959C126.387 66.6315 126.497 66.3369 126.546 66.0036C126.589 65.6679 126.57 65.3022 126.515 64.9317C126.461 64.5601 126.351 64.1816 126.221 63.8098C126.157 63.6233 126.085 63.4373 126.007 63.2553C125.932 63.0783 125.838 62.8804 125.762 62.7397L125.75 62.718C125.539 62.3297 125.683 61.8443 126.071 61.6337C126.455 61.4255 126.934 61.5643 127.148 61.9422Z" fill="#150971"/>
<path d="M52.1191 64.032C52.1191 64.032 66.6064 45.3434 67.6488 44.4351C68.6912 43.5269 70.0912 40.6885 71.5484 40.5749C73.0055 40.4614 75.2058 45.3434 76.6034 46.0246C78.0011 46.7058 80.2718 48.5224 80.953 50.1119C81.6342 51.7014 82.7695 53.1069 83.2237 53.5395C83.6778 53.972 85.526 56.4698 85.526 56.4698L67.2611 75.5792L52.1191 64.032Z" fill="#FFCE96"/>
<g opacity="0.4">
<path d="M67.6488 47.5062C68.6912 46.5979 70.0913 43.7596 71.5484 43.646C73.0055 43.5325 75.2059 48.4145 76.6035 49.0957C78.0011 49.7769 80.2718 51.5934 80.953 53.1829C81.6342 54.7724 82.7695 56.178 83.2236 56.6106C83.405 56.7833 83.8091 57.2862 84.2287 57.8271L85.526 56.4698C85.526 56.4698 83.6778 53.9721 83.2236 53.5395C82.7695 53.107 81.6342 51.7014 80.9529 50.1119C80.2717 48.5224 78.001 46.7058 76.6034 46.0246C75.2058 45.3434 73.0055 40.4614 71.5484 40.5749C70.0913 40.6885 68.6912 43.5268 67.6488 44.4351C66.6064 45.3434 52.1191 64.032 52.1191 64.032L53.617 65.1743C57.3465 60.3772 66.8135 48.2341 67.6488 47.5062Z" fill="white"/>
</g>
<g opacity="0.2">
<path d="M55.4892 59.6979C55.4892 59.6979 59.0189 64.4173 67.2611 64.5309C75.5033 64.6444 84.5488 55.1716 84.5488 55.1716L85.5261 56.4699L67.2611 75.5793L52.1191 64.0321L55.7169 59.4057" fill="#150971"/>
</g>
<path d="M67.2609 76.3791C67.091 76.3791 66.9203 76.3251 66.7761 76.2153L51.6341 64.6681C51.4646 64.5386 51.3536 64.347 51.3261 64.1356C51.2985 63.9242 51.3564 63.7104 51.487 63.5419C52.9747 61.6226 66.053 44.7646 67.1234 43.8322C67.4136 43.5791 67.7887 43.0748 68.1856 42.5407C69.1126 41.294 70.1631 39.8806 71.4864 39.7775C72.7667 39.6802 73.8457 41.2349 75.098 43.037C75.7027 43.9075 76.5308 45.0995 76.9539 45.3057C78.386 46.0036 80.8811 47.9137 81.6882 49.7968C82.3251 51.2831 83.3881 52.5915 83.7753 52.9602C84.2553 53.4175 85.8535 55.5677 86.1691 55.9942C86.4006 56.3069 86.3732 56.7412 86.1043 57.0227L67.8393 76.132C67.6832 76.2952 67.4727 76.3791 67.2609 76.3791ZM53.2455 63.8848L67.1773 74.5092L84.4807 56.406C83.7658 55.4538 82.9045 54.3399 82.6721 54.1188C82.1911 53.6608 80.9586 52.1558 80.2178 50.4268C79.63 49.0554 77.5124 47.3574 76.2529 46.7437C75.4549 46.3547 74.6806 45.2403 73.7841 43.9498C73.1784 43.078 72.0511 41.4553 71.5856 41.372C71.0128 41.4191 70.084 42.6685 69.4694 43.4952C69.0196 44.1003 68.5946 44.6718 68.1743 45.0382C67.4219 45.7152 59.0191 56.443 53.2455 63.8848Z" fill="#150971"/>
<path d="M44.4075 68.2525C44.4075 68.2525 55.2781 60.0072 72.0096 63.6718C88.7411 67.3363 90.5704 83.2555 90.5704 83.2555C90.5704 83.2555 76.1905 88.1787 68.2816 82.2845C60.3728 76.3903 40.7369 77.2007 44.4075 68.2525Z" fill="#FFCB57"/>
<g opacity="0.4">
<path d="M63.7252 62.734C63.7252 62.734 59.7858 64.6875 62.8123 66.8001L65.2111 66.8186C65.2111 66.8186 61.4504 68.4018 63.9969 70.9858L64.7145 70.999C64.7145 70.999 61.7724 73.308 64.7703 75.341C64.7703 75.341 67.7374 75.2503 68.9834 75.8048C70.2294 76.3594 71.2997 76.8407 71.2997 76.8407C71.2997 76.8407 74.5309 75.6098 72.1346 72.531C72.1346 72.531 75.666 71.4799 74.285 68.6914L76.282 69.6939C76.282 69.6939 80.0853 68.1663 78.2691 65.8925C76.453 63.6186 65.1561 62.007 63.7252 62.734Z" fill="white"/>
</g>
<g opacity="0.2">
<path d="M58.4057 62.926C58.4057 62.926 55.9702 66.2426 60.5201 67.0301L61.8143 66.8976C61.8143 66.8976 58.1701 69.4178 61.0503 71.0082C61.0503 71.0082 60.3069 75.5588 63.8598 75.5432C67.4126 75.5276 67.2535 74.5201 69.8195 75.748C72.3855 76.9759 73.6073 79.0918 73.6073 79.0918C73.6073 79.0918 79.0708 77.7543 75.3227 73.8012C75.3227 73.8012 79.9736 73.8892 77.8835 70.2327L81.2695 73.1079C81.2695 73.1079 86.4539 74.5741 84.507 70.0053C84.507 70.0053 90.1939 76.0045 90.9728 83.0428C90.9728 83.0428 84.8865 84.6852 79.9463 84.9593C75.0061 85.2334 70.9091 83.5424 69.7966 82.8071C68.6841 82.0717 66.1894 80.1847 62.1708 78.9923C58.1522 77.8 49.8095 75.7578 47.023 74.0077C44.2365 72.2575 44.2498 70.534 44.3612 69.8165C44.4727 69.0989 44.8098 68.0398 44.8098 68.0398C44.8098 68.0398 51.0087 63.7213 58.4057 62.926Z" fill="#150971"/>
</g>
<path d="M78.8173 85.996C74.9919 85.996 70.9433 85.267 67.8022 82.9259C64.913 80.7725 60.3158 79.5313 55.87 78.3309C50.3639 76.8441 45.1632 75.4401 43.6149 72.3064C42.9853 71.0323 43.0026 69.5663 43.6661 67.9488C43.7203 67.8169 43.8089 67.7015 43.9227 67.615C44.3785 67.2695 55.2803 59.1887 72.1794 62.8903C81.1083 64.8461 85.8507 70.2504 88.2566 74.4394C90.8578 78.9682 91.3444 82.995 91.3638 83.164C91.4067 83.5374 91.1839 83.8905 90.8282 84.0121C90.4572 84.1392 84.9215 85.996 78.8173 85.996ZM45.0641 68.7659C44.6557 69.864 44.6511 70.7922 45.0491 71.5978C46.2775 74.0837 51.1395 75.3965 56.287 76.7862C60.8775 78.0259 65.6243 79.3075 68.7583 81.6431C75.3121 86.5277 86.8336 83.5414 89.6678 82.699C89.4253 81.4182 88.7014 78.4069 86.8377 75.1815C83.5704 69.5273 78.5234 65.9175 71.8369 64.4531C56.819 61.1635 46.5152 67.7637 45.0641 68.7659Z" fill="#150971"/>
<path d="M87.1625 84.9791C86.81 84.9791 86.4871 84.7443 86.3908 84.3875C86.3518 84.2441 82.3317 69.9761 69.2646 68.1146C55.9731 66.2219 45.1573 73.039 45.0496 73.108C44.6779 73.346 44.183 73.2385 43.9444 72.8671C43.7058 72.4956 43.8132 72.0011 44.1845 71.7621C44.6438 71.4668 55.5907 64.5515 69.4903 66.5309C75.3456 67.365 80.3946 70.6507 84.0913 76.0334C86.8627 80.0683 87.8929 83.8131 87.9354 83.9704C88.0505 84.3969 87.7981 84.8361 87.3716 84.9512C87.3017 84.97 87.2315 84.9791 87.1625 84.9791Z" fill="#150971"/>
<path d="M81.5088 85.8645C81.089 85.8645 80.7368 85.5374 80.7111 85.1127C80.6852 84.707 79.9522 75.1132 69.3456 72.4557C58.5482 69.7506 50.2287 76.1922 50.1458 76.2576C49.7994 76.5312 49.2966 76.4726 49.0226 76.1269C48.7485 75.7808 48.8063 75.2786 49.1521 75.0041C49.5142 74.7169 58.1513 68.0011 69.7344 70.9038C75.8757 72.4427 78.9691 76.1909 80.4827 79.0642C82.1199 82.1721 82.3011 84.9018 82.308 85.0163C82.3346 85.4574 81.9987 85.8362 81.5577 85.8628C81.5413 85.8639 81.525 85.8645 81.5088 85.8645Z" fill="#150971"/>
<path d="M75.7498 85.8087C75.3909 85.8087 75.0646 85.5655 74.974 85.2017C74.955 85.1249 73.012 77.528 68.3621 76.464C63.5472 75.362 58.228 78.6567 58.1748 78.69C57.8009 78.9246 57.307 78.8121 57.072 78.4384C56.8369 78.0643 56.9496 77.5706 57.3236 77.3354C57.5636 77.1847 63.263 73.6568 68.7189 74.9042C74.3288 76.1879 76.4397 84.4647 76.5268 84.8163C76.6329 85.2448 76.3716 85.6784 75.9431 85.7846C75.8784 85.8009 75.8136 85.8087 75.7498 85.8087Z" fill="#150971"/>
<path d="M41.8843 63.0369C41.8843 63.0369 32.9226 77.1096 48.4571 87.7757C64.9197 99.0789 75.7224 87.5501 75.7224 87.5501" fill="white"/>
<g opacity="0.2">
<path d="M41.8843 63.0369C41.8843 63.0369 32.9226 77.1096 48.4571 87.7757C64.9197 99.0789 75.7224 87.5501 75.7224 87.5501" fill="#150971"/>
</g>
<path d="M76.7989 86.4825C79.5107 82.4435 73.8926 73.9212 64.2506 67.4475C54.6085 60.9737 44.5937 59 41.8818 63.039C39.17 67.078 44.7881 75.6003 54.4302 82.074C64.0723 88.5478 74.0871 90.5215 76.7989 86.4825Z" fill="white"/>
<path d="M71.4566 81.2753C73.0587 78.8891 69.7396 73.8541 64.043 70.0295C58.3465 66.2048 52.4298 65.0387 50.8277 67.4249C49.2255 69.8112 52.5447 74.8461 58.2412 78.6708C63.9377 82.4954 69.8545 83.6615 71.4566 81.2753Z" fill="#FFD671"/>
<path d="M71.57 89.3765C70.5043 89.3765 69.3317 89.2531 68.064 89.0033C63.7372 88.1506 58.7386 85.9248 53.9889 82.7359C43.8264 75.9129 38.2183 67.064 41.2216 62.5906C42.7244 60.3521 46.0644 59.6142 50.6262 60.5135C54.953 61.3663 59.9516 63.592 64.7012 66.781C69.4507 69.9696 73.4032 73.7535 75.8305 77.4353C78.3897 81.3171 78.9714 84.6878 77.4684 86.9261C76.3832 88.5425 74.3394 89.3765 71.57 89.3765ZM47.1275 61.7415C44.9267 61.7415 43.3192 62.3365 42.5499 63.4822C40.13 67.0867 45.7768 75.2955 54.8807 81.408C59.4581 84.481 64.25 86.6211 68.3733 87.4338C72.2053 88.1886 75.0362 87.6791 76.1403 86.0345C77.2443 84.3899 76.6446 81.5767 74.4949 78.316C72.1818 74.807 68.387 71.1823 63.8095 68.1092C59.232 65.0359 54.4402 62.8958 50.3169 62.0832C49.1552 61.8542 48.085 61.7415 47.1275 61.7415Z" fill="#150971"/>
<path d="M62.7169 93.5296C58.6633 93.5299 53.6567 92.3157 48.0045 88.435C39.6712 82.713 38.2619 75.9897 38.547 71.3569C38.8548 66.3568 41.1137 62.7575 41.2098 62.6067C41.447 62.2341 41.9414 62.1242 42.3141 62.3617C42.6864 62.5986 42.7963 63.0926 42.5598 63.4652C42.5382 63.499 40.4058 66.9152 40.14 71.5186C39.7872 77.6303 42.7379 82.8781 48.9102 87.1158C55.5259 91.6585 61.9581 93.0114 68.0274 91.1369C72.5312 89.7462 75.1134 87.0299 75.139 87.0028C75.441 86.6799 75.9474 86.664 76.2696 86.9659C76.5919 87.2679 76.6085 87.7741 76.3063 88.0964C76.1901 88.2206 73.4042 91.151 68.4995 92.6654C66.8966 93.1604 64.9512 93.5296 62.7169 93.5296Z" fill="#150971"/>
<path d="M90.5893 83.9928C90.5893 83.9928 100.411 74.5227 117.458 76.1879C134.505 77.853 138.2 93.4452 138.2 93.4452C138.2 93.4452 124.501 100.03 115.952 95.1104C107.403 90.1902 88.0001 93.3115 90.5893 83.9928Z" fill="#FFCB57"/>
<g opacity="0.4">
<path d="M109.121 76.2338C109.121 76.2338 105.439 78.6384 108.694 80.3792L111.078 80.1146C111.078 80.1146 107.531 82.1304 110.364 84.3959L111.078 84.3243C111.078 84.3243 108.429 86.9643 111.646 88.6294C111.646 88.6294 114.582 88.1893 115.884 88.593C117.187 88.9967 118.307 89.3485 118.307 89.3485C118.307 89.3485 121.37 87.7449 118.628 84.9704C118.628 84.9704 122.01 83.51 120.31 80.9039L122.411 81.6638C122.411 81.6638 126.008 79.6982 123.936 77.6545C121.864 75.6108 110.456 75.3431 109.121 76.2338Z" fill="white"/>
</g>
<g opacity="0.2">
<path d="M103.486 77.311C103.486 77.311 101.459 80.8918 106.07 81.137L107.339 80.8528C107.339 80.8528 104.018 83.7852 107.066 85.0248C107.066 85.0248 106.864 89.6312 110.39 89.1966C113.917 88.762 113.64 87.7803 116.333 88.6969C119.026 89.6135 120.489 91.5705 120.489 91.5705C120.489 91.5705 125.756 89.5979 121.568 86.1145C121.568 86.1145 126.197 85.6532 123.69 82.2689L127.391 84.7245C127.391 84.7245 132.713 85.5689 130.24 81.2616C130.24 81.2616 136.595 86.5481 138.199 93.4454C138.199 93.4454 132.349 95.7942 127.476 96.6492C122.602 97.5042 118.334 96.3083 117.143 95.7094C115.951 95.1105 113.251 93.5309 109.12 92.8209C104.989 92.111 96.4637 91.0673 93.4902 89.658C90.5166 88.2488 90.3265 86.5358 90.3526 85.8101C90.3786 85.0844 90.5884 83.993 90.5884 83.993C90.5884 83.993 96.2346 78.9734 103.486 77.311Z" fill="#150971"/>
</g>
<path d="M123.722 97.746C120.884 97.746 118.029 97.2293 115.552 95.804C112.429 94.0063 107.717 93.3161 103.161 92.6484C97.5176 91.8217 92.1875 91.0408 90.2805 88.1118C89.5051 86.9211 89.3493 85.4632 89.8173 83.779C89.8555 83.6413 89.93 83.5163 90.0327 83.4173C90.4446 83.0197 100.318 73.7074 117.535 75.3921C126.632 76.2805 131.979 81.0877 134.862 84.9638C137.979 89.1541 138.938 93.095 138.977 93.2609C139.063 93.6264 138.884 94.0033 138.545 94.1663C138.132 94.3649 130.983 97.746 123.722 97.746ZM91.302 84.4253C91.0259 85.564 91.131 86.4862 91.6212 87.239C93.1342 89.5626 98.117 90.2928 103.393 91.0656C108.097 91.7548 112.962 92.4678 116.35 94.4173C123.434 98.4944 134.523 94.1699 137.238 92.999C136.846 91.7559 135.772 88.8508 133.541 85.8678C129.629 80.6386 124.192 77.6496 117.379 76.984C102.076 75.491 92.6246 83.259 91.302 84.4253Z" fill="#150971"/>
<path d="M134.926 95.5643C134.608 95.5643 134.308 95.3745 134.183 95.0623C134.127 94.9246 128.452 81.2302 115.257 80.9235C101.839 80.6113 91.8985 88.6568 91.7997 88.7384C91.4587 89.019 90.9546 88.9704 90.6739 88.6295C90.3931 88.2887 90.4414 87.7851 90.7819 87.5039C91.203 87.1566 101.256 78.9938 115.294 79.3242C121.207 79.4617 126.608 82.1288 130.914 87.0378C134.142 90.7178 135.607 94.3147 135.667 94.466C135.832 94.8759 135.633 95.3417 135.223 95.5065C135.126 95.5456 135.025 95.5643 134.926 95.5643Z" fill="#150971"/>
<path d="M129.415 97.1107C129.035 97.1107 128.698 96.8394 128.629 96.4525C128.555 96.0528 126.695 86.6123 115.849 85.2244C104.779 83.8079 97.307 91.1896 97.2328 91.2643C96.9215 91.5778 96.4151 91.5799 96.1017 91.2685C95.7881 90.9573 95.7862 90.4509 96.0975 90.1374C96.423 89.8093 104.207 82.1207 116.052 83.6377C122.332 84.4412 125.846 87.7983 127.688 90.4733C129.68 93.3664 130.183 96.0554 130.203 96.1687C130.281 96.6032 129.992 97.0193 129.558 97.0977C129.51 97.1063 129.462 97.1107 129.415 97.1107Z" fill="#150971"/>
<path d="M123.69 97.7344C123.367 97.7344 123.063 97.5373 122.942 97.2176C122.914 97.1439 120.088 89.8289 115.345 89.3209C110.446 88.7944 105.54 92.6942 105.491 92.7338C105.147 93.0103 104.644 92.9564 104.367 92.6127C104.09 92.269 104.143 91.7659 104.487 91.4886C104.707 91.3105 109.952 87.1342 115.516 87.73C121.238 88.3432 124.31 96.313 124.438 96.6521C124.594 97.065 124.386 97.5262 123.973 97.6824C123.88 97.7177 123.784 97.7344 123.69 97.7344Z" fill="#150971"/>
<path d="M54.7866 83.0934C54.7866 83.0934 64.6087 73.6233 81.6556 75.2885C98.7026 76.9536 102.397 92.5458 102.397 92.5458C102.397 92.5458 88.6983 99.1311 80.1495 94.2109C71.6006 89.2908 52.1973 92.4121 54.7866 83.0934Z" fill="#FFCB57"/>
<g opacity="0.4">
<path d="M73.3192 75.3342C73.3192 75.3342 69.6377 77.7387 72.8924 79.4796L75.2766 79.2149C75.2766 79.2149 71.729 81.2307 74.5625 83.4962L75.2766 83.4246C75.2766 83.4246 72.6275 86.0645 75.8443 87.7297C75.8443 87.7297 78.78 87.2896 80.0827 87.6933C81.3854 88.0971 82.5051 88.4488 82.5051 88.4488C82.5051 88.4488 85.5686 86.8452 82.8258 84.0707C82.8258 84.0707 86.2085 82.6103 84.5082 80.0042L86.6095 80.7641C86.6095 80.7641 90.206 78.7986 88.1342 76.7548C86.0625 74.7111 74.6543 74.4434 73.3192 75.3342Z" fill="white"/>
</g>
<g opacity="0.2">
<path d="M67.6843 76.4114C67.6843 76.4114 65.6571 79.9921 70.2681 80.2373L71.5376 79.9531C71.5376 79.9531 68.2161 82.8856 71.2638 84.1251C71.2638 84.1251 71.0625 88.7316 74.5887 88.297C78.1149 87.8623 77.838 86.8806 80.531 87.7972C83.2239 88.7139 84.6868 90.6708 84.6868 90.6708C84.6868 90.6708 89.9544 88.6982 85.7661 85.2148C85.7661 85.2148 90.395 84.7536 87.8881 81.3692L91.5895 83.8249C91.5895 83.8249 96.9107 84.6692 94.4385 80.362C94.4385 80.362 100.793 85.6484 102.397 92.5457C102.397 92.5457 96.5471 94.8946 91.6737 95.7496C86.8004 96.6046 82.5325 95.4087 81.341 94.8098C80.1495 94.2109 77.4496 92.6312 73.3184 91.9212C69.1873 91.2112 60.6619 90.1676 57.6884 88.7584C54.7149 87.3492 54.5247 85.6361 54.5508 84.9105C54.5769 84.1848 54.7866 83.0933 54.7866 83.0933C54.7866 83.0933 60.4328 78.0737 67.6843 76.4114Z" fill="#150971"/>
</g>
<path d="M87.922 96.8463C85.0834 96.8463 82.2282 96.3296 79.751 94.9041C76.6278 93.1066 71.9164 92.4164 67.36 91.7487C61.717 90.922 56.3868 90.1412 54.4796 87.2121C53.7044 86.0214 53.5485 84.5635 54.0164 82.8793C54.0547 82.7416 54.1291 82.6166 54.2319 82.5177C54.6439 82.1203 64.5168 72.8067 81.734 74.4924C90.8314 75.3808 96.1779 80.188 99.0615 84.0641C102.179 88.2544 103.137 92.1953 103.176 92.3612C103.263 92.7268 103.083 93.1035 102.744 93.2666C102.331 93.4652 95.1823 96.8463 87.922 96.8463ZM55.5011 83.5256C55.2251 84.6643 55.3302 85.5865 55.8203 86.3393C57.3333 88.6629 62.3164 89.3931 67.592 90.1659C72.2966 90.8552 77.1615 91.5678 80.549 93.5173C87.6417 97.6006 98.7238 93.2718 101.437 92.0995C101.045 90.8567 99.9713 87.9514 97.74 84.9682C93.8285 79.7389 88.3909 76.75 81.5785 76.0844C66.2758 74.5916 56.8237 82.3593 55.5011 83.5256Z" fill="#150971"/>
<path d="M99.1248 94.6649C98.8078 94.6649 98.5076 94.4751 98.3823 94.1629C98.3267 94.0252 92.6514 80.3308 79.4558 80.0239C66.028 79.7033 56.0977 87.7575 55.9989 87.839C55.6579 88.1197 55.1537 88.0708 54.8731 87.7302C54.5923 87.3894 54.6406 86.8858 54.9811 86.6046C55.4022 86.2572 65.4544 78.0934 79.493 78.4246C85.4059 78.5621 90.8073 81.2295 95.1131 86.1385C98.3411 89.8185 99.8059 93.4154 99.8667 93.5667C100.031 93.9765 99.8326 94.4423 99.4226 94.6071C99.3249 94.6462 99.224 94.6649 99.1248 94.6649Z" fill="#150971"/>
<path d="M93.6149 96.2112C93.2353 96.2112 92.8983 95.9399 92.8287 95.553C92.755 95.1533 90.8955 85.713 80.0494 84.3252C69.0082 82.9137 61.5068 90.2911 61.4323 90.3658C61.1205 90.6783 60.6142 90.6799 60.3013 90.3685C59.9883 90.057 59.9865 89.5514 60.2975 89.2381C60.623 88.9101 68.4072 81.2217 80.2524 82.7384C86.5322 83.542 90.0462 86.8991 91.8883 89.5738C93.8807 92.4672 94.3827 95.1559 94.403 95.2692C94.4815 95.7037 94.1926 96.1198 93.7579 96.1982C93.7099 96.2068 93.6621 96.2112 93.6149 96.2112Z" fill="#150971"/>
<path d="M87.8895 96.8351C87.5666 96.8351 87.2625 96.638 87.1413 96.3183C87.1133 96.2446 84.2874 88.9296 79.5446 88.4216C74.6472 87.894 69.7396 91.7952 69.6905 91.8345C69.3466 92.111 68.8432 92.0571 68.566 91.7133C68.2888 91.3697 68.3424 90.8666 68.686 90.5893C68.9064 90.4114 74.1511 86.2372 79.715 86.8307C85.4369 87.4439 88.5097 95.4137 88.6377 95.7527C88.7937 96.1656 88.5854 96.6268 88.1724 96.783C88.0792 96.8184 87.9836 96.8351 87.8895 96.8351Z" fill="#150971"/>
<path d="M55.311 144.359C54.5485 145.271 54.1531 146.902 53.9558 148.104C53.8078 149.006 54.2155 149.917 54.9995 150.387C66.2718 157.14 84.0192 156.665 84.0192 156.665C84.0192 156.665 101.712 157.138 112.987 150.418C113.791 149.939 114.234 149.027 114.083 148.103C113.885 146.901 113.49 145.27 112.727 144.359" fill="white"/>
<g opacity="0.2">
<path d="M59.0291 144.359C58.3653 145.271 58.0211 146.902 57.8493 148.104C57.7206 149.006 58.0754 149.917 58.7579 150.387C68.5707 157.14 84.0201 156.665 84.0201 156.665C84.0201 156.665 99.4223 157.138 109.237 150.418C109.937 149.939 110.323 149.027 110.191 148.103C110.019 146.901 109.675 145.27 109.011 144.359" fill="#150971"/>
</g>
<path d="M71.5306 125.613C83.5653 111.08 72.7584 89.6552 72.7584 89.6552L70.2688 85.8286L70.2688 85.8284C48.5679 84.0491 40.6422 78.0563 37.8022 73.3835C37.8022 73.3835 35.5845 73.2829 34.9344 73.0459C33.2604 72.4356 32.615 72.2363 32.615 72.2363C28.3116 78.7605 18.2459 101.156 26.5459 121.263C35.0357 132.57 59.4987 140.142 71.5306 125.613Z" fill="#F9754B"/>
<path d="M131.704 67.407C131.704 67.407 135.64 86.3489 84.0194 86.3489C78.9101 86.3489 74.3471 86.1628 70.2687 85.8284L70.2687 85.8286L72.7583 89.6551C72.7583 89.6551 83.5652 111.08 71.5306 125.613C59.4986 140.142 35.0356 132.569 26.5459 121.263C27.7776 124.247 29.4243 127.088 31.5663 129.7C46.0704 147.383 75.3517 148.202 82.4454 148.131C83.4947 148.121 84.5442 148.121 85.5934 148.131C92.6871 148.202 121.969 147.383 136.473 129.7C153.049 109.491 140.181 75.5815 131.704 67.407Z" fill="white"/>
<g opacity="0.2">
<path d="M75.5231 124.576C75.5231 124.576 76.8283 127.505 79.629 127.467C82.4297 127.429 82.2527 124.866 82.2527 124.866L83.7922 126.022L83.6353 127.859C83.6353 127.859 82.4213 129.154 80.6468 129.616C78.8723 130.078 77.3367 128.885 77.2171 128.867C77.0976 128.849 74.1418 126.53 75.5231 124.576Z" fill="#150971"/>
</g>
<g opacity="0.2">
<path d="M92.3609 124.576C92.3609 124.576 91.0557 127.505 88.255 127.467C85.4542 127.429 85.6312 124.866 85.6312 124.866L84.0918 126.022L84.2486 127.859C84.2486 127.859 85.4626 129.154 87.2371 129.616C89.0116 130.078 90.5472 128.885 90.6668 128.867C90.7864 128.849 93.7421 126.53 92.3609 124.576Z" fill="#150971"/>
</g>
<g opacity="0.4">
<path d="M34.5784 131.828C32.4364 129.217 30.7897 126.375 29.558 123.391C22.0591 105.225 29.1278 82.797 36.1891 73.1818C35.3506 72.2363 32.6149 72.2363 32.6149 72.2363C28.0088 78.2686 18.2458 101.156 26.5459 121.263C27.7775 124.247 29.4243 127.088 31.5662 129.7C34.2094 132.922 37.3445 135.582 40.7454 137.782C38.5021 136.047 36.4206 134.074 34.5784 131.828Z" fill="white"/>
</g>
<path d="M86.6313 129.511C85.0796 129.208 84.02 127.278 84.02 127.278C84.02 127.278 82.9603 129.208 81.4086 129.511C79.857 129.813 78.5703 129.511 78.5703 129.511C78.5703 129.511 79.9706 139.237 84.02 139.577C88.0694 139.237 89.4696 129.511 89.4696 129.511C89.4696 129.511 88.183 129.813 86.6313 129.511Z" fill="#150971"/>
<path d="M84.0202 132.917C81.3332 132.917 79.6299 133.977 79.6299 133.977C80.9921 139.996 84.0202 139.577 84.0202 139.577C84.0202 139.577 87.0482 139.996 88.4105 133.977C88.4105 133.977 86.7072 132.917 84.0202 132.917Z" fill="#FA518F"/>
<path d="M87.8799 122.359C87.6528 120.37 84.0197 120.506 84.0197 120.506C84.0197 120.506 80.3865 120.37 80.1595 122.359C79.9324 124.347 84.0197 125.613 84.0197 125.613C84.0197 125.613 88.107 124.347 87.8799 122.359Z" fill="#150971"/>
<path d="M70.5658 121.923C70.5658 121.923 71.5308 109.377 64.3782 102.678C57.2255 95.9799 46.0991 95.4131 46.0991 95.4131C46.0991 95.4131 39.0599 108.469 46.8938 117.779C54.7277 127.088 67.4436 123.834 67.4436 123.834" fill="white"/>
<path d="M54.8089 97.2126C54.8089 97.2126 50.3563 104.098 52.9108 113.521C55.4654 122.945 67.8149 123.913 70.2688 115.567C70.2688 115.567 70.0584 109.273 65.0893 103.393C61.1944 99.2725 55.6967 97.4993 54.8089 97.2126Z" fill="#150971"/>
<path d="M60.8769 128.332C59.8756 128.596 58.8679 128.745 57.859 128.872C56.8497 128.993 55.8378 129.067 54.8243 129.112C54.3176 129.136 53.8105 129.153 53.3028 129.16L52.5416 129.173L51.7793 129.169C50.7626 129.157 49.7447 129.124 48.7224 129.013C48.5988 129 48.5094 128.889 48.5228 128.765C48.5335 128.667 48.6062 128.59 48.6976 128.57C49.701 128.345 50.7089 128.199 51.7179 128.074L52.475 127.984L53.233 127.913C53.7382 127.863 54.244 127.823 54.7502 127.789C55.7624 127.721 56.7763 127.682 57.7927 127.689C58.8095 127.703 59.8276 127.739 60.852 127.888C60.976 127.907 61.0617 128.022 61.0436 128.146C61.03 128.238 60.962 128.31 60.8769 128.332Z" fill="#150971"/>
<path d="M62.097 133.645C61.0855 134.082 60.0492 134.408 59.008 134.712C57.9655 135.01 56.9128 135.262 55.8538 135.486C55.3245 135.599 54.7937 135.705 54.2607 135.801L53.4621 135.949L52.6595 136.08C51.588 136.248 50.5121 136.396 49.4192 136.467C49.2952 136.475 49.1883 136.381 49.1802 136.257C49.1737 136.157 49.234 136.068 49.3226 136.033C50.3426 135.634 51.3796 135.312 52.4211 135.009L53.2033 134.787L53.9893 134.582C54.5128 134.443 55.0386 134.315 55.5658 134.192C56.6196 133.946 57.6799 133.727 58.7504 133.555C59.8222 133.388 60.8989 133.244 62.0003 133.211C62.1252 133.207 62.2295 133.305 62.2333 133.43C62.2362 133.525 62.1793 133.609 62.097 133.645Z" fill="#150971"/>
<path d="M63.3093 139.789C62.7439 140.185 62.1449 140.475 61.538 140.739C60.9293 140.998 60.307 141.214 59.6757 141.401C59.0446 141.59 58.407 141.757 57.7587 141.891C57.1087 142.019 56.455 142.136 55.7763 142.174C55.6498 142.181 55.5416 142.084 55.5345 141.957C55.5297 141.871 55.5737 141.793 55.6422 141.75C56.2189 141.39 56.8207 141.109 57.4262 140.841C58.0334 140.577 58.6513 140.347 59.2758 140.138C59.8999 139.928 60.5331 139.746 61.18 139.608C61.8285 139.475 62.4851 139.367 63.1752 139.366C63.3038 139.365 63.4083 139.469 63.4086 139.598C63.4088 139.677 63.3688 139.747 63.3093 139.789Z" fill="#150971"/>
<path d="M107.187 127.888C108.212 127.739 109.23 127.703 110.246 127.689C111.263 127.682 112.277 127.721 113.289 127.789C113.795 127.823 114.301 127.863 114.806 127.913L115.564 127.984L116.321 128.074C117.33 128.199 118.338 128.345 119.342 128.57C119.463 128.597 119.539 128.717 119.512 128.839C119.491 128.935 119.41 129.003 119.317 129.013C118.294 129.124 117.277 129.157 116.26 129.169L115.498 129.173L114.736 129.16C114.229 129.153 113.722 129.136 113.215 129.112C112.201 129.067 111.189 128.993 110.18 128.872C109.171 128.745 108.164 128.596 107.162 128.332C107.041 128.3 106.969 128.176 107.001 128.055C107.025 127.965 107.1 127.901 107.187 127.888Z" fill="#150971"/>
<path d="M106.039 133.211C107.14 133.244 108.217 133.388 109.289 133.555C110.359 133.727 111.419 133.946 112.473 134.192C113.001 134.315 113.526 134.443 114.05 134.582L114.836 134.787L115.618 135.009C116.659 135.312 117.697 135.634 118.717 136.033C118.832 136.079 118.889 136.209 118.844 136.325C118.807 136.418 118.715 136.473 118.62 136.467C117.527 136.396 116.451 136.248 115.38 136.08L114.577 135.949L113.778 135.801C113.245 135.705 112.715 135.599 112.185 135.486C111.126 135.262 110.074 135.01 109.031 134.712C107.99 134.408 106.954 134.082 105.942 133.645C105.828 133.595 105.775 133.462 105.824 133.347C105.862 133.26 105.949 133.208 106.039 133.211Z" fill="#150971"/>
<path d="M104.863 139.366C105.553 139.367 106.21 139.475 106.859 139.608C107.505 139.746 108.139 139.928 108.763 140.138C109.387 140.347 110.005 140.577 110.612 140.841C111.218 141.109 111.82 141.39 112.396 141.75C112.504 141.817 112.537 141.959 112.47 142.066C112.424 142.139 112.343 142.178 112.262 142.174C111.584 142.136 110.93 142.019 110.28 141.891C109.632 141.757 108.994 141.59 108.363 141.401C107.731 141.214 107.109 140.998 106.501 140.739C105.894 140.475 105.295 140.185 104.729 139.789C104.624 139.716 104.598 139.571 104.672 139.465C104.717 139.401 104.79 139.366 104.863 139.366Z" fill="#150971"/>
<path d="M105.991 100.793C105.991 100.793 103.531 112.216 108.563 117.892C113.596 123.569 122.54 120.33 124.312 111.59C126.085 102.849 121.941 95.4133 121.941 95.4133C121.941 95.4133 112.975 95.8981 105.991 100.793Z" fill="#150971"/>
<path d="M53.9044 108.826C56.1476 108.826 57.9661 107.008 57.9661 104.765C57.9661 102.521 56.1476 100.703 53.9044 100.703C51.6612 100.703 49.8428 102.521 49.8428 104.765C49.8428 107.008 51.6612 108.826 53.9044 108.826Z" fill="white"/>
<g opacity="0.4">
<path d="M58.8991 115.557C59.8433 115.557 60.6088 114.792 60.6088 113.847C60.6088 112.903 59.8433 112.138 58.8991 112.138C57.9549 112.138 57.1895 112.903 57.1895 113.847C57.1895 114.792 57.9549 115.557 58.8991 115.557Z" fill="white"/>
</g>
<g opacity="0.4">
<path d="M113.252 115.557C114.196 115.557 114.961 114.792 114.961 113.847C114.961 112.903 114.196 112.138 113.252 112.138C112.307 112.138 111.542 112.903 111.542 113.847C111.542 114.792 112.307 115.557 113.252 115.557Z" fill="white"/>
</g>
<path d="M106.307 111.621C108.466 111.621 110.216 109.871 110.216 107.712C110.216 105.553 108.466 103.803 106.307 103.803C104.149 103.803 102.398 105.553 102.398 107.712C102.398 109.871 104.149 111.621 106.307 111.621Z" fill="white"/>
<g opacity="0.2">
<path d="M136.472 123.527C121.968 141.21 92.6864 142.029 85.5927 141.958C84.5435 141.947 83.494 141.947 82.4448 141.958C75.3511 142.029 46.0698 141.21 31.5657 123.527C29.4237 120.915 27.777 118.074 26.5453 115.09C24.798 110.857 23.8956 106.335 23.6247 101.767C23.2514 108.38 24.0116 115.125 26.5453 121.263C27.777 124.247 29.4237 127.088 31.5657 129.7C46.0698 147.383 75.3511 148.202 82.4448 148.131C83.4941 148.12 84.5435 148.12 85.5927 148.131C92.6864 148.202 121.968 147.383 136.472 129.7C143.015 121.723 144.968 111.612 144.417 101.792C143.952 109.572 141.647 117.217 136.472 123.527Z" fill="#150971"/>
</g>
<path d="M78.2804 130.256C78.0902 130.184 77.9486 130.125 77.792 130.049C77.6405 129.974 77.4897 129.9 77.3445 129.814C77.0529 129.645 76.7693 129.46 76.5009 129.246C76.2302 129.037 75.9737 128.801 75.7384 128.537C75.5018 128.275 75.2832 127.985 75.1112 127.658C74.7548 127.015 74.5903 126.214 74.7261 125.487C74.7862 125.125 74.9116 124.781 75.1125 124.496C75.3053 124.206 75.5581 123.968 75.8649 123.798C75.9012 123.777 75.947 123.79 75.9672 123.827C75.9746 123.84 75.9775 123.855 75.9765 123.869L75.9764 123.87C75.9259 124.557 75.8245 125.089 75.8333 125.585C75.8381 126.083 76.0307 126.521 76.3136 126.917C76.6074 127.311 77.0077 127.657 77.4504 127.966C77.6739 128.118 77.9064 128.264 78.1473 128.398C78.2678 128.464 78.3884 128.532 78.511 128.593C78.6287 128.653 78.7654 128.723 78.8591 128.765L78.8928 128.78C79.2958 128.961 79.476 129.434 79.2954 129.837C79.1214 130.225 78.6733 130.406 78.2804 130.256Z" fill="#150971"/>
<path d="M70.5656 121.923C70.0555 120.2 69.825 118.563 69.6044 116.91C69.3594 115.266 69.0534 113.639 68.6374 112.046C68.4234 111.252 68.192 110.463 67.9137 109.692C67.6292 108.925 67.3157 108.167 66.9423 107.443C66.196 105.995 65.2499 104.655 64.0983 103.529C63.8254 103.236 63.4963 102.983 63.1901 102.714L62.7243 102.315L62.491 102.116L62.2412 101.936L61.2429 101.215C60.9081 100.978 60.5452 100.779 60.198 100.559L59.6718 100.236C59.4915 100.136 59.3068 100.043 59.1245 99.9461C58.757 99.7578 58.3975 99.5546 58.0237 99.3779L56.8915 98.8676C56.5164 98.6927 56.1211 98.5609 55.737 98.4051C54.1862 97.8153 52.5883 97.3348 50.9632 96.9672L49.7399 96.7124C49.3296 96.6425 48.9211 96.5583 48.5094 96.4996C47.6935 96.3689 46.8479 96.2678 46.0582 96.2121L46.8029 95.7928C46.6036 96.1734 46.4021 96.6142 46.2182 97.0367C46.0332 97.4653 45.8601 97.9005 45.6953 98.3387C45.3664 99.2158 45.083 100.111 44.8411 101.014C44.3596 102.823 44.0641 104.677 44.0039 106.53C43.9813 107.456 44.0169 108.38 44.1183 109.295C44.2347 110.208 44.4138 111.109 44.667 111.988C45.1984 113.736 46.0234 115.393 47.1625 116.825C47.7121 117.554 48.3632 118.219 49.0252 118.852C49.7073 119.468 50.4267 120.043 51.197 120.544C51.9721 121.037 52.7785 121.483 53.6274 121.838C54.4754 122.195 55.3494 122.488 56.2402 122.723C58.0275 123.175 59.8656 123.426 61.7244 123.524C62.6549 123.581 63.5862 123.554 64.5293 123.592C65.4766 123.632 66.4241 123.678 67.4434 123.834C67.0191 124.136 66.5584 124.353 66.0906 124.534C65.6217 124.714 65.141 124.853 64.6545 124.957C63.6806 125.169 62.6852 125.214 61.6909 125.234C59.7008 125.256 57.6956 124.986 55.7681 124.421C51.9251 123.277 48.3634 121.005 45.901 117.808C44.6413 116.224 43.7181 114.376 43.1329 112.442C42.8525 111.471 42.6559 110.48 42.5294 109.483C42.4182 108.484 42.38 107.481 42.4047 106.483C42.4693 104.486 42.7864 102.514 43.2951 100.603C43.5508 99.6474 43.8495 98.7046 44.1965 97.7791C44.5488 96.8474 44.9183 95.9562 45.3947 95.0336C45.5411 94.7502 45.8374 94.5946 46.1366 94.6139L46.1395 94.6143C46.6029 94.6448 47.0261 94.687 47.4628 94.7397C47.8963 94.7897 48.3268 94.8519 48.7562 94.9189C49.1868 94.9806 49.6121 95.0677 50.0402 95.141C50.4664 95.224 50.8902 95.3184 51.3153 95.4067C53.0092 95.7899 54.6782 96.2908 56.307 96.9103C56.7112 97.0738 57.1244 97.2128 57.5209 97.3969L58.7153 97.9354C59.1103 98.1223 59.4929 98.3372 59.8821 98.5371C60.0754 98.6399 60.2708 98.7385 60.4622 98.8449L61.0237 99.1888C61.3948 99.4236 61.7794 99.636 62.1387 99.8901L63.21 100.663L63.4776 100.856L63.73 101.071L64.2333 101.502C64.5659 101.794 64.9127 102.062 65.2227 102.391C66.5057 103.648 67.5368 105.126 68.3882 106.678C69.231 108.238 69.8963 109.883 70.3721 111.575C70.8388 113.268 71.1382 115.001 71.2383 116.741C71.3052 117.61 71.3032 118.483 71.2083 119.353C71.1013 120.22 70.9369 121.09 70.5656 121.923Z" fill="#150971"/>
<path d="M84.0197 152.98C63.9448 152.98 54.256 147.647 53.8534 147.42C53.4687 147.203 53.3326 146.715 53.5495 146.33C53.7666 145.946 54.2541 145.81 54.6393 146.027C54.7788 146.104 64.4592 151.38 84.0197 151.38C84.4615 151.38 84.8196 151.738 84.8196 152.18C84.8196 152.622 84.4615 152.98 84.0197 152.98Z" fill="#150971"/>
<path d="M86.3106 148.935C86.0471 148.935 85.8053 148.933 85.5858 148.931C84.5467 148.921 83.4929 148.921 82.4542 148.931C78.9594 148.963 69.7338 148.785 59.5985 146.351C46.8662 143.294 37.2269 137.862 30.9484 130.207C22.754 120.217 22.1332 107.635 23.0554 98.8385C24.256 87.3866 28.5209 77.2241 32.1119 71.5324C32.2556 71.3045 32.5086 71.1631 32.7778 71.1582C32.9625 71.1519 33.0523 71.1535 35.8117 72.1851C38.6572 73.2491 38.6571 73.2491 38.8333 73.5068C41.0725 76.7781 45.187 79.4506 51.0618 81.4491C59.0587 84.1696 70.1475 85.5491 84.0201 85.5491C113.22 85.5491 124.337 79.4962 128.52 74.4182C131.507 70.7927 130.946 67.6952 130.921 67.5652C130.854 67.2225 131.016 66.8736 131.323 66.707C131.63 66.5398 132.009 66.5887 132.26 66.8314C136.515 70.9345 142.007 81.5488 144.271 93.8962C145.495 100.575 145.641 106.908 144.703 112.718C143.609 119.5 141.048 125.384 137.092 130.207C130.813 137.862 121.174 143.294 108.441 146.351C98.943 148.632 90.2434 148.934 86.3106 148.935ZM84.02 147.323C84.5486 147.323 85.0772 147.326 85.602 147.331C91.4601 147.383 121.419 146.792 135.855 129.193C144.812 118.272 144.52 104.127 142.697 94.1846C140.731 83.46 136.318 74.1333 132.498 69.4618C132.302 70.9707 131.657 73.0978 129.814 75.3631C125.44 80.7397 113.944 87.1488 84.0201 87.1488C53.1258 87.1488 41.7373 80.3703 37.6443 74.5986C36.9259 74.3072 34.2919 73.3162 33.1407 72.9097C26.3871 84.0349 17.6592 111.483 32.1853 129.193C46.6212 146.792 76.5749 147.387 82.438 147.331C82.9629 147.326 83.4914 147.323 84.02 147.323Z" fill="#150971"/>
<path d="M84.2453 96.2127C84.101 96.2127 84.0218 96.2122 84.0125 96.2122C83.907 96.2133 71.7684 96.2966 59.0497 94.1205C41.7539 91.1618 31.6624 85.6419 29.0556 77.7145C28.9874 77.5065 29.007 77.2797 29.1104 77.087L31.9103 71.8588C32.0862 71.5304 32.4657 71.3679 32.8248 71.4643C33.1843 71.5617 33.4289 71.8944 33.4148 72.2665C33.4144 72.2866 33.3953 74.9717 36.5092 78.1512C41.429 83.1745 53.6655 89.1628 84.0198 89.1628C114.374 89.1628 126.61 83.1745 131.53 78.1512C134.644 74.9717 134.625 72.2866 134.625 72.2598C134.617 71.89 134.864 71.5599 135.221 71.4661C135.58 71.3724 135.955 71.5325 136.129 71.8588L138.929 77.087C139.032 77.2797 139.052 77.5065 138.984 77.7145C136.377 85.6419 126.286 91.1618 108.99 94.1205C97.2422 96.1304 85.9905 96.2127 84.2453 96.2127ZM84.0126 94.6124C84.4964 94.6218 131.097 94.8298 137.354 77.5341L135.758 74.5548C135.315 75.7974 134.452 77.424 132.776 79.1643C127.682 84.4553 115.087 90.7626 84.0198 90.7626C52.9524 90.7626 40.3579 84.4553 35.2632 79.1643C33.5872 77.4236 32.7246 75.7973 32.2813 74.5548L30.6856 77.5341C36.9427 94.8303 83.5414 94.6249 84.0126 94.6124Z" fill="#150971"/>
<path d="M84.0201 126.413C83.9403 126.413 83.8606 126.401 83.7835 126.377C83.3002 126.227 79.0712 124.841 79.3652 122.268C79.6091 120.13 82.3904 119.653 84.0201 119.705C85.6473 119.652 88.4306 120.13 88.675 122.268C88.9688 124.841 84.7398 126.227 84.2566 126.377C84.1796 126.401 84.0999 126.413 84.0201 126.413ZM83.8634 121.303C83.1119 121.303 81.0655 121.478 80.9546 122.449C80.8613 123.267 82.6056 124.282 84.0201 124.771C85.4343 124.282 87.1789 123.267 87.0856 122.449C87.0856 122.449 87.0856 122.449 87.0856 122.449C86.9675 121.416 84.6594 121.282 84.0488 121.305C84.0297 121.305 84.0094 121.305 83.9902 121.305C83.9538 121.304 83.9111 121.303 83.8634 121.303Z" fill="#150971"/>
<path d="M84.0201 140.378C83.9977 140.378 83.9753 140.376 83.9531 140.375C79.401 139.992 77.9313 130.685 77.7787 129.625C77.7409 129.363 77.8352 129.099 78.0302 128.921C78.2253 128.742 78.4958 128.671 78.7537 128.732C78.7626 128.734 79.9066 128.989 81.2555 128.726C82.2222 128.537 83.0908 127.309 83.3189 126.893C83.4594 126.637 83.7282 126.478 84.0201 126.478C84.3119 126.478 84.5808 126.637 84.7213 126.893C84.9684 127.338 85.8226 128.538 86.7844 128.726H86.7845C88.1337 128.989 89.2776 128.734 89.2888 128.732C89.5462 128.673 89.8165 128.744 90.0104 128.923C90.2043 129.101 90.2989 129.364 90.2613 129.625C90.1088 130.685 88.639 139.992 84.0871 140.375C84.0649 140.377 84.0425 140.378 84.0201 140.378ZM79.5422 130.433C80.1044 133.284 81.6136 138.479 84.0201 138.774C86.4265 138.479 87.9356 133.284 88.4979 130.433C87.9464 130.461 87.2413 130.445 86.4781 130.296C85.4069 130.087 84.566 129.326 84.0201 128.672C83.4742 129.326 82.6332 130.087 81.5618 130.296C80.7986 130.445 80.0931 130.462 79.5422 130.433Z" fill="#150971"/>
<path d="M84.1299 140.382C84.0874 140.382 84.0503 140.381 84.0193 140.379C83.3775 140.413 80.2288 140.251 78.8489 134.154C78.7737 133.821 78.9171 133.478 79.2063 133.298C79.2838 133.25 81.1368 132.117 84.0193 132.117C86.9019 132.117 88.755 133.25 88.8324 133.298C89.1215 133.478 89.265 133.821 89.1898 134.154C87.8769 139.954 84.9608 140.382 84.1299 140.382ZM80.5579 134.407C81.762 138.946 83.8881 138.787 83.91 138.785C83.9826 138.775 84.0561 138.775 84.1287 138.785C84.1399 138.788 86.2835 138.903 87.4806 134.407C86.8371 134.128 85.6154 133.716 84.0193 133.716C82.424 133.716 81.2025 134.128 80.5579 134.407Z" fill="#150971"/>
<path d="M89.1804 128.765C89.2741 128.723 89.4107 128.653 89.5285 128.593C89.651 128.532 89.7717 128.464 89.8922 128.398C90.133 128.264 90.3656 128.118 90.589 127.966C91.0317 127.657 91.4321 127.311 91.7259 126.917C92.0088 126.521 92.2014 126.083 92.2061 125.585C92.215 125.089 92.1135 124.557 92.0631 123.87L92.063 123.869C92.0599 123.827 92.0911 123.791 92.1325 123.788C92.1477 123.787 92.1622 123.791 92.1746 123.798C92.4813 123.968 92.7342 124.206 92.927 124.496C93.1279 124.781 93.2532 125.125 93.3134 125.487C93.4492 126.214 93.2846 127.015 92.9283 127.658C92.7564 127.985 92.5378 128.275 92.3011 128.537C92.0658 128.801 91.8093 129.037 91.5386 129.246C91.2703 129.46 90.9866 129.645 90.695 129.814C90.5498 129.899 90.399 129.974 90.2475 130.049C90.0909 130.125 89.9493 130.184 89.7591 130.256C89.3466 130.414 88.8845 130.208 88.7268 129.795C88.5747 129.398 88.7612 128.954 89.1444 128.781L89.1804 128.765Z" fill="#150971"/>
<path d="M97.4731 121.923C97.1017 121.09 96.9374 120.221 96.8302 119.353C96.7353 118.484 96.7332 117.61 96.8002 116.742C96.9003 115.001 97.1997 113.268 97.6664 111.575C98.1422 109.883 98.8075 108.238 99.6503 106.678C100.502 105.127 101.533 103.648 102.816 102.391C103.126 102.062 103.473 101.794 103.805 101.502L104.309 101.071L104.561 100.857L104.829 100.663L105.9 99.8902C106.259 99.6362 106.644 99.4238 107.015 99.189L107.576 98.845C107.768 98.7387 107.963 98.64 108.156 98.5373C108.546 98.3374 108.928 98.1224 109.323 97.9356L110.518 97.397C110.914 97.213 111.327 97.0739 111.732 96.9105C113.36 96.291 115.029 95.79 116.723 95.4068C117.148 95.3185 117.572 95.2242 117.998 95.1412C118.426 95.0679 118.852 94.9808 119.282 94.919C119.712 94.852 120.142 94.7899 120.576 94.7399C121.012 94.6872 121.436 94.645 121.899 94.6144L121.901 94.6143C122.22 94.5933 122.506 94.7675 122.644 95.0337C123.12 95.9563 123.49 96.8475 123.842 97.7792C124.189 98.7047 124.488 99.6474 124.744 100.603C125.252 102.514 125.569 104.486 125.634 106.483C125.659 107.481 125.62 108.484 125.509 109.483C125.383 110.48 125.186 111.471 124.906 112.442C124.321 114.376 123.397 116.224 122.138 117.809C119.675 121.005 116.114 123.277 112.271 124.421C110.343 124.986 108.338 125.256 106.348 125.234C105.353 125.214 104.358 125.169 103.384 124.957C102.898 124.853 102.417 124.714 101.948 124.534C101.48 124.353 101.019 124.136 100.595 123.834C101.615 123.678 102.562 123.632 103.509 123.592C104.452 123.554 105.384 123.582 106.314 123.524C108.173 123.426 110.011 123.175 111.798 122.723C112.689 122.489 113.563 122.195 114.411 121.838C115.26 121.483 116.067 121.037 116.842 120.544C117.612 120.043 118.331 119.468 119.013 118.852C119.675 118.219 120.327 117.554 120.876 116.825C122.015 115.393 122.84 113.737 123.372 111.988C123.625 111.109 123.804 110.208 123.92 109.295C124.022 108.38 124.057 107.456 124.035 106.53C123.975 104.677 123.679 102.823 123.198 101.015C122.956 100.111 122.672 99.2159 122.343 98.3388C122.178 97.9005 122.005 97.4654 121.82 97.0368C121.637 96.6143 121.435 96.1735 121.236 95.7929L121.98 96.2122C121.191 96.2679 120.345 96.369 119.529 96.4997C119.118 96.5585 118.709 96.6425 118.299 96.7125L117.075 96.9673C115.45 97.3349 113.852 97.8154 112.302 98.4052C111.918 98.561 111.522 98.6928 111.147 98.8677L110.015 99.378C109.641 99.5547 109.282 99.7579 108.914 99.9462C108.732 100.043 108.547 100.136 108.367 100.236L107.841 100.559C107.493 100.779 107.13 100.978 106.796 101.216L105.797 101.936L105.548 102.116L105.314 102.315L104.849 102.714C104.542 102.984 104.213 103.236 103.94 103.529C102.789 104.655 101.843 105.995 101.096 107.443C100.723 108.168 100.409 108.925 100.125 109.692C99.8466 110.463 99.6152 111.252 99.4012 112.046C98.9852 113.639 98.6792 115.266 98.4342 116.91C98.2136 118.563 97.9832 120.2 97.4731 121.923Z" fill="#150971"/>
<path d="M83.1155 157.474C79.2729 157.474 64.586 157.063 54.5879 151.073C53.5364 150.443 52.9651 149.198 53.1658 147.975C53.4769 146.078 53.9921 144.689 54.6968 143.846C54.9803 143.507 55.4847 143.462 55.8235 143.745C56.1624 144.029 56.2075 144.533 55.924 144.872C55.4202 145.475 55.0012 146.668 54.7445 148.234C54.6489 148.816 54.9165 149.405 55.41 149.701C66.3477 156.253 83.8226 155.87 83.9973 155.865C84.0116 155.864 84.0256 155.864 84.04 155.865C84.2146 155.87 101.636 156.252 112.577 149.731C113.109 149.414 113.39 148.826 113.293 148.233C113.036 146.668 112.617 145.474 112.113 144.872C111.83 144.533 111.875 144.029 112.214 143.745C112.553 143.462 113.057 143.507 113.34 143.846C114.045 144.688 114.56 146.077 114.871 147.974C115.076 149.22 114.497 150.449 113.396 151.105C102.146 157.811 85.0144 157.491 84.0186 157.465C83.9078 157.468 83.5963 157.474 83.1155 157.474Z" fill="#150971"/>
<path d="M84.0196 152.98C83.5779 152.98 83.2197 152.622 83.2197 152.18C83.2197 151.738 83.5779 151.38 84.0196 151.38C103.678 151.38 113.305 146.08 113.4 146.027C113.785 145.81 114.273 145.946 114.49 146.33C114.707 146.715 114.571 147.203 114.186 147.42C113.783 147.647 104.094 152.98 84.0196 152.98Z" fill="#150971"/>
<path d="M84.0196 128.078C83.5779 128.078 83.2197 127.72 83.2197 127.278V125.613C83.2197 125.171 83.5779 124.813 84.0196 124.813C84.4614 124.813 84.8195 125.171 84.8195 125.613V127.278C84.8195 127.72 84.4614 128.078 84.0196 128.078Z" fill="#150971"/>
<path d="M83.1168 158.407C78.8707 158.407 64.2295 157.936 54.1092 151.874C52.7327 151.049 51.9838 149.422 52.2459 147.824C52.3353 147.279 52.4479 146.749 52.5804 146.25C52.6609 145.947 52.7481 145.661 52.842 145.392C43.1026 142.131 35.4968 137.225 30.2265 130.799C21.8278 120.56 21.1863 107.714 22.1269 98.7412C22.8961 91.4044 25.0528 83.6291 28.2006 76.843C28.2202 76.7896 28.2478 76.7206 28.288 76.6459L28.3291 76.5689C29.0333 75.0696 29.7637 73.6663 30.507 72.3845C25.5698 69.7439 25.3448 69.3739 25.0646 68.912C24.4542 67.9056 24.7297 66.737 24.9962 65.6067C25.1958 64.7602 25.4219 63.8007 25.308 62.9682C25.0178 60.8472 27.239 53.5442 28.9149 49.6109L1.11326 13.4164C0.833245 13.0516 0.708354 12.5817 0.770533 12.1262C1.47359 6.97714 5.4766 5.59268 8.03329 5.537C9.52744 1.07218 13.8088 0.366568 15.9652 0.645679C16.4753 0.711804 16.9263 0.998222 17.2029 1.4315L40.6873 38.1899C43.352 31.0418 46.4469 27.2923 50.1208 26.746C54.793 26.0513 60.4582 31.0428 67.4234 42.0034C67.4282 41.9969 67.4332 41.9904 67.438 41.9839C68.4319 40.6471 69.6687 38.9832 71.415 38.8473C73.2239 38.7036 74.4449 40.4599 75.8575 42.4935C76.149 42.9129 76.4913 43.4056 76.8058 43.8139C77.1989 43.8655 77.6051 43.9269 78.0011 43.9865C78.6333 44.0821 80.1 44.3029 80.4828 44.2346C82.1617 43.6097 85.4652 43.0915 87.6231 43.8844C89.036 44.4034 90.5802 44.5062 90.9842 44.4836C91.6823 44.4463 94.0215 44.7148 94.9952 44.8322C95.8346 44.9335 96.4753 45.6199 96.5186 46.4645L96.6571 49.1767C97.5155 47.6409 98.3664 46.1711 99.1987 44.7866C106.949 31.8948 113.17 25.9955 118.223 26.7459C123.284 27.4987 127.297 34.3775 130.491 47.7755C132.741 57.2107 133.722 66.4864 133.732 66.5788C133.732 66.5843 133.735 66.6072 133.735 66.6127C133.737 66.6377 133.75 66.7931 133.762 67.0519C134.767 68.1718 135.792 69.5652 136.812 71.1996C136.865 71.2706 136.911 71.3428 136.952 71.4188L136.997 71.5032C137.94 73.0425 138.856 74.7525 139.719 76.5859L139.751 76.6452C139.779 76.6986 139.801 76.7496 139.821 76.8015C142.262 82.0367 144.118 87.8888 145.188 93.7282C146.432 100.512 146.578 106.951 145.624 112.867C144.503 119.813 141.875 125.847 137.813 130.799C132.542 137.225 124.937 142.131 115.197 145.391C115.289 145.656 115.374 145.935 115.452 146.227C115.455 146.236 115.458 146.246 115.46 146.254C115.591 146.749 115.704 147.278 115.793 147.823C116.06 149.45 115.307 151.053 113.875 151.906C102.46 158.711 85.0522 158.421 84.0201 158.398C83.8897 158.401 83.5799 158.407 83.1168 158.407ZM29.9479 77.4997C29.9459 77.5049 29.9444 77.5093 29.9444 77.5096C29.9345 77.5372 29.9234 77.5645 29.911 77.5911C26.8381 84.2043 24.7329 91.7848 23.9831 98.936C23.0795 107.555 23.6796 119.874 31.6695 129.615C36.8801 135.968 44.518 140.784 54.3712 143.928C54.6299 144.01 54.8399 144.202 54.9463 144.452C55.0525 144.701 55.0448 144.985 54.925 145.229C54.7207 145.644 54.54 146.144 54.3879 146.715C54.2673 147.17 54.1675 147.64 54.0877 148.126C53.9485 148.975 54.3426 149.838 55.0685 150.273C64.7777 156.089 78.9918 156.541 83.1169 156.541C83.5848 156.541 83.8876 156.535 83.9956 156.532C84.0113 156.531 84.0271 156.531 84.0428 156.532C84.7649 156.551 101.86 156.895 112.919 150.303C113.688 149.845 114.093 148.99 113.951 148.125C113.872 147.64 113.772 147.171 113.656 146.731C113.654 146.726 113.653 146.721 113.651 146.715C113.499 146.144 113.318 145.644 113.114 145.229C112.994 144.985 112.987 144.701 113.093 144.451C113.2 144.202 113.409 144.01 113.668 143.928C123.521 140.784 131.159 135.968 136.37 129.615C140.22 124.922 142.713 119.187 143.781 112.569C144.702 106.865 144.558 100.639 143.352 94.0648C142.308 88.3689 140.497 82.6618 138.116 77.5609C138.109 77.5468 138.103 77.5322 138.097 77.5179L138.063 77.4476C138.055 77.4331 138.048 77.4182 138.041 77.4034C137.199 75.614 136.308 73.9493 135.392 72.456C135.383 72.4404 135.374 72.4248 135.365 72.4089L135.315 72.3149C135.294 72.2881 135.27 72.255 135.253 72.2279C134.208 70.5482 133.167 69.1476 132.159 68.0649C132.004 67.8991 131.916 67.6827 131.909 67.4561C131.897 67.0304 131.876 66.781 131.875 66.7705C131.866 66.6809 130.892 57.5038 128.676 48.2083C124.994 32.7665 120.81 29.0178 117.948 28.592C115.085 28.1661 109.788 30.7959 100.798 45.7485C99.5852 47.7662 98.3312 49.9693 97.0713 52.2961C96.9644 52.4937 96.79 52.646 96.5798 52.7252C96.4529 52.7729 96.3284 52.8205 96.2069 52.8681C95.9274 52.9772 95.6126 52.9455 95.3605 52.783C95.1086 52.6202 94.9502 52.3463 94.9348 52.0466L94.6603 46.6718C92.8985 46.4609 91.437 46.3273 91.0849 46.3473C90.4653 46.3804 88.651 46.2502 86.9796 45.6362C85.3527 45.0389 82.5281 45.4581 81.1146 45.9911C80.5434 46.2064 79.6072 46.1166 77.7247 45.8323C77.1876 45.7513 76.6822 45.675 76.2059 45.6198C75.9672 45.5922 75.7484 45.4735 75.5949 45.2886C75.1751 44.7825 74.708 44.1101 74.3326 43.5699C73.3774 42.1948 72.3095 40.6468 71.5612 40.708C70.6599 40.7783 69.704 42.0641 68.9359 43.0973C68.6292 43.51 68.3119 43.9365 68.0256 44.25C67.8285 44.4656 67.5425 44.5768 67.2506 44.5497C66.9596 44.5226 66.6981 44.3609 66.5439 44.1125C58.125 30.5502 53.1158 28.1854 50.3955 28.5921C47.2716 29.0566 44.304 33.2087 41.8135 40.5997C41.6988 40.9403 41.399 41.1845 41.0425 41.228C40.6853 41.2717 40.3361 41.1069 40.1428 40.8043L15.664 2.48971C15.0702 2.42775 10.7474 2.15045 9.63442 6.71627C9.52286 7.17349 9.08681 7.47505 8.62031 7.42215C8.60703 7.4206 8.59231 7.41852 8.57727 7.41618C6.75089 7.27038 3.23171 8.11246 2.62747 12.3239L30.7309 48.9109C30.94 49.183 30.9827 49.5483 30.8422 49.8615C29.0486 53.8574 26.9479 61.1854 27.1572 62.7151C27.3181 63.8915 27.038 65.0799 26.8129 66.0347C26.6242 66.8349 26.446 67.5908 26.6601 67.9436L26.6761 67.9696C26.8242 68.1498 27.7479 68.813 32.246 71.1958C32.4734 71.3163 32.6411 71.5252 32.7091 71.7736C32.7773 72.0217 32.7398 72.2871 32.6057 72.5068C31.7199 73.9577 30.846 75.5986 30.0081 77.3841C30.0011 77.3991 29.9938 77.4138 29.986 77.4283L29.9479 77.4997ZM138.077 77.4666C138.077 77.4669 138.077 77.4674 138.078 77.4676L138.077 77.4666ZM135.307 72.2998C135.307 72.3001 135.307 72.3006 135.307 72.3011L135.307 72.2998ZM80.4603 44.2432C80.4589 44.2438 80.4574 44.2443 80.4562 44.2448C80.4575 44.2443 80.4589 44.2438 80.4603 44.2432Z" fill="#150971"/>
</svg>
