<svg width="159" height="135" viewBox="0 0 159 135" fill="none" xmlns="http://www.w3.org/2000/svg">
<g opacity="0.2">
<path d="M79.4985 134.219C122.737 134.219 157.788 131.524 157.788 128.199C157.788 124.875 122.737 122.179 79.4985 122.179C36.2604 122.179 1.20898 124.875 1.20898 128.199C1.20898 131.524 36.2604 134.219 79.4985 134.219Z" fill="#390176"/>
</g>
<path d="M28.4568 7.77048L26.6767 38.5133C26.6229 39.4436 27.3343 40.2426 28.2646 40.2964C29.1948 40.3501 29.9938 39.6386 30.0476 38.7084L31.8274 7.96582C31.8815 7.03554 31.1698 6.23655 30.2398 6.18279C29.3095 6.12899 28.5106 6.84047 28.4568 7.77048Z" fill="#FCB263"/>
<path d="M28.3641 41.4267C28.3096 41.4267 28.255 41.4252 28.1998 41.422C27.4491 41.3786 26.7604 41.0453 26.2599 40.4835C25.7597 39.9217 25.5082 39.1989 25.5517 38.4483L27.3317 7.70563C27.3317 7.70547 27.3317 7.70547 27.3317 7.70547C27.4216 6.15564 28.7534 4.96795 30.3053 5.05775C31.0557 5.10111 31.7447 5.4344 32.2449 5.99619C32.7453 6.55809 32.9969 7.28104 32.9531 8.03161L31.1734 38.7738C31.0867 40.2686 29.8428 41.4267 28.3641 41.4267ZM29.5824 7.8358L27.8025 38.5786C27.7907 38.7803 27.886 38.9192 27.9438 38.984C28.0016 39.049 28.1284 39.1595 28.33 39.1713C28.6338 39.1884 28.9046 38.9524 28.9226 38.6435L30.7023 7.90107C30.714 7.69939 30.619 7.56047 30.5612 7.49563C30.5034 7.43078 30.3763 7.32013 30.1751 7.30856C29.8709 7.29096 29.6004 7.52709 29.5824 7.8358Z" fill="#390176"/>
<path d="M29.2525 12.6221C34.3312 12.6221 38.4545 16.7452 38.4545 21.8238C38.4545 26.9025 34.3312 31.0258 29.2525 31.0258C24.174 31.0258 20.0508 26.9025 20.0508 21.8238C20.0508 16.7452 24.1739 12.6221 29.2525 12.6221Z" fill="#96524A"/>
<g opacity="0.2">
<path d="M38.4549 21.8224C38.4549 26.9035 34.332 31.0264 29.2509 31.0264C24.1727 31.0264 20.0498 26.9036 20.0498 21.8224C20.0498 20.9094 20.1823 20.0245 20.433 19.1931C21.5659 22.9919 25.0885 25.7621 29.2509 25.7621C33.416 25.7621 36.9387 22.9919 38.0716 19.1931C38.3224 20.0245 38.4549 20.9094 38.4549 21.8224Z" fill="#39005E"/>
</g>
<path d="M29.2511 31.799C23.751 31.799 19.2764 27.324 19.2764 21.8237C19.2764 16.3235 23.751 11.8486 29.2511 11.8486C34.7517 11.8486 39.2267 16.3235 39.2267 21.8237C39.2267 27.324 34.7518 31.799 29.2511 31.799ZM29.2511 13.3954C24.6038 13.3954 20.8231 17.1763 20.8231 21.8237C20.8231 26.4713 24.6038 30.2524 29.2511 30.2524C33.899 30.2524 37.68 26.4714 37.68 21.8237C37.68 17.1763 33.899 13.3954 29.2511 13.3954Z" fill="#39005E"/>
<path d="M29.2511 31.799C23.751 31.799 19.2764 27.324 19.2764 21.8237C19.2764 16.3235 23.751 11.8486 29.2511 11.8486C34.7517 11.8486 39.2267 16.3235 39.2267 21.8237C39.2267 27.324 34.7518 31.799 29.2511 31.799ZM29.2511 13.3954C24.6038 13.3954 20.8231 17.1763 20.8231 21.8237C20.8231 26.4713 24.6038 30.2524 29.2511 30.2524C33.899 30.2524 37.68 26.4714 37.68 21.8237C37.68 17.1763 33.899 13.3954 29.2511 13.3954Z" fill="#390176"/>
<path d="M26.4327 18.6292C26.6257 18.4456 26.9117 18.3992 27.1527 18.5126C27.3938 18.6257 27.5406 18.8755 27.5227 19.1412C27.4979 19.4416 27.4486 19.797 27.3642 20.2155C26.9587 22.224 28.0438 23.2397 29.3134 23.2397C30.583 23.2397 31.2715 21.3095 31.2224 20.2155C31.1733 19.1215 31.8595 18.4354 32.7088 18.517C33.5584 18.5986 33.0017 19.8229 34.2935 20.2155C35.585 20.6082 38.1261 19.8137 37.5772 16.263C37.1972 13.8049 33.8363 11.7896 29.914 11.7896C26.8883 11.7896 24.6955 12.2726 22.1141 14.7981C19.5326 17.324 20.1457 19.4856 21.6685 20.2155C22.9972 20.8522 24.4023 20.6004 26.4327 18.6292Z" fill="#FFC23D"/>
<g opacity="0.6">
<path d="M37.5694 18.0716C36.8001 15.8819 33.6663 14.177 30.0563 14.177C27.0297 14.177 24.8371 14.6617 22.2558 17.1867C21.4583 17.9646 20.9679 18.7086 20.7115 19.3878C20.0407 18.3507 20.1958 16.6738 22.1149 14.7971C24.6963 12.2721 26.8887 11.79 29.9154 11.79C33.8354 11.79 37.1974 13.805 37.5778 16.2624C37.6877 16.9726 37.6736 17.5701 37.5694 18.0716Z" fill="white"/>
</g>
<path d="M29.3139 24.0131C28.4556 24.0131 27.6708 23.6553 27.1605 23.0317C26.7387 22.5161 26.2999 21.5822 26.6069 20.0626C26.6517 19.8398 26.6876 19.6276 26.7142 19.4284C24.7165 21.277 23.0462 21.7328 21.3349 20.9131C20.41 20.4697 19.7859 19.6473 19.6221 18.6568C19.3927 17.2682 20.0859 15.7016 21.574 14.2455C24.3346 11.5448 26.7228 11.0164 29.9146 11.0164C34.1958 11.0164 37.8974 13.2692 38.3419 16.1451C38.6923 18.4114 37.9099 19.6297 37.192 20.2526C36.2174 21.0979 34.922 21.2147 34.0693 20.9556C32.9894 20.6274 32.7181 19.8337 32.5723 19.4074C32.5593 19.3696 32.5442 19.3254 32.5296 19.2858C32.4127 19.2947 32.3119 19.3389 32.2286 19.4182C32.0656 19.573 31.9807 19.8511 31.9955 20.1812C32.0369 21.1088 31.6688 22.4768 30.8847 23.2968C30.4364 23.7653 29.8933 24.0131 29.3139 24.0131ZM26.8822 17.6797C27.0866 17.6797 27.2918 17.7233 27.4826 17.813C28.0156 18.0634 28.3346 18.6053 28.2947 19.1936C28.2648 19.5589 28.2072 19.9504 28.1229 20.3686C27.9749 21.1017 28.0559 21.6839 28.3574 22.0524C28.5762 22.3195 28.9157 22.4665 29.3139 22.4665C29.3696 22.4665 29.5386 22.4665 29.7669 22.2278C30.208 21.7665 30.4765 20.8328 30.4504 20.2503C30.4153 19.461 30.6683 18.7673 31.1633 18.2969C31.5982 17.884 32.1744 17.6892 32.7834 17.7475C33.6682 17.8324 33.9164 18.5581 34.0357 18.9069C34.1528 19.2495 34.1968 19.3778 34.5192 19.4758C34.9631 19.6109 35.6763 19.5201 36.1783 19.0843C36.7858 18.5575 37.0053 17.6228 36.8134 16.3814C36.4879 14.2758 33.3932 12.563 29.9145 12.563C27.055 12.563 25.0514 13.0073 22.6556 15.351C21.5385 16.4438 21.0032 17.5283 21.1479 18.4046C21.2294 18.8975 21.5333 19.293 22.0033 19.5184C22.8391 19.919 23.8895 20.0213 25.8945 18.0745C25.8963 18.0727 25.8983 18.0709 25.9002 18.0691C26.1682 17.8141 26.5236 17.6797 26.8822 17.6797Z" fill="#390176"/>
<path d="M28.3606 25.6279C33.4475 25.6279 37.5776 29.758 37.5776 34.8449C37.5776 39.9319 33.4475 44.0619 28.3606 44.0619C23.2736 44.0619 19.1436 39.9319 19.1436 34.8449C19.1436 29.758 23.2736 25.6279 28.3606 25.6279Z" fill="#96524A"/>
<g opacity="0.2">
<path d="M37.5778 34.845C37.5778 39.9318 33.4464 44.0631 28.3597 44.0631C23.273 44.0631 19.1445 39.9318 19.1445 34.845C19.1445 33.7573 19.3333 32.7145 19.6799 31.7451C20.9537 35.3102 24.3608 37.8632 28.3597 37.8632C32.3586 37.8632 35.7685 35.3102 37.0424 31.7451C37.389 32.7145 37.5778 33.7573 37.5778 34.845Z" fill="#39005E"/>
</g>
<path d="M28.3615 44.8351C22.8528 44.8351 18.3711 40.3535 18.3711 34.8449C18.3711 29.3363 22.8528 24.8545 28.3615 24.8545C33.8702 24.8545 38.3516 29.3362 38.3516 34.8449C38.3516 40.3536 33.8702 44.8351 28.3615 44.8351ZM28.3615 26.4012C23.7056 26.4012 19.9178 30.189 19.9178 34.8449C19.9178 39.5007 23.7056 43.2885 28.3615 43.2885C33.0172 43.2885 36.805 39.5007 36.805 34.8449C36.805 30.189 33.0172 26.4012 28.3615 26.4012Z" fill="#390176"/>
<path d="M35.6819 39.815C35.6348 39.815 35.5876 39.8136 35.5403 39.8107C32.551 39.6319 32.551 35.5755 32.551 33.8434C32.551 33.4998 32.2961 33.1664 31.8691 32.9515C31.3173 32.674 30.3828 32.5652 29.5658 33.1726C28.5583 33.9209 27.3817 34.6981 26.1615 34.4483C25.6584 34.3451 25.2015 34.0817 24.782 33.6507C24.0514 34.7922 22.7947 36.3639 21.4184 36.364C21.3999 36.364 21.3814 36.3637 21.3627 36.3632C19.4895 36.3051 18.3711 34.7663 18.3711 32.2468C18.3711 31.1527 19.1418 29.2424 20.834 27.6339C22.2778 26.2614 24.8458 24.6682 28.8666 24.8723C33.414 25.1027 35.1138 26.5748 36.2669 28.7142C36.7557 29.6205 37.1926 30.2186 37.655 30.8517C38.0357 31.3728 38.4292 31.9116 38.839 32.6158C39.6285 33.9728 39.1278 36.6252 38.1846 38.157C37.5236 39.2312 36.6393 39.8149 35.6819 39.815ZM30.9135 31.183C31.4814 31.183 32.048 31.3104 32.5641 31.57C33.5244 32.053 34.0977 32.9029 34.0977 33.8434C34.0977 35.8602 34.2722 38.1856 35.6324 38.267C35.6483 38.2679 35.6642 38.2684 35.6796 38.2684C36.191 38.2684 36.6063 37.7709 36.8677 37.3464C37.666 36.0497 37.8876 34.0558 37.5022 33.3936C37.133 32.7589 36.7799 32.2757 36.4062 31.764C35.9334 31.1168 35.4444 30.4475 34.9056 29.4481C34.111 27.9737 33.0452 26.6326 28.7884 26.4169C25.3071 26.2396 23.1238 27.5911 21.8994 28.7549C20.4556 30.1274 19.9177 31.6253 19.9177 32.2469C19.9177 33.3984 20.1765 34.7793 21.4104 34.8174C21.4143 34.8175 21.4185 34.8176 21.4227 34.8176C22.0645 34.8176 23.2988 33.2837 24.013 31.8938C24.1421 31.6427 24.3978 31.4817 24.6804 31.4741C24.9574 31.4644 25.2269 31.6134 25.3691 31.8575C25.7422 32.4978 26.1133 32.8597 26.4721 32.9332C27.0366 33.0483 27.8503 32.5201 28.6434 31.931C29.3093 31.4366 30.1125 31.183 30.9135 31.183Z" fill="#39005E"/>
<path d="M28.8268 25.6445C33.3231 25.8723 34.652 27.3492 35.5854 29.081C36.5192 30.8126 37.3039 31.5161 38.1698 33.0046C39.0357 34.4928 37.8476 39.174 35.5854 39.0387C33.3236 38.9033 33.3236 35.4399 33.3236 33.8433C33.3236 32.2468 30.8431 31.2601 29.1038 32.5517C27.3646 33.8433 26.0001 34.4771 24.7001 32.2468C24.7001 32.2468 22.9622 35.6391 21.3856 35.5903C19.8091 35.5415 19.1436 34.1195 19.1436 32.2468C19.1436 30.3744 22.068 25.3018 28.8268 25.6445Z" fill="#FFC23D"/>
<g opacity="0.6">
<path d="M38.3753 35.341C38.3302 35.1211 38.2598 34.9266 38.1696 34.7689C37.3044 33.2809 36.5181 32.5764 35.5853 30.846C34.6525 29.1129 33.3225 27.6362 28.8275 27.408C22.7516 27.1008 19.7758 31.1673 19.2347 33.3514C19.1727 33.0075 19.1445 32.6356 19.1445 32.2467C19.1445 30.3754 22.0669 25.3029 28.8275 25.6438C33.3225 25.8721 34.6525 27.3489 35.5853 29.082C36.5181 30.8122 37.3044 31.5167 38.1696 33.0048C38.4655 33.5148 38.5218 34.4026 38.3753 35.341Z" fill="white"/>
</g>
<path d="M35.6819 39.815C35.6348 39.815 35.5876 39.8136 35.5403 39.8107C32.551 39.6319 32.551 35.5755 32.551 33.8434C32.551 33.4998 32.2961 33.1664 31.8691 32.9515C31.3173 32.674 30.3828 32.5652 29.5658 33.1726C28.5583 33.9209 27.3817 34.6981 26.1615 34.4483C25.6584 34.3451 25.2015 34.0817 24.782 33.6507C24.0514 34.7922 22.7947 36.3639 21.4184 36.364C21.3999 36.364 21.3814 36.3637 21.3627 36.3632C19.4895 36.3051 18.3711 34.7663 18.3711 32.2468C18.3711 31.1527 19.1418 29.2424 20.834 27.6339C22.2778 26.2614 24.8458 24.6682 28.8666 24.8723C33.414 25.1027 35.1138 26.5748 36.2669 28.7142C36.7557 29.6205 37.1926 30.2186 37.655 30.8517C38.0357 31.3728 38.4292 31.9116 38.839 32.6158C39.6285 33.9728 39.1278 36.6252 38.1846 38.157C37.5236 39.2312 36.6393 39.8149 35.6819 39.815ZM30.9135 31.183C31.4814 31.183 32.048 31.3104 32.5641 31.57C33.5244 32.053 34.0977 32.9029 34.0977 33.8434C34.0977 35.8602 34.2722 38.1856 35.6324 38.267C35.6483 38.2679 35.6642 38.2684 35.6796 38.2684C36.191 38.2684 36.6063 37.7709 36.8677 37.3464C37.666 36.0497 37.8876 34.0558 37.5022 33.3936C37.133 32.7589 36.7799 32.2757 36.4062 31.764C35.9334 31.1168 35.4444 30.4475 34.9056 29.4481C34.111 27.9737 33.0452 26.6326 28.7884 26.4169C25.3071 26.2396 23.1238 27.5911 21.8994 28.7549C20.4556 30.1274 19.9177 31.6253 19.9177 32.2469C19.9177 33.3984 20.1765 34.7793 21.4104 34.8174C21.4143 34.8175 21.4185 34.8176 21.4227 34.8176C22.0645 34.8176 23.2988 33.2837 24.013 31.8938C24.1421 31.6427 24.3978 31.4817 24.6804 31.4741C24.9574 31.4644 25.2269 31.6134 25.3691 31.8575C25.7422 32.4978 26.1133 32.8597 26.4721 32.9332C27.0366 33.0483 27.8503 32.5201 28.6434 31.931C29.3093 31.4366 30.1125 31.183 30.9135 31.183Z" fill="#390176"/>
<path d="M27.3656 41.6162C31.9027 41.6162 35.5863 45.3001 35.5863 49.8372C35.5863 54.3744 31.9027 58.0583 27.3656 58.0583C22.8282 58.0583 19.1445 54.3744 19.1445 49.8372C19.1445 45.3001 22.8282 41.6162 27.3656 41.6162Z" fill="#96524A"/>
<g opacity="0.2">
<path d="M35.5873 49.8374C35.5873 54.3745 31.9041 58.0577 27.3669 58.0577C22.8297 58.0577 19.1465 54.3745 19.1465 49.8374C19.1465 49.1102 19.2423 48.4057 19.4198 47.7322C20.3499 51.2492 23.5568 53.8446 27.3669 53.8446C31.1769 53.8446 34.384 51.2492 35.3139 47.7322C35.4915 48.4057 35.5873 49.1102 35.5873 49.8374Z" fill="#39005E"/>
</g>
<path d="M27.3655 58.8316C22.406 58.8316 18.3711 54.7967 18.3711 49.8372C18.3711 44.8777 22.406 40.8428 27.3655 40.8428C32.3248 40.8428 36.3597 44.8777 36.3597 49.8372C36.3597 54.7967 32.3248 58.8316 27.3655 58.8316ZM27.3655 42.3895C23.2587 42.3895 19.9178 45.7304 19.9178 49.8372C19.9178 53.944 23.2587 57.2849 27.3655 57.2849C31.472 57.2849 34.813 53.944 34.813 49.8372C34.813 45.7304 31.472 42.3895 27.3655 42.3895Z" fill="#39005E"/>
<path d="M27.3655 58.8316C22.406 58.8316 18.3711 54.7967 18.3711 49.8372C18.3711 44.8777 22.406 40.8428 27.3655 40.8428C32.3248 40.8428 36.3597 44.8777 36.3597 49.8372C36.3597 54.7967 32.3248 58.8316 27.3655 58.8316ZM27.3655 42.3895C23.2587 42.3895 19.9178 45.7304 19.9178 49.8372C19.9178 53.944 23.2587 57.2849 27.3655 57.2849C31.472 57.2849 34.813 53.944 34.813 49.8372C34.813 45.7304 31.472 42.3895 27.3655 42.3895Z" fill="#390176"/>
<path fill-rule="evenodd" clip-rule="evenodd" d="M28.3626 39.0418C32.0067 39.1585 35.7458 41.1339 36.8728 46.6754C37.9999 52.2169 37.0927 52.6394 37.2622 54.5308C37.4317 56.4222 38.3284 62.0038 36.3299 61.7617C34.3314 61.5196 34.0415 57.0154 34.211 53.032C34.3806 49.0485 33.8795 49.3876 32.9859 49.4723C32.0922 49.557 30.1274 49.9316 29.1476 48.6432C28.1677 47.3548 28.6682 45.3847 27.3665 45.4889C26.0649 45.5931 26.5376 47.8967 25.1071 48.856C23.6765 49.8153 20.6125 47.0379 20.6125 47.0379C20.6125 47.0379 19.835 52.1489 20.6205 54.5309C21.4061 56.9128 20.7598 60.6324 18.9252 60.2648C17.0907 59.8972 17.1644 52.4611 17.8924 49.4724C18.6202 46.4835 17.5983 38.6972 28.3626 39.0418Z" fill="#FFC23D"/>
<g opacity="0.6">
<path fill-rule="evenodd" clip-rule="evenodd" d="M37.3845 52.4583C37.3112 51.6045 37.1562 50.5335 36.8716 49.133C35.7443 43.5898 32.0047 41.6142 28.3609 41.4988C17.5985 41.152 18.6187 48.9386 17.8915 51.9285C17.6634 52.867 17.4999 54.2422 17.4407 55.6991C17.3364 53.4588 17.5365 50.9337 17.8915 49.4712C18.6187 46.484 17.5985 38.6975 28.3609 39.0413C32.0047 39.1596 35.7443 41.1352 36.8716 46.6755C37.531 49.9107 37.4944 51.4015 37.3845 52.4583Z" fill="white"/>
</g>
<path d="M36.4555 62.5431C36.3839 62.5431 36.3107 62.5385 36.2367 62.5295C34.0919 62.2698 33.1764 59.1525 33.4384 52.9992C33.5168 51.1549 33.4324 50.4659 33.3605 50.209C33.3225 50.2128 33.2824 50.2175 33.2473 50.2217C33.1863 50.2288 33.1233 50.2361 33.0585 50.2423C32.9751 50.2502 32.8822 50.2608 32.7812 50.2723C31.698 50.395 29.6821 50.6235 28.5317 49.1116C28.0211 48.4401 27.8435 47.6661 27.7008 47.0441C27.6399 46.7783 27.5498 46.3855 27.4662 46.2583C27.4561 46.2583 27.4438 46.2584 27.4279 46.2599C27.2887 46.2709 27.1639 46.6342 27.003 47.1461C26.76 47.9193 26.4575 48.8814 25.5375 49.4984C24.2614 50.3544 22.4155 49.369 21.21 48.508C21.0303 50.2862 20.9004 52.9113 21.3545 54.2888C21.9687 56.1509 21.8417 59.0306 20.6733 60.3492C20.1619 60.9267 19.487 61.1668 18.7731 61.0231C18.3158 60.9315 17.9281 60.6403 17.6209 60.1575C16.2916 58.0701 16.515 51.8591 17.141 49.2893C17.2425 48.8713 17.3094 48.3266 17.3868 47.6959C17.8042 44.2918 18.5739 37.9554 28.3872 38.269C33.2264 38.424 36.5953 41.4319 37.6303 46.5214C38.4213 50.4105 38.2409 51.87 38.0958 53.0428C38.0341 53.5428 37.9854 53.9377 38.0323 54.4618C38.0529 54.6923 38.0846 54.9785 38.1206 55.3026C38.4479 58.2631 38.6515 61.0096 37.5646 62.0853C37.2598 62.387 36.8797 62.5431 36.4555 62.5431ZM33.4738 48.6555C33.7691 48.6555 34.104 48.7194 34.3982 48.9927C34.9507 49.5058 35.0929 50.4952 34.9835 53.0651C34.7567 58.3946 35.5428 60.8876 36.4226 60.9941C36.4565 60.9983 36.4684 60.9952 36.4687 60.995C36.4674 60.995 36.8179 60.7385 36.8351 59.0387C36.8468 57.8568 36.6944 56.4787 36.5833 55.4725C36.546 55.1361 36.5132 54.839 36.4919 54.5999C36.4302 53.9115 36.4937 53.3974 36.5611 52.8531C36.6924 51.7919 36.8556 50.4712 36.1148 46.8297C34.9098 40.9042 30.7249 39.8913 28.3377 39.8149C19.9411 39.5448 19.3532 44.3654 18.9217 47.8841C18.8421 48.5348 18.7668 49.1493 18.6434 49.6553C18.2963 51.0803 18.1184 53.5326 18.2106 55.6186C18.3416 58.584 18.9332 59.4415 19.0845 59.5089C19.1902 59.5297 19.3274 59.536 19.5159 59.3236C20.1333 58.6266 20.4361 56.4413 19.8859 54.7731C19.0519 52.2447 19.8148 47.138 19.8476 46.9219C19.8903 46.6404 20.0846 46.4055 20.3528 46.3098C20.6202 46.2144 20.9197 46.2738 21.1311 46.4649C22.3708 47.5854 24.131 48.5804 24.6762 48.2139C25.1449 47.8995 25.3308 47.3083 25.5277 46.6823C25.7755 45.8936 26.1151 44.8133 27.3045 44.7181C28.7306 44.6034 29.0288 45.9151 29.2084 46.6984C29.3293 47.2249 29.454 47.7693 29.7628 48.1754C30.333 48.9249 31.4805 48.8632 32.607 48.7355C32.7182 48.723 32.8208 48.7114 32.9126 48.7027C32.9657 48.6976 33.0176 48.6915 33.0676 48.6856C33.1861 48.6718 33.3249 48.6555 33.4738 48.6555Z" fill="#390176"/>
<path d="M25.7722 53.4585L23.9921 84.2013C23.9383 85.1314 24.6497 85.9303 25.58 85.9841C26.5103 86.0382 27.3092 85.3264 27.363 84.3965L29.1428 53.6536C29.1968 52.7233 28.4852 51.9244 27.5552 51.8705C26.625 51.8168 25.826 52.5283 25.7722 53.4585Z" fill="#FCB263"/>
<path d="M25.6819 87.1141C25.6264 87.1141 25.5707 87.1125 25.5147 87.1092C24.7648 87.0659 24.0758 86.7326 23.5756 86.1708C23.0752 85.609 22.8236 84.8865 22.8671 84.1359L24.6471 53.3932C24.6471 53.3931 24.6471 53.3931 24.6471 53.3931C24.737 51.8435 26.0699 50.6574 27.6207 50.745C28.3714 50.7885 29.0601 51.1219 29.5603 51.6836C30.0608 52.2456 30.3123 52.9684 30.2685 53.719L28.4888 84.4614C28.4454 85.212 28.1121 85.9007 27.5502 86.401C27.0301 86.8641 26.3721 87.1141 25.6819 87.1141ZM26.8979 53.5234L25.1179 84.2662C25.1062 84.4676 25.2015 84.6065 25.259 84.6714C25.3168 84.7362 25.4439 84.8469 25.6454 84.8584C25.849 84.8686 25.986 84.7749 26.0508 84.7173C26.1157 84.6595 26.2263 84.5325 26.2381 84.331L28.0178 53.5884C28.0295 53.3866 27.9344 53.2478 27.8767 53.1829C27.8189 53.118 27.6918 53.0074 27.4906 52.9957C27.1852 52.9768 26.9156 53.2144 26.8979 53.5235L26.8979 53.5234Z" fill="#390176"/>
<path fill-rule="evenodd" clip-rule="evenodd" d="M156.68 127.834C152.904 129.198 148.144 129.787 144.774 126.239C140.761 122.012 144.827 114.462 142.429 112.354C138.616 109.003 124.357 125.918 112.354 125.918C109.95 125.918 107.623 125.517 105.396 124.827C91.5763 120.543 81.6425 105.112 81.6425 105.112C81.6425 105.112 65.227 118.033 43.3613 119.413C40.3797 119.605 37.2939 119.577 34.1376 119.275C16.8147 117.613 6.6187 108.516 2.86788 97.7591C2.01396 95.313 1.49258 92.7823 1.29815 90.2347C1.10655 87.7548 1.22489 85.2551 1.64195 82.8034C4.05146 68.6846 16.2398 60.8729 26.1962 63.4824C33.0414 65.2776 34.5236 69.6484 34.3404 72.709C34.3095 73.1993 34.2361 73.6529 34.1375 74.0616C33.4133 77.0093 28.1237 80.7828 21.4842 77.0093C21.4842 77.0093 14.4277 88.2846 26.1961 96.6966C37.9645 105.112 49.0397 93.9434 50.1134 89.2963C51.1843 84.6521 45.0774 65.3142 47.4869 46.7908C47.9181 43.4879 48.7184 39.9709 49.9218 36.4314C51.6323 31.387 54.1602 26.3003 57.5927 21.7349C58.0041 21.1855 58.4296 20.6445 58.8693 20.1118C67.8533 9.19162 82.3751 1.84483 103.734 6.50024C119.335 9.90178 127.888 19.4692 131.517 30.8319C132.208 32.9877 132.718 35.2084 133.067 37.4628C133.098 37.6629 133.126 37.8602 133.152 38.0603C134.214 45.4945 133.529 53.2781 131.613 60.346C131.514 60.7208 131.407 61.0927 131.3 61.4647C128.674 70.463 122.508 79.5232 119.056 86.7347C118.608 87.6704 118.207 88.5722 117.864 89.4401C117.864 89.443 117.861 89.4486 117.861 89.4514C117.858 89.4542 117.858 89.4542 117.858 89.4542C116.268 93.487 115.958 96.7589 118.292 98.8527C119.574 100.002 121.581 99.2754 124.151 97.9114C130.122 94.7467 139.143 88.1467 149.226 93.6983C165.833 102.843 152.943 120.017 152.943 122.547C152.943 122.829 153.028 123.077 153.183 123.3C153.662 123.982 154.829 124.39 156.373 124.605C157.086 124.717 157.641 125.27 157.762 125.971C157.771 126.014 157.776 126.056 157.779 126.101C157.853 126.862 157.399 127.575 156.68 127.834Z" fill="#FF4F4F"/>
<path fill-rule="evenodd" clip-rule="evenodd" d="M122.224 15.6922C125.088 18.7377 126.219 22.2699 124.748 23.5751C123.276 24.8806 119.755 23.4679 116.891 20.4223C114.026 17.3768 112.895 13.8443 114.367 12.539C115.839 11.2338 119.359 12.6466 122.224 15.6922Z" fill="#942E2E"/>
<path fill-rule="evenodd" clip-rule="evenodd" d="M100.097 10.2269C102.98 11.304 104.775 13.5164 104.104 15.1646C103.432 16.8127 100.547 17.2769 97.6647 16.2001C94.7822 15.1232 92.987 12.9106 93.6583 11.2624C94.3294 9.61403 97.2149 9.15003 100.097 10.2269Z" fill="#942E2E"/>
<path fill-rule="evenodd" clip-rule="evenodd" d="M82.2768 4.97303C85.3269 4.56465 87.9528 5.66995 88.1374 7.44002C88.3219 9.21041 85.9958 10.9792 82.946 11.3876C79.896 11.7961 77.27 10.6907 77.0855 8.92058C76.9009 7.15056 79.2271 5.38156 82.2768 4.97303Z" fill="#942E2E"/>
<path fill-rule="evenodd" clip-rule="evenodd" d="M120.974 61.8898C121.174 58.5843 123.028 56.0032 125.11 56.1294C127.192 56.2558 128.72 59.042 128.519 62.3476C128.319 65.6533 126.466 68.2345 124.383 68.1082C122.301 67.9819 120.773 65.1956 120.974 61.8898Z" fill="#942E2E"/>
<path fill-rule="evenodd" clip-rule="evenodd" d="M111.844 73.9426C111.957 72.0792 113.219 70.6376 114.66 70.725C116.101 70.8124 117.179 72.396 117.066 74.2593C116.953 76.1224 115.691 77.5642 114.25 77.4767C112.809 77.3894 111.731 75.8058 111.844 73.9426Z" fill="#942E2E"/>
<g opacity="0.6">
<path fill-rule="evenodd" clip-rule="evenodd" d="M34.3405 72.7089C32.52 69.3271 28.4337 64.4659 20.3317 65.9172C10.7303 67.6418 -0.0235418 79.7484 2.86788 97.759C2.01396 95.3129 1.49258 92.7822 1.29815 90.2347C1.10655 87.7547 1.22489 85.255 1.64195 82.8033C4.05146 68.6846 16.2398 60.8729 26.1962 63.4823C33.0414 65.2775 34.5236 69.6483 34.3405 72.7089Z" fill="white"/>
</g>
<g opacity="0.6">
<path fill-rule="evenodd" clip-rule="evenodd" d="M152.943 122.547C152.943 122.829 153.028 123.077 153.183 123.3C152.98 123.446 152.864 123.528 152.864 123.528C150.714 121.355 163.035 103.765 148.251 96.1133C139.435 91.5506 127.115 100.34 127.115 100.34L124.15 97.9112C130.122 94.7465 139.143 88.1465 149.226 93.6981C165.833 102.843 152.943 120.016 152.943 122.547Z" fill="white"/>
</g>
<g opacity="0.6">
<path fill-rule="evenodd" clip-rule="evenodd" d="M133.152 38.0603C127.84 25.7817 120.783 12.8721 101.059 8.94078C101.003 8.92947 100.946 8.91822 100.89 8.90692C100.929 9.04508 100.938 9.18032 100.915 9.31561C100.71 10.5359 98.0324 11.1023 94.9353 10.5838C92.2158 10.1301 90.0741 8.98595 89.7331 7.88673C76.4063 8.14888 66.6922 14.0077 58.8691 20.1118C67.8532 9.19163 82.375 1.84483 103.733 6.50024C119.335 9.90178 127.887 19.4692 131.517 30.8319C132.208 32.9877 132.718 35.2084 133.067 37.4628C133.098 37.6629 133.126 37.8602 133.152 38.0603Z" fill="white"/>
</g>
<g opacity="0.2">
<path fill-rule="evenodd" clip-rule="evenodd" d="M133.653 45.2325C133.653 45.5762 133.65 45.9228 133.641 46.2667C133.636 46.602 133.627 46.9346 133.613 47.267C133.605 47.5798 133.591 47.8898 133.571 48.1998C133.563 48.366 133.554 48.5351 133.54 48.7043C133.532 48.9044 133.517 49.1044 133.501 49.3045C133.484 49.575 133.461 49.8456 133.436 50.1161C133.416 50.3444 133.393 50.5756 133.371 50.8037C133.357 50.9504 133.343 51.0996 133.326 51.2462C133.309 51.4068 133.289 51.5674 133.269 51.7281C133.258 51.8577 133.244 51.9846 133.224 52.1113C133.199 52.3255 133.174 52.5396 133.143 52.751C133.12 52.9341 133.095 53.1145 133.067 53.2949C133.055 53.402 133.038 53.5063 133.021 53.6133C132.99 53.8276 132.957 54.0444 132.92 54.2587C132.903 54.3854 132.883 54.5095 132.861 54.6306C132.827 54.8449 132.79 55.0562 132.748 55.2676C132.714 55.4733 132.678 55.6761 132.635 55.8791C132.534 56.4371 132.421 56.9894 132.3 57.5418C132.297 57.5616 132.292 57.5813 132.286 57.6038C132.235 57.8349 132.184 58.066 132.131 58.2942C132.077 58.5254 132.021 58.7535 131.965 58.9819V58.9847C131.908 59.213 131.852 59.4413 131.793 59.6667C131.733 59.8921 131.674 60.1203 131.612 60.3459C131.514 60.7207 131.407 61.0927 131.299 61.4646C128.673 70.4629 122.507 79.5231 119.055 86.7347C123.319 75.3045 113.185 73.8756 111.835 67.5687C110.383 60.7939 114.103 59.6667 123.186 51.5872C123.533 51.2801 123.865 50.9504 124.184 50.6036C121.814 48.4929 123.09 44.3784 123.09 44.3784C121.385 43.9444 121.298 41.704 121.298 41.704C118.164 42.6932 115.944 37.9559 115.944 37.9559C112.691 39.103 111.139 35.011 111.139 35.011C108.027 36.4624 105.725 32.5593 105.725 32.5593C102.028 35.011 99.2124 31.9056 99.2124 31.9056C95.8505 33.7062 93.2691 30.1047 93.2691 30.1047C90.389 31.9056 86.8382 29.5608 86.8382 29.5608C82.5997 31.5899 78.6346 28.3068 78.6346 28.3068C75.4079 30.3809 71.5922 28.3068 71.5922 28.3068C69.2222 30.333 65.1049 28.3068 65.1049 28.3068C63.5098 30.9446 58.2344 29.5608 58.2344 29.5608C56.5548 31.7448 53.4548 31.9056 53.4548 31.9056C53.8325 33.3314 52.2233 36.2962 49.9209 36.4313C51.6315 31.387 54.1593 26.3003 57.5918 21.7349C58.2626 21.8252 58.7134 21.9885 58.7134 21.9885C62.315 17.7022 67.351 21.9885 67.351 21.9885C70.262 17.7022 74.9542 21.9885 74.9542 21.9885C78.319 18.2179 82.1348 21.9885 82.1348 21.9885C85.6349 19.0662 89.6788 22.8172 89.6788 22.8172C93.6495 20.7204 97.2341 24.9138 97.2341 24.9138C101.196 22.8172 103.423 26.2777 103.423 26.2777C108.673 24.9138 110.175 28.8337 110.175 28.8337C115.436 28.1096 116.578 33.4809 116.578 33.4809C120.794 31.9506 123.09 35.879 123.09 35.879C126.807 36.7499 127.278 39.0918 127.072 39.8835C126.968 40.2895 128.332 40.0696 129.688 39.7596C130.567 36.7301 131.139 33.6161 131.516 30.8318C132.207 32.9877 132.717 35.2083 133.066 37.4628C133.069 37.4797 133.072 37.4966 133.075 37.5163C133.12 37.8179 133.165 38.1167 133.204 38.4182C133.207 38.4209 133.207 38.4265 133.204 38.4322C133.244 38.7084 133.278 38.9846 133.309 39.2607C133.32 39.3284 133.328 39.3988 133.334 39.4693C133.359 39.6834 133.382 39.8948 133.402 40.109C133.419 40.2527 133.43 40.3992 133.444 40.543C133.472 40.8332 133.495 41.1236 133.514 41.4138C133.537 41.7098 133.557 42.0056 133.571 42.3043C133.591 42.6284 133.605 42.9525 133.616 43.2794C133.624 43.5021 133.633 43.7275 133.636 43.953C133.65 44.3812 133.653 44.8069 133.653 45.2325Z" fill="#390176"/>
</g>
<g opacity="0.2">
<path d="M61.6421 101.437L61.5378 101.471C59.3284 107.253 54.3347 115.567 43.361 119.413C40.3794 119.605 37.2936 119.577 34.1373 119.275C12.8747 117.235 2.3518 103.996 1.29785 90.2347C1.73182 87.6675 3.70736 77.48 7.84998 77.48C13.3453 77.48 9.23929 86.5712 17.4118 99.6134C23.8907 109.953 40.0948 115.305 55.1858 103.486L55.1914 103.483C58.8409 100.231 53.9007 84.2152 60.8559 83.3107C67.8166 82.4033 65.2775 95.6906 61.6421 101.437Z" fill="#390176"/>
</g>
<g opacity="0.2">
<path d="M103.143 99.6604C103.143 99.6604 101.835 87.5058 107.393 84.5779C110.661 82.8569 114.186 85.8261 114.456 88.0934C115.009 92.7502 109.664 97.1014 112.925 101.438L103.143 99.6604Z" fill="#390176"/>
</g>
<g opacity="0.2">
<path d="M156.68 127.834C152.904 129.198 148.144 129.787 144.773 126.239C140.76 122.012 144.827 114.462 142.429 112.354C138.616 109.004 124.356 125.918 112.354 125.918C109.95 125.918 107.622 125.518 105.396 124.827C105.12 124.016 104.9 123.134 104.748 122.178C102.088 105.512 103.513 95.6231 103.612 94.9722C103.511 95.8599 101.676 114.482 130.531 105.23L136.175 104.568C136.175 104.568 135.522 102.584 132.238 101.437C132.238 101.437 142.939 95.6513 147.89 101.437C152.842 107.222 146.199 117.81 147.89 122.178C149.243 125.675 153.997 126.915 157.762 125.971C157.771 126.014 157.776 126.056 157.779 126.101C157.852 126.862 157.399 127.575 156.68 127.834Z" fill="#390176"/>
</g>
<path d="M151.245 130.025C148.325 130.025 145.857 129.016 143.956 127.014C141.335 124.252 141.684 120.43 141.965 117.359C142.128 115.579 142.296 113.738 141.685 113.201C140.597 112.244 136.073 115.372 132.438 117.885C126.538 121.966 119.196 127.044 112.354 127.044C104.98 127.044 97.157 123.34 89.7301 116.333C85.5536 112.393 82.6245 108.495 81.3713 106.716C79.457 108.091 74.8114 111.205 68.2154 114.167C60.2555 117.741 47.8633 121.723 34.0299 120.396C18.7754 118.933 10.5637 112.079 6.36105 106.586C1.20677 99.849 -0.91824 91.1117 0.531602 82.6146C1.79005 75.2379 5.82495 68.8709 11.6016 65.1461C16.265 62.1388 21.6885 61.135 26.4825 62.3915C35.1457 64.6626 36.0586 70.9644 35.2321 74.3298C34.778 76.1797 33.054 77.9908 30.8405 78.9441C29.224 79.6401 26.0172 80.4422 21.9517 78.5226C20.6532 81.2324 17.8525 89.347 26.8521 95.7803C32.0291 99.4816 36.7608 98.8797 39.8177 97.7235C44.6991 95.8774 48.4635 91.424 49.0134 89.0436C49.3594 87.5455 48.7514 83.6508 48.0474 79.1413C46.6882 70.4343 44.8264 58.5097 46.3697 46.6457C47.2071 40.2084 49.2855 33.7146 52.3804 27.8667C56.0034 21.021 60.7575 15.4963 66.5107 11.4457C76.7401 4.24394 89.3452 2.20927 103.974 5.39756C115.327 7.87196 123.757 13.6283 129.031 22.5068C135.254 32.9847 136.507 47.6665 132.383 61.7807C130.575 67.9715 127.111 74.2143 124.055 79.7223C119.526 87.8856 115.614 94.9356 119.045 98.0119C120.08 98.9388 122.75 97.4317 125.843 95.6863C131.957 92.2365 140.331 87.5118 149.771 92.71C164.115 100.609 157.79 114.275 155.089 120.111C154.626 121.11 154.102 122.243 154.069 122.569C154.07 122.703 154.522 123.209 156.527 123.488C157.812 123.688 158.781 124.717 158.902 125.994C159.023 127.269 158.266 128.463 157.059 128.895C154.972 129.65 153.024 130.025 151.245 130.025ZM141.175 110.776C141.932 110.776 142.598 111.003 143.173 111.507C144.645 112.802 144.434 115.115 144.21 117.564C143.958 120.318 143.673 123.441 145.591 125.461C148.021 128.021 151.623 128.462 156.296 126.774C156.534 126.689 156.681 126.456 156.658 126.207C156.634 125.958 156.445 125.757 156.198 125.719C153.296 125.314 151.816 124.247 151.816 122.548C151.816 121.846 152.214 120.954 153.043 119.164C154.403 116.224 156.459 111.782 156.579 107.193C156.721 101.78 154.138 97.6886 148.683 94.6847C140.343 90.0926 132.604 94.4607 126.951 97.6497C122.943 99.9114 119.778 101.698 117.54 99.6904C112.771 95.4139 117.086 87.6354 122.084 78.6286C125.082 73.2237 128.481 67.0977 130.219 61.1486C134.171 47.6234 133.002 33.6082 127.092 23.6582C122.151 15.3388 114.212 9.93623 103.494 7.60042C89.5067 4.55174 77.5004 6.46542 67.8087 13.2891C55.7751 21.7612 49.9987 36.2253 48.6054 46.9365C47.1038 58.4806 48.9366 70.2211 50.275 78.7935C51.0757 83.9226 51.6542 87.6283 51.21 89.5511C50.5442 92.4334 46.4919 97.6098 40.6152 99.8322C37.0435 101.183 31.5286 101.895 25.5408 97.6144C19.0349 92.9635 18.0139 87.4337 18.3032 83.6138C18.6138 79.5134 20.4511 76.5365 20.5289 76.4118C20.8492 75.9001 21.5163 75.7316 22.0415 76.0298C25.7423 78.1332 28.5841 77.4612 29.9488 76.8734C31.7543 76.096 32.8036 74.7657 33.0427 73.7921C33.2161 73.0853 34.4907 66.8215 25.9106 64.5722C21.7275 63.4753 16.9568 64.3752 12.8232 67.0407C7.57641 70.4239 3.90632 76.2385 2.75361 82.9936C1.40925 90.8752 3.37673 98.975 8.15159 105.216C13.7876 112.582 22.8104 117.055 34.2449 118.152C47.5619 119.429 59.5334 115.586 67.2316 112.137C75.6115 108.382 80.8923 104.265 80.9447 104.224C81.1944 104.028 81.5165 103.947 81.8276 103.999C82.1406 104.051 82.4172 104.233 82.589 104.5C82.7199 104.703 95.861 124.789 112.354 124.789C118.492 124.789 125.513 119.933 131.155 116.031C135.403 113.093 138.754 110.776 141.175 110.776Z" fill="#390176"/>
<path fill-rule="evenodd" clip-rule="evenodd" d="M131.43 119.895C130.709 122.395 129.5 124.641 127.801 126.357C119.814 134.426 108.764 122.387 117.309 115.054C117.309 115.054 114.846 115.899 111.357 120.358C109.102 123.238 108.66 124.785 105.137 127.265C100.812 130.311 82.5305 131.731 79.4982 112.577C79.4982 112.577 76.3165 131.438 53.7829 128.899C31.2493 126.357 36.1416 104.556 36.5727 99.9966C37.0039 95.4369 37.7958 92.3257 33.0839 89.64C33.0839 89.64 30.4997 92.382 28.1071 90.5362C27.9043 90.3812 27.7013 90.1924 27.5069 89.9641C27.4167 89.8626 27.3293 89.7555 27.242 89.64C24.6549 86.1822 29.7585 80.6643 36.5727 81.3548C43.3869 82.0423 50.4294 86.5458 53.7829 107.721C53.7829 107.721 57.7903 107.791 61.0142 102.553C61.5665 101.651 62.0992 100.591 62.5811 99.3484C62.5839 99.3399 62.5867 99.3343 62.5895 99.3258C62.9305 98.4551 63.2434 97.4969 63.5252 96.4373V96.4345C63.6126 96.1104 63.697 95.7779 63.776 95.437L77.9116 100.073L85.0104 102.403L93.2703 105.112C93.2703 105.112 92.6615 107.059 95.2261 107.721C97.7934 108.383 106.716 92.3004 119.814 95.437C130.123 97.9056 134.102 110.649 131.43 119.895Z" fill="#FF4F4F"/>
<g opacity="0.6">
<path fill-rule="evenodd" clip-rule="evenodd" d="M61.0142 102.553C59.5938 105.272 58.1003 107.808 58.1003 107.808C58.1003 107.808 53.5039 114.048 51.5115 107.374C49.5191 100.701 46.5009 85.8637 37.607 84.0631C31.765 82.8821 28.8314 86.9994 27.5069 89.9641C27.4167 89.8626 27.3293 89.7556 27.242 89.6401C24.6549 86.1822 29.7585 80.6643 36.5727 81.3548C43.3869 82.0423 50.4294 86.5458 53.7829 107.721C53.7829 107.721 57.7903 107.791 61.0142 102.553Z" fill="white"/>
</g>
<g opacity="0.6">
<path fill-rule="evenodd" clip-rule="evenodd" d="M93.2515 107.172C93.2515 107.172 92.453 111.902 97.3444 109.925C102.236 107.948 108.179 97.6219 117.074 98.1654C125.968 98.7089 133.221 108.411 131.222 120.63C131.222 120.63 135.394 100.435 120.956 95.7627C109.905 92.1869 103.251 101.861 98.0087 106.378C94.4883 109.411 93.2515 107.172 93.2515 107.172Z" fill="white"/>
</g>
<g opacity="0.2">
<path d="M131.43 119.895C130.708 122.395 129.499 124.641 127.8 126.357C119.813 134.425 108.764 122.386 117.308 115.054C117.308 115.054 114.845 115.899 111.356 120.357C109.102 123.238 108.659 124.785 105.137 127.265C100.811 130.311 82.5299 131.731 79.4975 112.577C79.4975 112.577 76.3159 131.438 53.7823 128.899C31.2487 126.357 36.1409 104.556 36.572 99.9965C37.0032 95.4369 37.7951 92.3257 33.0832 89.64C33.0832 89.64 30.499 92.382 28.1064 90.5362C28.1064 90.5362 30.4962 82.7666 36.6538 86.7515C42.8142 90.7362 44.8123 97.6237 46.4411 110.756C48.0671 123.891 63.2088 124.008 67.2725 117.821C70.8863 112.319 72.5424 101.888 77.9109 100.073C78.5506 99.8585 79.2354 99.7571 79.9681 99.7965C82.1493 99.912 83.7838 100.893 85.0097 102.403C87.6474 105.647 86.6292 110.11 88.6479 116.057C91.2759 123.8 102.237 123.528 105.861 115.014C109.482 106.498 115.581 102.899 120.957 103.793C126.332 104.686 129.657 110.759 128.538 116.057C127.899 119.081 129.573 120.081 131.43 119.895Z" fill="#390176"/>
</g>
<path fill-rule="evenodd" clip-rule="evenodd" d="M113.106 121.712C113.243 123.783 114.157 125.732 115.543 127.233C118.613 130.554 124.034 131.729 128.582 127.131C132.876 122.787 134.264 115.274 132.702 108.488C131.184 101.892 126.912 96.0308 120.06 94.3973C115.625 93.3421 111.635 94.3284 108.177 96.1808C105.913 97.3942 103.863 98.9589 102.107 100.571C100.798 101.772 99.657 102.993 98.6635 104.055C97.6771 105.108 96.8573 106.006 96.1867 106.572C95.9565 106.767 95.7603 106.929 95.5732 107.022C95.4964 107.06 95.4442 107.123 95.3839 107.111C94.7315 106.984 94.3056 106.775 94.0457 106.502C93.5059 105.936 93.6583 105.232 93.6583 105.232C93.7253 105.017 93.6054 104.788 93.3905 104.721C93.1756 104.654 92.9469 104.774 92.88 104.989C92.88 104.989 92.4723 106.127 93.2515 107.172C93.5816 107.616 94.1414 108.032 95.0685 108.332C95.5437 108.486 96.2306 108.294 97.0635 107.726C97.8301 107.203 98.7822 106.337 99.9021 105.3C100.945 104.334 102.142 103.226 103.46 102.095C105.15 100.645 107.042 99.1588 109.165 98.0375C112.2 96.4342 115.684 95.5406 119.563 96.4756C125.591 97.9256 129.257 103.165 130.583 108.974C131.962 115.014 130.843 121.723 127.017 125.582C123.579 129.052 119.485 128.243 117.168 125.732C114.85 123.22 114.351 119.053 118.03 115.897C118.412 115.568 118.526 115.024 118.306 114.57C118.086 114.117 117.589 113.868 117.094 113.964C117.094 113.964 116.364 114.027 115.073 115.301C114.386 115.978 113.472 117.067 112.361 118.821C111.264 120.554 110.235 121.939 109.007 123.139C107.811 124.309 106.424 125.302 104.606 126.282C101.975 127.702 94.8138 128.895 88.9213 125.709C85.0283 123.604 81.7326 119.553 80.6022 112.403C80.5165 111.862 80.0511 111.462 79.5032 111.46C78.9552 111.457 78.4859 111.852 78.3947 112.392C78.3947 112.392 77.0085 120.547 69.5155 125.07C65.8951 127.255 60.8622 128.574 53.9071 127.79C45.5236 126.847 41.1325 123.131 38.9551 118.645C35.5225 111.573 37.4183 102.774 37.6699 100.1C37.9568 97.054 38.3206 94.6097 37.4012 92.5012C36.8003 91.1241 35.6836 89.8552 33.6274 88.6845C33.1865 88.4332 32.6312 88.5165 32.2832 88.8856C32.2832 88.8856 31.283 89.9854 30.0379 90.074C29.4122 90.1184 28.7503 89.8283 28.1172 88.9834C26.9555 87.433 28.0247 85.425 29.9628 84.0476C31.5915 82.8903 33.8919 82.1755 36.462 82.4339C40.0217 82.7909 43.6352 84.2863 46.6876 89.0077C49.1894 92.8775 51.308 98.8209 52.7627 107.883C52.8411 108.377 53.2629 108.745 53.7637 108.754C53.7637 108.754 57.0943 108.839 60.2215 105.134C60.8713 104.364 61.5252 103.432 62.1134 102.28C62.7708 100.993 63.3224 99.4318 63.83 97.5694C64.0022 96.9374 64.1838 96.2746 64.341 95.5689C64.4141 95.2561 64.2198 94.9432 63.907 94.8699C63.5943 94.7968 63.2813 94.9912 63.208 95.3039C63.0422 95.9805 62.8734 96.6217 62.6749 97.2208C62.1045 98.9417 61.3886 100.327 60.6904 101.491C60.0968 102.479 59.4898 103.29 58.8799 103.949C57.2259 105.737 55.5942 106.358 54.6428 106.574C53.1649 97.6605 51.0019 91.7494 48.4933 87.8441C44.9861 82.3848 40.788 80.693 36.6804 80.2741C32.7604 79.8751 29.3603 81.3585 27.3908 83.387C25.3286 85.511 24.8075 88.2125 26.3641 90.2953C27.5957 91.9433 28.9724 92.3475 30.1922 92.2623C31.4225 92.1764 32.5184 91.5067 33.1902 90.9932C34.319 91.7392 35.0046 92.5147 35.3817 93.3812C36.1677 95.1873 35.7195 97.2836 35.4721 99.892C35.2024 102.737 33.3092 112.088 36.9569 119.614C39.3978 124.65 44.2495 128.943 53.6572 130.006C61.2422 130.862 66.7207 129.365 70.6694 126.983C75.4541 124.096 78.0104 119.882 79.3244 116.791C81.0673 122.366 84.2703 125.735 87.8593 127.674C94.548 131.289 102.679 129.857 105.665 128.245C107.692 127.152 109.232 126.038 110.566 124.732C111.481 123.837 112.298 122.85 113.106 121.712Z" fill="#390176"/>
<path fill-rule="evenodd" clip-rule="evenodd" d="M117.604 116.082C117.604 116.082 118.467 115.543 119.437 115.419C119.927 115.357 120.466 115.364 120.857 115.767C121.424 116.353 121.449 117.492 121.264 118.531C121.143 119.211 120.926 119.86 120.623 120.325C120.442 120.604 120.281 120.855 120.042 120.857C119.893 120.858 119.812 120.749 119.75 120.614C119.634 120.36 119.571 120.037 119.541 119.702C119.447 118.674 119.619 117.547 119.619 117.547C119.671 117.27 119.489 117.002 119.211 116.95C118.934 116.898 118.667 117.081 118.615 117.358C118.615 117.358 118.163 119.506 118.51 120.816C118.723 121.623 119.226 122.133 120.01 122.177C120.523 122.206 121.035 121.958 121.491 121.487C122.054 120.906 122.528 119.922 122.79 118.854C123.182 117.264 123.01 115.523 122.19 114.558C121.559 113.815 120.713 113.526 119.853 113.47C118.244 113.364 116.57 114.243 116.57 114.243C116.063 114.528 115.882 115.172 116.168 115.679C116.453 116.187 117.096 116.367 117.604 116.082Z" fill="#390176"/>
<path fill-rule="evenodd" clip-rule="evenodd" d="M52.6916 107.678C52.6916 107.678 53.175 110.18 54.9048 111.849C55.6412 112.559 56.5783 113.144 57.7936 113.327C59.2631 113.548 60.4268 113.169 61.3117 112.557C62.8115 111.521 63.485 109.873 63.485 109.873C63.5865 109.649 63.4868 109.384 63.2624 109.283C63.0383 109.182 62.7741 109.281 62.6726 109.506C62.6726 109.506 61.9976 110.814 60.6847 111.555C60.0013 111.941 59.1314 112.141 58.0785 111.883C57.0079 111.62 56.2992 110.927 55.8051 110.187C54.9283 108.874 54.7756 107.35 54.7756 107.35C54.6852 106.775 54.145 106.382 53.5698 106.472C52.9946 106.563 52.6012 107.103 52.6916 107.678Z" fill="#390176"/>
<path fill-rule="evenodd" clip-rule="evenodd" d="M104.64 99.9171C104.64 99.9171 104.01 98.976 103.712 97.5673C103.548 96.7891 103.454 95.897 103.618 94.9389C103.683 94.7081 103.549 94.4672 103.318 94.4014C103.087 94.3358 102.847 94.4698 102.781 94.7007C102.355 95.7499 102.238 96.7888 102.23 97.7154C102.214 99.5256 102.748 100.849 102.748 100.849C103.005 101.371 103.638 101.587 104.16 101.329C104.682 101.072 104.897 100.439 104.64 99.9171Z" fill="#390176"/>
<path fill-rule="evenodd" clip-rule="evenodd" d="M93.8493 48.8609C93.8493 48.8609 95.0379 46.3573 97.1814 44.7396C98.3748 43.8389 99.8923 43.2272 101.74 43.6709C103.203 43.9651 104.091 44.8661 104.652 45.9442C106.053 48.635 105.605 52.3782 105.605 52.3782C105.538 52.8112 105.836 53.2168 106.269 53.2835C106.702 53.3502 107.107 53.0524 107.174 52.6195C107.174 52.6195 107.579 50.4689 107.289 48.0861C107.165 47.0659 106.907 46.0077 106.453 45.0508C105.679 43.4202 104.337 42.0944 102.174 41.6166C100.162 41.2448 98.4562 41.7015 97.0753 42.5886C95.9768 43.2939 95.0858 44.2518 94.4074 45.1998C93.2401 46.8303 92.6905 48.3901 92.6905 48.3901C92.5608 48.7096 92.7148 49.0748 93.0344 49.2045C93.3541 49.3345 93.7193 49.1804 93.8493 48.8609Z" fill="#390176"/>
<path fill-rule="evenodd" clip-rule="evenodd" d="M72.9752 56.8817C72.9752 56.8817 73.9463 58.5442 75.6853 59.7977C76.7268 60.5481 78.0389 61.1282 79.5714 61.1822C81.5994 61.2538 84.0281 60.3664 86.7646 57.5208C87.1503 57.0849 87.1098 56.4178 86.6739 56.0318C86.238 55.646 85.5709 55.6867 85.1851 56.1225C83.1271 58.6497 81.236 59.6189 79.5624 59.698C76.0555 59.8639 73.7002 56.4211 73.7002 56.4211C73.5732 56.2211 73.3074 56.1619 73.1075 56.2889C72.9073 56.4159 72.848 56.6815 72.9752 56.8817Z" fill="#390176"/>
<path fill-rule="evenodd" clip-rule="evenodd" d="M59.9696 43.4963C59.9696 43.4963 61.1751 40.108 63.3758 38.2209C64.2723 37.4522 65.3552 36.9486 66.6576 37.2468C67.8447 37.4688 68.5337 38.3313 68.9851 39.3378C70.0944 41.8106 69.8679 45.1824 69.8679 45.1824C69.8218 45.5759 70.1039 45.9328 70.497 45.9788C70.8904 46.025 71.2472 45.7428 71.2933 45.3494C71.2933 45.3494 71.6058 43.4491 71.4054 41.3164C71.3197 40.4036 71.1325 39.453 70.7992 38.586C70.1613 36.9272 68.9777 35.6059 67.0781 35.1856C65.0633 34.8243 63.3863 35.5611 62.098 36.8312C59.7517 39.1435 58.7502 43.1327 58.7502 43.1327C58.65 43.4691 58.8417 43.8237 59.1782 43.9239C59.5145 44.0245 59.8692 43.8328 59.9696 43.4963Z" fill="#390176"/>
<path fill-rule="evenodd" clip-rule="evenodd" d="M144.3 115.104C144.3 115.104 144.514 110.951 142.547 108.095C141.668 106.818 140.39 105.77 138.467 105.468C138.209 105.414 137.955 105.579 137.901 105.838C137.847 106.096 138.013 106.35 138.271 106.404C139.79 106.805 140.738 107.741 141.34 108.839C142.751 111.417 142.2 114.901 142.2 114.901C142.144 115.481 142.569 115.997 143.148 116.052C143.728 116.109 144.244 115.684 144.3 115.104Z" fill="#390176"/>
<path fill-rule="evenodd" clip-rule="evenodd" d="M153.893 122.416C153.893 122.416 153.478 122.009 153.067 121.031C152.867 120.555 152.659 120.002 152.487 119.297C152.477 119.105 152.313 118.958 152.121 118.968C151.929 118.978 151.782 119.142 151.793 119.334C151.661 120.322 151.678 121.1 151.72 121.737C151.796 122.913 152.079 123.492 152.079 123.492C152.376 123.993 153.023 124.158 153.524 123.861C154.025 123.564 154.19 122.916 153.893 122.416Z" fill="#390176"/>
<path d="M79.4519 114.176C79.4105 114.176 79.3688 114.174 79.3266 114.17C78.708 114.101 78.2617 113.544 78.3302 112.925L79.1165 105.812C79.185 105.193 79.7409 104.747 80.3609 104.815C80.9796 104.884 81.4259 105.441 81.3574 106.06L80.5711 113.173C80.5072 113.75 80.019 114.176 79.4519 114.176Z" fill="#390176"/>
<path fill-rule="evenodd" clip-rule="evenodd" d="M33.9421 88.9069C33.9421 88.9069 33.1049 88.4299 31.8902 88.2203C31.2515 88.11 30.547 88.0333 29.8023 88.157C29.5653 88.157 29.373 88.3494 29.373 88.5865C29.373 88.8235 29.5653 89.0157 29.8023 89.0157C30.412 89.117 30.9359 89.3672 31.4015 89.6218C32.2219 90.07 32.7065 90.6163 32.7065 90.6163C33.1782 90.9573 33.838 90.8513 34.1792 90.3796C34.5201 89.9076 34.4139 89.2479 33.9421 88.9069Z" fill="#39005E"/>
<path fill-rule="evenodd" clip-rule="evenodd" d="M22.3298 77.6668C22.3298 77.6668 22.6488 76.9434 23.231 76.0383C23.5377 75.5617 23.9098 75.0324 24.3496 74.5333C25.0571 73.7308 25.7988 73.1785 26.4889 72.9164C27.2765 72.6174 27.9805 72.6524 28.187 73.3166C28.2958 73.6673 27.9647 73.9476 27.644 74.2034C27.0109 74.7083 26.2041 75.0383 26.2041 75.0383C25.9552 75.1266 25.8249 75.4003 25.9133 75.6492C26.0016 75.8981 26.2753 76.0284 26.5242 75.94C26.5242 75.94 28.1762 75.3992 28.9564 74.5349C29.3583 74.0898 29.5297 73.5605 29.4039 72.9934C29.1294 71.7546 28.106 71.1854 26.7452 71.3262C25.6689 71.4377 24.3386 72.0858 23.0684 73.3058C22.5174 73.8351 22.0396 74.4041 21.643 74.9206C20.8796 75.9147 20.4419 76.7258 20.4419 76.7258C20.1822 77.2468 20.3944 77.8805 20.9155 78.1402C21.4362 78.3998 22.0701 78.1879 22.3298 77.6668Z" fill="#390176"/>
<path fill-rule="evenodd" clip-rule="evenodd" d="M133.679 39.8327C136.472 45.2294 135.494 47.9122 135.494 47.9122C136.388 50.0398 136.796 52.2943 136.568 54.1656C136.334 56.096 135.424 57.6178 133.679 58.1645C130.774 59.0747 130.785 51.9788 130.859 49.7694C130.518 54.47 127.116 58.08 124.566 56.1891C121.903 54.2135 125.617 47.9123 125.617 47.9123C121.376 46.3849 123.092 40.853 123.092 40.853C121.387 40.4189 121.299 38.1785 121.299 38.1785C118.166 39.1705 115.945 34.4332 115.945 34.4332C112.693 35.5774 111.14 31.4883 111.14 31.4883C108.029 32.9397 105.727 29.0337 105.727 29.0337C102.029 31.4883 99.2139 28.3829 99.2139 28.3829C95.8519 30.1808 93.2706 26.582 93.2706 26.582C90.3905 28.3829 86.8397 26.0381 86.8397 26.0381C82.6012 28.0672 78.6361 24.7813 78.6361 24.7813C75.4094 26.8555 71.5937 24.7813 71.5937 24.7813C69.2237 26.8103 65.1064 24.7813 65.1064 24.7813C63.5113 27.4219 58.2358 26.0381 58.2358 26.0381C56.5563 28.2221 53.4563 28.3829 53.4563 28.3829C53.9326 30.1808 51.2441 34.4333 47.9976 32.3563C46.9182 31.6659 46.5125 30.7359 46.4533 29.8003C46.3265 27.9263 47.589 26.0381 47.589 26.0381C47.6003 20.5852 52.3826 21.3882 52.3826 21.3882C53.9467 16.7413 58.7149 18.4658 58.7149 18.4658C62.3164 14.1767 67.3524 18.4658 67.3524 18.4658C70.2635 14.1767 74.9556 18.4658 74.9556 18.4658C78.3205 14.6925 82.1362 18.4658 82.1362 18.4658C85.6363 15.5407 89.6803 19.2916 89.6803 19.2916C93.651 17.195 97.2356 21.3882 97.2356 21.3882C101.198 19.2916 103.424 22.7522 103.424 22.7522C108.674 21.3882 110.176 25.311 110.176 25.311C115.438 24.5868 116.579 29.9582 116.579 29.9582C120.795 28.4252 123.092 32.3563 123.092 32.3563C126.809 33.2243 127.279 35.5662 127.074 36.3581C126.871 37.15 132.239 35.5662 132.239 35.5662C133.595 33.9571 134.463 26.5821 138.124 31.4883C141.782 36.3918 133.679 39.8327 133.679 39.8327Z" fill="white"/>
<path d="M133.192 59.3704C132.646 59.3704 132.131 59.1936 131.69 58.8476C130.832 58.1742 130.33 56.8638 130.045 55.3963C129.405 56.2818 128.641 56.9802 127.8 57.3979C126.45 58.0681 125.063 57.9606 123.895 57.0949C121.193 55.0923 123.01 50.5335 124.071 48.4053C121.543 46.7862 121.375 43.622 121.779 41.4757C121.047 40.9612 120.617 40.1816 120.389 39.4455C118.149 39.4228 116.357 37.4384 115.356 35.7309C113.043 36.0371 111.406 34.3584 110.55 32.8609C108.351 33.292 106.484 31.856 105.392 30.5149C102.708 31.7746 100.324 30.7777 98.9941 29.7123C96.4663 30.6271 94.24 29.2768 92.9845 27.986C90.4809 28.9872 87.8763 27.8855 86.7665 27.2964C83.344 28.6337 80.2225 27.1583 78.7685 26.2496C78.7677 26.2497 78.7672 26.2497 78.7664 26.2497C78.6318 26.2553 78.5053 26.2375 78.3852 26.2001C75.7113 27.4243 72.9513 26.5866 71.7155 26.0785C69.5926 27.363 66.858 26.6581 65.4788 26.1554C65.4567 26.1651 65.434 26.1742 65.4111 26.1825C63.5163 27.9741 60.1383 27.5736 58.6406 27.2825C57.3577 28.5846 55.6798 29.128 54.5979 29.3527C54.408 30.7272 53.5087 32.2767 52.2654 33.1841C50.7617 34.2815 48.9848 34.3263 47.3899 33.3061C46.3356 32.6316 45.6519 31.6695 45.4123 30.5236C44.9976 28.5396 45.9799 26.5447 46.4432 25.7474C46.4508 25.7266 46.4591 25.7059 46.4679 25.6858C46.5375 23.7933 47.1465 22.3499 48.2812 21.3919C49.3988 20.4484 50.7507 20.2419 51.6342 20.2242C52.2078 19.0029 53.0572 18.1154 54.1672 17.5799C55.7321 16.8253 57.4079 17.0015 58.3487 17.2016C59.4069 16.1581 60.6471 15.5709 62.0435 15.4539C64.1354 15.2798 66.0552 16.2369 67.1465 16.9326C67.9657 16.0881 68.9356 15.596 70.0409 15.4661C71.9909 15.238 73.8399 16.2547 74.8721 16.9741C75.8592 16.1414 76.9583 15.7016 78.1503 15.6641C79.8672 15.6074 81.3418 16.4399 82.1813 17.0481C85.0151 15.3217 88.1279 16.6625 89.8584 17.9754C92.9414 16.8016 95.8944 18.5222 97.4913 20.0306C100.442 18.864 102.714 20.2114 103.874 21.4983C107.565 20.809 109.776 22.5165 110.771 24.0292C110.813 24.0567 110.854 24.087 110.892 24.12C110.972 24.1175 111.051 24.1163 111.129 24.1163C114.626 24.1163 116.536 26.5807 117.33 28.5849C120.457 28.0051 122.756 29.9101 123.795 31.374C126.03 32.0002 127.119 33.1325 127.644 33.9987C127.935 34.4791 128.102 34.9562 128.181 35.3899C129.011 35.2562 130.342 34.9363 131.537 34.5971C131.75 34.2141 132 33.5749 132.225 32.9967C132.963 31.1063 133.8 28.9636 135.593 28.7212C137.296 28.4906 138.596 30.239 139.025 30.8133C140.366 32.6106 140.314 34.219 140.035 35.2517C139.359 37.7479 136.699 39.5151 135.183 40.3426C137.032 44.3383 136.873 46.8302 136.677 47.8275C137.957 51.0675 138.112 54.2888 137.082 56.5054C136.451 57.8641 135.39 58.8099 134.014 59.2406C133.737 59.3275 133.461 59.3704 133.192 59.3704ZM131.973 49.9561C131.868 53.0228 132.257 56.4271 133.082 57.0742C133.129 57.1109 133.168 57.1431 133.341 57.0889C134.116 56.8464 134.671 56.3448 135.037 55.5555C135.83 53.8505 135.606 51.0889 134.455 48.3484C134.345 48.0865 134.338 47.7927 134.435 47.5258C134.434 47.5246 135.148 45.126 132.677 40.3494C132.532 40.0707 132.511 39.7444 132.617 39.4492C132.724 39.1539 132.948 38.9164 133.237 38.7938C134.339 38.323 137.321 36.6615 137.86 34.6595C138.077 33.8494 137.868 33.0323 137.218 32.1614C136.324 30.963 135.906 30.9583 135.895 30.9552C135.417 31.0197 134.624 33.0515 134.326 33.8164C133.926 34.8399 133.581 35.7238 133.102 36.2933C132.959 36.4626 132.77 36.5861 132.558 36.6487C130.174 37.3516 128.753 37.6313 127.876 37.6912C126.538 40.2009 124.823 41.3477 124.024 41.7736C123.771 43.035 123.489 45.9474 125.999 46.8512C126.315 46.9648 126.563 47.2135 126.677 47.5292C126.791 47.8451 126.758 48.1951 126.588 48.4843C125.3 50.675 123.979 54.3515 125.237 55.2837C125.539 55.5073 126.029 55.7597 126.797 55.3786C128.106 54.7287 129.474 52.543 129.719 49.8583C129.731 49.5413 129.746 49.2687 129.76 49.0543C129.799 48.4443 130.318 47.9809 130.927 47.9993C131.538 48.0221 132.019 48.5275 132.012 49.1387C132.009 49.4122 131.996 49.6848 131.973 49.9561ZM122.529 38.7036C122.626 39.057 122.811 39.4812 123.161 39.6786C123.763 39.3219 124.964 38.4236 125.946 36.5178C125.933 36.3739 125.945 36.2259 125.982 36.0787C126.04 35.7938 125.839 34.7095 124.259 33.9435C124.133 35.421 123.735 37.5176 122.529 38.7036ZM117.163 34.324C117.694 35.2615 119.226 37.6229 120.934 37.113C121.684 36.422 122.032 34.3328 122.058 32.8321C121.722 32.3146 120.259 30.3429 117.753 30.7999C117.776 31.7287 117.676 33.0139 117.163 34.324ZM112.27 31.2668C112.537 31.8559 113.486 33.6566 115.07 33.4852C115.656 31.9774 115.498 30.4684 115.43 30.0109C115.224 29.2559 114.365 26.8019 111.799 26.422C112.157 27.7698 112.501 29.6324 112.27 31.2668ZM48.1366 27.3722C47.7892 28.1071 47.4314 29.1773 47.6205 30.0682C47.7374 30.6199 48.0595 31.0579 48.605 31.4069C49.4194 31.9281 50.1824 31.9133 50.9365 31.3631C51.7317 30.7825 52.2131 29.8235 52.347 29.1784C50.6378 28.0139 49.0237 27.5512 48.1366 27.3722ZM106.805 28.6294C107.179 29.1877 108.47 30.9049 110.072 30.6499C110.197 29.1418 109.724 27.2349 109.352 26.0797C109.255 25.9761 109.177 25.8531 109.124 25.7145C109.021 25.4612 108.121 23.4611 105.238 23.6C105.854 24.8337 106.659 26.7585 106.805 28.6294ZM100.567 28.0755C101.3 28.6128 102.73 29.3101 104.518 28.4326C104.238 26.3505 102.983 24.1217 102.671 23.5919C102.597 23.5258 102.532 23.4491 102.476 23.363C102.33 23.1428 101.116 21.4456 98.9322 21.9399C99.7058 23.3102 100.738 25.6378 100.567 28.0755ZM94.3879 26.1741C94.9256 26.7925 96.4676 28.2811 98.3322 27.5498C98.3434 25.126 96.8192 22.7484 96.4244 22.1738C96.408 22.157 96.3922 22.1396 96.3768 22.1216C96.2765 22.0056 94.2601 19.7122 91.8118 19.8395C92.9207 21.2065 94.2658 23.4133 94.3879 26.1741ZM48.7659 25.199C49.882 25.4415 51.6455 25.9947 53.5133 27.2453C53.97 27.1961 55.6791 26.9445 56.8798 25.8494C54.9724 23.1524 52.9488 22.618 52.3483 22.5162C52.2973 22.5148 52.2457 22.5097 52.1939 22.5011C52.1853 22.4999 50.7071 22.2832 49.7244 23.124C49.2038 23.5695 48.8828 24.2654 48.7659 25.199ZM87.8328 25.3089C88.6108 25.7192 90.471 26.5271 92.1088 25.9052C91.8323 23.117 89.9192 21.0171 89.1858 20.306C89.0876 20.2582 88.9952 20.1956 88.9121 20.1187C88.797 20.0131 86.3802 17.8379 83.994 18.6746C85.2657 19.9871 87.1305 22.3257 87.8328 25.3089ZM79.7685 24.2147C80.6845 24.8286 82.9868 26.0932 85.5105 25.3448C84.4572 21.7805 81.3691 19.304 81.3352 19.2772C81.2706 19.2263 81.2134 19.1698 81.1633 19.1088C80.7233 18.7426 79.5331 17.8772 78.2095 17.9177C77.6724 17.9369 77.1667 18.1052 76.6821 18.4285C77.8007 19.5171 79.3854 21.4936 79.7685 24.2147ZM59.0714 25.0674C60.3371 25.3057 62.5834 25.4966 63.7015 24.6718C62.5361 21.5143 59.7567 20.0189 58.8097 19.5887C58.6501 19.6023 58.4886 19.5819 58.3324 19.5255C58.3194 19.5208 56.5637 18.9186 55.1347 19.6163C54.6681 19.8441 54.2829 20.1861 53.9726 20.6507C55.3411 21.1738 57.3242 22.3637 59.0714 25.0674ZM72.5811 23.9946C73.4815 24.3603 75.5695 25.0088 77.4682 24.1383C76.9607 21.6499 75.1237 19.999 74.4848 19.4894C74.3798 19.4413 74.2822 19.3768 74.1955 19.2975C73.6377 18.793 71.8484 17.5186 70.2978 17.7058C69.796 17.766 69.3448 17.9754 68.9347 18.3408C70.052 19.387 71.7786 21.3395 72.5811 23.9946ZM65.8075 23.8646C66.7811 24.2905 68.8735 24.9229 70.3014 24.2766C69.2248 21.2337 66.6207 19.328 66.5925 19.3077C66.5467 19.2747 66.5043 19.239 66.465 19.2009C65.9278 18.7959 64.0944 17.5397 62.222 17.7012C61.7314 17.7437 61.2755 17.8801 60.8482 18.1139C62.4012 19.0299 64.6787 20.8204 65.8075 23.8646Z" fill="#390176"/>
<path fill-rule="evenodd" clip-rule="evenodd" d="M82.8799 59.4337C82.8799 59.4337 77.5873 53.1386 81.8189 51.2691C84.7279 49.9836 86.0505 55.084 86.0062 56.6645C86.0062 56.6645 84.9396 58.3424 82.8799 59.4337Z" fill="#FE72AB"/>
<path d="M82.8817 60.5609C82.5573 60.5609 82.2385 60.4209 82.0183 60.1589C81.6512 59.7223 78.4521 55.8053 79.1554 52.7717C79.3392 51.9798 79.8714 50.8975 81.3645 50.2376C82.4213 49.7708 83.5095 49.8534 84.4284 50.4702C86.4422 51.8225 87.17 55.4224 87.1343 56.6958C87.1288 56.8993 87.0682 57.0975 86.9588 57.2692C86.9088 57.3479 85.7056 59.2126 83.409 60.4296C83.2421 60.518 83.0608 60.5609 82.8817 60.5609ZM82.7236 52.1908C82.5989 52.1908 82.4529 52.2217 82.2758 52.2999C81.5884 52.6035 81.421 52.9831 81.352 53.2797C81.0679 54.5006 82.1472 56.5347 83.1551 57.944C84.0141 57.3384 84.595 56.6681 84.8713 56.313C84.781 55.1335 84.1152 52.9756 83.1715 52.3419C83.0492 52.2597 82.9103 52.1908 82.7236 52.1908Z" fill="#390176"/>
<path fill-rule="evenodd" clip-rule="evenodd" d="M85.4579 57.884L83.3891 54.3636C83.3295 54.2002 83.1484 54.1158 82.9849 54.1754C82.8214 54.235 82.737 54.4161 82.7963 54.5797L83.4759 58.606C83.6752 59.1529 84.2809 59.4353 84.828 59.2359C85.3749 59.0368 85.6573 58.4308 85.4579 57.884Z" fill="#390176"/>
<path fill-rule="evenodd" clip-rule="evenodd" d="M57.2113 47.1124C59.5773 47.5419 61.2672 49.1625 60.983 50.729C60.6985 52.2956 58.5468 53.2188 56.1808 52.7894C53.8148 52.3599 52.1249 50.7393 52.4091 49.1728C52.6934 47.6063 54.8453 46.6828 57.2113 47.1124Z" fill="#FE8EB5"/>
<path fill-rule="evenodd" clip-rule="evenodd" d="M104.61 55.7906C106.849 56.6682 108.194 58.584 107.613 60.0665C107.032 61.5489 104.743 62.0402 102.504 61.1626C100.265 60.2851 98.9195 58.3691 99.5004 56.8867C100.082 55.4044 102.371 54.9134 104.61 55.7906Z" fill="#FE8EB5"/>
<path d="M28.1064 73.1461L27.3629 85.9979C27.3101 86.9287 26.5112 87.6406 25.5804 87.5852C24.6496 87.5325 23.9403 86.7336 23.993 85.8027L24.705 73.4941C25.6357 72.9219 26.8592 72.5211 28.1064 73.1461Z" fill="#FCB263"/>
<path d="M25.6833 88.7156C25.6267 88.7156 25.5697 88.7139 25.5127 88.7105C24.7647 88.6682 24.0751 88.3349 23.5749 87.7726C23.0758 87.2115 22.8243 86.4892 22.867 85.7389L23.5789 73.429C23.6002 73.0611 23.8 72.7267 24.114 72.5338C25.6669 71.5793 27.2216 71.4427 28.6108 72.1383C29.0131 72.3399 29.257 72.7618 29.231 73.2112L28.4876 86.0629C28.4449 86.8134 28.1116 87.5031 27.5492 88.0037C27.0297 88.4661 26.3728 88.7156 25.6833 88.7156ZM25.7932 74.1904L25.1177 85.8678C25.1091 86.0171 25.1594 86.1618 25.2594 86.2739C25.3166 86.3385 25.4429 86.4483 25.6434 86.4598C25.8494 86.4715 25.9858 86.3771 26.0504 86.3197C26.115 86.262 26.2254 86.1352 26.2368 85.9338L26.9294 73.9609C26.636 73.9396 26.2595 73.9848 25.7932 74.1904Z" fill="#390176"/>
<g opacity="0.2">
<path fill-rule="evenodd" clip-rule="evenodd" d="M136.253 54.1657C136.019 56.0962 135.109 57.6179 133.365 58.1646C130.459 59.0749 130.471 51.979 130.544 49.7695C130.203 54.4702 126.801 58.0802 124.251 56.1892C121.588 54.2136 125.302 47.9124 125.302 47.9124C121.061 46.385 122.777 40.8531 122.777 40.8531C121.072 40.4191 120.985 38.1787 120.985 38.1787C117.851 39.1706 115.631 34.4334 115.631 34.4334C112.378 35.5775 110.826 31.4884 110.826 31.4884C107.714 32.9399 105.412 29.0338 105.412 29.0338C101.715 31.4884 98.8994 28.383 98.8994 28.383C95.5374 30.1809 92.9559 26.5822 92.9559 26.5822C90.0758 28.383 86.525 26.0382 86.525 26.0382C82.2866 28.0673 78.3215 24.7814 78.3215 24.7814C75.0948 26.8556 71.279 24.7814 71.279 24.7814C68.909 26.8105 64.7918 24.7814 64.7918 24.7814C63.1967 27.422 57.9212 26.0382 57.9212 26.0382C56.2416 28.2223 53.1417 28.383 53.1417 28.383C53.618 30.1809 50.9295 34.4334 47.683 32.3564C46.6037 31.666 46.1979 30.736 46.1387 29.8004C47.4491 29.7975 49.2894 29.3129 49.6078 26.6976C49.6078 26.6976 53.5278 27.1654 54.4155 22.2648C54.4155 22.2648 57.9408 23.2061 61.6326 20.2864C61.6326 20.2864 65.1187 22.9382 69.5713 21.1178C69.5713 21.1178 73.0968 22.8651 76.7603 20.5993C76.7603 20.5993 80.1646 24.3559 84.7637 21.8252C84.7637 21.8252 89.0303 25.0293 91.7808 22.2648C91.7808 22.2648 95.1851 26.306 98.2652 23.7528C98.2652 23.7528 101.312 27.3262 104.389 25.1223C104.389 25.1223 107.424 29.9357 110.907 28.2871C110.907 28.2871 113.077 32.4241 116.315 31.5983C116.315 31.5983 119.238 36.6485 122.594 35.3379C122.594 35.3379 123.82 39.5962 125.674 38.5675C125.674 38.5675 124.75 45.9763 127.768 45.9849C127.768 45.9849 125.474 51.6661 126.441 52.0296C127.407 52.3904 130.183 44.6603 130.183 44.6603C130.183 44.6603 131.367 44.4405 131.925 47.391C132.401 49.9216 133.624 55.7073 136.253 54.1657Z" fill="#390176"/>
</g>
<path d="M137.574 17.5058C136.444 15.6575 135.887 13.4387 136.126 11.1174C136.704 5.48329 141.74 1.38488 147.375 1.96337C153.009 2.54185 157.107 7.57817 156.529 13.2123C155.95 18.8464 150.914 22.9448 145.28 22.3663C143.713 22.2054 142.265 21.6987 141.003 20.9311L136.257 21.9954L137.574 17.5058Z" fill="white"/>
<g opacity="0.5">
<path d="M147.173 3.9254C141.91 3.38504 137.17 6.92624 136.097 11.9876C136.095 11.626 136.111 11.2613 136.149 10.8935C136.727 5.25941 141.764 1.161 147.398 1.73949C153.032 2.31798 157.13 7.35424 156.552 12.9884C156.514 13.3577 156.456 13.72 156.381 14.0753C156.361 8.89927 152.438 4.46597 147.173 3.9254Z" fill="white"/>
</g>
<path d="M146.336 23.5478C145.949 23.5478 145.558 23.528 145.165 23.4877C143.621 23.3292 142.161 22.8721 140.819 22.1277L136.504 23.0953C136.114 23.1831 135.707 23.0575 135.435 22.7663C135.162 22.4751 135.063 22.0612 135.176 21.6782L136.356 17.6532C135.232 15.6192 134.765 13.3308 135.004 11.0022C135.315 7.97781 136.784 5.25538 139.143 3.33638C141.501 1.41747 144.467 0.532415 147.49 0.842029C150.514 1.15255 153.237 2.62228 155.156 4.98043C157.075 7.33859 157.96 10.3031 157.65 13.3274C157.049 19.1776 152.094 23.5478 146.336 23.5478ZM141.003 19.8039C141.208 19.8039 141.411 19.8599 141.589 19.9681C142.752 20.6754 144.032 21.105 145.395 21.245C150.404 21.7581 154.893 18.1038 155.407 13.0972C155.656 10.6718 154.946 8.29457 153.407 6.4034C151.868 4.51239 149.685 3.33376 147.259 3.08468C144.833 2.83628 142.457 3.54606 140.566 5.08495C138.675 6.62396 137.496 8.80715 137.247 11.2325C137.041 13.2356 137.487 15.2015 138.536 16.918C138.702 17.1893 138.745 17.5179 138.656 17.8231L137.877 20.4769L140.756 19.8313C140.838 19.8129 140.921 19.8039 141.003 19.8039Z" fill="#390176"/>
<g opacity="0.2">
<path d="M137.517 17.4073C140.326 19.7832 144.196 20.8236 148.038 19.8672C152.3 18.8065 155.44 15.5613 156.569 11.6228C156.596 12.145 156.584 12.6758 156.529 13.2123C155.951 18.8464 150.914 22.9448 145.28 22.3663C143.713 22.2054 142.266 21.6987 141.004 20.9311L136.258 21.9954L137.575 17.5058C137.555 17.4733 137.537 17.4399 137.517 17.4073Z" fill="#390176"/>
</g>
<path d="M143.047 9.2848C143.935 8.39729 145.374 8.5563 146.261 9.44382L146.399 9.58193L146.538 9.44382C147.425 8.5563 148.864 8.39729 149.751 9.2848C150.639 10.1723 150.639 11.6112 149.751 12.4987L149.613 12.6368L146.823 15.4271C146.589 15.6611 146.21 15.6611 145.976 15.4271L143.186 12.6368L143.047 12.4987C142.16 11.6112 142.16 10.1723 143.047 9.2848Z" fill="#FF0068"/>
</svg>
