<svg width="183" height="135" viewBox="0 0 183 135" fill="none" xmlns="http://www.w3.org/2000/svg">
<g opacity="0.2">
<path d="M72.0458 134.385C101.815 134.385 125.947 130.497 125.947 125.7C125.947 120.903 101.815 117.015 72.0458 117.015C42.2769 117.015 18.1445 120.903 18.1445 125.7C18.1445 130.497 42.2769 134.385 72.0458 134.385Z" fill="#000072"/>
</g>
<g opacity="0.3">
<path d="M51.1143 112.056L51.0986 112.064C51.1039 112.061 51.1064 112.058 51.1091 112.056C51.1117 112.056 51.1117 112.056 51.1143 112.056Z" fill="#5A0305"/>
</g>
<path d="M52.3207 126.46C52.3079 126.774 52.2237 127.072 52.086 127.335C51.762 127.955 51.1318 128.396 50.3971 128.465C44.7794 128.988 39.677 129.141 39.1157 126.049C38.9933 125.368 39.1362 124.669 39.4601 124.057L43.1083 117.146C43.7691 115.898 44.0191 114.474 43.8277 113.076L42.6822 104.731L50.5016 106.382L49.6827 112.094L49.624 112.497C49.3383 114.48 48.8179 116.421 48.0678 118.278L46.7922 121.434C50.1471 122.041 52.4151 123.909 52.3207 126.46Z" fill="white"/>
<path d="M45.4018 129.521C41.7411 129.521 38.841 128.822 38.3629 126.185C38.2158 125.373 38.3647 124.49 38.7821 123.7L42.4321 116.788C43.0198 115.675 43.2398 114.428 43.0687 113.181L41.9235 104.835C41.8897 104.588 41.978 104.341 42.1605 104.171C42.3427 104.001 42.5969 103.93 42.8398 103.982L50.6589 105.634C51.0536 105.717 51.3158 106.092 51.2585 106.492L50.381 112.606C50.0878 114.648 49.5478 116.653 48.7757 118.565L47.8407 120.881C51.196 121.751 53.1822 123.844 53.0838 126.487C53.0307 127.915 51.905 129.093 50.4659 129.227C48.7256 129.389 46.9917 129.521 45.4018 129.521ZM43.588 105.705L44.5852 112.973C44.8 114.539 44.5238 116.105 43.7856 117.503L40.1356 124.414C39.8772 124.903 39.7828 125.435 39.8689 125.912C40.3238 128.42 45.5042 128.152 50.3243 127.703C51.0008 127.64 51.5297 127.093 51.5544 126.43C51.6307 124.374 49.7538 122.749 46.6558 122.188C46.4293 122.147 46.2332 122.006 46.122 121.804C46.0108 121.603 45.9963 121.362 46.0824 121.148L47.3562 117.992C48.0824 116.194 48.5902 114.308 48.8657 112.388L49.6414 106.983L43.588 105.705Z" fill="#000072"/>
<path d="M46.7919 122.2H44.7604C44.3378 122.2 43.9951 121.857 43.9951 121.435C43.9951 121.012 44.3378 120.669 44.7604 120.669H46.7919C47.2145 120.669 47.5572 121.012 47.5572 121.435C47.5572 121.857 47.2145 122.2 46.7919 122.2Z" fill="#000072"/>
<g opacity="0.2">
<path d="M52.086 127.335C51.762 127.955 51.1318 128.396 50.3971 128.465C44.7794 128.988 39.677 129.141 39.1157 126.049C38.9933 125.368 39.1362 124.669 39.4601 124.057L43.1083 117.146C43.7691 115.898 44.0191 114.474 43.8277 113.076L42.6822 104.731L50.5016 106.382L49.6827 112.094C46.9529 112.525 44.5522 114.951 44.3915 117.748C44.3124 119.13 44.6696 120.669 43.866 121.799C43.5241 122.281 42.9985 122.631 42.746 123.164C42.4144 123.876 42.672 124.756 43.1924 125.342C43.7129 125.929 44.4527 126.274 45.19 126.544C47.3842 127.345 49.767 127.608 52.086 127.335Z" fill="#000072"/>
</g>
<path d="M107.876 124.62C107.652 124.942 107.3 125.176 106.884 125.25C99.8962 126.47 94.5361 125.416 95.7505 121.962C96.0439 121.125 96.2531 120.258 96.2761 119.372C96.4036 114.673 94.9826 111.239 92.5947 108.594L97.7813 106.767C98.8936 108.004 99.6819 109.517 100.192 111.272C100.924 113.796 101.072 116.821 100.758 120.245C104.307 119.008 107.537 120.796 108.114 123.5C108.2 123.906 108.101 124.304 107.876 124.62Z" fill="white"/>
<path d="M101.763 126.506C98.7251 126.506 96.4926 125.879 95.469 124.67C94.9918 124.107 94.5277 123.135 95.0295 121.708C95.3354 120.838 95.4935 120.067 95.5128 119.352C95.6248 115.179 94.4848 111.828 92.0276 109.107C91.8557 108.917 91.7907 108.653 91.8536 108.405C91.9167 108.157 92.0997 107.957 92.3414 107.872L97.5287 106.046C97.8204 105.943 98.1453 106.027 98.352 106.256C100.92 109.113 101.988 113.362 101.607 119.223C103.252 118.903 104.895 119.132 106.246 119.892C107.605 120.658 108.559 121.915 108.862 123.341C108.987 123.926 108.868 124.524 108.529 125.026C108.182 125.541 107.63 125.897 107.016 126.004C105.09 126.341 103.32 126.506 101.763 126.506ZM93.8927 108.949C96.1226 111.808 97.1545 115.237 97.0428 119.393C97.0194 120.269 96.8332 121.193 96.4736 122.216C96.1903 123.022 96.4311 123.438 96.6371 123.681C97.5856 124.8 101.082 125.487 106.753 124.496C106.96 124.46 107.145 124.341 107.261 124.169C107.365 124.015 107.402 123.834 107.365 123.659C107.15 122.649 106.486 121.784 105.495 121.226C104.225 120.511 102.59 120.416 101.011 120.967C100.766 121.052 100.493 121.008 100.288 120.847C100.083 120.687 99.9731 120.433 99.9971 120.174C100.522 114.471 99.7182 110.371 97.5409 107.664L93.8927 108.949Z" fill="#000072"/>
<g opacity="0.2">
<path d="M107.876 124.62C107.652 124.942 107.3 125.176 106.884 125.25C99.8962 126.47 94.5361 125.416 95.7505 121.962C96.0439 121.125 96.2531 120.258 96.2761 119.372C96.4036 114.673 94.9826 111.239 92.5947 108.594L97.7813 106.767C98.8936 108.004 99.6819 109.517 100.192 111.272C98.1104 113.673 97.6996 117.523 99.511 120.184C98.8043 120.138 98.3731 121.079 98.641 121.735C98.9063 122.391 99.5798 122.776 100.225 123.069C102.613 124.158 105.254 124.687 107.876 124.62Z" fill="#000072"/>
</g>
<path d="M131.681 96.0847C158.201 89.8201 177.836 82.5382 181.981 72.9678C169.699 78.4478 151.151 84.2232 130.457 90.0999L131.681 96.0847Z" fill="#BED3E7"/>
<g opacity="0.4">
<path d="M181.981 72.968C181.798 73.3907 181.583 73.8087 181.341 74.2225C170.555 79.0384 155.585 84.1427 138.858 89.3679C136.018 90.2552 134.285 92.8738 134.934 95.3021C133.862 95.5648 132.778 95.8258 131.681 96.0849L130.457 90.1001C151.151 84.2235 169.699 78.4481 181.981 72.968Z" fill="#000072"/>
</g>
<g opacity="0.8">
<path d="M179.651 73.9802C180.451 73.6417 181.229 73.3043 181.983 72.968C177.837 82.5385 158.202 89.8204 131.682 96.085L131.303 94.2293C155.044 88.6062 173.227 82.1619 179.651 73.9802Z" fill="white"/>
</g>
<path d="M131.681 96.595C131.585 96.595 131.489 96.5674 131.407 96.5145C131.29 96.4403 131.209 96.3222 131.181 96.187L129.958 90.2021C129.904 89.9404 130.061 89.6818 130.318 89.6089C155.266 82.5244 171.136 77.2483 181.774 72.5015C181.966 72.4166 182.191 72.4567 182.341 72.6048C182.49 72.7527 182.534 72.9774 182.45 73.1703C178.682 81.8695 162.587 89.3084 131.799 96.5812C131.76 96.5903 131.72 96.595 131.681 96.595ZM131.052 90.4611L132.076 95.4667C146.24 92.1026 157.019 88.7752 165.019 85.298C173.203 81.7401 178.526 77.9497 180.872 74.0127C170.275 78.6012 154.784 83.713 131.052 90.4611Z" fill="#000072"/>
<path d="M182.353 73.319C173.64 82.0961 159.557 86.7549 147.877 90.1559C143.749 91.3191 139.581 92.3269 135.405 93.286C135.292 93.3119 135.18 93.2416 135.154 93.1288C135.128 93.0161 135.198 92.9038 135.311 92.8779C139.47 91.8713 143.617 90.8168 147.72 89.6086C156.888 86.8536 166.067 83.6538 174.213 78.5555C174.988 78.0948 176.101 77.2888 176.85 76.7768C178.545 75.5038 180.165 74.1372 181.618 72.611C182.081 72.1388 182.821 72.8131 182.353 73.319Z" fill="#000072"/>
<path d="M128.902 96.2361C129.177 94.2749 128.452 92.6231 127.503 91.0406C127.48 91.0027 127.434 90.9848 127.39 90.9969L111.505 95.4319C111.452 95.4468 111.42 95.5013 111.434 95.5538L112.812 100.69C112.826 100.743 112.88 100.773 112.934 100.758L128.827 96.321C128.867 96.31 128.897 96.2761 128.902 96.2361Z" fill="#FD2F19"/>
<g opacity="0.6">
<path d="M112.691 99.8525L128.584 95.4152C128.624 95.4042 128.654 95.3701 128.659 95.3301C128.758 94.6219 128.726 93.9545 128.601 93.3157C128.908 94.2253 129.049 95.1862 128.902 96.2363C128.897 96.2763 128.867 96.31 128.827 96.321L112.934 100.758C112.88 100.773 112.826 100.743 112.812 100.69L112.619 99.9744C112.606 99.9219 112.637 99.8674 112.691 99.8525Z" fill="white"/>
</g>
<g opacity="0.4">
<path d="M125.464 93.2265L111.927 97.0059C111.874 97.0207 111.819 96.9903 111.805 96.9379L111.434 95.554C111.42 95.5016 111.452 95.447 111.505 95.4321L127.39 90.9972C127.434 90.985 127.48 91.0029 127.503 91.0409C128.452 92.6233 129.177 94.2751 128.902 96.2363C128.897 96.2763 128.867 96.3103 128.827 96.3213L128.055 96.5369C127.998 96.5529 127.941 96.5163 127.933 96.4586C127.797 95.5527 127.468 94.7066 127.044 93.8898C126.751 93.3251 126.09 93.0518 125.464 93.2265Z" fill="#000072"/>
</g>
<path d="M113.685 100.466C113.582 100.466 113.478 100.441 113.383 100.388L110.799 98.95C110.652 98.8671 110.547 98.7331 110.503 98.5713C110.459 98.4117 110.483 98.2378 110.566 98.0946L112.073 95.5142C112.243 95.2218 112.622 95.1169 112.917 95.2832L115.5 96.7208C115.646 96.8015 115.754 96.9393 115.797 97.0989C115.841 97.2588 115.818 97.4327 115.734 97.5762L114.227 100.157C114.112 100.355 113.9 100.466 113.685 100.466ZM113.88 99.4965L113.88 99.4968C113.881 99.4971 113.881 99.4973 113.881 99.4976C113.881 99.4971 113.88 99.4968 113.88 99.4965ZM111.653 98.2574L113.541 99.308L114.647 97.4138L112.759 96.3629L111.653 98.2574ZM112.42 96.174C112.42 96.1746 112.421 96.1748 112.422 96.1753L112.42 96.174ZM112.954 96.028L112.954 96.029C112.954 96.0288 112.954 96.0285 112.954 96.028Z" fill="#000072"/>
<path d="M117.948 99.2758C117.846 99.2758 117.743 99.2511 117.649 99.1991C117.648 99.1988 117.648 99.1985 117.648 99.1982L115.063 97.7596C114.918 97.6789 114.81 97.5411 114.767 97.3815C114.723 97.2217 114.746 97.0477 114.83 96.9043L116.336 94.3238C116.507 94.0319 116.885 93.927 117.18 94.0923L119.764 95.5307C119.908 95.6101 120.017 95.7479 120.061 95.9075C120.105 96.0676 120.082 96.242 119.998 96.3858L118.491 98.9665C118.376 99.1644 118.164 99.2758 117.948 99.2758ZM115.917 97.0667L117.805 98.1179L118.911 96.2234L117.023 95.1725L115.917 97.0667ZM119.267 96.4221C119.268 96.4223 119.268 96.4229 119.269 96.4231L119.267 96.4221Z" fill="#000072"/>
<path d="M122.279 98.0084C122.177 98.0084 122.074 97.9834 121.979 97.9308L121.979 97.9305L119.394 96.4919C119.248 96.4107 119.143 96.2771 119.098 96.1153C119.054 95.9557 119.077 95.7818 119.16 95.638L120.667 93.0561C120.837 92.7647 121.215 92.6598 121.511 92.8241L124.095 94.2629C124.241 94.3441 124.347 94.4777 124.391 94.6395C124.435 94.7991 124.413 94.973 124.33 95.1167L122.822 97.6987C122.706 97.8966 122.495 98.0084 122.279 98.0084ZM120.248 95.799L122.136 96.8502L123.242 94.9559L121.354 93.9047L120.248 95.799ZM119.89 95.6L119.891 95.6003C119.89 95.6003 119.89 95.6 119.89 95.6ZM123.599 95.1545C123.599 95.1545 123.599 95.1548 123.599 95.1548L123.599 95.1545Z" fill="#5A0305"/>
<path d="M126.65 96.8462C126.548 96.8462 126.444 96.8212 126.349 96.7681L123.765 95.3297C123.622 95.2503 123.513 95.113 123.469 94.9534C123.425 94.7936 123.448 94.6193 123.532 94.4754L125.039 91.8939C125.207 91.6023 125.586 91.4979 125.882 91.6619L128.467 93.1007C128.614 93.1836 128.719 93.3176 128.763 93.4794C128.807 93.639 128.783 93.8129 128.7 93.9561L127.193 96.5365C127.078 96.7347 126.866 96.8462 126.65 96.8462ZM126.846 95.8768V95.877C126.846 95.8768 126.846 95.8768 126.846 95.8768ZM124.619 94.6368L126.507 95.688L127.613 93.7935L125.725 92.7426L124.619 94.6368ZM124.26 94.4374L124.263 94.4385C124.262 94.4381 124.261 94.4377 124.26 94.4374ZM125.921 92.4072L125.919 92.4093C125.92 92.4085 125.92 92.4079 125.921 92.4072Z" fill="#000072"/>
<path d="M112.906 101.273C112.801 101.273 112.698 101.246 112.605 101.192C112.463 101.111 112.362 100.98 112.319 100.823L110.942 95.6861C110.855 95.3646 111.047 95.0299 111.369 94.9404L127.259 90.504C127.509 90.4358 127.772 90.5293 127.92 90.7352C129.082 92.3522 129.639 94.4321 129.408 96.2978C129.408 96.2983 129.408 96.2989 129.408 96.2996C129.377 96.5447 129.202 96.7462 128.964 96.8128L113.071 101.25C113.017 101.265 112.961 101.273 112.906 101.273ZM112.033 95.8145L113.197 100.155L128.422 95.9045C128.534 94.4469 128.106 92.8619 127.252 91.5652L112.033 95.8145ZM111.644 95.9233H111.643C111.643 95.9233 111.643 95.9233 111.644 95.9233Z" fill="#000072"/>
<path d="M113.428 99.7112L112.424 95.9675C112.214 95.1835 111.389 94.7243 110.591 94.9471C109.793 95.1699 109.312 95.9937 109.522 96.7777L110.526 100.521C110.736 101.305 111.561 101.765 112.359 101.542C113.157 101.319 113.638 100.495 113.428 99.7112Z" fill="#FFCE00"/>
<g opacity="0.7">
<path d="M110.557 100.633L109.467 96.5707C109.331 96.0653 109.532 95.5408 109.931 95.2317C109.891 95.4198 109.892 95.6183 109.944 95.8143L110.927 99.4783C111.121 100.201 111.881 100.624 112.616 100.419L112.941 100.328C113.098 100.284 113.241 100.212 113.366 100.12C113.43 100.073 113.521 100.114 113.524 100.192C113.546 100.771 113.16 101.318 112.571 101.483L112.246 101.574C111.511 101.779 110.75 101.356 110.557 100.633Z" fill="white"/>
</g>
<g opacity="0.4">
<path d="M112.144 97.3124C111.95 96.59 111.19 96.1669 110.455 96.3722L110.13 96.4628C109.949 96.5134 109.788 96.6007 109.651 96.7137C109.595 96.7599 109.511 96.7344 109.493 96.6657C109.299 95.9434 109.742 95.1844 110.477 94.9791L110.705 94.9153C111.441 94.7101 112.201 95.1331 112.395 95.8556L113.484 99.9182C113.583 100.288 113.502 100.667 113.295 100.965C113.247 101.035 113.137 101.017 113.116 100.936L112.144 97.3124Z" fill="#371A45"/>
</g>
<path d="M111.949 102.109C111.604 102.109 111.264 102.02 110.957 101.845C110.498 101.583 110.17 101.16 110.034 100.654L109.03 96.9099C108.747 95.8551 109.386 94.7542 110.454 94.4558C110.978 94.3092 111.525 94.3766 111.994 94.6437C112.453 94.9057 112.782 95.3288 112.917 95.8353L113.921 99.5788C114.205 100.634 113.566 101.735 112.497 102.033C112.316 102.084 112.132 102.109 111.949 102.109ZM111.001 95.401C110.91 95.401 110.819 95.4132 110.729 95.4385C110.197 95.5871 109.877 96.1285 110.016 96.6454L111.02 100.389C111.084 100.63 111.242 100.832 111.463 100.958C111.693 101.09 111.964 101.123 112.223 101.051C112.755 100.902 113.075 100.36 112.936 99.8434L111.932 96.0999C111.867 95.8585 111.71 95.6565 111.489 95.5304C111.338 95.4447 111.171 95.401 111.001 95.401Z" fill="#000072"/>
<path d="M131.045 99.9967L130.973 100.016C130.121 100.24 129.241 99.7274 129.016 98.8756L126.313 88.628C126.088 87.7763 126.601 86.8956 127.453 86.6709L127.525 86.6519C128.376 86.4273 129.257 86.9403 129.482 87.792L132.185 98.0396C132.41 98.8913 131.897 99.772 131.045 99.9967Z" fill="#FFCE00"/>
<g opacity="0.4">
<path d="M132.161 98.7131L132.089 98.7322C131.237 98.9568 130.356 98.4438 130.132 97.5921L127.428 87.3445C127.37 87.1239 127.362 86.9016 127.396 86.689C126.579 86.9373 126.093 87.7956 126.313 88.628L129.016 98.8756C129.241 99.7273 130.121 100.24 130.973 100.016L131.045 99.9967C131.676 99.8302 132.12 99.3033 132.217 98.6951C132.198 98.7009 132.18 98.708 132.161 98.7131Z" fill="#000072"/>
</g>
<path d="M130.563 100.835C130.15 100.835 129.741 100.725 129.373 100.51C128.826 100.192 128.436 99.6804 128.275 99.0708L125.572 88.8234C125.411 88.2138 125.498 87.5767 125.817 87.0291C126.136 86.4818 126.647 86.0917 127.257 85.9308L127.329 85.9118C127.938 85.7504 128.576 85.8381 129.123 86.1571C129.671 86.4759 130.06 86.9872 130.221 87.5968L132.925 97.8444C133.258 99.1062 132.502 100.404 131.24 100.737H131.24L131.167 100.756C130.968 100.809 130.765 100.835 130.563 100.835ZM127.931 87.3642C127.86 87.3642 127.789 87.3733 127.719 87.3918L127.647 87.4108C127.433 87.4673 127.253 87.6053 127.14 87.7995C127.027 87.9935 126.996 88.2185 127.052 88.4328L129.755 98.6802C129.873 99.1259 130.332 99.3934 130.777 99.2757L130.849 99.2567C131.064 99.2002 131.244 99.0622 131.357 98.8682C131.47 98.6739 131.501 98.4493 131.445 98.2349L128.741 87.9873C128.685 87.773 128.547 87.5926 128.352 87.4796C128.222 87.4033 128.077 87.3642 127.931 87.3642Z" fill="#000072"/>
<path d="M125.717 93.0327C126.603 98.228 124.877 101.665 121.57 100.47C120.378 100.039 119.473 99.0758 119.07 97.8746C118.603 96.4852 118.568 94.925 118.826 93.3324L125.717 93.0327Z" fill="white"/>
<g opacity="0.3">
<path d="M125.717 93.0327C126.603 98.228 124.877 101.665 121.57 100.47C120.378 100.039 119.473 99.0758 119.07 97.8746C118.603 96.4852 118.568 94.925 118.826 93.3324L125.717 93.0327Z" fill="#000072"/>
</g>
<path d="M122.823 101.475C122.376 101.475 121.873 101.393 121.31 101.19C119.911 100.684 118.83 99.5648 118.344 98.1183C117.866 96.6946 117.774 95.0432 118.071 93.2098C118.129 92.8515 118.43 92.5834 118.793 92.5675L125.684 92.2678C126.064 92.2592 126.407 92.5235 126.471 92.9039C127.081 96.4774 126.505 99.3968 124.932 100.713C124.469 101.1 123.775 101.475 122.823 101.475ZM119.497 94.0692C119.349 95.4049 119.449 96.6006 119.795 97.6307C120.131 98.6318 120.873 99.4041 121.83 99.7497C122.696 100.062 123.408 99.9913 123.949 99.539C124.998 98.6621 125.409 96.5066 125.062 93.827L119.497 94.0692Z" fill="#000072"/>
<path d="M108.158 67.8599L123.55 87.589C127.292 91.6284 125.66 97.4977 122.7 95.7195C122.335 94.5235 122.305 93.329 122.612 92.1363C122.62 92.1035 122.58 92.0853 122.56 92.1129C121.687 93.3352 120.172 93.5382 118.365 93.2763C117.935 93.2141 117.599 92.8717 117.556 92.44C117.476 91.6185 117.618 90.8319 117.959 90.0764C118.172 89.6035 118.09 89.0506 117.73 88.6778L108.86 79.5103L108.158 67.8599Z" fill="white"/>
<g opacity="0.3">
<path d="M124.426 94.188C124.32 93.839 124.242 93.49 124.192 93.1413C124.065 92.2429 123.232 91.5955 122.34 91.7621C121.672 91.8868 120.912 91.8637 120.091 91.7449C119.662 91.6826 119.325 91.34 119.283 90.9082C119.202 90.0868 119.345 89.3004 119.685 88.5449C119.898 88.072 119.816 87.5191 119.456 87.1464L110.586 77.9788L110.129 70.3856L108.158 67.8599L108.86 79.5103L117.73 88.6778C118.09 89.0506 118.172 89.6035 117.959 90.0764C117.619 90.8319 117.476 91.6182 117.556 92.4396C117.599 92.8715 117.936 93.2141 118.365 93.2764C120.172 93.5382 121.687 93.3352 122.56 92.1133C122.58 92.0856 122.62 92.1039 122.612 92.1369C122.305 93.3294 122.335 94.5236 122.7 95.7195C123.975 96.4858 125.003 95.8302 125.461 94.5146C125.142 94.5118 124.794 94.4093 124.426 94.188Z" fill="#000072"/>
</g>
<path d="M123.75 96.8079C123.28 96.8079 122.788 96.6655 122.306 96.3757C122.143 96.2781 122.023 96.1239 121.968 95.943C121.749 95.2269 121.639 94.5062 121.637 93.787C120.752 94.1528 119.631 94.2335 118.255 94.0338C117.472 93.9203 116.871 93.2956 116.795 92.515C116.703 91.5795 116.859 90.6535 117.261 89.7622C117.348 89.568 117.316 89.3514 117.18 89.2102L108.31 80.0426C108.183 79.9114 108.107 79.7388 108.096 79.5565L107.394 67.9059C107.374 67.5713 107.574 67.2625 107.887 67.1437C108.201 67.025 108.555 67.125 108.761 67.389L124.134 87.0933C126.824 90.018 127.055 94.0736 125.575 95.8943C125.085 96.4983 124.442 96.8079 123.75 96.8079ZM123.347 95.193C123.889 95.4177 124.186 95.1779 124.388 94.929C125.325 93.7758 125.246 90.5455 122.989 88.109C122.974 88.0934 122.96 88.0768 122.947 88.0598L109.07 70.273L109.607 79.1818L118.28 88.1458C118.855 88.7402 119.003 89.6214 118.656 90.3908C118.362 91.0441 118.251 91.6898 118.318 92.3653C118.326 92.4434 118.39 92.5066 118.474 92.5189C120.793 92.8548 121.561 92.1942 121.937 91.668C122.161 91.356 122.574 91.2474 122.92 91.4081C123.265 91.5691 123.448 91.9544 123.354 92.3249C123.105 93.2883 123.103 94.2291 123.347 95.193Z" fill="#000072"/>
<path d="M115.327 25.5351C115.386 29.8262 113.802 33.1299 112.577 36.7297C112.003 38.4237 111.61 40.1738 111.409 41.9494C110.126 53.1771 110.103 69.1986 110.455 86.6538L110.572 98.1978C110.587 99.7515 110.085 101.277 109.108 102.484C107.901 103.974 106.026 105.316 103.656 106.474C101.793 107.387 99.6275 108.186 97.2397 108.859C91.0709 110.599 83.425 111.49 75.7587 111.273C67.0923 111.286 58.6453 110.877 51.4484 109.658C38.94 107.545 30.1971 102.984 30.6027 93.9247C29.5567 62.0374 29.6818 33.9948 33.9193 19.4735C36.1286 11.7587 49.3029 7.97532 64.6661 7.8299C82.7948 7.65643 103.98 12.5471 113.807 22.017C114.766 22.9405 115.31 24.2059 115.327 25.5351Z" fill="#6A6A7C"/>
<g opacity="0.6">
<path d="M113.806 22.0168C103.979 12.5468 82.7936 7.65618 64.6649 7.82965C64.5462 7.83077 64.428 7.8328 64.3096 7.83435C81.9176 8.06168 101.8 12.9312 111.228 22.0167C112.187 22.9403 112.73 24.2056 112.748 25.5348C112.807 29.8259 111.223 33.1297 109.998 36.7294C109.424 38.4234 109.031 40.1735 108.83 41.9491C107.546 53.1769 107.523 69.1983 107.876 86.6535L107.993 98.1977C108.008 99.7513 107.506 101.277 106.529 102.484C105.322 103.974 103.447 105.315 101.077 106.474C99.2142 107.387 97.0483 108.186 94.6604 108.859C89.4469 110.33 83.1775 111.19 76.7332 111.291C84.07 111.41 91.3315 110.525 97.2384 108.859C99.6263 108.186 101.792 107.387 103.655 106.474C106.025 105.316 107.9 103.974 109.107 102.484C110.084 101.277 110.586 99.7514 110.571 98.1977L110.454 86.6536C110.102 69.1984 110.124 53.177 111.408 41.9493C111.609 40.1736 112.002 38.4235 112.576 36.7295C113.801 33.1298 115.385 29.826 115.326 25.5349C115.308 24.2058 114.765 22.9404 113.806 22.0168Z" fill="white"/>
</g>
<path d="M78.0409 112.07C77.2749 112.07 76.5072 112.059 75.736 112.037C75.6195 112.038 75.5016 112.038 75.3858 112.038C52.9022 112.038 39.0909 109.04 33.187 102.875C30.8157 100.399 29.6882 97.3865 29.8358 93.9205C28.9144 65.8267 28.593 34.9908 33.1833 19.26C34.4751 14.759 39.2677 11.2758 47.0432 9.18773C66.3681 3.99804 100.694 8.31802 114.338 21.4661C115.449 22.5367 116.072 23.9778 116.093 25.524C116.141 29.1416 115.062 32.1019 114.018 34.9647C113.779 35.6213 113.532 36.3004 113.302 36.9759C112.745 38.6155 112.363 40.318 112.167 42.036C110.775 54.2364 110.929 72.2809 111.219 86.6384L111.336 98.1906C111.354 99.9466 110.773 101.642 109.702 102.966C105.335 108.359 92.2495 112.07 78.0409 112.07ZM75.7565 110.507C90.4182 110.92 104.186 107.346 108.513 102.002C109.36 100.955 109.819 99.607 109.805 98.2061L109.688 86.6615C109.398 72.2641 109.244 54.1531 110.646 41.8625C110.854 40.0361 111.26 38.2262 111.853 36.4832C112.088 35.7919 112.338 35.1049 112.58 34.4404C113.622 31.5815 114.607 28.8811 114.562 25.5443C114.547 24.4099 114.09 23.353 113.276 22.5682C107.279 16.789 96.1008 12.2044 82.6085 9.98997C69.9182 7.90731 56.7717 8.16002 47.4404 10.6659C42.3986 12.02 36.0876 14.6835 34.6542 19.6839C34.6537 19.6851 34.6534 19.6863 34.6532 19.6875C30.0942 35.307 30.5019 67.5522 31.3666 93.8993C31.3672 93.9188 31.3672 93.9386 31.3661 93.9584C31.2284 97.0458 32.1855 99.6163 34.2926 101.816C39.8921 107.663 53.3438 110.507 75.405 110.507C75.5227 110.507 75.6383 110.507 75.7565 110.507Z" fill="#000072"/>
<path d="M70.741 76.0097C70.8051 74.8292 68.9752 73.7701 66.6539 73.6441C64.3326 73.5181 62.3989 74.3729 62.3348 75.5534C62.2707 76.7339 64.1006 77.7931 66.4219 77.9191C68.7432 78.0451 70.6769 77.1902 70.741 76.0097Z" fill="#FF8AB7"/>
<path d="M99.6813 78.4439C102.004 78.3579 103.852 77.3304 103.809 76.149C103.765 74.9675 101.846 74.0795 99.5229 74.1655C97.1997 74.2516 95.3519 75.279 95.3956 76.4605C95.4394 77.6419 97.3581 78.5299 99.6813 78.4439Z" fill="#FF8AB7"/>
<path d="M78.5082 75.5081C79.7146 76.2277 80.75 76.9421 81.9664 77.5405C82.6593 77.8488 83.4672 77.8195 84.1455 77.4905C84.4242 77.349 84.6925 77.181 84.9619 77.0198C85.7111 76.5639 86.4396 76.0465 87.2378 75.5183C87.4131 75.3906 87.6609 75.5954 87.5713 75.7908C87.0751 76.987 86.2024 78.0152 85.1775 78.8091C83.3931 80.0817 81.4482 79.5871 79.9615 78.1264C79.2358 77.4558 78.6186 76.6825 78.1876 75.8009C78.085 75.6065 78.326 75.3883 78.5082 75.5081Z" fill="#000072"/>
<path d="M67.9823 60.4863C70.5555 60.9377 72.9696 62.0855 75.3518 63.1068C76.1428 63.4698 76.9333 63.8429 77.7014 64.2553C78.3021 64.5817 77.9243 65.5049 77.2695 65.3187C75.6452 64.85 73.9278 64.1922 72.3552 63.5659C70.7377 62.8997 69.1301 62.2427 67.6802 61.2297C67.3257 60.9886 67.5633 60.4102 67.9823 60.4863Z" fill="#000072"/>
<path d="M72.0728 74.1435C74.6923 74.3963 77.1206 71.4318 77.4997 67.5213C77.5953 66.5514 77.5543 65.6156 77.3972 64.7516L69.9143 61.7051C68.9205 62.9038 68.2101 64.6354 68.0188 66.6026C67.6397 70.513 69.4532 73.8908 72.0728 74.1435Z" fill="#000072"/>
<path d="M75.7756 67.8013C75.9064 66.7168 75.3914 65.7627 74.6253 65.6703C73.8592 65.5779 73.1322 66.3823 73.0014 67.4669C72.8707 68.5514 73.3857 69.5055 74.1517 69.5979C74.9178 69.6903 75.6448 68.8859 75.7756 67.8013Z" fill="white"/>
<g opacity="0.35">
<path d="M71.5026 71.7139C71.9601 71.499 72.0225 70.6678 71.642 69.8572C71.2614 69.0466 70.5819 68.5637 70.1244 68.7785C69.6668 68.9933 69.6044 69.8246 69.985 70.6352C70.3656 71.4457 71.045 71.9287 71.5026 71.7139Z" fill="white"/>
</g>
<path d="M99.0166 61.9997C97.514 62.9325 95.8729 63.5015 94.2217 64.079C92.616 64.6193 90.8688 65.1824 89.2196 65.5629C88.9088 65.6339 88.5994 65.4396 88.5283 65.1289C88.4662 64.8571 88.6074 64.5858 88.8516 64.4751C89.6391 64.1059 90.4468 63.777 91.2544 63.4582C91.8604 63.2237 93.0859 62.7729 93.6995 62.5598C95.3549 61.9955 96.9968 61.4316 98.7551 61.241C99.1805 61.1894 99.3825 61.7813 99.0166 61.9997Z" fill="#000072"/>
<path d="M93.9307 74.6562C91.3013 74.7666 89.0373 71.6748 88.8707 67.7496C88.8278 66.7759 88.9195 65.8437 89.1232 64.9894L96.7602 62.353C97.6876 63.6039 98.303 65.3714 98.3874 67.3461C98.5539 71.2714 96.56 74.5458 93.9307 74.6562Z" fill="#000072"/>
<path d="M92.0983 69.9965C92.8683 69.9458 93.4342 69.021 93.3625 67.931C93.2907 66.8409 92.6083 65.9984 91.8384 66.0491C91.0685 66.0998 90.5025 67.0245 90.5743 68.1146C90.6461 69.2046 91.3284 70.0471 92.0983 69.9965Z" fill="white"/>
<g opacity="0.35">
<path d="M96.2091 71.2706C96.6331 70.4819 96.6159 69.6485 96.1707 69.4092C95.7255 69.1698 95.0208 69.6152 94.5968 70.4039C94.1728 71.1926 94.19 72.0261 94.6353 72.2654C95.0805 72.5047 95.7851 72.0594 96.2091 71.2706Z" fill="white"/>
</g>
<g opacity="0.2">
<path d="M74.105 109.642C69.9236 109.28 65.4336 108.471 62.5507 105.423C59.1857 101.864 59.0505 96.4245 59.196 91.5288C59.468 82.3201 60.0255 73.1206 60.8615 63.9468C61.1839 62.8673 61.5356 61.7936 62.0715 60.8049C62.6996 59.6463 63.6082 58.5981 64.8004 58.0364C66.1433 57.4038 67.6946 57.444 69.176 57.5389C73.4118 57.8104 77.6214 58.425 81.86 58.6504C86.0986 58.8758 90.4161 58.7008 94.4665 57.4316C84.3096 57.4543 74.1509 55.7792 64.5391 52.4967C63.7532 52.2283 62.8085 51.9866 62.0809 52.2529C62.3627 49.8535 62.6615 47.456 62.9819 45.0615C63.237 43.1532 63.5202 41.1939 64.4769 39.5229C66.7653 35.5175 71.9569 34.4613 76.5236 33.8082C67.5867 32.5939 58.5454 31.3514 50.1826 27.9762C47.8661 27.0399 45.5343 25.8843 43.9501 23.9479C42.3683 22.0115 41.7229 19.1134 43.0163 16.9755C43.5623 16.0723 44.2741 15.4499 48.9351 13.5161C52.2925 12.1231 53.9737 11.4266 56.1345 10.7531C58.803 9.92144 62.4257 8.97494 66.8546 8.33716C51.4914 8.48258 38.3171 12.266 36.1077 19.9807C31.8702 34.5021 31.7452 62.5447 32.7912 94.4319C32.4162 102.825 39.8912 107.356 50.9378 109.657C58.1346 110.877 66.5817 111.285 75.248 111.272C82.9143 111.489 90.5603 110.599 96.729 108.859C89.254 110.022 81.6412 110.295 74.105 109.642Z" fill="#000072"/>
</g>
<path d="M49.1963 103.059C76.435 102.28 97.136 99.1148 103.13 90.5791C89.9932 93.4651 70.6614 95.3749 49.2067 96.9502L49.1963 103.059Z" fill="#BED3E7"/>
<g opacity="0.4">
<path d="M103.13 90.5791C102.865 90.9561 102.57 91.322 102.249 91.6783C90.7128 94.2163 75.0198 96.1913 57.5824 97.9301C54.6213 98.2254 52.3956 100.44 52.5409 102.949C51.4372 102.99 50.3229 103.027 49.1963 103.059L49.2067 96.9502C70.6613 95.3749 89.9932 93.4651 103.13 90.5791Z" fill="#371A45"/>
</g>
<g opacity="0.8">
<path d="M100.641 91.0994C101.493 90.9295 102.323 90.7562 103.129 90.5791C97.1351 99.1148 76.434 102.28 49.1953 103.059L49.1985 101.165C73.5867 100.453 92.6963 97.8148 100.641 91.0994Z" fill="white"/>
</g>
<path d="M49.1959 103.569C49.0632 103.569 48.9355 103.517 48.84 103.424C48.7411 103.328 48.6855 103.196 48.6855 103.058L48.6959 96.9494C48.6965 96.6822 48.9027 96.4609 49.1691 96.4414C75.0319 94.5424 91.64 92.5807 103.02 90.0807C103.226 90.0349 103.438 90.1214 103.554 90.2963C103.671 90.4716 103.668 90.7002 103.547 90.8723C98.099 98.6304 80.8332 102.665 49.2105 103.569C49.2055 103.569 49.2008 103.569 49.1959 103.569ZM49.7157 97.4243L49.7071 102.533C64.2589 102.1 75.4879 101.018 84.0248 99.2285C92.7597 97.3975 98.738 94.7604 101.831 91.3785C90.5245 93.7318 74.3192 95.6092 49.7157 97.4243Z" fill="#000072"/>
<path d="M103.42 90.9976C93.1146 97.8338 78.3803 99.5519 66.2537 100.523C61.9757 100.829 57.6907 100.974 53.4065 101.07C53.2909 101.072 53.195 100.981 53.1924 100.865C53.1899 100.749 53.2816 100.654 53.3968 100.651C57.6734 100.505 61.9482 100.31 66.2102 99.9555C75.7461 99.1091 85.3825 97.8298 94.3905 94.4819C95.2422 94.1873 96.4953 93.6226 97.332 93.2724C99.2492 92.3681 101.113 91.3571 102.844 90.1557C103.392 89.7866 103.981 90.5968 103.42 90.9976Z" fill="#000072"/>
<path d="M46.4431 102.646C47.1083 100.78 46.7319 99.016 46.1218 97.2745C46.1072 97.2328 46.0656 97.2059 46.0206 97.209L29.5671 98.3438C29.5119 98.3476 29.4696 98.3946 29.4728 98.4488L29.7846 103.758C29.7878 103.812 29.8351 103.853 29.8904 103.849L46.3525 102.714C46.3933 102.711 46.4295 102.684 46.4431 102.646Z" fill="#FD2F19"/>
<g opacity="0.6">
<path d="M29.8347 102.913L46.2967 101.777C46.3376 101.775 46.3739 101.747 46.3875 101.709C46.6276 101.036 46.7306 100.376 46.7372 99.7246C46.8543 100.678 46.7985 101.647 46.4424 102.646C46.4288 102.684 46.3928 102.711 46.352 102.714L29.8897 103.849C29.8344 103.853 29.7871 103.812 29.7839 103.758L29.7404 103.018C29.7373 102.964 29.7794 102.917 29.8347 102.913Z" fill="white"/>
</g>
<g opacity="0.4">
<path d="M43.6838 99.0033L29.6626 99.9703C29.6074 99.9742 29.56 99.9333 29.5568 99.8791L29.4728 98.4488C29.4696 98.3946 29.5119 98.3476 29.5671 98.3438L46.0206 97.209C46.0656 97.2059 46.1072 97.2327 46.1218 97.2745C46.7319 99.016 47.1083 100.78 46.4431 102.646C46.4295 102.684 46.3934 102.711 46.3525 102.714L45.5527 102.769C45.4934 102.773 45.4456 102.726 45.4487 102.667C45.4984 101.753 45.347 100.857 45.0973 99.9719C44.9247 99.36 44.332 98.9586 43.6838 99.0033Z" fill="#371A45"/>
</g>
<path d="M30.8113 103.728C30.6665 103.728 30.5217 103.678 30.4051 103.578C30.4051 103.578 30.4051 103.578 30.4051 103.578L28.1645 101.647C28.039 101.539 27.9611 101.382 27.9504 101.217C27.94 101.052 27.9978 100.886 28.109 100.762L30.1054 98.5391C30.3317 98.2873 30.7236 98.2621 30.9793 98.4834L33.2191 100.413C33.3451 100.522 33.4227 100.679 33.4329 100.844C33.4433 101.009 33.3855 101.175 33.2745 101.298L31.2782 103.521C31.1553 103.658 30.9834 103.728 30.8113 103.728ZM31.0709 102.804L31.0711 102.805C31.0709 102.805 31.0709 102.805 31.0709 102.804ZM29.1404 101.141L30.7771 102.552L32.2431 100.919L30.6061 99.5088L29.1404 101.141ZM30.3121 99.2557C30.3127 99.256 30.3132 99.2565 30.3137 99.257L30.3121 99.2557Z" fill="#000072"/>
<path d="M35.2287 103.423C35.0839 103.423 34.9388 103.374 34.8219 103.273C34.8219 103.273 34.8219 103.273 34.8219 103.273L32.5813 101.342C32.4545 101.233 32.3785 101.081 32.3675 100.913C32.3566 100.748 32.4141 100.582 32.5248 100.458L34.5222 98.2344C34.7484 97.9828 35.1401 97.9576 35.3952 98.1776L37.6359 100.109C37.7611 100.217 37.8393 100.373 37.8497 100.538C37.8603 100.704 37.8025 100.87 37.6913 100.993L35.6949 103.216C35.5727 103.353 35.4011 103.423 35.2287 103.423ZM34.9363 102.534C34.9357 102.534 34.9355 102.535 34.935 102.535L34.9363 102.534ZM35.4878 102.5L35.488 102.5C35.4878 102.5 35.4878 102.5 35.4878 102.5ZM33.5573 100.836L35.194 102.247L36.66 100.615L35.023 99.2041L33.5573 100.836Z" fill="#000072"/>
<path d="M39.7246 103.057C39.5798 103.057 39.4348 103.007 39.3182 102.907C39.3182 102.907 39.3182 102.907 39.3182 102.907L37.0775 100.976C36.9518 100.868 36.8739 100.71 36.8635 100.545C36.8531 100.379 36.9114 100.213 37.0231 100.09L39.0184 97.8679C39.2447 97.6164 39.636 97.5912 39.8915 97.8112L42.1321 99.7425C42.2581 99.8513 42.3357 100.008 42.3459 100.173C42.3563 100.338 42.2985 100.504 42.1876 100.627L40.1912 102.85C40.0683 102.987 39.8967 103.057 39.7246 103.057ZM38.0535 100.47L39.6905 101.88L41.1562 100.248L39.5192 98.8376L38.0535 100.47ZM37.7829 100.771L37.7811 100.773C37.7816 100.773 37.7824 100.772 37.7829 100.771Z" fill="#5A0305"/>
<path d="M44.2419 102.801C44.0972 102.801 43.9522 102.752 43.8355 102.651C43.8355 102.651 43.8355 102.651 43.8355 102.651L41.5949 100.72C41.4689 100.611 41.3913 100.455 41.3811 100.29C41.3707 100.125 41.4285 99.9591 41.5394 99.8357L43.5358 97.6127C43.761 97.3607 44.1526 97.3354 44.4089 97.5557L46.6495 99.487C46.775 99.5948 46.8528 99.7516 46.8635 99.9167C46.8739 100.082 46.8161 100.248 46.7049 100.372L44.7086 102.595C44.5856 102.731 44.414 102.801 44.2419 102.801ZM44.5013 101.878L44.5015 101.878C44.5013 101.878 44.5013 101.878 44.5013 101.878ZM42.5708 100.214L44.2078 101.625L45.6735 99.993L44.0367 98.5822L42.5708 100.214ZM44.2958 98.2937L44.2945 98.295C44.2951 98.2947 44.2953 98.2942 44.2958 98.2937Z" fill="#5A0305"/>
<path d="M29.8829 104.36C29.7357 104.36 29.5908 104.305 29.4796 104.208C29.3569 104.1 29.284 103.95 29.2746 103.787L28.9629 98.4788C28.9437 98.1468 29.1983 97.8583 29.5305 97.8347L45.9907 96.6997C46.2505 96.6807 46.4865 96.8265 46.5901 97.0574C47.403 98.8778 47.528 101.027 46.9249 102.808C46.8455 103.043 46.6341 103.206 46.3857 103.223L29.9247 104.358C29.9107 104.359 29.8967 104.36 29.8829 104.36ZM30.2932 103.727V103.728C30.2932 103.728 30.2932 103.727 30.2932 103.727ZM29.855 103.34C29.8545 103.34 29.854 103.34 29.8538 103.34H29.855ZM30.0055 98.8249L30.2688 103.311L46.0389 102.224C46.4423 100.819 46.3441 99.1804 45.7699 97.7378L30.0055 98.8249ZM45.9584 102.481C45.9584 102.481 45.9584 102.481 45.9584 102.481C45.9584 102.481 45.9584 102.481 45.9584 102.481Z" fill="#000072"/>
<path d="M30.5859 102.923L30.3587 99.054C30.3112 98.2437 29.5959 97.6273 28.7694 97.6843C27.9428 97.7413 27.3055 98.4509 27.3531 99.2613L27.5803 103.131C27.6278 103.941 28.343 104.557 29.1696 104.5C29.9962 104.443 30.6335 103.734 30.5859 102.923Z" fill="#FFCE00"/>
<g opacity="0.7">
<path d="M27.5875 103.246L27.341 99.0474C27.3103 98.5251 27.6128 98.0519 28.0664 97.8298C27.9888 98.0059 27.9494 98.2005 27.9613 98.403L28.1837 102.19C28.2275 102.937 28.8865 103.505 29.6481 103.452L29.9844 103.429C30.1475 103.418 30.3017 103.376 30.4422 103.311C30.5145 103.278 30.5956 103.337 30.5827 103.414C30.4872 103.985 29.9987 104.443 29.3883 104.485L29.052 104.509C28.2904 104.561 27.6314 103.993 27.5875 103.246Z" fill="white"/>
</g>
<g opacity="0.4">
<path d="M29.8118 100.314C29.768 99.5677 29.109 98.9998 28.3474 99.0523L28.0111 99.0755C27.8235 99.0884 27.6479 99.1414 27.4913 99.2244C27.4272 99.2585 27.3502 99.2165 27.3461 99.1455C27.3022 98.3989 27.8895 97.7451 28.651 97.6925L28.8873 97.6762C29.6489 97.6237 30.3078 98.1916 30.3517 98.9382L30.5982 103.137C30.6207 103.519 30.4644 103.874 30.2016 104.124C30.1402 104.183 30.0366 104.143 30.0317 104.06L29.8118 100.314Z" fill="#371A45"/>
</g>
<path d="M29.0609 105.014C28.5701 105.014 28.1035 104.839 27.7335 104.514C27.3367 104.164 27.101 103.684 27.0703 103.161L26.8432 99.2913C26.7792 98.2008 27.6273 97.2517 28.7336 97.1754C29.2749 97.1379 29.7983 97.3137 30.2043 97.6712C30.6011 98.0203 30.8367 98.5008 30.8675 99.0241L31.0945 102.893C31.1586 103.984 30.3105 104.933 29.2039 105.009C29.1562 105.013 29.1083 105.014 29.0609 105.014ZM28.8753 98.1909C28.8516 98.1909 28.8276 98.192 28.8039 98.1935C28.2529 98.2316 27.8306 98.6971 27.8618 99.2314L28.0889 103.101C28.1035 103.35 28.2167 103.58 28.4076 103.748C28.6073 103.923 28.8675 104.009 29.1338 103.991C29.6848 103.954 30.1074 103.488 30.0759 102.953L29.8488 99.0841C29.8343 98.8349 29.721 98.6052 29.5301 98.4372C29.3482 98.2771 29.1179 98.1909 28.8753 98.1909Z" fill="#000072"/>
<path d="M47.7823 106.762L47.7079 106.766C46.8283 106.814 46.0694 106.133 46.0214 105.254L45.4438 94.6714C45.3958 93.7919 46.0761 93.033 46.9557 92.985L47.03 92.9809C47.9096 92.9329 48.6685 93.6133 48.7165 94.4928L49.2941 105.075C49.3422 105.955 48.6618 106.714 47.7823 106.762Z" fill="#FFCE00"/>
<g opacity="0.4">
<path d="M49.1341 105.73L49.0597 105.734C48.1801 105.782 47.4213 105.102 47.3733 104.222L46.7956 93.6398C46.7832 93.412 46.8205 93.1926 46.8966 92.9912C46.0462 93.0694 45.3969 93.8119 45.4438 94.6714L46.0214 105.254C46.0695 106.133 46.8284 106.814 47.7079 106.766L47.7823 106.762C48.434 106.726 48.9755 106.3 49.1932 105.724C49.1734 105.726 49.1541 105.729 49.1341 105.73Z" fill="#371A45"/>
</g>
<path d="M47.616 107.534C47.0351 107.534 46.4797 107.321 46.0407 106.928C45.5692 106.505 45.2903 105.925 45.2559 105.296L44.6784 94.713C44.644 94.0837 44.8578 93.4773 45.2807 93.0055C45.7035 92.5339 46.2831 92.2551 46.9125 92.2207L46.9888 92.2168C47.6171 92.1834 48.2231 92.3962 48.6948 92.819C49.1664 93.2419 49.4452 93.8215 49.4796 94.4509L50.0572 105.034C50.1283 106.337 49.1258 107.455 47.8231 107.526C47.8223 107.526 47.8218 107.526 47.8213 107.526L47.7469 107.53C47.703 107.532 47.6595 107.534 47.616 107.534ZM47.1166 93.7439C47.1013 93.7439 47.0862 93.7444 47.0708 93.7452L46.9945 93.7491C46.775 93.7611 46.5704 93.86 46.4204 94.0272C46.2706 94.1943 46.1946 94.4083 46.2068 94.6294L46.7844 105.212C46.7964 105.433 46.8953 105.638 47.0625 105.788C47.2299 105.938 47.445 106.013 47.6647 106.001L47.7402 105.998C48.2001 105.972 48.5537 105.577 48.5287 105.117L47.9511 94.5344C47.9391 94.3133 47.8402 94.1087 47.6731 93.9587C47.5173 93.8194 47.3213 93.7439 47.1166 93.7439Z" fill="#000072"/>
<path d="M39.7856 75.6546C33.7478 83.8474 29.5809 88.3545 36.8942 99.1546C35.1819 106.111 39.4667 109.168 45.2706 105.405C44.7366 101.71 44.6139 98.3063 45.2706 95.4553C43.6942 95.0669 42.3273 94.9934 41.3163 95.4553L39.5632 89.8454C39.0598 88.2347 39.331 86.4816 40.2974 85.0982L45.2706 77.9797C45.2706 75.6546 41.8894 74.1586 39.7856 75.6546Z" fill="white"/>
<g opacity="0.2">
<path d="M39.5944 96.9096C32.7961 86.8702 35.9184 82.2681 41.2416 75.0889C40.7287 75.1587 40.2287 75.3396 39.7856 75.6547C33.7478 83.8475 29.5809 88.3546 36.8943 99.1546C35.1819 106.111 39.4667 109.168 45.2707 105.405C45.2269 105.102 45.1869 104.802 45.1489 104.503C40.8777 105.758 38.175 102.675 39.5944 96.9096Z" fill="#000072"/>
</g>
<path d="M40.6472 107.799C39.6023 107.799 38.6589 107.519 37.8656 106.955C35.9369 105.583 35.2912 102.806 36.0741 99.3043C29.0797 88.7958 32.7448 83.8597 38.2673 76.4205C38.5629 76.0224 38.8644 75.6162 39.1708 75.2004C39.4216 74.8603 39.9009 74.7877 40.241 75.0384C40.5813 75.2892 40.6537 75.7683 40.4029 76.1086C40.0954 76.5257 39.7928 76.9335 39.4963 77.3329C33.948 84.8069 30.8919 88.9238 37.5291 98.7255C37.6504 98.9049 37.6902 99.1272 37.6384 99.3376C36.907 102.309 37.3237 104.691 38.7529 105.708C40.0611 106.638 42.166 106.377 44.4449 105.018C43.959 101.424 43.9343 98.4739 44.3709 96.0429C43.1885 95.8247 42.2706 95.8609 41.6353 96.1515C41.4361 96.2426 41.2067 96.2437 41.0055 96.1541C40.805 96.0645 40.6524 95.8932 40.5868 95.6836L38.8336 90.0737C38.2639 88.25 38.5769 86.2263 39.671 84.6598L44.6443 77.5415C44.8865 77.1952 45.3637 77.11 45.7101 77.3521C46.0566 77.5943 46.1413 78.0716 45.8994 78.4179L40.926 85.5362C40.1011 86.7171 39.8653 88.2426 40.2948 89.6169L41.8176 94.49C42.7919 94.277 43.992 94.3517 45.4549 94.7121C45.8611 94.8121 46.1115 95.2196 46.0176 95.6271C45.4448 98.1143 45.4486 101.277 46.0293 105.295C46.072 105.591 45.939 105.884 45.6882 106.047C43.8963 107.209 42.165 107.799 40.6472 107.799Z" fill="#000072"/>
<path d="M30.4227 46.9573C30.4049 53.1006 28.1547 55.1569 25.9939 58.4836C24.6851 60.4965 23.9147 62.8104 23.708 65.2009C23.0269 73.0943 21.8227 79.064 12.3604 79.064C12.3451 78.939 12.3323 78.8115 12.3196 78.6865C11.4547 70.5431 14.0008 63.8564 19.5674 58.4632C21.7054 56.3177 23.5601 54.1415 24.902 51.9092C25.7515 50.5036 26.3944 49.0774 26.7796 47.6232C26.8817 47.2406 26.9659 46.8579 27.0296 46.4727C27.2388 46.59 27.4557 46.6768 27.6853 46.7354C28.4123 46.9319 29.2364 46.8553 30.1089 46.6436C30.211 46.6181 30.3156 46.59 30.4201 46.5619C30.4227 46.6945 30.4227 46.8272 30.4227 46.9573Z" fill="white"/>
<path d="M25.3367 46.5336C24.8111 48.5975 23.3161 50.5517 21.3237 52.4498C20.9104 52.8453 20.4614 53.1973 19.9894 53.5188C16.6856 55.7715 13.8104 60.0166 11.1904 65.4506C10.5347 66.8104 10.1163 68.2748 9.94283 69.7723L9.5984 72.7929C6.74617 72.9383 3.96541 72.1296 1.26367 70.326C1.39379 69.6754 1.53153 69.0402 1.67951 68.4202C3.28933 61.5575 5.84815 56.5623 9.13408 53.0034C10.1801 51.8732 11.4072 50.9217 12.7287 50.1257C15.5784 48.4062 18.076 46.6969 20.145 45.0897C21.3262 44.1687 22.3696 43.2809 23.2575 42.439C23.2829 42.5588 23.3136 42.6686 23.3467 42.7732C23.7421 44.0462 24.5636 44.3294 25.5152 44.3039C25.5918 45.0616 25.5254 45.804 25.3367 46.5336Z" fill="white"/>
<path d="M25.5146 44.305C26.0694 46.5609 27.7045 47.3128 30.4198 46.5609V44.2022L27.4987 43.3525C27.0365 43.7183 26.5418 44.0761 25.5146 44.305Z" fill="white"/>
<path d="M28.9996 36.5684C21.2904 35.5025 21.6731 47.812 27.4998 43.3526C24.5644 41.0181 28.3688 38.6915 28.9996 36.5684Z" fill="white"/>
<path d="M112.75 38.1812C98.2286 45.4416 62.1458 39.0663 32.976 34.3357C31.2918 34.0626 29.6192 34.979 28.9988 36.5684C28.8581 36.929 28.7529 37.3265 28.688 37.7659C25.6894 39.3569 25.3922 43.6689 29.4929 44.0254C29.8891 44.0599 30.2783 44.1375 30.6495 44.2803C38.5703 47.3278 47.5584 49.8674 57.2581 52.0681C57.6434 52.1555 58.025 52.2658 58.3938 52.4077C74.2958 58.5268 112.508 59.4884 113.77 52.2128C114.002 45.9613 114.541 38.867 112.75 38.1812Z" fill="white"/>
<path d="M92.3733 58.0882C80.4576 58.0882 66.4709 56.3352 58.1201 53.1219C57.8056 53.0008 57.4686 52.9002 57.0898 52.8143C46.6117 50.437 37.8735 47.8791 30.376 44.9944C30.0956 44.8865 29.7855 44.8189 29.4277 44.7877C27.4415 44.6151 26.0599 43.5493 25.7323 41.937C25.386 40.2332 26.3288 38.3313 27.9974 37.2824C28.0685 36.9335 28.1656 36.6008 28.2872 36.2897C29.0296 34.3879 31.0535 33.2477 33.0999 33.58C34.5192 33.8102 35.955 34.0443 37.404 34.2806C64.7646 38.7414 98.816 44.2929 112.408 37.4966C112.6 37.4005 112.824 37.3896 113.024 37.4664C115.02 38.2304 114.933 42.7421 114.625 50.0404C114.594 50.7777 114.563 51.5151 114.536 52.241C114.535 52.2754 114.531 52.3097 114.525 52.3435C114.336 53.4368 113.538 54.389 112.154 55.1738C108.661 57.1546 101.069 58.0882 92.3733 58.0882ZM32.3872 35.0533C31.2186 35.0533 30.1385 35.7564 29.713 36.8465C29.5909 37.1594 29.5011 37.5061 29.4464 37.8774C29.4107 38.1181 29.2629 38.3277 29.048 38.4417C27.5878 39.2165 27.0293 40.6332 27.2324 41.6321C27.4229 42.5697 28.2497 43.1488 29.5604 43.2627C30.063 43.3066 30.5095 43.4057 30.9256 43.5658C38.3536 46.4236 47.0228 48.9607 57.4285 51.3215C57.8798 51.424 58.2857 51.5456 58.6697 51.6932C65.1067 54.1702 76.0644 55.9967 87.2666 56.4598C98.4863 56.9231 107.733 55.9206 111.399 53.8422C112.342 53.3077 112.883 52.7308 113.009 52.127C113.035 51.4169 113.065 50.6964 113.096 49.9758C113.211 47.2349 113.331 44.4005 113.223 42.2561C113.12 40.1886 112.833 39.3883 112.646 39.0818C98.3707 45.7724 65.8691 40.4725 37.1576 35.7914C35.7091 35.5552 34.2736 35.3212 32.8546 35.0911C32.6983 35.0656 32.5419 35.0533 32.3872 35.0533Z" fill="#000072"/>
<path d="M28.9491 37.0462C33.4268 38.6257 38.1173 39.6325 42.8668 39.8209C44.5504 39.8868 46.1297 40.3026 47.7558 40.6565C49.7892 41.1868 51.8779 41.5779 53.6803 42.7663C54.0498 43.0168 54.5422 43.6547 54.3173 44.2286C54.0148 44.9968 53.2301 45.1791 52.5656 45.3427C50.4982 45.7334 48.3735 45.5419 46.3478 45.1867C44.735 44.8827 43.1482 44.4093 41.6728 43.6945C41.4107 43.567 41.5747 43.1611 41.852 43.2545C44.835 44.2179 48.0769 44.5923 51.1774 44.3088C51.8193 44.2208 52.5806 44.1415 53.1026 43.7917C53.1345 43.7688 53.1019 43.7759 53.0884 43.8304C53.0685 43.8939 53.0725 43.9733 53.0862 43.9874C53.0962 44.0044 53.0101 43.8945 52.8923 43.8137C51.9826 43.2194 50.8309 42.9136 49.7552 42.607C48.2251 42.1984 46.6602 41.8835 45.0963 41.6055C44.3193 41.4606 43.5727 41.3692 42.8128 41.3432C41.1758 41.2855 39.5408 41.1501 37.9198 40.9143C34.6783 40.4597 31.4944 39.6176 28.4275 38.4851C28.0312 38.3383 27.8287 37.898 27.9756 37.5016C28.121 37.1085 28.556 36.9065 28.9491 37.0462Z" fill="#000072"/>
<path d="M28.3681 44.5625C27.9713 44.5625 27.6359 44.2564 27.6057 43.8544C27.5739 43.4328 27.8901 43.0656 28.3116 43.0339C28.9391 42.9868 29.4083 42.6427 29.7054 42.0111C30.1794 41.0044 30.0606 39.5727 29.4292 38.6809C29.1849 38.3359 29.2667 37.8582 29.6117 37.614C29.9565 37.3699 30.4343 37.4518 30.6785 37.7964C31.619 39.1252 31.7924 41.1718 31.0904 42.663C30.5564 43.7977 29.6102 44.4715 28.4262 44.5603C28.4067 44.5618 28.3874 44.5625 28.3681 44.5625Z" fill="#000072"/>
<path d="M25.2016 45.0987C24.4913 45.0987 23.976 44.8275 23.6521 44.5774C22.3408 43.5649 22.0106 41.2323 22.884 39.1517C23.9276 36.6655 26.2515 35.4153 29.1043 35.8104C29.3251 35.8409 29.5219 35.9664 29.6428 36.154C29.7636 36.3416 29.7967 36.5727 29.7331 36.7866C29.4996 37.5721 28.9465 38.3217 28.4114 39.0468C27.072 40.8619 26.6577 41.7053 27.9761 42.7537C28.1604 42.9005 28.2672 43.1241 28.2648 43.3599C28.2627 43.5957 28.1518 43.8172 27.9646 43.9604C26.841 44.8204 25.9211 45.0987 25.2016 45.0987ZM27.7935 37.2756C25.5443 37.3988 24.6121 38.9894 24.2955 39.7442C23.6513 41.2784 23.9265 42.8553 24.5876 43.3658C25.06 43.7305 25.7206 43.5399 26.2884 43.2338C24.792 41.374 26.2062 39.4572 27.1797 38.1378C27.3985 37.8414 27.6117 37.5525 27.7935 37.2756Z" fill="#000072"/>
<path d="M28.5886 47.6059C27.7999 47.6059 27.1156 47.438 26.5428 47.1025C25.6687 46.5907 25.073 45.711 24.7722 44.4878C24.723 44.2878 24.7563 44.0766 24.8649 43.9015C24.9735 43.7266 25.1479 43.6027 25.3489 43.558C26.1967 43.3691 26.5936 43.0933 27.0245 42.7523C27.219 42.5986 27.4758 42.5485 27.7132 42.6176L30.6342 43.4672C30.961 43.5622 31.1857 43.8618 31.1857 44.2021V46.5608C31.1857 46.9048 30.9563 47.2066 30.6248 47.2984C29.8845 47.5034 29.2047 47.6059 28.5886 47.6059ZM26.4935 44.817C26.6951 45.2591 26.9672 45.5772 27.3161 45.7815C27.8673 46.104 28.6524 46.1634 29.6551 45.959V44.7766L27.6559 44.1952C27.3396 44.4232 26.981 44.6375 26.4935 44.817Z" fill="#000072"/>
<path d="M8.95127 73.5742C6.16336 73.5742 3.43768 72.6975 0.838488 70.9628C0.580707 70.7906 0.452085 70.4803 0.512984 70.1761C2.05028 62.4776 4.68669 56.691 8.57265 52.4853C9.60559 51.3674 10.8703 50.3531 12.3318 49.4707C16.6435 46.8676 20.2396 44.2441 22.7315 41.8836C22.9309 41.6941 23.2176 41.6268 23.4811 41.7072C23.7446 41.7877 23.9444 42.0034 24.0045 42.2721C24.2491 43.3648 24.7214 43.5601 25.4952 43.5398C25.5023 43.5397 25.509 43.5395 25.5158 43.5395C25.908 43.5395 26.2381 43.8368 26.2772 44.229C26.56 47.0676 25.1536 49.8559 21.8514 53.0041C21.4322 53.4039 20.9505 53.7901 20.4198 54.1519C17.4788 56.1578 14.6854 59.9625 11.88 65.7831C11.2632 67.0628 10.8677 68.4347 10.7038 69.8608L10.3575 72.8794C10.3148 73.251 10.0099 73.5374 9.63657 73.5564C9.40769 73.5684 9.17908 73.5742 8.95127 73.5742ZM2.11774 69.9668C4.31511 71.338 6.59583 72.0348 8.91271 72.0434L9.18324 69.6864C9.36657 68.0897 9.80972 66.5529 10.501 65.1186C13.4262 59.0494 16.3886 55.0485 19.5574 52.8872C20.0196 52.5721 20.436 52.2387 20.7953 51.8962C23.4606 49.3551 24.7427 47.1511 24.7802 45.0206C23.966 44.8821 23.3528 44.4616 22.9456 43.7633C20.4383 45.9899 17.0685 48.3991 13.1229 50.7812C11.7848 51.5891 10.6321 52.512 9.69704 53.5241C6.09249 57.425 3.61104 62.8072 2.11774 69.9668Z" fill="#000072"/>
<path d="M24.6284 44.1084C23.1963 47.1838 20.7994 49.9394 17.6846 51.3726C15.7068 52.5312 13.7101 54.6809 12.6012 56.9208C12.5335 57.0517 12.3727 57.1032 12.2416 57.0357C12.1154 56.9705 12.0638 56.8171 12.1207 56.689C13.2087 54.2332 14.9598 52.0451 17.1976 50.5271C18.6016 49.7659 19.8482 48.7483 20.855 47.5291C21.8554 46.3254 22.6311 44.9439 23.2299 43.486C23.6476 42.5409 25.0522 43.1553 24.6284 44.1084Z" fill="#000072"/>
<path d="M12.3602 79.8292C11.9722 79.8292 11.6457 79.5389 11.6001 79.1535C10.6135 70.7918 13.1148 63.6455 19.0349 57.9134C23.3788 53.5537 25.6824 49.8749 26.2748 46.3459C26.3162 46.1 26.4746 45.8897 26.6995 45.7821C26.9245 45.6747 27.1877 45.6834 27.4049 45.8055C28.0536 46.1703 28.9464 46.1761 30.215 45.8234C30.4436 45.7597 30.6892 45.8061 30.8792 45.9487C31.0693 46.0913 31.1823 46.3139 31.1852 46.5513C31.2557 52.2359 29.5101 54.7404 27.6619 57.392C27.3247 57.8758 26.9761 58.376 26.635 58.9008C25.4169 60.775 24.6685 62.9763 24.4709 65.2667C23.7837 73.2342 22.3982 79.8292 12.3602 79.8292ZM27.5999 47.5046C26.743 51.0763 24.3399 54.7577 20.1094 59.0034C14.7036 64.238 12.3326 70.7199 13.0473 78.2875C21.2114 78.0185 22.2784 72.8747 22.946 65.1354C23.165 62.5954 23.9967 60.1512 25.3512 58.067C25.7059 57.5212 26.0618 57.0106 26.406 56.5169C28.0712 54.1279 29.5236 52.0443 29.6478 47.5218C29.0112 47.6302 28.2985 47.668 27.5999 47.5046Z" fill="#000072"/>
<path d="M29.1315 46.7153C29.7885 51.1659 27.0637 55.0732 24.0953 58.0391C23.9003 58.2393 23.5791 57.9579 23.7627 57.7389C25.651 55.4031 27.443 52.8296 27.7789 49.8211C27.8823 48.8646 27.8228 47.9057 27.6223 46.9704C27.4375 45.9338 28.9619 45.6698 29.1315 46.7153Z" fill="#000072"/>
<path d="M89.7458 53.5307C92.0705 51.2061 92.0705 47.437 89.7458 45.1123C87.4211 42.7876 83.6521 42.7876 81.3274 45.1123C79.0027 47.437 79.0027 51.2061 81.3274 53.5308C83.6521 55.8554 87.4211 55.8554 89.7458 53.5307Z" fill="#FB132B"/>
<g opacity="0.2">
<path d="M112.75 38.1812C112.663 38.2245 112.572 38.2649 112.484 38.3072C112.685 41.0964 112.439 45.1171 112.3 48.8395C111.038 56.1151 72.8261 55.1536 56.9241 49.0345C56.5553 48.8926 56.1737 48.7823 55.7884 48.6948C46.0887 46.4941 37.1006 43.9545 29.1797 40.907C28.8086 40.7642 28.4194 40.6866 28.0232 40.6522C27.4518 40.6025 26.9688 40.4738 26.5636 40.2886C26.0662 41.9903 26.8983 43.7996 29.4933 44.0253C29.8894 44.0598 30.2786 44.1374 30.6498 44.2802C38.5707 47.3277 47.5587 49.8672 57.2584 52.0679C57.6437 52.1553 58.0253 52.2657 58.3941 52.4076C74.2962 58.5267 112.508 59.4882 113.77 52.2126C114.003 45.9612 114.541 38.8669 112.75 38.1812Z" fill="#000072"/>
</g>
<g opacity="0.2">
<path d="M38.126 40.3384C39.8085 40.5161 41.5002 40.6956 43.1302 41.1489C43.5569 41.2675 43.9919 41.4123 44.3224 41.7069C44.6529 42.0016 44.8542 42.4831 44.7007 42.8984C44.5878 43.2037 44.305 43.4212 43.9996 43.5336C43.6942 43.6461 43.3641 43.6683 43.0393 43.6894C43.8803 44.2992 44.9551 44.4607 45.984 44.6043C48.1497 44.9067 50.4066 45.2018 52.4823 44.5136C52.8763 44.383 53.3237 44.127 53.3233 43.712C53.323 43.3528 52.9819 43.0989 52.6698 42.9212C50.9865 41.963 49.0911 41.4236 47.1775 41.1241C45.2638 40.8246 43.3224 40.7573 41.3866 40.6905" fill="#000072"/>
</g>
<g opacity="0.2">
<path d="M27.9015 37.2099C26.4833 36.7303 24.8041 37.1447 23.7718 38.2289C22.7395 39.3131 22.4079 41.0106 22.9564 42.4036C23.2078 43.0419 23.6519 43.6315 24.2759 43.9166C24.8999 44.2016 25.7136 44.1181 26.1756 43.6111C25.3916 44.0868 25.3118 45.2945 25.85 46.0369C26.3883 46.7794 27.3504 47.1048 28.2667 47.1434C28.7126 47.1622 29.1717 47.1209 29.5752 46.93C29.9786 46.7392 30.3199 46.3796 30.4036 45.9412C30.5479 45.1851 29.9106 44.4923 29.2237 44.1448C28.5369 43.7973 27.7503 43.6432 27.1265 43.1923C26.127 42.47 25.7666 40.9902 26.3221 39.8892C26.6021 39.3345 27.0681 38.8984 27.4162 38.3838C27.7644 37.8691 27.9915 37.1916 27.7233 36.6311C27.4113 36.7163 27.0994 36.8015 26.7874 36.8868" fill="#000072"/>
</g>
<g opacity="0.2">
<path d="M30.4235 46.9573C30.4056 53.1005 28.1555 55.1568 25.9946 58.4835C24.6859 60.4964 23.9154 62.8103 23.7088 65.2008C23.0276 73.0942 21.8235 79.0639 12.3611 79.0639C12.3458 78.9389 12.3331 78.8114 12.3203 78.6864C12.6877 78.5307 13.0423 78.3445 13.3816 78.1302C16.29 76.2806 17.5528 72.7677 19.2162 69.747C21.3235 65.9254 24.3798 62.4532 25.0941 58.1494C25.4385 56.0854 25.2089 53.9858 24.9028 51.9092C24.8543 51.5852 24.8033 51.2612 24.7548 50.9397L24.2318 51.029C25.339 50.3912 25.8365 49.0901 26.5125 48.0059C26.5942 47.8758 26.6835 47.7482 26.7804 47.6232C27.0356 47.2864 27.3468 46.9752 27.6861 46.7354C28.2805 46.3145 28.9668 46.1078 29.6352 46.3655C29.8112 46.4344 29.9694 46.5262 30.1097 46.6436C30.2245 46.7328 30.3291 46.8399 30.4235 46.9573Z" fill="#000072"/>
</g>
<g opacity="0.2">
<path d="M23.3468 42.7732C23.5126 43.6891 24.3443 44.485 25.2882 44.5131C25.3903 45.1866 25.403 45.8627 25.3367 46.5336C24.8112 48.5975 23.3162 50.5517 21.3237 52.4498C20.9104 52.8452 20.4614 53.1973 19.9894 53.5188C16.6856 55.7714 13.8104 60.0166 11.1904 65.4506C10.5347 66.8104 10.1163 68.2748 9.94283 69.7723L9.5984 72.7929C6.74617 72.9384 3.96541 72.1296 1.26367 70.3259C1.39379 69.6754 1.53153 69.0401 1.67951 68.4202C2.87344 68.7927 4.17199 68.8182 5.36598 68.4432C7.72839 67.7008 9.41981 65.6318 10.7158 63.5194C12.0118 61.4096 13.0935 59.111 14.8819 57.3966C16.3743 55.9653 18.3234 54.9755 19.4511 53.2407C20.9767 50.8987 20.6093 47.8577 20.145 45.0896L23.3468 42.7732Z" fill="#000072"/>
</g>
<path d="M111.638 26.5426C111.607 26.8206 111.536 27.0911 111.421 27.3564C109.322 32.2011 93.2696 34.4665 74.2148 32.4255C54.1242 30.2749 38.3069 24.1546 38.8834 18.7563C38.9472 18.1721 39.1972 17.6185 39.6233 17.1031C43.1286 12.8427 58.3924 10.9548 76.3068 12.8733C96.3973 15.024 112.215 21.1443 111.638 26.5426Z" fill="white"/>
<path d="M73.5898 26.5734C75.9799 23.1447 78.401 20.2232 80.9245 18.9836C83.855 19.7658 86.3365 21.0528 88.142 23.0994C86.7764 25.7973 84.9385 28.1244 82.7103 30.1451L73.5898 26.5734Z" fill="#F44905"/>
<path d="M82.7749 19.4947C81.7274 19.7974 80.631 20.1539 79.956 21.0689C79.2941 21.9661 79.4666 22.9171 79.8671 23.8805C80.051 24.3229 80.2738 24.8078 80.2091 25.2999C80.1473 25.7705 79.8409 26.187 79.4739 26.4725C78.5328 27.2046 77.2304 27.0672 76.1342 26.8666C75.6526 26.7785 75.4461 27.5159 75.9307 27.6047C77.0931 27.8174 78.3528 27.9433 79.4452 27.3911C80.309 26.9544 81.0163 26.0604 80.9817 25.0578C80.9631 24.5157 80.7473 24.0262 80.545 23.5325C80.3551 23.0689 80.1581 22.5706 80.2985 22.0657C80.6202 20.9085 81.9669 20.525 82.9783 20.2328C83.4507 20.0962 83.2498 19.3575 82.7749 19.4947Z" fill="white"/>
<path d="M83.1913 19.5812C82.2697 19.6971 81.4003 20.1104 80.7757 20.8091C80.1318 21.5295 79.7811 22.4823 79.8016 23.448C79.8121 23.9398 80.5775 23.9416 80.567 23.448C80.5346 21.9238 81.6563 20.5396 83.1913 20.3466C83.3964 20.3208 83.574 20.1892 83.574 19.9639C83.574 19.7771 83.3978 19.5553 83.1913 19.5812Z" fill="white"/>
<path d="M85.3629 20.4578C84.4013 20.7373 83.6246 21.511 83.4272 22.5071C83.3261 23.0172 83.3865 23.4988 83.5306 23.9927C83.587 24.186 83.6946 24.4343 83.5183 24.592C83.3873 24.7091 83.1663 24.7437 83.0054 24.7977C82.6134 24.9294 82.2367 25.102 82.0494 25.496C81.8373 25.9424 81.9506 26.4412 82.1523 26.8672C82.37 27.3273 82.6382 27.7235 82.6595 28.2504C82.6807 28.775 82.5141 29.2578 82.2029 29.6768C81.9091 30.0724 82.5731 30.4545 82.8638 30.0631C83.4085 29.3295 83.5805 28.3194 83.2834 27.4502C83.129 26.9988 82.72 26.5614 82.6998 26.0757C82.6815 25.6359 83.1048 25.5774 83.4362 25.462C83.7769 25.3433 84.1032 25.1852 84.2748 24.8491C84.521 24.3667 84.2567 23.8922 84.1658 23.4123C83.977 22.4158 84.6117 21.4733 85.5664 21.1958C86.0384 21.0585 85.8376 20.3198 85.3629 20.4578Z" fill="white"/>
<path d="M77.5442 21.7768C77.752 22.5515 77.5912 23.429 77.0773 24.0549C76.5611 24.6836 75.7696 25.024 74.9609 24.993C74.4683 24.9741 74.4692 25.7395 74.9609 25.7583C75.976 25.7972 77.0153 25.3474 77.6548 24.5516C78.3231 23.7197 78.559 22.6051 78.2821 21.5733C78.1546 21.0981 77.4161 21.2997 77.5442 21.7768Z" fill="white"/>
<path d="M82.7104 30.7828C82.632 30.7828 82.5531 30.7683 82.4778 30.7389L73.3574 27.1672C73.1754 27.0958 73.0363 26.9452 72.9796 26.7583C72.9229 26.5714 72.9551 26.3687 73.0668 26.2086C75.0783 23.3228 77.7574 19.8287 80.6435 18.411C80.782 18.3429 80.9401 18.3276 81.0892 18.3673C84.3714 19.2432 86.8348 20.6531 88.6206 22.6773C88.7932 22.8731 88.8291 23.1543 88.7112 23.3874C87.3595 26.0576 85.4848 28.4902 83.1387 30.6174C83.0194 30.7258 82.8661 30.7828 82.7104 30.7828ZM74.5793 26.2758L82.5718 29.4057C84.5533 27.554 86.1648 25.4703 87.3704 23.2019C85.8237 21.5872 83.7316 20.4265 80.9952 19.6638C78.6525 20.9128 76.3846 23.7412 74.5793 26.2758Z" fill="#000072"/>
<path d="M87.7601 33.9434C83.4538 33.9434 78.8485 33.6916 74.1332 33.1868C64.3519 32.14 55.2564 30.1286 48.5226 27.5234C43.5522 25.6003 37.7133 22.5042 38.1229 18.675C38.533 14.8459 44.895 13.0557 50.1597 12.2281C57.2924 11.1071 66.6074 11.0659 76.3889 12.1129C86.1702 13.1598 95.2656 15.1711 101.999 17.7764C106.97 19.6995 112.809 22.7955 112.399 26.6248C111.989 30.4538 105.627 32.2441 100.362 33.0716C96.668 33.6524 92.3868 33.9434 87.7601 33.9434ZM62.7586 12.8865C58.2146 12.8865 54.0165 13.1714 50.3974 13.7403C43.8969 14.7622 39.8774 16.6678 39.6451 18.8381C39.4128 21.0082 42.9379 23.7214 49.0749 26.0958C55.687 28.6541 64.6442 30.6319 74.2961 31.665C83.9473 32.6978 93.1203 32.6604 100.125 31.5596C106.625 30.5379 110.644 28.632 110.877 26.4618C111.109 24.2917 107.584 21.5785 101.447 19.2042C94.8347 16.6458 85.8777 14.668 76.2259 13.6349C71.5614 13.1358 67.0088 12.8865 62.7586 12.8865Z" fill="#000072"/>
<path d="M72.4422 27.3953C73.9098 24.6326 74.7991 21.8426 74.228 18.9836C80.2758 19.2815 84.5068 16.3645 87.6855 11.5852C83.6385 10.2786 79.805 9.63639 76.3328 10.1183C76.0183 6.89493 75.1095 3.89734 73.2714 1.25293C69.6309 4.29553 67.5911 8.65502 68.2327 15.2206C64.3164 15.7854 60.908 18.0309 58.0918 22.2364C62.9838 24.8767 67.7934 26.818 72.4422 27.3953Z" fill="#F44905"/>
<path d="M67.9692 12.1403C67.6158 13.0124 68.0296 13.9305 68.5719 14.6207C68.8767 15.0086 69.2347 15.3557 69.5183 15.76C69.7937 16.1524 69.9781 16.5963 70.2195 17.0085C71.2741 18.8098 73.3588 18.9834 75.2466 18.9245C75.738 18.9092 75.7401 18.1438 75.2466 18.1592C73.587 18.211 71.7341 18.1461 70.8263 16.5272C70.6297 16.1764 70.466 15.8073 70.2449 15.4703C70.0128 15.1166 69.7271 14.8023 69.4504 14.4838C68.9415 13.898 68.3789 13.1537 68.7071 12.3436C68.8921 11.8875 68.152 11.689 67.9692 12.1403Z" fill="white"/>
<path d="M65.4105 16.7186C66.3607 16.3818 66.9522 17.8126 67.5124 18.3171C68.1996 18.9359 69.1025 19.1793 69.9678 19.4362C70.8579 19.7003 71.6609 20.0449 72.3091 20.7321C72.9275 21.3876 73.306 22.2175 73.4271 23.1074C73.4932 23.5932 74.2308 23.3864 74.1652 22.904C74.0313 21.9198 73.5822 20.9991 72.9174 20.2636C72.2269 19.4998 71.3411 19.0551 70.3693 18.7575C69.3713 18.452 68.3677 18.2282 67.683 17.3759C67.0786 16.6235 66.3323 15.5818 65.207 15.9807C64.746 16.1441 64.9446 16.8838 65.4105 16.7186Z" fill="white"/>
<path d="M106.5 29.4646C111.773 25.5102 104.493 24.0574 102.291 26.5732L106.5 29.4646Z" fill="white"/>
<path d="M99.7393 27.9765C100.632 25.5209 96.5504 24.907 94.3818 28.9119L99.7393 27.9765Z" fill="white"/>
<path d="M66.3492 19.2672C66.0783 18.2187 64.7615 18.3655 63.931 18.3505C62.8763 18.3314 61.8216 18.3124 60.767 18.2933C60.2743 18.2844 60.2743 19.0497 60.767 19.0586C61.6516 19.0746 62.5361 19.0906 63.4207 19.1066C63.8629 19.1146 64.3053 19.1208 64.7475 19.1306C65.035 19.137 65.5198 19.1167 65.6112 19.4706C65.7343 19.9472 66.4727 19.7452 66.3492 19.2672Z" fill="white"/>
<path d="M94.1337 28.7773C94.7369 27.0611 96.2889 25.4788 98.2216 25.4054C99.7024 25.3164 100.898 26.7254 99.9827 28.0648C99.84 28.2832 99.4787 28.1577 99.4957 27.9027C99.5099 27.5853 99.4612 27.2952 99.365 27.1061C98.5976 26.0542 96.7405 26.9495 95.9369 27.6681C95.4589 28.0576 95.0392 28.5394 94.6256 29.0519C94.4311 29.3006 94.0239 29.071 94.1337 28.7773Z" fill="#000072"/>
<path d="M103.789 22.6501C107.807 18.314 103.279 17.1341 99.5481 20.0041C103.566 15.8903 97.9904 14.6636 94.6689 17.7399L103.789 22.6501Z" fill="white"/>
<path d="M102.003 26.3212C103.282 24.3597 107.377 23.8545 108.823 25.9045C109.791 27.5283 108.085 29.1398 106.717 29.7545C106.37 29.9328 106.02 29.4876 106.267 29.1932C106.786 28.5415 107.484 27.8794 107.642 27.0917C107.719 26.0989 105.428 25.9679 104.69 26.0732C103.928 26.1527 103.181 26.3723 102.578 26.8253C102.242 27.1075 101.767 26.6877 102.003 26.3212Z" fill="#000072"/>
<path d="M94.4708 17.5257C95.9253 15.978 99.1389 14.5859 101.033 16.1962C102.342 17.5234 101.097 19.469 100.096 20.5389L99.0818 19.3975C100.214 18.5799 101.531 17.9703 102.945 17.8369C104.742 17.6199 106.489 18.715 105.642 20.6956C105.264 21.5584 104.649 22.2154 103.97 22.8173C103.753 23.0102 103.437 22.7221 103.605 22.4893C104.174 21.6292 105.117 20.4684 104.782 19.4902C104.679 19.29 104.459 19.154 104.142 19.0908C102.73 18.8693 101.127 19.7216 100.015 20.6108C99.2853 21.1782 98.3688 20.217 98.9603 19.5162C99.2454 19.2153 99.5611 18.9232 99.7865 18.601C100.432 17.7374 100.628 16.8964 99.3414 16.6181C97.8133 16.3154 96.0907 16.9731 94.8678 17.9544C94.5885 18.1842 94.2184 17.7889 94.4708 17.5257Z" fill="#000072"/>
<path d="M58.3469 14.774C60.7706 9.03383 52.4154 11.0748 50.3107 14.7421C53.0852 10.2776 46.8666 10.9153 45.2402 15.6988L58.3469 14.774Z" fill="white"/>
<path d="M52.3295 21.6834C52.7764 16.3259 46.2525 17.8261 46.5893 22.1936C44.5092 17.7534 40.658 18.9136 43.2727 22.6188L52.3295 21.6834Z" fill="white"/>
<path d="M44.9626 15.6048C45.4866 13.8498 46.6912 12.2879 48.397 11.4959C50.0304 10.6923 52.019 11.2736 51.6346 13.422C51.5207 14.038 51.2429 14.6283 50.96 15.1457C50.7425 15.5095 50.2699 15.6272 49.9073 15.4076C48.8933 14.7208 50.2633 13.5262 50.7794 12.9895C52.0438 11.843 53.5975 11.0774 55.2691 10.741C57.1521 10.3193 59.572 10.8887 59.1855 13.3078C59.0872 13.8919 58.8668 14.4053 58.6082 14.8847C58.5333 15.0236 58.3599 15.0755 58.221 15.0006C58.1026 14.9366 58.0474 14.8012 58.0801 14.6766C58.2101 14.183 58.3315 13.6892 58.3416 13.2265C58.4491 11.557 56.6982 11.6247 55.5355 11.9423C53.7782 12.4288 51.8895 13.553 50.9735 15.123L49.6596 14.3381C50.0064 13.8052 50.9244 12.3852 49.8255 12.3154C47.8709 12.303 46.2151 14.05 45.5159 15.7928C45.3839 16.1358 44.8592 15.962 44.9626 15.6048Z" fill="#000072"/>
<path d="M83.4209 28.9117C85.6656 30.8972 88.0555 30.0139 90.5556 26.9558C92.1501 20.4503 85.2367 22.4228 83.4209 28.9117Z" fill="white"/>
<path d="M52.0272 21.6583C52.1411 20.0348 51.3373 18.393 49.5396 18.8284C48.0875 19.1675 47.1175 20.6749 47.3528 22.1349C47.4533 23.0194 46.2461 23.3226 45.8965 22.5183C45.4616 21.4622 44.6644 20.16 43.5513 19.8956C43.0192 19.8062 42.8527 20.0967 42.8713 20.6252C42.91 21.2029 43.2125 21.8374 43.572 22.408C43.6828 22.5792 43.6325 22.8084 43.4599 22.9169C43.2989 23.0184 43.0882 22.9775 42.9743 22.8299C42.5021 22.2039 42.0869 21.5463 41.9465 20.7348C41.7239 19.6285 42.5224 18.6442 43.6786 18.7716C44.5833 18.8607 45.2982 19.361 45.9091 19.9537C46.4819 20.5235 46.9221 21.1831 47.2827 21.869L45.8266 22.2525C45.5676 17.1208 53.3259 15.6462 52.6325 21.7088C52.5785 22.0922 52.015 22.0422 52.0272 21.6583Z" fill="#000072"/>
<path d="M83.1804 28.8449C83.4227 26.422 84.7374 24.0804 86.9021 22.7908C87.7727 22.283 89.0037 21.9443 90.0293 22.4278C91.763 23.3251 91.4486 25.5967 90.7251 26.9978C90.6456 27.1679 90.3756 27.0986 90.3845 26.9144C90.3377 25.8813 90.4938 24.213 89.4491 23.7595C87.5026 23.451 85.4324 25.9906 84.4746 27.5244C84.177 27.9884 83.9295 28.4854 83.6544 28.9888C83.5309 29.2267 83.1499 29.1113 83.1804 28.8449Z" fill="#000072"/>
<path d="M72.4425 28.033C72.4162 28.033 72.3902 28.0314 72.3636 28.0282C68.0952 27.4981 63.3278 25.7871 57.7892 22.7975C57.6308 22.7121 57.516 22.564 57.4728 22.3896C57.4296 22.2153 57.4621 22.0307 57.5621 21.8813C60.2626 17.8483 63.6191 15.4311 67.5465 14.6884C67.0945 8.68788 68.8367 4.12804 72.8625 0.763506C72.9998 0.648694 73.1779 0.596596 73.3565 0.620807C73.5341 0.644644 73.6932 0.74191 73.7952 0.888878C75.4705 3.29897 76.4878 6.09163 76.8964 9.40902C80.0463 9.09578 83.6484 9.61145 87.8817 10.9782C88.0718 11.0395 88.222 11.1864 88.2879 11.375C88.3535 11.5635 88.3272 11.7721 88.2168 11.9384C84.7735 17.1153 80.4678 19.6424 75.076 19.6424C75.043 19.6424 75.0102 19.6423 74.9771 19.6422C75.258 22.0692 74.6219 24.6521 73.0054 27.6944C72.894 27.9045 72.6761 28.033 72.4425 28.033ZM59.0234 22.0103C63.9632 24.6165 68.2464 26.1561 72.0829 26.7038C73.5694 23.7829 74.0524 21.3602 73.6028 19.1085C73.5642 18.9157 73.6169 18.716 73.7452 18.5671C73.8733 18.4182 74.0593 18.3366 74.2598 18.3465C79.3273 18.597 83.3917 16.497 86.6686 11.9355C82.6889 10.7341 79.3302 10.3465 76.4207 10.7498C76.2475 10.7744 76.0744 10.7264 75.9379 10.6188C75.8017 10.5114 75.715 10.3528 75.6981 10.1801C75.3952 7.07748 74.5579 4.46336 73.1427 2.21351C69.7233 5.35476 68.324 9.59785 68.8677 15.1585C68.9008 15.4977 68.6612 15.8032 68.324 15.8519C64.6511 16.3815 61.603 18.3982 59.0234 22.0103Z" fill="#000072"/>
<path d="M76.7251 10.621C75.9542 11.2817 75.2181 11.9473 74.6114 12.7227C73.9989 13.4932 73.5328 14.3715 73.1831 15.3422C73.073 15.668 72.5716 15.5675 72.5945 15.2262C72.6957 12.9848 74.1398 10.8731 75.9406 9.61511C76.6082 9.16002 77.3285 10.0868 76.7251 10.621Z" fill="#000072"/>
<path d="M81.9672 10.7122C80.4977 11.5285 79.2098 12.7925 78.0982 14.0883C77.718 14.5365 77.3495 14.9983 76.9839 15.4655C76.7371 15.7766 76.2504 15.4507 76.4454 15.1042C77.6959 12.9728 79.186 10.9649 81.3238 9.61076C82.0674 9.1818 82.7085 10.2728 81.9672 10.7122Z" fill="#000072"/>
<path d="M74.9704 2.97984C75.1008 4.98497 74.3691 7.08076 72.9042 8.47295C72.428 8.92852 71.9066 9.32047 71.3495 9.64016C71.253 9.69552 71.13 9.66219 71.0746 9.56567C71.0276 9.48381 71.0446 9.38286 71.1096 9.32031C71.9689 8.47727 72.7351 7.53755 73.194 6.43743C73.6485 5.36439 73.7627 4.2071 73.6966 3.04773C73.6702 2.20709 74.9059 2.13744 74.9704 2.97984Z" fill="#000072"/>
<path d="M86.1621 11.6641C84.6001 12.212 83.171 13.0937 81.9798 14.2486C81.5758 14.6361 81.1916 15.0508 80.8262 15.487C80.551 15.8115 80.04 15.4501 80.2543 15.0831C81.1732 13.5154 82.4865 12.1627 84.0635 11.2421C84.5939 10.9305 85.1551 10.6709 85.7332 10.4628C86.5325 10.1975 86.9513 11.3615 86.1621 11.6641Z" fill="#000072"/>
<path d="M58.7832 23.2567C62.3582 20.5233 65.9041 18.9533 69.3936 19.6299C69.9323 19.7343 70.4222 20.0187 70.7688 20.4441C72.2056 22.2078 72.4868 24.2721 71.6125 26.6371C66.9674 26.2298 62.5586 25.3615 58.7832 23.2567Z" fill="#F44905"/>
<path d="M67.1805 19.4609C65.8661 19.3802 64.4281 19.8488 63.8616 21.1321C63.5752 21.7812 63.4328 22.4382 62.8479 22.8986C62.3382 23.2997 61.6986 23.458 61.0604 23.3725C60.8538 23.3448 60.6797 23.5682 60.6778 23.7552C60.6754 23.9846 60.8564 24.1105 61.0604 24.1378C62.3866 24.3155 63.7089 23.5253 64.2251 22.3034C64.503 21.6455 64.6509 20.9903 65.3059 20.6016C65.8687 20.2676 66.5377 20.1868 67.1805 20.2263C67.6724 20.2565 67.6706 19.491 67.1805 19.4609Z" fill="white"/>
<path d="M64.8728 25.3979C65.4795 25.1284 65.6859 24.437 65.7354 23.8277C65.765 23.4627 65.7263 23.0575 65.8742 22.713C66.0102 22.3962 66.32 22.1874 66.5087 21.9034C66.7109 21.5992 66.7097 21.266 66.7723 20.9208C66.8377 20.5609 67.0963 20.5497 67.4188 20.5351C68.3165 20.4944 69.216 20.501 70.1134 20.5452C70.6057 20.5694 70.6044 19.804 70.1134 19.7799C69.1994 19.7348 68.2802 19.7234 67.366 19.7721C67.0173 19.7906 66.6405 19.8345 66.3705 20.0802C66.0701 20.3536 66.0352 20.7204 65.9844 21.099C65.9329 21.4821 65.7095 21.6587 65.4725 21.942C65.2162 22.2484 65.0827 22.5862 65.03 22.9808C64.9569 23.5277 65.1104 24.46 64.4866 24.7371C64.2963 24.8217 64.2553 25.0954 64.3493 25.2607C64.4607 25.4565 64.6851 25.4813 64.8728 25.3979Z" fill="white"/>
<path d="M70.571 20.9725C69.661 21.4821 68.9626 22.3096 68.6105 23.2912C68.2208 24.3779 68.334 25.5896 68.8363 26.6179C69.0524 27.0604 69.7127 26.6729 69.4971 26.2316C68.6792 24.5571 69.3452 22.5362 70.9573 21.6333C71.3871 21.3926 71.0017 20.7313 70.571 20.9725Z" fill="white"/>
<path d="M71.612 27.2749C71.5935 27.2749 71.5747 27.2741 71.556 27.2724C65.9861 26.7841 61.8286 25.6851 58.4717 23.8139C58.284 23.7092 58.1616 23.5171 58.1462 23.3027C58.1306 23.0884 58.2243 22.8807 58.3949 22.7501C62.5386 19.582 66.1751 18.356 69.5143 19.0038C70.2059 19.1379 70.8269 19.5064 71.2625 20.0413C72.8454 21.9842 73.1641 24.2778 72.2098 26.8583C72.1169 27.1102 71.8768 27.2749 71.612 27.2749ZM59.9799 23.165C62.9176 24.6142 66.5145 25.5097 71.1694 25.9561C71.7708 23.9982 71.4761 22.323 70.2736 20.847C70.0262 20.5433 69.6703 20.3334 69.2717 20.2561C66.5213 19.7233 63.4748 20.675 59.9799 23.165Z" fill="#000072"/>
<path d="M66.4887 28.3592C68.9548 24.5749 64.2524 23.351 60.9611 24.0222C60.5359 20.493 57.9564 19.2033 54.9658 20.1103C56.3636 23.4706 60.3381 26.1868 66.4887 28.3592Z" fill="white"/>
<path d="M83.7522 30.1449C83.7522 27.2111 79.3726 26.9135 76.3537 28.9544C79.4577 24.0945 70.785 23.9818 67.1777 26.6583C71.7332 30.4851 81.9187 33.1731 83.7522 30.1449Z" fill="white"/>
<path d="M54.8766 19.814C58.2077 18.1468 61.4202 20.3648 61.7215 23.9304C61.7224 23.93 60.8056 23.2714 60.8097 23.2719C62.537 23.0102 64.2841 23.11 65.8881 23.8804C67.8909 24.8435 68.135 26.8946 66.7551 28.5323C66.5218 28.8231 66.0591 28.5301 66.2179 28.1974C66.9063 26.8548 67.0698 25.5686 65.4066 24.9221C64.088 24.4168 62.4876 24.4558 61.1154 24.7718C60.7027 24.8576 60.2985 24.5923 60.2131 24.1795C59.8014 21.1502 58.0068 20.0784 55.0563 20.4065C54.7187 20.4503 54.5706 19.964 54.8766 19.814Z" fill="#000072"/>
<path d="M66.9721 26.382C69.0177 24.2481 74.7823 23.17 77.088 25.3702C78.2358 26.4856 77.7898 28.2368 76.9983 29.3665L75.9246 28.3205C77.9724 27.071 80.8961 26.3853 83.0545 27.7799C83.8115 28.2786 84.2706 29.2536 84.2194 30.1451C84.1906 30.7393 83.3175 30.7426 83.2842 30.1503C83.2612 29.5115 82.9701 28.9839 82.4488 28.6793C80.6891 27.7366 78.3319 28.4928 76.782 29.5885C76.1126 30.0411 75.2865 29.2483 75.6947 28.5654C76.0768 27.8658 76.5173 27.1037 75.9643 26.4554C74.6209 25.3108 72.0066 25.5896 70.3417 25.9336C69.3241 26.1639 68.3302 26.4767 67.3824 26.9349C67.0406 27.1139 66.6993 26.6597 66.9721 26.382Z" fill="#000072"/>
<g opacity="0.2">
<path d="M110.887 27.0423C108.787 31.887 92.7354 34.1524 73.6806 32.1114C53.59 29.9608 37.7727 23.8405 38.3493 18.4422C38.413 17.858 38.663 17.3044 39.0891 16.789C40.2754 16.0645 42.1582 16.4982 42.5128 17.8529C42.8904 16.6666 44.962 16.6819 45.3216 17.8759C46.2962 16.0518 48.7504 15.192 50.6485 16.0084C52.5492 16.8247 53.6156 19.1973 52.9625 21.1592C53.7151 20.9169 54.608 21.2511 55.0188 21.9246C55.427 22.598 55.3096 23.5471 54.7483 24.1007C56.1999 22.7664 58.4042 22.3174 60.2615 22.9705C62.1187 23.6262 63.5525 25.3584 63.8459 27.3075C65.8817 25.7717 68.9432 25.7844 70.9637 27.3356C72.1704 26.1671 74.0251 25.7181 75.6324 26.2028C77.2397 26.6875 78.5357 28.0882 78.8954 29.7286C80.1302 28.5678 82.1635 28.3765 83.5921 29.2847C83.6636 27.976 84.5156 26.7386 85.7122 26.2029C86.9087 25.6671 88.3986 25.8559 89.4216 26.6748C90.2508 24.5701 93.0571 23.5267 95.0597 24.5777C96.1287 23.0623 98.2181 22.3505 99.9886 22.9016C101.759 23.4527 103.076 25.2206 103.099 27.0753C104.708 26.5983 106.356 26.1186 108.035 26.1952C109.03 26.2412 110.048 26.5193 110.887 27.0423Z" fill="#000072"/>
</g>
<g opacity="0.2">
<path d="M81.4491 18.604C81.3306 17.5231 82.2985 16.4523 83.3858 16.4612C84.4731 16.4701 85.4232 17.5567 85.287 18.6354C85.5689 18.0107 86.517 17.9015 87.0357 18.3493C87.5545 18.797 87.6473 19.6054 87.3951 20.2426C88.1668 19.7928 88.9682 19.3329 89.8562 19.2361C90.7441 19.1393 91.7482 19.5072 92.1142 20.322C92.4374 21.0416 92.1927 21.8804 91.8977 22.612C91.758 22.9586 91.6007 23.311 91.3294 23.568C91.058 23.8249 90.6442 23.966 90.3009 23.8184C90.0552 23.7127 89.8851 23.482 89.6521 23.3507C89.1611 23.0739 88.5084 23.2911 88.0071 23.0335C87.7273 22.8897 87.5389 22.6203 87.3417 22.3752C85.854 20.526 83.4524 19.7268 81.1875 19.018" fill="#000072"/>
</g>
<g opacity="0.2">
<path d="M73.4873 24.4987C73.726 22.9112 73.9646 21.3236 74.2033 19.7361C74.2213 19.6159 74.2424 19.4889 74.3215 19.3966C74.4564 19.2394 74.6965 19.2455 74.9031 19.2585C76.6443 19.3685 78.4113 19.0439 79.9997 18.3223C80.2821 18.9233 79.8039 19.5978 79.3159 20.0481C78.2671 21.0159 77.0036 21.7881 76.2135 22.9766C75.9014 23.4459 75.6639 23.979 75.2412 24.3517C74.8185 24.7243 74.1164 24.8731 73.7088 24.4839" fill="#000072"/>
</g>
<path d="M126.638 35.0362C125.542 33.244 125.002 31.0926 125.233 28.8419C125.794 23.3789 130.678 19.4049 136.141 19.9659C141.604 20.5268 145.578 25.4101 145.017 30.8731C144.456 36.3361 139.572 40.3101 134.109 39.7491C132.59 39.5931 131.186 39.1018 129.963 38.3575L125.361 39.3895L126.638 35.0362Z" fill="#FF0068"/>
<g opacity="0.5">
<path d="M135.945 21.8683C130.842 21.3444 126.246 24.7781 125.205 29.6856C125.204 29.3351 125.219 28.9814 125.256 28.6248C125.817 23.1618 130.7 19.1879 136.163 19.7488C141.626 20.3097 145.6 25.1931 145.039 30.6561C145.002 31.0142 144.946 31.3655 144.873 31.71C144.854 26.6911 141.05 22.3925 135.945 21.8683Z" fill="white"/>
</g>
<path d="M135.146 40.677C134.772 40.677 134.397 40.6579 134.02 40.6192C132.526 40.4656 131.114 40.0176 129.818 39.2863L125.552 40.2428C125.25 40.3114 124.935 40.2135 124.723 39.9875C124.511 39.7615 124.435 39.4404 124.522 39.1432L125.692 35.1527C124.592 33.2002 124.133 30.996 124.364 28.7523C124.973 22.8187 130.295 18.4863 136.23 19.0957C142.164 19.7051 146.496 25.0283 145.887 30.9623C145.592 33.8369 144.195 36.4244 141.953 38.2484C140.006 39.8335 137.623 40.6769 135.146 40.677ZM129.963 37.4829C130.122 37.4829 130.279 37.5264 130.417 37.6103C131.573 38.3131 132.845 38.74 134.199 38.8791C136.61 39.1267 138.971 38.4207 140.849 36.8917C142.728 35.3626 143.899 33.1935 144.147 30.7837C144.658 25.8092 141.026 21.3467 136.052 20.836C131.076 20.3265 126.615 23.9569 126.104 28.9311C125.899 30.9217 126.342 32.8751 127.384 34.58C127.513 34.7905 127.547 35.0456 127.477 35.2824L126.618 38.2112L129.771 37.5041C129.835 37.4899 129.899 37.4829 129.963 37.4829Z" fill="#000072"/>
<g opacity="0.3">
<path d="M126.581 34.9408C129.305 37.2445 133.057 38.2533 136.783 37.326C140.915 36.2975 143.96 33.1509 145.055 29.332C145.081 29.8384 145.069 30.3531 145.016 30.8732C144.455 36.3362 139.572 40.3102 134.109 39.7492C132.589 39.5932 131.186 39.1019 129.962 38.3576L125.36 39.3896L126.637 35.0363C126.618 35.0049 126.6 34.9724 126.581 34.9408Z" fill="#000072"/>
</g>
<path d="M131.945 27.0652C132.806 26.2047 134.201 26.3588 135.062 27.2194L135.195 27.3533L135.329 27.2194C136.19 26.3588 137.585 26.2046 138.446 27.0652C139.306 27.9257 139.306 29.321 138.446 30.1815L138.312 30.3154L135.606 33.021C135.379 33.2478 135.011 33.2478 134.785 33.021L132.079 30.3154L131.945 30.1815C131.085 29.3209 131.085 27.9257 131.945 27.0652Z" fill="white"/>
</svg>
