<svg width="159" height="151" viewBox="0 0 159 151" fill="none" xmlns="http://www.w3.org/2000/svg">
<path d="M68.0452 134.046C68.6439 137.439 67.7404 141.428 67.8644 144.989C67.9279 146.811 69.5461 148.182 71.3516 147.928C78.2384 146.96 79.413 140.06 80.6954 133.271L68.0452 134.046Z" fill="white"/>
<path d="M70.9288 148.99C69.9732 148.99 69.0384 148.655 68.2983 148.034C67.4073 147.286 66.8732 146.189 66.8327 145.025C66.7804 143.521 66.9035 141.95 67.0227 140.43C67.1893 138.307 67.3614 136.112 67.0284 134.225C66.9773 133.935 67.0521 133.638 67.2343 133.406C67.4165 133.175 67.6885 133.033 67.9822 133.015L80.6325 132.241C80.9487 132.219 81.2595 132.349 81.4702 132.588C81.6809 132.827 81.7694 133.15 81.7103 133.463L81.6392 133.84C80.336 140.751 78.9885 147.898 71.4956 148.951C71.3069 148.977 71.1173 148.99 70.9288 148.99ZM69.2128 135.009C69.3773 136.825 69.2275 138.734 69.0818 140.592C68.9619 142.122 68.8485 143.566 68.8968 144.953C68.9174 145.542 69.1763 146.074 69.626 146.452C70.071 146.825 70.6325 146.986 71.2083 146.906C76.9456 146.099 78.2664 140.51 79.4345 134.383L69.2128 135.009Z" fill="#650000"/>
<path d="M155.923 95.2817C156.15 132.597 69.9762 144.793 26.0127 131.433C16.6748 128.593 9.20339 121.476 6.10533 112.223C-1.64488 89.0625 6.5184 59.2725 19.5688 36.4297C22.2822 31.682 25.5299 27.3267 29.2243 23.4412C39.5149 12.6111 53.2443 5.41591 68.3575 3.52874C109.497 -1.6114 139.63 34.4986 153.3 82.5102C153.976 84.875 154.609 87.2708 155.203 89.6924C155.652 91.5229 155.913 93.3971 155.923 95.2817Z" fill="#6D445B"/>
<path d="M155.923 95.2817C156.15 132.597 69.9762 144.793 26.0127 131.433C16.6748 128.593 9.20339 121.475 6.10533 112.223C-1.64488 89.0624 6.5184 59.2724 19.5688 36.4296C22.2822 31.6819 25.5299 27.3266 29.2243 23.4412C33.8559 26.8929 39.4504 29.0538 45.1998 29.6062C47.0663 29.7844 48.1739 31.7852 47.3064 33.4478C42.3545 42.9387 41.3496 54.7846 35.7559 75.3718C35.4598 76.4614 32.7872 86.5719 32.9341 99.4511C32.9914 104.468 33.4541 107.951 34.9995 111.585C34.9995 111.585 37.7946 118.159 44.5517 123.203C57.9871 133.232 82.985 128.543 100.832 125.01C121.624 120.894 132.217 118.645 141.881 109.262C149.441 101.921 153.15 93.5404 155.048 87.8335C155.074 88.1954 155.124 88.8614 155.203 89.6923C155.502 92.849 155.922 95.1564 155.923 95.2817Z" fill="#633349"/>
<g opacity="0.4">
<path d="M155.203 89.6924C154.609 87.2708 153.977 84.875 153.3 82.5102C139.63 34.4986 109.497 -1.6114 68.3579 3.52874C58.9834 4.69937 50.1424 7.91378 42.3232 12.7696C49.3508 8.92176 57.1031 6.35452 65.2599 5.33593C106.399 0.195783 136.532 36.3058 150.202 84.3174C150.879 86.6822 151.511 89.078 152.105 91.4996C152.554 93.33 152.815 95.2044 152.825 97.089C152.888 107.391 146.363 115.778 135.961 122.242C148.149 115.563 155.992 106.573 155.923 95.2818C155.913 93.3971 155.652 91.5229 155.203 89.6924Z" fill="white"/>
</g>
<path d="M67.1165 137.698C51.7447 137.699 37.1006 135.881 25.7118 132.42C15.9981 129.468 8.30295 122.04 5.12709 112.551C1.42313 101.484 1.05246 88.5137 4.02552 73.9999C6.62519 61.3088 11.69 48.1402 18.6723 35.9178C23.8136 26.9178 31.0268 19.1131 39.532 13.3472C48.1195 7.52555 58.0428 3.77605 68.229 2.50379C78.8495 1.1766 89.121 2.52672 98.7578 6.51549C107.816 10.2648 116.305 16.3354 123.987 24.5583C138.457 40.0459 149.598 62.4839 156.206 89.4466C156.693 91.4334 156.946 93.3943 156.957 95.2748C157.01 104.097 152.502 111.954 143.557 118.625C131.332 127.745 111.414 134.143 87.471 136.643C80.6892 137.351 73.8316 137.698 67.1165 137.698ZM75.9685 4.08252C73.4954 4.08252 71.0018 4.23877 68.485 4.55302C48.5828 7.03889 30.6317 19.147 20.4656 36.9421C8.73964 57.4681 -0.932939 87.9377 7.08566 111.896C10.0497 120.752 17.2372 127.686 26.3124 130.444C42.4263 135.342 65.2094 136.891 87.2566 134.589C110.493 132.163 130.564 125.741 142.323 116.97C150.712 110.712 154.941 103.417 154.892 95.2873C154.881 93.568 154.649 91.7685 154.2 89.9382C147.676 63.3184 136.707 41.1981 122.478 25.9682C109.014 11.5566 93.0599 4.08252 75.9685 4.08252Z" fill="#650000"/>
<path d="M50.4899 73.1179L49.1991 90.157C35.2038 90.3609 25.8297 76.0635 28.0886 67.1697C28.2074 66.7075 28.3546 66.2609 28.5352 65.8324C29.7048 63.0519 33.3268 62.3859 35.4645 64.5157C38.7716 67.81 42.3008 70.34 46.1217 71.8555C47.5365 72.4208 48.9925 72.8442 50.4899 73.1179Z" fill="white"/>
<path d="M50.4899 73.118L49.1991 90.1571C35.2038 90.3611 25.8297 76.0637 28.0886 67.1698C28.3752 66.7904 28.6695 66.4186 28.9793 66.0571C28.5585 67.4358 28.6463 69.0286 28.9845 70.4589C29.839 74.0836 32.0541 77.3727 35.0928 79.5258C35.8956 80.0963 36.7631 80.592 37.708 80.8657C40.3878 81.6377 43.4522 80.3752 45.0245 78.0697C46.2431 76.2781 46.5812 73.9778 46.1217 71.8556C47.5365 72.421 48.9925 72.8444 50.4899 73.118Z" fill="#B6CDD8"/>
<path d="M48.9151 90.983C41.7262 90.983 34.8875 87.1913 30.5726 80.7955C27.0669 75.5993 25.995 69.743 27.7754 65.5118C28.4242 63.9693 29.7946 62.8549 31.4409 62.5307C33.1132 62.2013 34.8354 62.7252 36.0457 63.9313C40.7692 68.6404 45.5424 71.3801 50.6379 72.3076C51.0529 72.3831 51.3437 72.7599 51.3118 73.1804L50.021 90.2193C49.9888 90.6443 49.6376 90.9747 49.2116 90.9807C49.1126 90.9822 49.0138 90.983 48.9151 90.983ZM32.4298 64.0818C32.2068 64.0818 31.9823 64.1034 31.7591 64.1474C30.635 64.3687 29.7366 65.0988 29.2939 66.1507C27.7269 69.8753 28.7402 75.1337 31.9384 79.8743C35.8492 85.6709 41.9717 89.1642 48.4361 89.3293L49.6139 73.7839C44.4543 72.676 39.6276 69.8287 34.8825 65.0983C34.2228 64.4406 33.3396 64.0818 32.4298 64.0818Z" fill="#650000"/>
<path d="M126.931 61.3935L131.423 77.8802C145.204 75.4315 151.703 59.6182 147.801 51.3126C147.597 50.8813 147.368 50.4707 147.109 50.0841C145.435 47.5752 141.752 47.6068 140.056 50.1028C137.432 53.9635 134.446 57.1158 130.981 59.327C129.699 60.15 128.349 60.8414 126.931 61.3935Z" fill="white"/>
<path d="M126.931 61.3938L131.423 77.8806C145.204 75.4318 151.703 59.6185 147.801 51.313C147.448 50.9945 147.089 50.6853 146.716 50.3889C147.39 51.663 147.605 53.2437 147.544 54.7121C147.391 58.433 145.839 62.0819 143.262 64.7713C142.582 65.4835 141.824 66.1344 140.948 66.5819C138.463 67.8471 135.215 67.1876 133.235 65.2214C131.699 63.6927 130.931 61.4981 130.981 59.3273C129.699 60.1503 128.349 60.8417 126.931 61.3938Z" fill="#B6CDD8"/>
<path d="M131.423 78.7043C131.058 78.7043 130.728 78.4606 130.629 78.0971L126.137 61.6104C126.026 61.2034 126.24 60.7784 126.633 60.6258C131.461 58.7506 135.629 55.1565 139.376 49.639C140.332 48.2308 141.915 47.3918 143.612 47.3918C143.619 47.3918 143.626 47.3918 143.633 47.3918C145.31 47.3986 146.867 48.2334 147.796 49.6252C150.345 53.4429 150.401 59.3963 147.942 65.162C144.875 72.3564 138.753 77.4141 131.568 78.6915C131.52 78.7001 131.471 78.7043 131.423 78.7043ZM127.918 61.8817L132.017 76.923C138.333 75.5375 143.684 70.948 146.427 64.5157C148.67 59.2557 148.67 53.9007 146.426 50.5402C145.792 49.5911 144.772 49.044 143.626 49.0396C143.622 49.0396 143.617 49.0396 143.612 49.0396C142.461 49.0396 141.388 49.6088 140.739 50.5644C136.975 56.1074 132.775 59.8168 127.918 61.8817Z" fill="#650000"/>
<path d="M59.5258 108.229L55.6533 80.6049L68.5618 43.6868L83.0192 36.2L103.673 40.3306L119.421 50.6574L130.264 77.2487L127.424 93.7715L112.709 106.164L86.1172 110.036L59.5258 108.229Z" fill="#F44906"/>
<path d="M58.6526 90.7339C59.9801 89.8728 60.6973 88.4374 62.171 87.693C63.7688 86.8861 65.6984 86.7291 67.4327 87.1169C70.9533 87.9042 72.4301 90.7298 74.5197 93.3124C76.6017 95.8858 79.2265 96.6559 82.4163 95.7505C84.3342 95.2061 86.1187 94.5245 88.1394 94.4828C90.1094 94.4421 92.082 94.8428 93.8715 95.6711C97.6723 97.4304 99.7699 100.936 101.469 104.594C101.625 104.93 102.148 104.751 102.146 104.411C102.087 96.378 92.6924 91.6356 85.5947 93.0364C83.3983 93.4699 81.0211 94.932 78.7356 94.3596C76.9641 93.9159 75.8307 92.2879 74.8255 90.8885C72.745 87.9922 70.4436 85.7155 66.725 85.291C64.7614 85.0668 62.7272 85.4653 61.0281 86.4909C59.6968 87.2944 57.8563 88.8338 58.2971 90.5893C58.3338 90.7359 58.5227 90.8182 58.6526 90.7339Z" fill="white"/>
<path d="M64.8466 71.1676C65.568 75.2658 70.3853 77.8667 74.2427 77.6572C77.4674 77.482 83.8226 74.5087 81.6759 70.297C81.2563 69.4735 80.5507 68.8708 79.9557 68.1822C79.0538 67.1384 78.7063 65.9744 79.0132 64.6141C79.6083 61.9752 82.0998 60.5014 84.4348 59.5692C88.4169 57.9794 92.9073 57.033 94.8918 52.7757C96.4843 49.3597 96.4355 43.9785 92.8878 41.7573C92.632 41.5971 92.3583 41.9084 92.4904 42.1547C94.1542 45.2575 95.1553 48.6293 93.5895 52.0145C91.7427 56.0069 87.3276 56.7109 83.6424 58.2155C80.4568 59.5161 77.2204 62.013 77.406 65.8305C77.49 67.5569 78.4443 68.6772 79.5664 69.8851C80.4381 70.8234 80.922 71.8276 80.2376 73.0485C79.6476 74.1011 78.5563 74.8638 77.4949 75.3871C75.3103 76.4642 72.6598 76.5753 70.4266 75.5735C68.1913 74.5707 66.9818 72.7853 65.7092 70.804C65.4098 70.3378 64.7551 70.6479 64.8466 71.1676Z" fill="white"/>
<path d="M117.509 94.7742C115.973 94.2347 114.163 93.1343 112.958 92.0383C111.613 90.8152 110.582 89.2555 110.037 87.5176C108.941 84.0158 110.833 80.2934 108.847 76.9934C107.211 74.2749 104.236 72.7781 102.37 70.2604C100.049 67.129 100.326 62.7485 101.888 59.3466C103.776 55.2353 107.341 52.2883 110.26 48.9536C110.423 48.7674 110.213 48.4422 109.982 48.5925C103.663 52.701 96.6008 60.5026 99.6857 68.6895C101.018 72.224 104.259 73.9305 106.653 76.621C108.273 78.4424 108.479 80.3627 108.273 82.7302C108.102 84.6911 108.124 86.549 108.846 88.4071C109.543 90.2057 110.698 91.8341 112.172 93.08C112.948 93.7356 113.808 94.3135 114.739 94.7261C115.68 95.1433 116.47 95.0898 117.46 95.1308C117.674 95.1396 117.694 94.8391 117.509 94.7742Z" fill="white"/>
<path d="M116.012 103.175C114.736 102.237 113.054 101.94 111.64 101.25C110.114 100.506 108.874 99.472 107.904 98.0775C106.165 95.5794 105.402 92.4209 104.423 89.5727C104.322 89.2775 103.839 89.3056 103.853 89.6499C103.99 93.0655 104.538 96.5731 106.653 99.38C107.693 100.76 109.079 101.82 110.641 102.545C112.193 103.265 114.113 103.986 115.847 103.784C116.175 103.746 116.283 103.374 116.012 103.175Z" fill="white"/>
<path d="M141.366 90.4153C142.148 87.5006 141.931 84.9318 140.075 82.9284C141.108 77.2487 140.418 71.5122 135.944 71.0527C132.846 63.3076 132.072 55.3044 126.134 51.4319C125.419 46.8081 124.242 42.5277 119.938 40.5888C118.131 34.6509 112.239 30.9823 108.32 32.0692L100.059 26.3895C96.8112 23.4335 93.7674 21.98 91.0231 22.7751C86.8485 20.0076 83.0121 19.7184 79.6637 23.0333C73.9814 23.0797 70.0443 25.6202 68.3043 31.2947L63.9154 38.2652L55.3958 42.1377C50.9063 47.678 47.989 53.5023 49.9743 60.2095C48.9829 62.8583 48.9597 65.6104 49.9743 68.4709C47.8909 72.9476 47.0105 77.5558 48.4253 82.412L45.5854 87.5754C43.6233 92.8239 43.107 97.7085 45.8436 101.775C43.2619 109.261 45.5105 115.966 51.2651 118.039L54.8795 120.363C55.2745 120.59 55.6695 120.804 56.0593 121.006C68.1958 127.32 78.5897 123.13 93.3466 120.879C98.3241 122.358 102.796 121.981 106.513 118.814C122.636 116.015 136.334 111.848 140.749 102.436C141.472 100.897 141.944 99.2188 142.14 97.3858L141.366 90.4153ZM68.8206 61.5005L74.7584 53.2391L77.1181 51.9069C77.1207 51.9069 77.1232 51.9043 77.1258 51.9043C79.8005 50.9414 81.587 49.2142 82.2453 46.5267C86.469 47.2057 90.3389 46.7848 93.3466 43.6868C93.3595 43.7178 93.375 43.7488 93.3879 43.7772C95.1228 47.5981 98.4635 49.8854 104.19 49.8828C102.462 54.2071 104.587 57.3361 111.677 58.9187C111.274 62.2491 112.784 64.8127 116.065 66.6638C114.457 70.3246 115.376 73.6627 120.454 76.4742C120.018 79.9078 120.222 83.2769 121.487 86.5427C119.081 88.8818 117.297 91.3963 116.84 94.2878C113.51 95.7387 111.22 97.7317 110.386 100.484C106.604 99.2446 103.557 99.5131 101.608 102.033C95.2803 100.375 89.9336 100.843 86.1178 104.615C82.2453 103.115 78.4529 102.634 74.7584 103.324C73.1087 100.102 70.5297 98.2843 66.8327 98.1655C66.6365 98.1577 66.4403 98.1577 66.2389 98.1604C67.6511 94.8636 68.0951 91.1562 66.4997 88.9463C66.3447 88.732 66.1744 88.5333 65.9807 88.3499C67.2716 84.7356 66.4841 82.4921 64.1736 83.4447C64.1736 83.0085 64.1761 82.5722 64.1865 82.141C64.3181 74.5612 65.6245 67.8411 68.4437 62.2285C68.5676 61.9833 68.6915 61.7406 68.8206 61.5005Z" fill="white"/>
<path d="M62.9229 99.0936C63.5939 98.4249 64.199 97.6533 64.4725 96.7463C64.6092 96.2928 64.6503 95.8001 64.579 95.3319C64.4636 94.5743 64.6546 93.8067 65.1566 93.2277C65.7926 92.4943 66.1141 91.4782 65.9361 90.5199C65.8176 89.8816 65.5089 89.2953 65.3323 88.6707C66.4456 88.5801 67.4409 89.504 67.8035 90.5606C68.166 91.6172 68.0404 92.772 67.8889 93.8786C67.6905 95.3275 67.4492 96.7907 66.8511 98.1251C66.811 98.2146 66.7625 98.3103 66.6731 98.3506C66.5767 98.3941 66.4652 98.359 66.364 98.3284C65.3359 98.0172 64.1619 98.2389 63.3182 98.9035L62.9229 99.0936Z" fill="#B6CDD8"/>
<path d="M50.0868 115.21C48.6681 114.139 48.1187 112.128 48.6132 110.442C48.857 109.611 48.7071 108.718 48.1614 108.045C46.774 106.334 46.0465 104.084 46.2236 101.885C44.7399 106.084 45.2397 110.937 47.5482 114.746C47.9425 115.396 48.4023 116.033 49.0425 116.444C49.3924 116.096 49.781 115.787 50.1988 115.524L50.0868 115.21Z" fill="#B6CDD8"/>
<path d="M140.749 102.436C136.334 111.848 122.636 116.015 106.513 118.814C102.796 121.982 98.3243 122.358 93.3468 120.879C78.5899 123.13 68.196 127.32 56.0596 121.006C56.5733 120.376 57.1981 119.8 57.8022 119.268L57.8694 118.427C62.7187 121.9 69.6564 122.012 74.7349 118.957C75.9536 118.224 77.4358 118.053 78.7614 118.568C82.036 119.84 85.9438 119.464 88.933 117.618C90.1646 116.857 91.6872 116.735 93.028 117.281C94.0613 117.701 95.2354 117.814 96.3364 117.613C98.2468 117.265 99.9327 116.075 101.164 114.575C101.619 114.025 102.101 113.379 102.809 113.302C103.227 113.255 103.637 113.423 104.027 113.576C105.729 114.237 107.569 114.662 109.377 114.415C110.472 114.264 111.553 113.835 112.42 113.16C113.429 112.374 114.698 112.04 115.964 112.214C118.442 112.554 121.11 111.624 122.821 109.8C123.638 108.928 124.794 108.467 125.989 108.431C129.645 108.322 133.218 105.479 133.781 101.806C135.963 102.727 138.436 102.949 140.749 102.436Z" fill="#B6CDD8"/>
<path d="M74.6438 47.5457C75.5689 48.1407 76.8903 47.6615 77.5289 46.7659C77.7978 46.3888 77.9714 45.9632 78.0781 45.5146C78.3225 44.4882 79.4196 43.9121 80.4192 44.2495C81.48 44.6076 82.5359 44.9243 83.622 44.7391C84.7055 44.5543 85.5999 43.9053 86.3859 43.1103C87.0736 42.4146 88.1589 42.3195 88.9838 42.8453C90.3109 43.6911 92.0037 43.9783 93.518 43.5318C92.6172 45.3998 90.6114 46.5388 88.5735 46.9229C86.5356 47.307 84.4379 47.0485 82.3803 46.7891C82.269 48.1356 81.5267 49.3672 80.5721 50.3233C79.6174 51.2794 78.4554 51.9971 77.305 52.7057C76.9884 50.787 75.956 48.995 74.4551 47.7586L74.6438 47.5457Z" fill="#B6CDD8"/>
<path d="M63.8354 83.5819C62.2822 80.369 61.9241 76.5949 62.8452 73.1472C63.3652 71.2008 64.2751 69.3607 64.6191 67.3756C64.852 66.0322 64.8182 64.6685 64.6815 63.3076C64.5612 62.1108 65.7003 61.1804 66.8469 61.5437L67.9528 61.8942C68.1259 61.949 68.3126 62.0138 68.4124 62.1655C68.5396 62.3592 68.4778 62.6159 68.4063 62.8363C67.9451 64.2571 67.2585 65.5941 66.7432 66.9962C64.7755 72.3492 65.3943 78.3407 63.7556 83.8035L63.8354 83.5819Z" fill="#B6CDD8"/>
<path d="M69.8191 125.177C64.759 125.177 59.82 124.135 54.4701 121.078C54.4576 121.071 54.4454 121.064 54.4333 121.056L50.8958 118.782C44.8352 116.54 42.4152 109.644 44.9355 101.89C42.5514 98.0853 42.5155 93.4307 44.8131 87.2869C44.8271 87.2497 44.8437 87.2132 44.8629 87.1784L47.5403 82.3105C46.347 77.9116 46.8542 73.3629 49.0878 68.4264C48.1641 65.6231 48.171 62.8518 49.1081 60.1803C46.9803 52.5422 50.9984 46.2555 54.7552 41.6191C54.8357 41.5199 54.938 41.4407 55.0544 41.3879L63.3491 37.6175L67.5487 30.9476C69.3169 25.3037 73.2774 22.3669 79.325 22.2153C82.6441 19.1056 86.6253 18.9957 91.168 21.8875C93.9444 21.2613 97.0254 22.5263 100.571 25.7422L108.485 31.1832C112.61 30.3526 118.57 33.8787 120.613 39.9969C125.059 42.194 126.219 46.7482 126.891 50.9492C131.234 53.9649 132.857 59.1039 134.573 64.5372C135.17 66.4279 135.786 68.3789 136.535 70.3071C137.826 70.5521 138.881 71.2119 139.679 72.273C141.798 75.0939 141.429 79.8491 140.954 82.6813C142.627 84.6881 143.035 87.2445 142.201 90.4769L142.959 97.295C142.965 97.3541 142.965 97.414 142.959 97.4734C142.279 103.84 138.437 108.758 131.216 112.508C125.622 115.413 117.883 117.664 106.872 119.588C103.262 122.564 98.6944 123.282 93.29 121.721C90.3679 122.171 87.6277 122.694 84.9762 123.2C79.5161 124.241 74.6133 125.177 69.8191 125.177ZM55.3061 119.658C65.1885 125.297 73.7852 123.657 84.6674 121.581C87.3882 121.062 90.2015 120.526 93.2217 120.065C93.3411 120.046 93.464 120.055 93.5804 120.089C98.6523 121.596 102.708 120.973 105.978 118.187C106.09 118.091 106.226 118.027 106.372 118.002C122.828 115.145 139.84 110.459 141.311 97.3863L140.546 90.5062C140.535 90.4041 140.543 90.301 140.57 90.2018C141.344 87.3176 140.984 85.1215 139.47 83.4883C139.294 83.298 139.217 83.0361 139.264 82.7808C140.038 78.5254 139.709 75.0561 138.361 73.2623C137.74 72.4361 136.922 71.9812 135.859 71.8721C135.555 71.8409 135.293 71.643 135.179 71.3586C134.328 69.2308 133.654 67.0969 133.002 65.0331C131.265 59.5336 129.765 54.7837 125.683 52.1218C125.487 51.9939 125.355 51.789 125.319 51.5578C124.534 46.4873 123.303 43.0094 119.599 41.3396C119.382 41.2419 119.218 41.0558 119.149 40.8284C117.453 35.256 111.959 31.9134 108.54 32.863C108.305 32.9282 108.054 32.886 107.853 32.748L99.5915 27.0682C99.5606 27.0471 99.5313 27.0237 99.5036 26.9984C96.2386 24.0259 93.5391 22.9018 91.2516 23.5663C91.0192 23.6338 90.769 23.5952 90.5672 23.4616C86.412 20.7078 83.1312 20.757 80.2426 23.6186C80.09 23.7696 79.8845 23.8553 79.6696 23.8572C74.1214 23.903 70.6611 26.4149 69.0911 31.5361C69.0698 31.6057 69.0393 31.6721 69.0005 31.7338L64.6118 38.7042C64.526 38.8404 64.402 38.9485 64.2554 39.0151L55.9135 42.8068C50.7433 49.2388 49.1547 54.5402 50.7634 59.9757C50.8142 60.1474 50.8078 60.3306 50.745 60.4983C49.8039 63.0131 49.8054 65.531 50.75 68.1958C50.8222 68.3992 50.8114 68.6229 50.7205 68.8184C48.4871 73.6191 47.9949 77.9901 49.2154 82.1816C49.2766 82.3917 49.2517 82.6174 49.1463 82.8091L46.3355 87.9196C44.192 93.6799 44.2529 97.9376 46.5262 101.315C46.6706 101.529 46.7059 101.799 46.6217 102.043C44.193 109.087 46.2169 115.346 51.5436 117.264C51.6019 117.285 51.6577 117.313 51.7099 117.346L55.3061 119.658Z" fill="#650000"/>
<path d="M50.4903 115.199C43.0034 121.654 51.2648 128.624 58.2353 118.297L50.4903 115.199Z" fill="white"/>
<path d="M49.7159 79.0559C46.3597 72.6017 40.1372 76.529 44.2944 82.9284C36.5493 87.0591 40.68 93.2552 47.9087 88.0918C49.8155 84.8854 50.6168 81.8438 49.7159 79.0559Z" fill="white"/>
<path d="M71.9188 34.9091C70.6279 21.4843 61.8502 23.8078 61.8502 35.9417C40.6804 30.262 46.3601 44.2031 59.0103 42.9123L71.9188 34.9091Z" fill="white"/>
<path d="M107.804 34.1348C119.163 32.8439 117.614 24.8407 107.287 27.4224C109.353 15.5466 99.8005 19.161 96.4443 26.9061L107.804 34.1348Z" fill="white"/>
<path d="M137.752 91.7063C142.399 86.2848 151.951 91.9645 142.399 96.8696C144.98 101.775 138.814 105.566 133.621 101.775L137.752 91.7063Z" fill="white"/>
<path d="M86.1166 105.438C86.0167 105.438 85.9159 105.42 85.8195 105.383C82.0172 103.911 78.3462 103.491 74.9087 104.133C74.5501 104.199 74.1908 104.024 74.0244 103.699C72.3975 100.527 69.9137 98.9823 66.4354 98.9823C66.3741 98.9823 66.3125 98.9829 66.2505 98.9836C66.2462 98.9839 66.2419 98.9839 66.2378 98.9839C65.9633 98.9839 65.7067 98.8472 65.5536 98.6188C65.398 98.3868 65.3705 98.092 65.4805 97.8355C66.7192 94.9456 67.4441 90.8836 65.4112 88.9461C65.1756 88.7216 65.0942 88.3792 65.2037 88.0727C66.0823 85.6129 65.7634 84.4378 65.472 84.16C65.2425 83.941 64.7559 84.0948 64.4862 84.206C64.2323 84.3107 63.9427 84.2821 63.7141 84.129C63.4857 83.9761 63.3486 83.7194 63.3486 83.4444C63.348 74.3846 64.9 67.0793 68.0931 61.1113C68.1102 61.0795 68.1294 61.0486 68.1505 61.0191L74.0884 52.7579C74.1582 52.6608 74.2484 52.5801 74.3526 52.5215L76.7126 51.1899C76.7528 51.1672 76.7949 51.1479 76.8382 51.1323C79.3686 50.2212 80.8752 48.6506 81.444 46.3303C81.5463 45.9135 81.9516 45.645 82.3749 45.713C87.0108 46.4574 90.3088 45.6315 92.7544 43.1125C92.9449 42.9164 93.2201 42.8274 93.4896 42.8753C93.7589 42.9232 93.9869 43.1016 94.098 43.3513C95.8078 47.1914 99.1047 49.0586 104.175 49.0586C104.18 49.0586 104.185 49.0563 104.189 49.0586C104.462 49.0586 104.717 49.194 104.87 49.4203C105.024 49.6465 105.055 49.934 104.954 50.1879C104.3 51.8249 104.272 53.1709 104.869 54.3019C105.763 55.996 108.114 57.2786 111.855 58.1142C112.268 58.2066 112.544 58.5967 112.493 59.017C112.138 61.9684 113.438 64.235 116.469 65.9461C116.838 66.1541 116.989 66.6074 116.818 66.9949C115.828 69.2488 115.169 72.6087 120.852 75.7531C121.147 75.9164 121.313 76.2429 121.27 76.5775C120.812 80.1885 121.134 83.3506 122.254 86.245C122.373 86.5533 122.297 86.9028 122.06 87.1332C119.435 89.6834 118.035 91.9977 117.652 94.4161C117.608 94.6939 117.426 94.9301 117.168 95.0426C113.854 96.4874 111.893 98.3453 111.173 100.722C111.109 100.935 110.962 101.112 110.765 101.214C110.569 101.316 110.339 101.335 110.128 101.267C106.431 100.055 103.857 100.471 102.258 102.537C102.056 102.798 101.717 102.913 101.398 102.83C94.8527 101.116 90.0434 101.892 86.6959 105.2C86.5386 105.355 86.3295 105.438 86.1166 105.438ZM78.0938 102.194C80.6304 102.194 83.2499 102.684 85.9236 103.662C89.5995 100.303 94.6428 99.4656 101.307 101.107C103.24 98.9631 106.117 98.4126 109.874 99.4674C110.857 97.1008 112.949 95.1691 116.105 93.7137C116.61 91.2164 118.029 88.849 120.529 86.3306C119.514 83.4663 119.2 80.3769 119.571 76.919C115.126 74.2951 113.603 70.9658 115.038 67.0096C112.084 65.1393 110.66 62.6378 110.796 59.5577C106.913 58.5924 104.494 57.1213 103.412 55.071C102.736 53.7894 102.617 52.3151 103.055 50.6763C98.3888 50.4203 95.049 48.5294 93.1022 45.0416C90.5013 47.2478 87.197 48.0185 82.8353 47.4454C82.0127 49.9011 80.2088 51.6525 77.4626 52.6586L75.3202 53.8673L69.5203 61.9365C66.5965 67.4231 65.1159 74.1277 65.003 82.4053C65.8135 82.3618 66.3335 82.705 66.6087 82.9675C67.5726 83.8861 67.6794 85.7577 66.9182 88.1455C68.884 90.4569 68.5487 94.2046 67.4288 97.3735C70.8371 97.6437 73.4456 99.3342 75.2009 102.413C76.1514 102.267 77.1166 102.194 78.0938 102.194Z" fill="#650000"/>
<path d="M73.9838 47.043C79.6635 53.239 78.4844 59.5476 72.1766 56.8533C73.9838 60.7259 70.1112 63.5657 65.2061 60.7259C66.8446 54.085 70.0419 49.9624 73.9838 47.043Z" fill="white"/>
<path d="M50.4901 115.199C49.7027 116.704 48.4955 117.896 48.2379 119.549C47.8032 122.141 49.9493 123.329 52.2407 122.591C54.6193 121.81 56.3351 120.016 58.2352 118.298C57.9091 119.122 57.4892 119.91 56.9692 120.629C55.9095 122.12 54.4653 123.367 52.6907 123.985C50.4576 124.809 47.6765 124.06 47.0059 121.529C46.4012 119.071 48.2002 116.089 50.4901 115.199Z" fill="#650000"/>
<path d="M49.716 79.056C48.3274 78.2427 47.2787 76.7475 45.6666 76.6902C44.2968 76.7409 43.7922 78.0668 43.944 79.4654C44.0689 80.5359 44.5212 81.5704 45.0189 82.549C45.2135 82.9512 45.0606 83.4327 44.6822 83.6555C43.5858 84.2969 42.5452 85.0294 41.788 85.9289C39.8557 88.2844 41.4816 89.829 44.1553 89.2715C45.3699 89.009 46.541 88.4788 47.909 88.0919C47.0765 89.2444 45.8568 90.0551 44.4521 90.4591C41.8928 91.3201 38.8013 90.14 39.4032 86.9908C39.9339 84.6914 42.0032 83.1904 43.9069 82.2016L43.6038 83.3772C41.9232 81.2984 40.9264 77.5159 43.4041 75.531C45.9452 73.5263 49.8438 76.0808 49.716 79.056Z" fill="#650000"/>
<path d="M59.0097 42.9123C55.5525 44.389 50.7901 43.0542 48.1991 40.4297C45.4428 37.4635 47.0909 34.4217 50.8357 33.8304C54.6465 33.2269 58.4677 34.1116 62.063 35.1459L61.0256 35.9417C60.9184 32.8855 61.3085 29.5328 63.2 26.9355C64.8102 24.6938 67.5652 24.03 69.6422 26.0893C71.1521 27.727 71.8673 29.7361 72.1002 31.8684C72.1976 32.8822 72.1501 33.9018 71.9181 34.9091C71.4785 33.9975 71.1889 33.0691 70.8402 32.1432C70.1121 30.2012 69.4633 27.7249 67.456 26.859C65.7115 26.3299 64.461 28.405 63.8563 29.8288C63.0642 31.7903 62.7965 33.9273 62.6659 36.0427C62.6352 36.547 62.1115 36.8971 61.6339 36.7368C59.2893 36.1996 56.9298 35.7248 54.5885 35.5682C52.9084 35.4511 47.9896 35.3979 48.7145 38.0216C49.2616 39.4939 50.7144 40.4902 52.1484 41.1875C54.3445 42.1944 56.6162 42.3907 59.0097 42.9123Z" fill="#650000"/>
<path d="M96.4443 26.9061C96.6505 23.7159 99.1931 20.9388 101.91 19.4704C103.927 18.4103 106.459 18.4568 107.719 20.619C108.901 22.7515 108.57 25.317 108.099 27.5635L107.088 26.6232C109.624 25.9182 112.456 25.4955 114.905 26.8585C116.986 28.0473 117.114 30.472 115.405 32.0778C113.344 33.9343 110.479 34.5838 107.804 34.1348C110.08 33.081 112.46 32.6106 114.189 30.8945C115.819 29.0608 113.764 28.0966 112.009 27.9115C110.561 27.7584 109.017 27.9379 107.487 28.2217C106.919 28.3845 106.348 27.8587 106.476 27.2806C106.631 25.5456 106.826 23.689 106.227 22.0658C106.133 21.8547 106.019 21.6371 105.89 21.4475C105.412 20.7589 104.548 20.6394 103.745 20.8241C100.541 21.6417 98.6962 24.6693 96.4443 26.9061Z" fill="#650000"/>
<path d="M133.62 101.775C135.601 102.762 138.116 103.248 140.13 102.234C142.104 101.286 142.715 99.1983 141.669 97.2534C141.465 96.8445 141.628 96.3517 142.022 96.1369C143.388 95.3134 146.035 93.7769 145.554 91.9376C145.263 91.1192 144.408 90.6408 143.611 90.3857C141.547 89.8279 139.602 90.4887 137.751 91.7063C138.385 90.3627 139.733 89.3159 141.284 88.969C143.919 88.3061 147.738 89.7342 147.306 92.9781C146.86 95.2711 144.703 96.6533 142.774 97.6025L143.127 96.486C144.654 99.1682 143.584 102.369 140.664 103.458C138.211 104.414 135.36 103.609 133.62 101.775Z" fill="#650000"/>
<path d="M65.2061 60.7261C66.5462 60.9811 67.8674 61.3353 69.2139 61.1979C71.4305 60.9499 72.3082 59.2243 71.4301 57.202C71.1038 56.5616 71.7773 55.822 72.4399 56.0745C73.0317 56.2877 73.6378 56.4651 74.2114 56.5463C74.7048 56.6156 75.2344 56.6239 75.6993 56.4436C76.6377 56.0807 76.8475 55.0267 76.7904 54.0421C76.5787 51.468 75.0916 49.3807 73.9838 47.0432C76.3597 48.539 78.0254 51.0956 78.4437 53.8867C78.8615 56.7997 76.8715 58.8757 73.9357 58.3006C73.183 58.17 72.497 57.9142 71.853 57.6113L72.9232 56.5053C73.4384 57.5055 73.6685 58.7183 73.3236 59.8436C72.2521 63.3548 67.263 63.1914 65.2061 60.7261Z" fill="#650000"/>
<path d="M71.4202 57.1801C70.9926 56.085 70.2873 55.002 69.5947 54.0137C70.8969 54.5209 72.1237 55.2996 72.9327 56.5269C73.5704 57.6519 71.8434 58.414 71.4202 57.1801Z" fill="#650000"/>
<path d="M68.7948 112.406C69.6985 112.268 70.5829 111.959 71.5066 112.214C72.5932 112.514 73.1588 113.416 72.4516 114.445C71.6719 115.578 70.0193 116.396 68.8658 117.115C68.7038 117.216 68.7558 117.515 68.9697 117.498C70.2887 117.394 71.4821 117.273 72.5895 116.475C73.5707 115.768 74.4605 114.592 74.3659 113.322C74.142 110.317 70.3502 110.339 68.417 111.51C67.9128 111.816 68.2684 112.487 68.7948 112.406Z" fill="#650000"/>
<path d="M120.611 101.282C120.494 103.351 123.67 104.623 125.32 103.901C127.545 102.928 127.404 99.6552 125.836 98.1872C125.713 98.0728 125.541 98.1616 125.526 98.3156C125.395 99.6239 126.236 101.416 125.053 102.426C123.82 103.477 121.835 102.304 121.276 101.102C121.115 100.757 120.629 100.96 120.611 101.282Z" fill="#650000"/>
<path d="M82.8197 31.2194C83.4325 30.7732 83.7453 30.3317 84.5738 30.3141C85.4486 30.2955 86.3603 30.6321 86.8444 31.3903C87.9127 33.0637 85.7488 34.0127 84.7512 34.9226C84.6157 35.0462 84.7252 35.271 84.8967 35.2738C87.4455 35.3147 89.6696 32.6725 87.7176 30.4142C86.8902 29.4569 85.4557 29.0995 84.2362 29.3159C83.4331 29.4585 82.1454 30.0506 82.4286 31.0603C82.4712 31.2123 82.6775 31.3229 82.8197 31.2194Z" fill="#650000"/>
<path d="M62.2114 99.825C62.8495 99.7751 63.3511 99.4812 63.9664 99.3144C64.863 99.0713 65.7849 99.044 66.7069 99.0735C67.4887 99.0985 68.2868 99.1292 69.0445 99.3391C69.6892 99.5177 69.9768 99.8378 70.6031 99.5805C70.7378 99.5252 70.8899 99.3987 70.8697 99.2304C70.6925 97.7543 68.0846 97.7143 66.9331 97.7156C65.3905 97.7173 62.8725 98.0061 61.9659 99.3971C61.8532 99.57 61.999 99.8416 62.2114 99.825Z" fill="#650000"/>
<path d="M118.233 96.6831C118.28 96.0567 118.052 95.4693 118.011 94.8408C117.961 94.0585 118.053 93.2843 118.267 92.5311C118.626 91.2735 119.375 90.2143 119.847 89.0058C119.889 88.8996 119.764 88.7846 119.661 88.8197C118.149 89.3358 117.37 90.9176 117.093 92.4057C116.846 93.7282 116.769 95.8594 117.83 96.85C117.986 96.9959 118.217 96.8859 118.233 96.6831Z" fill="#650000"/>
<path d="M106.987 46.5283C105.984 46.3438 104.818 48.0759 104.362 48.8174C103.833 49.6794 102.878 51.4145 103.652 52.3409C103.753 52.4626 103.93 52.4255 104.037 52.3409C104.448 52.0143 104.46 51.624 104.596 51.126C104.779 50.4545 105.054 49.8282 105.398 49.224C105.719 48.659 106.067 48.1111 106.492 47.6179C106.809 47.2504 107.077 47.1189 107.063 46.6275C107.062 46.5855 107.032 46.5366 106.987 46.5283Z" fill="#650000"/>
<path d="M114.708 58.3379C114.219 57.9413 113.262 58.1744 112.652 58.1503C112.25 58.1345 111.833 58.1672 111.438 58.0937C111.076 58.0265 110.972 57.9676 110.613 58.1288C110.441 58.2062 110.397 58.4226 110.427 58.5866C110.437 58.6427 110.447 58.6989 110.457 58.755C110.509 59.0389 110.789 59.1645 111.039 59.1975C111.784 59.2965 112.47 59.2811 113.209 59.1153C113.722 59.0002 114.47 58.9653 114.722 58.4478C114.738 58.4146 114.74 58.3641 114.708 58.3379Z" fill="#650000"/>
<path d="M73.7257 78.0234C72.3488 75.7716 72.3764 72.6559 74.1567 70.5707C75.3846 69.0322 77.6969 68.3627 79.5612 68.9197C82.1404 69.6077 83.9846 71.9942 84.5688 74.409C82.6465 72.773 79.9419 70.5608 77.4001 71.406C74.8642 72.279 74.1432 75.542 73.7257 78.0234Z" fill="#650000"/>
<path d="M98.2504 71.5691C96.9732 69.4023 97.0547 66.4453 98.7517 64.4657C100.867 62.0778 104.161 62.6629 106.128 64.8686C107.205 66.0233 107.934 67.4697 108.319 68.9874C107.178 67.9511 106.135 66.9186 104.993 66.1913C100.494 63.1868 98.9585 67.9678 98.2504 71.5691Z" fill="#650000"/>
<path d="M98.582 77.2288C93.6652 81.4208 88.3099 78.4821 87.7311 81.2054C87.4142 82.6963 90.5168 89.4727 96.0736 87.8756C99.4241 86.9126 100.825 83.7857 98.582 77.2288Z" fill="#650000"/>
<path d="M97.6829 79.7827C98.3001 82.3029 98.1335 83.8176 97.6966 84.7449C97.2136 85.778 96.3994 86.0806 95.9804 86.2342C95.9767 86.2355 95.973 86.2369 95.973 86.2369C95.8644 86.2767 95.7509 86.314 95.6359 86.3477C94.2798 86.7345 93.0593 86.4952 91.9047 85.6129C91.3389 85.1803 90.8714 84.6566 90.4971 84.1326C89.7628 83.1006 89.3858 82.0478 89.3145 81.5866C89.679 81.4699 90.3521 81.4309 91.0668 81.3894C92.4596 81.3113 94.1881 81.2118 96.0661 80.5235C96.6234 80.3193 97.1607 80.0715 97.6829 79.7827Z" fill="#650000"/>
<path d="M97.6956 84.7448C97.2126 85.7779 96.3984 86.0805 95.9794 86.2341C95.9757 86.2355 95.972 86.2368 95.972 86.2368C95.8635 86.2766 95.7499 86.314 95.635 86.3476C94.2788 86.7344 93.0583 86.4951 91.9037 85.6129C91.338 85.1802 90.8704 84.6565 90.4961 84.1325C90.9598 83.6956 91.9622 83.5285 92.4657 83.6C94.1198 82.155 96.4834 82.8781 97.6956 84.7448Z" fill="#FC9595"/>
<path d="M91.0811 82.7652L91.2759 83.7275C91.2759 83.7275 92.3467 83.3609 93.539 84.6015C93.539 84.6015 92.9321 82.3164 91.0811 82.7652Z" fill="#650000"/>
<path d="M122.792 127.305C121.767 124.639 123.832 121.237 126.83 119.941C129.077 118.971 131.669 119.678 133.248 121.547C137.974 127.142 137.652 135.198 132.186 135.274C131.162 135.288 130.216 134.698 129.79 133.767C129.206 132.491 128.902 131.053 128.973 129.399C126.839 129.605 125.02 129.263 123.569 128.28C123.219 128.042 122.944 127.701 122.792 127.305Z" fill="white"/>
<path d="M132.15 136.178C130.781 136.178 129.536 135.383 128.968 134.143C128.431 132.969 128.13 131.699 128.071 130.357C126.11 130.395 124.423 129.951 123.062 129.027C122.56 128.687 122.164 128.19 121.949 127.629C120.796 124.631 122.91 120.651 126.472 119.112C129.058 117.995 132.059 118.739 133.938 120.965C137.118 124.729 138.327 129.872 136.812 133.195C135.949 135.089 134.31 136.148 132.199 136.178C132.182 136.178 132.166 136.178 132.15 136.178ZM128.973 128.495C129.203 128.495 129.426 128.583 129.595 128.743C129.785 128.923 129.887 129.176 129.876 129.437C129.814 130.882 130.055 132.175 130.612 133.391C130.888 133.995 131.504 134.387 132.174 134.371C133.587 134.351 134.594 133.703 135.168 132.445C136.205 130.171 135.643 125.782 132.558 122.131C131.196 120.519 129.038 119.972 127.188 120.771C124.522 121.923 122.829 124.883 123.636 126.981H123.636C123.72 127.201 123.877 127.396 124.076 127.532C125.32 128.375 126.893 128.692 128.886 128.499C128.915 128.497 128.944 128.495 128.973 128.495Z" fill="#650000"/>
<path d="M70.9283 150.324C69.6545 150.324 68.4162 149.873 67.4414 149.055C66.2615 148.066 65.5539 146.613 65.5001 145.071C65.4452 143.491 65.5715 141.882 65.6934 140.326C65.7279 139.887 65.7611 139.454 65.79 139.027C50.6492 138.923 36.3247 137.039 25.3241 133.696C15.1985 130.618 7.17549 122.872 3.8629 112.974C0.0835382 101.682 -0.301162 88.4791 2.71941 73.7325C5.34718 60.9045 10.4632 47.5996 17.5148 35.2564C22.7564 26.0811 30.1114 18.1235 38.7841 12.244C47.5444 6.3049 57.6693 2.4791 68.0639 1.18081C78.9168 -0.175283 89.4155 1.20556 99.2677 5.2837C108.503 9.10642 117.148 15.285 124.961 23.6483C130.973 30.0829 136.463 37.7629 141.292 46.4907C142.028 46.2061 142.812 46.059 143.612 46.059C143.621 46.059 143.639 46.0592 143.648 46.0592C145.76 46.0676 147.729 47.124 148.905 48.8855C151.515 52.7956 151.796 58.5545 149.679 64.3759C152.744 72.1301 155.375 80.4554 157.501 89.1293C158.013 91.2165 158.278 93.2813 158.29 95.2668C158.346 104.536 153.657 112.755 144.355 119.694C142.294 121.231 139.984 122.715 137.473 124.114C138.996 127.525 139.221 131.124 138.025 133.748C136.951 136.103 134.834 137.474 132.217 137.511L132.149 137.511C130.263 137.511 128.539 136.407 127.756 134.699C127.316 133.737 127.015 132.718 126.857 131.654C125.396 131.537 124.082 131.154 122.931 130.51C112.627 134.089 100.748 136.597 87.6095 137.969C85.8356 138.155 83.9711 138.321 82.0544 138.464C80.7121 144.144 78.3885 149.329 71.6808 150.271C71.4329 150.306 71.1797 150.324 70.9283 150.324ZM67.1969 136.365C67.5589 136.365 67.9055 136.512 68.1567 136.773C68.408 137.033 68.5423 137.385 68.5291 137.747C68.4953 138.66 68.4259 139.587 68.3516 140.534C68.2352 142.017 68.115 143.549 68.1648 144.978C68.1922 145.766 68.5533 146.508 69.1552 147.013C69.748 147.51 70.5467 147.739 71.3097 147.631C76.4951 146.902 78.3528 142.994 79.6694 136.924C79.795 136.345 80.2877 135.918 80.8787 135.877C83.1134 135.719 85.2848 135.531 87.3327 135.317C100.519 133.94 112.399 131.407 122.643 127.786C123.04 127.646 123.481 127.701 123.831 127.936C124.953 128.691 126.369 129.054 128.044 129.024C128.053 129.024 128.062 129.024 128.071 129.024C128.782 129.024 129.371 129.584 129.402 130.298C129.454 131.467 129.716 132.574 130.18 133.588C130.53 134.352 131.303 134.845 132.149 134.845H132.177C133.77 134.822 134.952 134.061 135.599 132.642C136.58 130.49 136.164 127.174 134.54 124.195C134.37 123.883 134.331 123.515 134.433 123.175C134.535 122.834 134.769 122.548 135.082 122.381C137.917 120.866 140.5 119.243 142.761 117.557C151.347 111.152 155.675 103.658 155.624 95.2828C155.613 93.5057 155.374 91.6489 154.911 89.764C152.771 81.0305 150.113 72.6594 147.012 64.8836C146.887 64.5709 146.886 64.2227 147.007 63.9087C148.98 58.806 148.858 53.6168 146.687 50.3659C146.005 49.3434 144.861 48.7302 143.627 48.7255C142.873 48.7112 142.129 48.9463 141.494 49.3759C141.182 49.5865 140.796 49.6569 140.43 49.5665C140.064 49.4769 139.753 49.2371 139.574 48.9059C134.704 39.9026 129.132 32.0171 123.013 25.4682C115.461 17.3854 107.129 11.4231 98.2481 7.74728C88.8277 3.84805 78.7835 2.52869 68.3943 3.82645C58.4156 5.0729 48.6939 8.74694 40.2802 14.4509C31.9425 20.103 24.8709 27.7549 19.8298 36.579C12.9168 48.6802 7.90323 61.7127 5.33156 74.2673C2.40628 88.5486 2.76287 101.287 6.39143 112.128C9.4305 121.208 16.798 128.317 26.0995 131.144C37.176 134.511 51.7428 136.365 67.1161 136.365L67.1969 136.365Z" fill="#650000"/>
</svg>
