<svg width="145" height="151" viewBox="0 0 145 151" fill="none" xmlns="http://www.w3.org/2000/svg">
<path d="M72.5004 145.454C112.52 145.454 144.963 113.012 144.963 72.9921C144.963 32.9723 112.52 0.529785 72.5004 0.529785C32.4806 0.529785 0.0380859 32.9723 0.0380859 72.9921C0.0380859 113.012 32.4806 145.454 72.5004 145.454Z" fill="#0BCBFF"/>
<path d="M119.484 128.496L120.404 128.539L118.923 128.201C114.316 121.312 107.447 125.028 103.834 127.78L73.4266 126.389L41.6065 127.921C38.0465 125.159 31.0197 121.194 26.3331 128.201L26.1854 128.778L26.0422 128.67C22.1158 126.021 15.2001 126.441 15.2522 135.305C15.2758 139.312 16.9723 142.268 19.0839 144.397C22.1579 147.498 26.5968 149.201 31.1987 149.201H67.5698H77.6866H114.058C118.66 149.201 123.099 147.498 126.173 144.397C128.284 142.268 129.981 139.312 130.004 135.305C130.055 126.641 123.449 126.044 119.484 128.496Z" fill="#F99B28"/>
<path d="M25.0253 128.086C25.0253 128.086 33.3968 132.542 33.1302 148.806L29.5307 148.673L24.198 147.606L19.132 143.607L15.6658 139.341L15.252 133.744L16.8811 129.881L20.905 127.267C20.905 127.267 20.5199 124.83 25.0253 128.086Z" fill="white"/>
<path d="M25.0253 128.086C25.0253 128.086 33.3968 132.542 33.1302 148.806L29.5307 148.673L24.198 147.606L19.132 143.607L15.6658 139.341L15.252 133.744L16.8811 129.881L20.905 127.267C20.905 127.267 20.5199 124.83 25.0253 128.086Z" fill="white"/>
<path d="M26.126 143.355C27.6186 142.53 27.9968 140.356 26.9706 138.5C25.9444 136.643 23.9024 135.806 22.4098 136.631C20.9171 137.456 20.5389 139.63 21.5651 141.487C22.5913 143.344 24.6333 144.18 26.126 143.355Z" fill="#FC7E81"/>
<path d="M26.2586 135.271C26.9389 134.895 27.1113 133.904 26.6436 133.058C26.1759 132.212 25.2452 131.831 24.5648 132.207C23.8845 132.583 23.7122 133.573 24.1799 134.42C24.6476 135.266 25.5783 135.647 26.2586 135.271Z" fill="#FC7E81"/>
<path d="M22.3768 134.906C23.0571 134.53 23.2294 133.539 22.7617 132.692C22.294 131.846 21.3633 131.465 20.683 131.841C20.0027 132.217 19.8303 133.208 20.298 134.054C20.7658 134.9 21.6964 135.282 22.3768 134.906Z" fill="#FC7E81"/>
<path d="M19.9328 137.438C20.5522 137.096 20.7091 136.194 20.2833 135.424C19.8575 134.653 19.0103 134.306 18.391 134.649C17.7716 134.991 17.6147 135.893 18.0405 136.663C18.4662 137.434 19.3135 137.781 19.9328 137.438Z" fill="#FC7E81"/>
<path d="M120.418 128.086C120.418 128.086 112.046 132.542 112.313 148.806L115.912 148.673L121.245 147.606L126.311 143.607L129.777 139.341L130.191 133.744L128.562 129.881L124.538 127.267C124.538 127.267 124.923 124.83 120.418 128.086Z" fill="white"/>
<path d="M123.87 141.493C124.896 139.636 124.518 137.462 123.025 136.637C121.533 135.812 119.491 136.649 118.465 138.506C117.438 140.362 117.816 142.536 119.309 143.361C120.802 144.186 122.844 143.35 123.87 141.493Z" fill="#FC7E81"/>
<path d="M121.255 134.427C121.723 133.58 121.55 132.59 120.87 132.214C120.19 131.838 119.259 132.219 118.791 133.065C118.323 133.911 118.496 134.902 119.176 135.278C119.857 135.654 120.787 135.273 121.255 134.427Z" fill="#FC7E81"/>
<path d="M125.136 134.059C125.603 133.213 125.431 132.222 124.751 131.846C124.07 131.47 123.14 131.851 122.672 132.697C122.204 133.543 122.377 134.534 123.057 134.91C123.737 135.286 124.668 134.905 125.136 134.059Z" fill="#FC7E81"/>
<path d="M127.395 136.671C127.82 135.9 127.663 134.998 127.044 134.656C126.425 134.314 125.578 134.661 125.152 135.431C124.726 136.202 124.883 137.104 125.502 137.446C126.122 137.788 126.969 137.441 127.395 136.671Z" fill="#FC7E81"/>
<path d="M77.6877 150.001H31.1999C26.3158 150.001 21.693 148.164 18.5169 144.961C15.8423 142.263 14.4753 139.016 14.4534 135.31C14.424 130.31 16.4856 128.153 18.2202 127.225C20.959 125.759 24.3475 126.561 26.4907 128.008C26.857 128.255 26.9534 128.752 26.7063 129.118C26.4594 129.484 25.9622 129.581 25.5958 129.334C23.8507 128.156 21.1271 127.483 18.9752 128.635C17.0441 129.669 16.0337 131.974 16.0533 135.301C16.0725 138.574 17.2836 141.445 19.6529 143.834C22.5308 146.737 26.7395 148.402 31.1999 148.402H77.6877C78.1295 148.402 78.4876 148.76 78.4876 149.201C78.4876 149.643 78.1294 150.001 77.6877 150.001Z" fill="#611940"/>
<path d="M30.7188 136.149C29.849 134.979 29.0663 133.774 28.2789 132.595L27.6896 131.719C27.5928 131.574 27.4962 131.429 27.3968 131.29L27.2557 131.078C27.2133 131.016 27.1688 130.955 27.1236 130.894C26.7623 130.407 26.3201 129.969 25.8569 129.519L25.8415 129.504C25.5229 129.194 25.5156 128.685 25.825 128.367C26.0891 128.095 26.4988 128.05 26.8111 128.235C27.4951 128.639 28.0888 129.215 28.5478 129.903C28.6038 129.99 28.6586 130.078 28.7111 130.168C28.7604 130.254 28.8046 130.331 28.8482 130.415C28.9359 130.58 29.0175 130.745 29.0991 130.911C29.2632 131.241 29.404 131.579 29.5497 131.913C29.8346 132.585 30.0886 133.266 30.3221 133.953C30.5498 134.644 30.7631 135.338 30.9265 136.053C30.9408 136.116 30.9015 136.179 30.8386 136.193C30.7922 136.204 30.7456 136.185 30.7188 136.149Z" fill="#611940"/>
<path d="M43.8458 130.681C43.6366 130.681 43.4276 130.599 43.2706 130.437C43.2143 130.379 37.5879 124.632 32.3374 125.103C30.2403 125.292 28.444 126.484 26.998 128.645C26.7524 129.013 26.2554 129.111 25.8884 128.866C25.5213 128.62 25.4227 128.123 25.6683 127.756C27.3972 125.171 29.5943 123.742 32.1985 123.51C38.2117 122.971 44.1706 129.066 44.4212 129.325C44.7279 129.643 44.7191 130.149 44.4015 130.456C44.2462 130.606 44.0459 130.681 43.8458 130.681Z" fill="#611940"/>
<path d="M101.411 130.681C101.211 130.681 101.011 130.606 100.855 130.456C100.538 130.149 100.529 129.643 100.836 129.326C101.086 129.066 107.043 122.973 113.058 123.51C115.663 123.742 117.86 125.171 119.589 127.756C119.834 128.123 119.736 128.62 119.368 128.866C119.001 129.111 118.504 129.012 118.259 128.646C116.813 126.484 115.017 125.292 112.92 125.103C107.67 124.632 102.043 130.379 101.986 130.437C101.829 130.599 101.62 130.681 101.411 130.681Z" fill="#611940"/>
<path d="M114.058 150.001H67.5704C67.1286 150.001 66.7705 149.643 66.7705 149.201C66.7705 148.76 67.1286 148.402 67.5704 148.402H114.058C118.519 148.402 122.727 146.737 125.605 143.834C127.974 141.445 129.186 138.573 129.205 135.301C129.224 132.023 128.241 129.733 126.363 128.679C124.316 127.53 121.645 128.101 119.906 129.176C119.53 129.409 119.037 129.292 118.805 128.917C118.573 128.541 118.689 128.048 119.065 127.815C121.674 126.202 124.846 125.993 127.146 127.284C128.831 128.229 130.834 130.39 130.805 135.31C130.783 139.016 129.416 142.263 126.741 144.961C123.565 148.164 118.942 150.001 114.058 150.001Z" fill="#611940"/>
<path d="M114.331 136.053C114.505 135.315 114.729 134.598 114.969 133.885C115.215 133.176 115.481 132.473 115.78 131.779C115.932 131.434 116.083 131.084 116.255 130.743C116.339 130.572 116.432 130.402 116.52 130.23C116.62 130.05 116.741 129.865 116.863 129.693C117.363 129.005 117.996 128.434 118.716 128.042C119.106 127.83 119.595 127.974 119.807 128.364C119.989 128.698 119.909 129.106 119.636 129.348L119.62 129.362C119.12 129.808 118.643 130.246 118.247 130.74C118.145 130.863 118.057 130.985 117.963 131.12C117.862 131.267 117.758 131.41 117.659 131.561C117.459 131.86 117.248 132.158 117.049 132.465C116.235 133.684 115.43 134.934 114.539 136.149C114.501 136.2 114.428 136.212 114.376 136.174C114.337 136.146 114.321 136.097 114.331 136.053Z" fill="#611940"/>
<g opacity="0.3">
<path d="M129.824 136.163C129.824 136.163 125.828 144.673 118.895 145.207C111.963 145.207 113.029 140.674 113.029 140.674C113.029 140.674 108.34 145.649 101.427 145.649C99.4558 145.649 77.658 146.234 73.3011 146.351V146.223C73.198 146.228 73.0947 146.233 72.9935 146.238C72.9935 146.238 46.2997 145.516 44.1084 145.516C37.1952 145.516 32.5063 140.541 32.5063 140.541C32.5063 140.541 33.5728 145.073 26.6404 145.073C19.7079 144.54 15.7117 136.03 15.7117 136.03C15.7117 136.03 15.4212 136.166 14.9092 136.41C15.3807 139.834 16.9881 142.461 18.9169 144.442C22.2436 147.862 27.0466 149.739 32.0282 149.739H72.2346V149.873H113.507C118.489 149.873 123.292 147.995 126.619 144.575C128.548 142.594 130.155 139.967 130.626 136.543C130.114 136.299 129.824 136.163 129.824 136.163Z" fill="#611940"/>
</g>
<path d="M55.9065 40.8304C55.9065 40.8304 52.442 34.9557 44.9935 32.4259C42.6319 31.6239 40.0277 32.5428 38.6631 34.6306C35.5694 39.3638 31.4801 49.0559 38.88 60.7961L55.9065 40.8304Z" fill="#EDA64A"/>
<path d="M38.8648 61.0206L38.7682 60.8672C31.3308 49.0677 35.4406 39.3187 38.5525 34.5577C39.9571 32.4085 42.6239 31.4798 45.0373 32.2996C52.447 34.8162 55.9875 40.7033 56.0223 40.7626L56.0707 40.8445L56.009 40.9168L38.8648 61.0206ZM43.252 32.2709C41.4885 32.2709 39.7882 33.1543 38.7756 34.7035C35.7123 39.3905 31.6715 48.9669 38.8974 60.5713L55.743 40.8178C55.2929 40.1067 51.7937 34.876 44.9516 32.5522C44.3925 32.3622 43.8188 32.2709 43.252 32.2709Z" fill="#611940"/>
<path d="M55.9046 40.8304C55.9046 40.8304 52.4401 34.9557 44.9916 32.4259C42.6299 31.6239 40.0257 32.5428 38.6611 34.6306C35.5675 39.3638 31.4781 49.0559 38.878 60.7961L55.9046 40.8304Z" fill="#F99B28"/>
<g opacity="0.6">
<path d="M42.0103 34.6308C42.7177 33.5486 43.7592 32.784 44.9263 32.4068C42.5823 31.6439 40.014 32.5625 38.6621 34.6308C35.5684 39.364 31.4791 49.0562 38.879 60.7964L40.8827 58.4467C35.3769 47.7699 39.1255 39.0444 42.0103 34.6308Z" fill="white"/>
</g>
<path d="M38.7744 62.2543L38.1465 61.2582C30.4909 49.1123 34.7295 39.0649 37.9373 34.1568C39.5252 31.7274 42.5405 30.6782 45.2715 31.6058C52.9361 34.209 56.5039 40.1393 56.6521 40.3904L56.966 40.9225L38.7744 62.2543ZM43.2504 33.0041C41.7293 33.0041 40.2618 33.767 39.3876 35.1046C36.4961 39.5284 32.707 48.4506 38.9993 59.3205L54.8227 40.7656C53.8081 39.3297 50.4959 35.2099 44.7142 33.2462C44.2328 33.0827 43.7387 33.0041 43.2504 33.0041Z" fill="#611940"/>
<path d="M53.5579 42.6404C53.5579 42.6404 51.0243 38.3443 45.5772 36.4944C43.8502 35.9078 41.9457 36.5799 40.9478 38.1066C38.6854 41.568 35.6949 48.6558 41.1064 57.2412L53.5579 42.6404Z" fill="#E14A89"/>
<path d="M41.0335 58.2648L40.5928 57.5656C35.0018 48.6953 38.097 41.3581 40.4395 37.774C41.5945 36.0069 43.7883 35.2441 45.7736 35.9186C51.3699 37.8194 53.9743 42.1483 54.0823 42.3316L54.3026 42.7051L41.0335 58.2648ZM44.3038 36.8917C43.183 36.8917 42.1018 37.4538 41.4576 38.4393C39.3373 41.6834 36.5584 48.2316 41.1909 56.2059L52.7986 42.5946C52.0681 41.5567 49.6389 38.516 45.3825 37.0703C45.0276 36.9497 44.6636 36.8917 44.3038 36.8917Z" fill="#611940"/>
<g opacity="0.3">
<path d="M55.9052 40.8304C55.9052 40.8304 52.4591 39.8468 47.9862 41.7792C47.0796 41.1669 46.006 40.5952 44.7558 40.1706C43.2392 39.6556 41.5667 40.2457 40.6904 41.5864C39.4048 43.5533 37.8544 46.8547 38.2055 50.9819C38.1879 51.0105 38.17 51.0378 38.1523 51.0666L38.2352 51.2932C38.4682 53.4623 39.2294 55.851 40.8297 58.3899L55.9052 40.8304Z" fill="#611940"/>
</g>
<path d="M89.7295 40.8304C89.7295 40.8304 93.1941 34.9557 100.643 32.4259C103.004 31.6239 105.608 32.5428 106.973 34.6306C110.067 39.3638 114.156 49.0559 106.756 60.7961L89.7295 40.8304Z" fill="#F99B28"/>
<g opacity="0.6">
<path d="M91.3455 42.4465C91.3455 42.4465 94.8101 36.5718 102.259 34.0421C103.878 33.4922 105.611 33.7516 106.98 34.6417C106.978 34.6381 106.975 34.6342 106.973 34.6306C105.608 32.5429 103.004 31.6239 100.643 32.4259C93.1941 34.9557 89.7295 40.8304 89.7295 40.8304L106.756 60.7961C106.79 60.742 106.822 60.6883 106.856 60.6342L91.3455 42.4465Z" fill="white"/>
</g>
<path d="M106.831 61.8199L88.9863 40.8951L89.2066 40.5216C89.3527 40.2739 92.8728 34.423 100.448 31.8504C103.067 30.9613 105.96 31.9675 107.483 34.2982C110.657 39.1545 114.85 49.0967 107.271 61.1207L106.831 61.8199ZM90.4879 40.7817L106.676 59.7643C113.295 48.6342 109.417 39.4803 106.465 34.9634C105.245 33.0976 102.932 32.2909 100.839 33.0019C94.7526 35.069 91.3699 39.4935 90.4879 40.7817Z" fill="#611940"/>
<path d="M92.0771 42.6407C92.0771 42.6407 94.6107 38.3446 100.058 36.4946C101.785 35.908 103.689 36.5801 104.687 38.1069C106.95 41.5682 109.94 48.656 104.529 57.2415L92.0771 42.6407Z" fill="#E14A89"/>
<path d="M104.602 58.265L91.333 42.7053L91.5533 42.3318C91.6613 42.1484 94.2659 37.8196 99.8622 35.9188C101.847 35.2445 104.041 36.0069 105.196 37.7741C107.539 41.3583 110.634 48.6955 105.043 57.5657L104.602 58.265ZM92.8363 42.594L104.445 56.206C109.077 48.2318 106.298 41.6835 104.178 38.4394C103.327 37.1376 101.714 36.574 100.253 37.0705C95.9813 38.5213 93.5631 41.557 92.8363 42.594Z" fill="#611940"/>
<g opacity="0.3">
<path d="M91.5781 40.8304C91.5781 40.8304 95.0242 39.8468 99.4971 41.7792C100.404 41.1669 101.477 40.5952 102.727 40.1706C104.244 39.6556 105.917 40.2457 106.793 41.5864C108.078 43.5533 109.629 46.8547 109.278 50.9819C109.295 51.0105 109.313 51.0378 109.331 51.0666L109.248 51.2932C109.015 53.4623 108.254 55.851 106.654 58.3899L91.5781 40.8304Z" fill="#611940"/>
</g>
<path d="M110.926 114.423C110.926 93.4927 93.9584 76.5251 73.0279 76.5251C52.0974 76.5251 35.1299 93.4927 35.1299 114.423C35.1299 130.06 44.6008 143.483 58.1186 149.274H87.9373C101.455 143.483 110.926 130.06 110.926 114.423Z" fill="#FFAC32"/>
<path d="M88.0616 149.882H57.9935L57.8788 149.833C43.6898 143.755 34.5215 129.856 34.5215 114.423C34.5215 93.1908 51.7953 75.917 73.0277 75.917C94.26 75.917 111.534 93.1908 111.534 114.423C111.534 129.856 102.365 143.755 88.1764 149.833L88.0616 149.882ZM58.2435 148.666H87.8117C101.488 142.754 110.318 129.327 110.318 114.423C110.318 93.8615 93.5894 77.1333 73.0277 77.1333C52.466 77.1333 35.7378 93.8615 35.7378 114.423C35.7377 129.327 44.5668 142.754 58.2435 148.666Z" fill="#611940"/>
<path d="M112.355 74.0793C111.043 70.6392 109.9 67.139 108.981 63.5736C106.512 53.9917 98.4736 35.603 73.1863 36.3036C47.8989 35.6029 39.8601 53.9917 37.3915 63.5736C36.473 67.139 35.3294 70.6392 34.0171 74.0793C23.3271 102.1 73.1862 102.1 73.1862 102.1C73.1862 102.1 123.045 102.1 112.355 74.0793Z" fill="#F99B28"/>
<mask id="mask0_255_27667" style="mask-type:luminance" maskUnits="userSpaceOnUse" x="32" y="36" width="82" height="67">
<path d="M112.354 74.0793C111.042 70.6392 109.899 67.139 108.98 63.5736C106.511 53.9917 98.4726 35.603 73.1853 36.3036C47.898 35.6029 39.8591 53.9917 37.3906 63.5736C36.472 67.139 35.3285 70.6392 34.0161 74.0793C23.3262 102.1 73.1852 102.1 73.1852 102.1C73.1852 102.1 123.044 102.1 112.354 74.0793Z" fill="white"/>
</mask>
<g mask="url(#mask0_255_27667)">
<path d="M112.577 69.2591C112.577 69.2591 110.297 69.1577 108.118 71.7928C105.939 74.4278 106.902 82.4344 95.4493 76.9616C83.9969 71.4887 77.8821 72.0715 77.8821 72.0715H72.8153H68.1017C68.1017 72.0715 61.9869 71.4887 50.5345 76.9616C39.082 82.4344 40.0448 74.4278 37.8659 71.7928C35.6869 69.1577 33.4065 69.2591 33.4065 69.2591C33.4065 69.2591 5.94087 95.1537 31.8863 113.599C56.1442 130.845 71.1434 109.819 72.9918 107.011C74.8403 109.819 89.8395 130.845 114.097 113.599C140.043 95.1537 112.577 69.2591 112.577 69.2591Z" fill="white"/>
</g>
<mask id="mask1_255_27667" style="mask-type:luminance" maskUnits="userSpaceOnUse" x="32" y="36" width="82" height="67">
<path d="M112.354 74.0793C111.042 70.6392 109.899 67.139 108.98 63.5736C106.511 53.9917 98.4726 35.603 73.1853 36.3036C47.898 35.6029 39.8591 53.9917 37.3906 63.5736C36.472 67.139 35.3285 70.6392 34.0161 74.0793C23.3262 102.1 73.1852 102.1 73.1852 102.1C73.1852 102.1 123.044 102.1 112.354 74.0793Z" fill="white"/>
</mask>
<g mask="url(#mask1_255_27667)">
<path d="M114.988 68.5293C114.988 69.553 114.917 70.5624 114.781 71.5597C112.675 59.0856 94.8556 49.3439 73.1852 49.3439C51.5148 49.3439 33.6955 59.0856 31.5896 71.5597C31.4537 70.5624 31.3828 69.553 31.3828 68.5293C31.3828 57.9249 50.0979 38.3232 73.1853 38.3232C96.2725 38.3232 114.988 56.7086 114.988 68.5293Z" fill="white"/>
</g>
<mask id="mask2_255_27667" style="mask-type:luminance" maskUnits="userSpaceOnUse" x="32" y="36" width="82" height="67">
<path d="M112.354 74.0793C111.042 70.6392 109.899 67.139 108.98 63.5736C106.511 53.9917 98.4726 35.603 73.1853 36.3036C47.898 35.6029 39.8591 53.9917 37.3906 63.5736C36.472 67.139 35.3285 70.6392 34.0161 74.0793C23.3262 102.1 73.1852 102.1 73.1852 102.1C73.1852 102.1 123.044 102.1 112.354 74.0793Z" fill="white"/>
</mask>
<g mask="url(#mask2_255_27667)">
<path d="M108.476 60.796C111.891 63.9659 114.117 67.627 114.781 71.5597C114.917 70.5624 114.988 69.553 114.988 68.5293C114.988 62.4675 110.066 54.6794 102.157 48.5295" fill="white"/>
<path d="M114.846 75.5937L114.182 71.6608C113.561 67.9837 111.445 64.3808 108.062 61.2417L108.889 60.3502C111.398 62.6785 113.251 65.2606 114.365 67.9547C114.06 62.1307 109.19 54.7682 101.784 49.0096L102.531 48.0496C110.468 54.221 115.596 62.2597 115.596 68.5292C115.596 69.5598 115.525 70.6069 115.384 71.6416L114.846 75.5937Z" fill="#611940"/>
</g>
<mask id="mask3_255_27667" style="mask-type:luminance" maskUnits="userSpaceOnUse" x="32" y="36" width="82" height="67">
<path d="M112.354 74.0793C111.042 70.6392 109.899 67.139 108.98 63.5736C106.511 53.9917 98.4726 35.603 73.1853 36.3036C47.898 35.6029 39.8591 53.9917 37.3906 63.5736C36.472 67.139 35.3285 70.6392 34.0161 74.0793C23.3262 102.1 73.1852 102.1 73.1852 102.1C73.1852 102.1 123.044 102.1 112.354 74.0793Z" fill="white"/>
</mask>
<g mask="url(#mask3_255_27667)">
<path d="M37.8064 60.8799C34.4413 64.0305 32.2486 67.6618 31.5905 71.56C31.4547 70.5627 31.3838 69.5533 31.3838 68.5296C31.3838 63.3521 35.845 56.0298 43.0983 49.8914" fill="white"/>
<path d="M31.5258 75.594L30.9877 71.6417C30.8469 70.6071 30.7754 69.56 30.7754 68.5294C30.7754 63.0584 35.4582 55.5603 42.7052 49.427L43.4908 50.3553C36.7663 56.0465 32.3322 62.8699 32.0103 67.9466C33.1108 65.2883 34.9313 62.7383 37.3905 60.4357L38.2216 61.3236C34.8908 64.4421 32.805 68.0168 32.1899 71.661L31.5258 75.594Z" fill="#611940"/>
</g>
<mask id="mask4_255_27667" style="mask-type:luminance" maskUnits="userSpaceOnUse" x="32" y="36" width="82" height="67">
<path d="M112.354 74.0793C111.042 70.6392 109.899 67.139 108.98 63.5736C106.511 53.9917 98.4726 35.603 73.1853 36.3036C47.898 35.6029 39.8591 53.9917 37.3906 63.5736C36.472 67.139 35.3285 70.6392 34.0161 74.0793C23.3262 102.1 73.1852 102.1 73.1852 102.1C73.1852 102.1 123.044 102.1 112.354 74.0793Z" fill="white"/>
</mask>
<g mask="url(#mask4_255_27667)">
<path d="M73.1864 47.4583C75.7957 47.4583 77.9109 45.8296 77.9109 43.8204C77.9109 41.8113 75.7957 40.1826 73.1864 40.1826C70.5772 40.1826 68.4619 41.8113 68.4619 43.8204C68.4619 45.8296 70.5772 47.4583 73.1864 47.4583Z" fill="#F43F08"/>
</g>
<mask id="mask5_255_27667" style="mask-type:luminance" maskUnits="userSpaceOnUse" x="32" y="36" width="82" height="67">
<path d="M112.354 74.0793C111.042 70.6392 109.899 67.139 108.98 63.5736C106.511 53.9917 98.4726 35.603 73.1853 36.3036C47.898 35.6029 39.8591 53.9917 37.3906 63.5736C36.472 67.139 35.3285 70.6392 34.0161 74.0793C23.3262 102.1 73.1852 102.1 73.1852 102.1C73.1852 102.1 123.044 102.1 112.354 74.0793Z" fill="white"/>
</mask>
<g mask="url(#mask5_255_27667)">
<g opacity="0.6">
<path d="M36.4776 76.5152C37.7575 72.8534 38.8726 69.1276 39.7685 65.3324C42.053 55.6534 49.2319 37.5352 71.0332 36.3482C69.9299 36.2856 68.788 36.2673 67.6013 36.3032C44.9545 35.6183 37.7551 53.5935 35.5443 62.9598C34.7216 66.4451 33.6975 69.8666 32.5222 73.2292C29.3895 82.1922 32.0635 88.2219 37.079 92.2788C34.7589 88.2733 34.1664 83.1277 36.4776 76.5152Z" fill="white"/>
</g>
</g>
<mask id="mask6_255_27667" style="mask-type:luminance" maskUnits="userSpaceOnUse" x="32" y="36" width="82" height="67">
<path d="M112.354 74.0793C111.042 70.6392 109.899 67.139 108.98 63.5736C106.511 53.9917 98.4726 35.603 73.1853 36.3036C47.898 35.6029 39.8591 53.9917 37.3906 63.5736C36.472 67.139 35.3285 70.6392 34.0161 74.0793C23.3262 102.1 73.1852 102.1 73.1852 102.1C73.1852 102.1 123.044 102.1 112.354 74.0793Z" fill="white"/>
</mask>
<g mask="url(#mask6_255_27667)">
<g opacity="0.3">
<path d="M114.805 74.8433C113.466 71.3337 112.3 67.7628 111.362 64.1253C111.342 64.0446 111.32 63.9617 111.298 63.8797C113.121 66.2625 114.323 68.8464 114.781 71.5598C114.917 70.5626 114.988 69.5532 114.988 68.5295C114.988 66.2028 114.26 63.6215 112.92 60.9764C111.833 59.8644 110.602 58.8082 109.246 57.8142C105.116 47.9559 95.7686 35.7245 74.8444 36.3043C73.5278 36.2678 72.2595 36.2846 71.033 36.3458C82.9058 36.9636 90.2503 42.3782 94.7806 48.4985C95.5519 49.5405 94.5929 50.9653 93.3372 50.6427C88.2357 49.3319 82.6058 48.6045 76.6875 48.6045C71.0925 48.6045 65.7554 49.2554 60.878 50.4335C64.7693 49.7262 68.9018 49.3442 73.1858 49.3442C82.5808 49.3442 91.2508 51.1761 98.2315 54.2671C99.5545 57.0309 100.419 59.6821 100.978 61.8514C101.839 65.1918 102.91 68.4711 104.14 71.694C114.155 97.9464 67.4428 97.9464 67.4428 97.9464C67.4428 97.9464 46.3001 97.9461 35.5127 89.9518C44.0332 103.43 74.8444 103.431 74.8444 103.431C74.8444 103.431 125.711 103.431 114.805 74.8433Z" fill="#611940"/>
</g>
</g>
<path d="M74.5804 36.2844C98.7708 36.2844 106.559 54.1702 108.982 63.5737C109.9 67.1391 111.044 70.6394 112.356 74.0794C123.046 102.1 73.1868 102.1 73.1868 102.1C73.1868 102.1 23.3278 102.1 34.0177 74.0794C35.3301 70.6394 36.4736 67.1392 37.3922 63.5737C39.8149 54.1697 47.5993 36.2825 71.7933 36.2844C72.2506 36.2844 72.7177 36.2908 73.1869 36.3038C73.6575 36.2908 74.1216 36.2844 74.5804 36.2844ZM71.7893 34.6846C60.768 34.6846 51.8432 38.2591 45.2592 45.31C39.7645 51.1942 37.1057 58.2727 35.8429 63.1746C34.9835 66.5103 33.8665 69.9874 32.523 73.5092C30.0536 79.982 30.4265 85.6231 33.6314 90.276C37.5166 95.9164 45.3994 99.8883 57.0609 102.081C65.5728 103.682 72.88 103.7 73.1868 103.7C73.4937 103.7 80.8009 103.682 89.3128 102.081C100.974 99.8883 108.857 95.9164 112.742 90.276C115.947 85.6232 116.32 79.982 113.851 73.5092C112.507 69.9871 111.39 66.51 110.531 63.1746C109.268 58.2736 106.609 51.196 101.113 45.3108C94.5281 38.2598 85.6013 34.6846 74.5805 34.6846C74.1215 34.6846 73.6529 34.6909 73.1868 34.7034C72.7217 34.691 72.2531 34.6846 71.7933 34.6846C71.7926 34.6846 71.79 34.6846 71.7893 34.6846Z" fill="#611940"/>
<path d="M38.1541 61.5511C37.9918 61.5511 37.8298 61.4864 37.71 61.3585C37.4805 61.1134 37.4933 60.7285 37.7384 60.499C45.6058 53.1334 58.8576 48.7361 73.1869 48.7361C87.5155 48.7361 100.749 53.0781 108.586 60.3509C108.832 60.5794 108.846 60.9641 108.618 61.2103C108.39 61.4566 108.005 61.4708 107.759 61.2424C100.141 54.1729 87.2166 49.9524 73.1869 49.9524C59.1585 49.9524 46.2174 54.227 38.5696 61.387C38.4522 61.4966 38.3031 61.5511 38.1541 61.5511Z" fill="#611940"/>
<path d="M42.8619 50.7175C42.6849 50.7175 42.5091 50.6425 42.3858 50.4968C42.1634 50.2341 42.1962 49.8408 42.4589 49.6183C48.9301 44.1416 59.5163 37.613 73.1988 37.613C86.4387 37.613 96.6751 43.4115 102.931 48.2757C103.203 48.4872 103.252 48.8786 103.04 49.1505C102.829 49.4224 102.437 49.4713 102.166 49.26C96.0638 44.5154 86.0853 38.8598 73.1988 38.8598C59.8937 38.8598 49.5765 45.2279 43.2643 50.57C43.1473 50.6691 43.0042 50.7175 42.8619 50.7175Z" fill="#611940"/>
<path d="M67.1398 84.0779C66.4834 83.9319 65.8344 84.3455 65.6889 85.0013C65.6555 85.1501 64.847 88.6439 62.1678 88.185C61.5053 88.0716 60.8771 88.5163 60.7638 89.1784C60.6503 89.8404 61.095 90.4691 61.7571 90.5824C62.6072 90.7281 63.362 90.6716 64.0284 90.473C66.4583 89.7487 67.7069 87.1327 68.0633 85.5287C68.209 84.8731 67.7956 84.2234 67.1398 84.0779Z" fill="#FFE00A"/>
<path d="M62.6887 91.272C62.3507 91.272 62.0056 91.2419 61.6544 91.1818C61.1741 91.0995 60.7545 90.8351 60.4732 90.4372C60.1917 90.0393 60.0821 89.5558 60.1644 89.0755C60.2465 88.5954 60.5108 88.1757 60.9085 87.8944C61.3061 87.6131 61.7899 87.5033 62.2703 87.5855C64.3814 87.9472 65.0673 84.9941 65.0954 84.8683C65.2007 84.3936 65.4852 83.9875 65.8961 83.7259C66.3071 83.4643 66.7951 83.3782 67.2715 83.4841C67.7473 83.5897 68.1534 83.8743 68.4151 84.2854C68.6768 84.6966 68.7626 85.185 68.6567 85.6608C68.2104 87.6699 66.7758 90.2884 64.2019 91.0556C63.7187 91.1997 63.2124 91.272 62.6887 91.272ZM61.961 88.7753C61.8363 88.7753 61.7148 88.8137 61.6111 88.8871C61.4785 88.9809 61.3905 89.1207 61.3632 89.2808C61.3357 89.4411 61.3721 89.6023 61.4661 89.7348C61.5598 89.8675 61.6996 89.9556 61.8598 89.9829C62.5693 90.1047 63.2403 90.0733 63.8546 89.8901C66.0668 89.2306 67.1678 86.7554 67.4696 85.3968C67.5049 85.2381 67.4764 85.0753 67.3891 84.9384C67.3019 84.8013 67.1667 84.7065 67.0081 84.6714C67.008 84.6714 67.008 84.6714 67.0078 84.6713C66.8491 84.6362 66.6862 84.6646 66.5494 84.7518C66.4125 84.839 66.3177 84.9742 66.2825 85.1329C65.9319 86.6981 64.6497 89.2271 62.0651 88.7843C62.0304 88.7783 61.9955 88.7753 61.961 88.7753Z" fill="#611940"/>
<path d="M81.8577 87.096C80.469 86.6079 80.2843 85.0488 80.2754 84.9666C80.2231 84.4124 79.7329 84.0036 79.1775 84.0526C78.6201 84.1017 78.2077 84.5937 78.2569 85.1512C78.2675 85.2704 78.5448 88.0801 81.1858 89.0083C81.4269 89.0931 81.6787 89.0812 81.8988 88.9929C82.1604 88.888 82.3771 88.6749 82.4779 88.3881C82.6634 87.8602 82.3859 87.2816 81.8577 87.096Z" fill="#FFE00A"/>
<path d="M81.5216 89.6738C81.3399 89.6738 81.1582 89.6432 80.9838 89.5818C77.9781 88.5254 77.6629 85.3397 77.6509 85.2045C77.6129 84.7731 77.7452 84.3527 78.0235 84.0206C78.3017 83.6886 78.6924 83.4848 79.1238 83.4467C80.0079 83.3708 80.797 84.0246 80.8805 84.9094C80.8852 84.9526 81.0268 86.1592 82.0592 86.5221C82.0592 86.5222 82.0592 86.5222 82.0592 86.5222C82.9027 86.8186 83.3477 87.7461 83.0514 88.5896C82.8964 89.0303 82.5588 89.383 82.1249 89.5571C81.9316 89.6347 81.7267 89.6738 81.5216 89.6738ZM79.2666 84.6565C79.2547 84.6565 79.2427 84.6571 79.2308 84.6583C79.123 84.6677 79.0252 84.7187 78.9556 84.8019C78.886 84.8848 78.853 84.9898 78.8625 85.0975C78.8716 85.2006 79.1122 87.6349 81.3871 88.4346C81.5063 88.4762 81.6075 88.4542 81.672 88.4284C81.7359 88.4027 81.8509 88.3372 81.9039 88.1864C81.9781 87.9755 81.8668 87.7436 81.6559 87.6694C79.9375 87.0656 79.6928 85.2381 79.6706 85.0316C79.6501 84.815 79.4728 84.6565 79.2666 84.6565Z" fill="#611940"/>
<path d="M80.5971 83.4707C80.5971 83.4707 77.5876 86.1354 78.9304 88.5171C80.3159 90.9743 83.3531 92.8777 80.9904 96.3822C78.6278 99.8868 78.552 101.006 80.6282 103.101C82.7045 105.197 81.917 107.653 81.917 107.653H66.5956C66.5956 107.653 63.3738 104.402 65.0242 99.7772C66.6746 95.1526 71.5356 95.5139 67.8127 91.3872C64.0898 87.2605 66.2645 84.7472 66.2645 84.7472L67.2757 83.4707H80.5971Z" fill="#FFE00A"/>
<path d="M81.9166 108.262H66.5952C66.433 108.262 66.2774 108.197 66.1632 108.081C66.0206 107.937 62.6923 104.501 64.4512 99.5728C65.146 97.6258 66.3468 96.5186 67.3116 95.6291C68.7444 94.3081 69.227 93.863 67.3608 91.7945C63.3244 87.3203 65.7011 84.4685 65.8043 84.3493L66.7987 83.0931C66.914 82.9474 67.0895 82.8625 67.2753 82.8625H80.5968C80.8495 82.8625 81.0759 83.0189 81.1654 83.2551C81.255 83.4911 81.1893 83.7579 81.0005 83.9254C80.9742 83.9489 78.3759 86.2962 79.4598 88.2185C79.7693 88.7675 80.1683 89.2888 80.5907 89.8408C81.972 91.6455 83.5375 93.6912 81.4943 96.7221C79.1674 100.174 79.3345 100.932 81.0599 102.673C83.3694 105.004 82.5325 107.724 82.4958 107.839C82.415 108.091 82.1809 108.262 81.9166 108.262ZM66.8652 107.045H81.4233C81.5191 106.336 81.5138 104.859 80.1958 103.529C77.7552 101.066 78.1059 99.5727 80.4858 96.0422C82.0404 93.7361 80.9744 92.3434 79.6248 90.5799C79.1956 90.019 78.7518 89.439 78.4002 88.8158C77.3939 87.0308 78.3643 85.1953 79.2232 84.0788H67.5693L66.7406 85.1247C66.6553 85.2281 64.9821 87.3422 68.2637 90.9797C70.9357 93.9416 69.5757 95.1956 68.1359 96.5232C67.224 97.364 66.1907 98.3167 65.5965 99.9816C64.2915 103.638 66.2609 106.335 66.8652 107.045Z" fill="#611940"/>
<mask id="mask7_255_27667" style="mask-type:luminance" maskUnits="userSpaceOnUse" x="64" y="83" width="19" height="25">
<path d="M77.8571 83.4707C77.8571 83.4707 77.0484 85.7588 78.9368 87.8544C80.8251 89.9499 82.9192 92.6957 80.5566 96.2003C78.194 99.7049 78.552 101.006 80.6282 103.101C82.7045 105.197 81.917 107.653 81.917 107.653H66.5956C66.5956 107.653 63.3738 104.402 65.0242 99.7772C66.6746 95.1526 71.5356 95.5139 67.8127 91.3872C64.0898 87.2605 66.2645 84.7472 66.2645 84.7472L67.2757 83.4707H77.8571Z" fill="white"/>
</mask>
<g mask="url(#mask7_255_27667)">
<path d="M69.2852 108.081C69.1427 107.937 65.8143 104.501 67.5732 99.5727C68.2681 97.6257 69.4688 96.5186 70.4337 95.6291C71.8665 94.308 72.3491 93.8629 70.4829 91.7944C66.748 87.6544 68.6619 84.403 68.9666 83.9438C69.0563 83.7712 69.6631 82.5611 69.7835 81.2241L70.9948 81.3332C70.842 83.0291 70.0567 84.4858 70.0233 84.547L69.974 84.6233C69.8973 84.7277 68.072 87.3064 71.3859 90.9797C74.058 93.9416 72.698 95.1956 71.2581 96.5231C70.3462 97.3639 69.3129 98.3167 68.7187 99.9816C67.2225 104.174 70.0301 107.104 70.1504 107.226L69.2852 108.081Z" fill="#611940"/>
</g>
<mask id="mask8_255_27667" style="mask-type:luminance" maskUnits="userSpaceOnUse" x="64" y="83" width="19" height="25">
<path d="M77.8571 83.4707C77.8571 83.4707 77.0484 85.7588 78.9368 87.8544C80.8251 89.9499 82.9192 92.6957 80.5566 96.2003C78.194 99.7049 78.552 101.006 80.6282 103.101C82.7045 105.197 81.917 107.653 81.917 107.653H66.5956C66.5956 107.653 63.3738 104.402 65.0242 99.7772C66.6746 95.1526 71.5356 95.5139 67.8127 91.3872C64.0898 87.2605 66.2645 84.7472 66.2645 84.7472L67.2757 83.4707H77.8571Z" fill="white"/>
</mask>
<g mask="url(#mask8_255_27667)">
<path d="M72.6037 108.081C72.4612 107.937 69.1327 104.501 70.8916 99.5727C71.5864 97.6257 72.7872 96.5186 73.752 95.6291C75.1848 94.308 75.6674 93.8629 73.8012 91.7944C70.0663 87.6544 71.9802 84.403 72.2849 83.9438C72.3745 83.7713 72.9815 82.5611 73.1018 81.2241L74.3132 81.3332C74.1604 83.0291 73.375 84.4858 73.3417 84.547L73.2923 84.6233C73.2156 84.7277 71.3903 87.3064 74.7043 90.9797C77.3763 93.9416 76.0163 95.1956 74.5764 96.5231C73.6645 97.3639 72.6312 98.3167 72.037 99.9816C70.5408 104.174 73.3486 107.104 73.4689 107.226L72.6037 108.081Z" fill="#611940"/>
</g>
<mask id="mask9_255_27667" style="mask-type:luminance" maskUnits="userSpaceOnUse" x="64" y="83" width="19" height="25">
<path d="M77.8571 83.4707C77.8571 83.4707 77.0484 85.7588 78.9368 87.8544C80.8251 89.9499 82.9192 92.6957 80.5566 96.2003C78.194 99.7049 78.552 101.006 80.6282 103.101C82.7045 105.197 81.917 107.653 81.917 107.653H66.5956C66.5956 107.653 63.3738 104.402 65.0242 99.7772C66.6746 95.1526 71.5356 95.5139 67.8127 91.3872C64.0898 87.2605 66.2645 84.7472 66.2645 84.7472L67.2757 83.4707H77.8571Z" fill="white"/>
</mask>
<g mask="url(#mask9_255_27667)">
<path d="M75.9171 108.081C75.7745 107.937 72.4462 104.501 74.2051 99.5727C74.8999 97.6257 76.1007 96.5186 77.0655 95.6291C78.4983 94.308 78.9809 93.8629 77.1147 91.7944C73.3799 87.6544 75.2936 84.403 75.5982 83.9438C75.6878 83.7713 76.2949 82.5611 76.4153 81.2241L77.6266 81.3332C77.4738 83.0291 76.6883 84.4858 76.655 84.547L76.6057 84.6233C76.529 84.7277 74.7038 87.3064 78.0177 90.9797C80.6898 93.9416 79.3298 95.1956 77.8899 96.5231C76.978 97.3639 75.9447 98.3167 75.3505 99.9816C73.8543 104.174 76.6619 107.104 76.7822 107.226L75.9171 108.081Z" fill="#611940"/>
</g>
<g opacity="0.3">
<path d="M80.6278 103.101C78.5516 101.006 78.6274 99.8868 80.99 96.3822C83.3527 92.8777 80.3154 90.9743 78.93 88.5171C77.5871 86.1354 80.5966 83.4707 80.5966 83.4707H67.2753L66.264 84.7472C66.264 84.7472 65.2786 85.8901 65.774 87.8976C69.3095 87.8388 76.6758 87.787 77.1813 88.3633C77.8482 89.1234 78.659 89.9246 79.0644 90.6642C79.4005 91.2774 69.9463 90.3101 66.7068 89.9618C66.999 90.4124 67.3616 90.8877 67.8122 91.3871C69.6718 93.4484 69.3896 94.3899 68.4358 95.3924C70.9325 95.6984 75.5678 96.2801 75.5678 96.3822C75.5678 96.5219 74.2527 98.1006 74.2527 98.1006C74.2527 98.1006 69.3348 98.7599 69.0308 102.1C68.7992 104.645 70.1746 106.75 70.8582 107.653H81.9165C81.9165 107.653 82.7041 105.197 80.6278 103.101Z" fill="#611940"/>
</g>
<path d="M121.6 90.8269L64.5852 90.4226C64.0293 90.4196 63.5602 90.8533 63.529 91.4146C63.4967 91.9938 63.9402 92.4895 64.5194 92.5217L121.448 95.6893C121.484 95.6911 121.529 95.6927 121.566 95.693C122.91 95.7025 123.706 95.8503 124.016 93.2772C124.256 91.2884 122.944 90.8364 121.6 90.8269Z" fill="#F78F1E"/>
<path d="M121.923 96.3041C121.869 96.3041 121.814 96.3038 121.758 96.3031L121.561 96.301C121.516 96.3006 121.461 96.2987 121.417 96.2966L64.4852 93.1289C64.0429 93.1041 63.6366 92.9087 63.3413 92.5787C63.0459 92.2484 62.8969 91.823 62.9216 91.3806C62.9706 90.5007 63.6978 89.8145 64.5791 89.8145C64.5821 89.8145 64.5851 89.8145 64.5882 89.8145L121.604 90.2187C122.729 90.2267 123.559 90.5264 124.073 91.1095C124.549 91.651 124.733 92.4046 124.619 93.35C124.297 96.0243 123.343 96.3041 121.923 96.3041ZM64.5781 91.0307C64.3434 91.0307 64.1489 91.2136 64.1359 91.4483C64.1222 91.6918 64.3093 91.9008 64.5529 91.9144L121.481 95.0819C121.506 95.0832 121.541 95.0846 121.57 95.0847L121.774 95.0869C122.887 95.1022 123.183 95.1045 123.412 93.2045C123.483 92.6178 123.398 92.1834 123.16 91.9131C122.885 91.6012 122.359 91.4403 121.596 91.4349L64.5806 91.0307C64.5798 91.0307 64.5789 91.0307 64.5781 91.0307Z" fill="#611940"/>
<path d="M63.921 91.8835L63.8936 92.6829L121.661 94.6655L121.689 93.8661L63.921 91.8835Z" fill="#611940"/>
<g opacity="0.3">
<path d="M69.9932 91.1257L121.675 94.2597L122.81 95.6973L69.9932 91.1257Z" fill="#611940"/>
</g>
<path d="M122.814 95.8828L121.105 94.4834L121.456 91.8999L122.752 90.73L123.466 91.5218L122.46 92.43L122.242 94.0361L123.49 95.0577L122.814 95.8828Z" fill="#611940"/>
<path d="M121.342 97.1802L64.6978 90.671C64.1454 90.6085 63.6326 90.9895 63.5414 91.5442C63.4473 92.1166 63.8351 92.6569 64.4075 92.751L120.669 101.998C120.705 102.004 120.75 102.01 120.786 102.015C122.121 102.168 122.897 102.4 123.481 99.8752C123.932 97.9235 122.676 97.3336 121.342 97.1802Z" fill="#F78F1E"/>
<path d="M121.7 102.7C121.453 102.7 121.191 102.675 120.912 102.642L120.716 102.618C120.672 102.613 120.616 102.605 120.572 102.598L64.3086 93.3508C63.4063 93.2024 62.7929 92.3477 62.941 91.4453C63.0847 90.5725 63.886 89.9677 64.7658 90.0665L121.411 96.5759C122.528 96.7043 123.322 97.0911 123.769 97.7259C124.185 98.3152 124.288 99.0843 124.073 100.012C123.56 102.231 122.781 102.7 121.7 102.7ZM64.5776 91.2719C64.3637 91.2719 64.1766 91.4266 64.1411 91.6426C64.1015 91.8832 64.2652 92.1112 64.5059 92.1508L120.768 101.398C120.793 101.402 120.827 101.407 120.855 101.41L121.057 101.434C122.16 101.567 122.457 101.603 122.888 99.7379C123.021 99.1623 122.983 98.7213 122.776 98.4272C122.536 98.0876 122.03 97.8712 121.272 97.7841L64.628 91.2748C64.6111 91.273 64.5943 91.2719 64.5776 91.2719Z" fill="#611940"/>
<g opacity="0.3">
<path d="M63.8223 92.4436L121.046 100.601L122.386 101.963L63.8223 92.4436Z" fill="#503B60"/>
<path d="M122.676 102.113L63.8066 92.5436L63.8372 92.3433L121.095 100.506L122.676 102.113ZM74.0796 94.0081L122.097 101.813L120.999 100.697L74.0796 94.0081Z" fill="#611940"/>
</g>
<path d="M63.9657 91.935L63.8496 92.7375L120.991 101.005L121.108 100.203L63.9657 91.935Z" fill="#611940"/>
<path d="M122.007 102.337L120.458 100.763L121.083 98.2316L122.497 97.2073L123.123 98.071L122.025 98.8663L121.636 100.44L122.767 101.589L122.007 102.337Z" fill="#611940"/>
<path d="M73.1855 81.5857C73.1855 81.5857 75.7192 87.5019 83.0671 84.5121V82.3838" fill="white"/>
<path d="M79.1975 85.9639C74.4672 85.9639 72.6492 81.8766 72.627 81.825L73.745 81.3461L73.186 81.5856L73.7443 81.3445C73.8376 81.5589 76.0668 86.4739 82.4593 84.0966V82.3838H83.6756V84.9213L83.2966 85.0754C81.7378 85.7096 80.3769 85.9639 79.1975 85.9639Z" fill="#611940"/>
<path d="M51.5102 64.4593C52.516 64.1907 53.4963 64.0658 54.5161 64.0069C55.53 63.963 56.56 63.9988 57.5998 64.1663C58.6338 64.3398 59.6956 64.6133 60.6954 65.1397C61.1922 65.4061 61.6748 65.7237 62.1122 66.112C62.5492 66.5006 62.9379 66.9572 63.2414 67.4657C63.6168 68.0942 63.4114 68.9081 62.7829 69.2834C62.2771 69.5854 61.6514 69.5114 61.2307 69.1435L61.1348 69.059C60.8498 68.8092 60.5678 68.5746 60.2692 68.3472C59.9658 68.1249 59.6388 67.9212 59.2959 67.7251C58.6051 67.3418 57.8368 66.9843 57.0034 66.7259C56.5892 66.5908 56.1624 66.4669 55.7252 66.3675C55.2891 66.2633 54.8449 66.1658 54.394 66.0894C53.4989 65.9231 52.555 65.8055 51.6503 65.7141L51.6108 65.7101C51.2603 65.6747 51.005 65.3619 51.0404 65.0115C51.0676 64.7405 51.2621 64.5263 51.5102 64.4593Z" fill="#611940"/>
<path d="M93.2592 65.7139C92.3545 65.8053 91.4106 65.9229 90.5155 66.0892C90.0646 66.1656 89.6205 66.2632 89.1843 66.3673C88.7471 66.4667 88.3204 66.5906 87.9062 66.7257C87.0728 66.984 86.3044 67.3417 85.6136 67.7249C85.2707 67.921 84.9437 68.1247 84.6404 68.347C84.3418 68.5744 84.0597 68.809 83.7748 69.0588L83.6801 69.1417C83.1296 69.6244 82.2921 69.5693 81.8095 69.0188C81.4212 68.5759 81.3822 67.9456 81.6681 67.4654C81.9717 66.9569 82.3603 66.5004 82.7973 66.1117C83.2348 65.7234 83.7174 65.4058 84.2142 65.1395C85.2139 64.613 86.2758 64.3395 87.3098 64.1661C88.3495 63.9986 89.3796 63.9628 90.3935 64.0067C91.4132 64.0655 92.3935 64.1904 93.3993 64.4591C93.7396 64.55 93.9417 64.8996 93.8509 65.2398C93.7806 65.5029 93.5558 65.6834 93.3002 65.7098L93.2592 65.7139Z" fill="#611940"/>
<path d="M65.9768 63.6883C66.6929 62.6912 66.0492 61.0035 64.539 59.9187C63.0287 58.8339 61.2239 58.7628 60.5077 59.7599C59.7915 60.7569 60.4352 62.4446 61.9455 63.5294C63.4557 64.6142 65.2606 64.6853 65.9768 63.6883Z" fill="white"/>
<path d="M83.5517 63.539C85.0619 62.4542 85.7056 60.7665 84.9895 59.7695C84.2733 58.7724 82.4684 58.8436 80.9582 59.9284C79.4479 61.0132 78.8042 62.7008 79.5204 63.6979C80.2366 64.695 82.0414 64.6238 83.5517 63.539Z" fill="white"/>
<path d="M73.1853 77.9241V81.5853C73.1853 84.1531 70.043 86.2347 66.1668 86.2347C62.2906 86.2347 59.1484 84.1531 59.1484 81.5853" fill="white"/>
<path d="M73.793 77.9241C73.8379 78.848 73.8719 79.7719 73.8931 80.6958L73.9088 81.3887L73.9127 81.5619C73.9132 81.6222 73.9073 81.7009 73.9044 81.7697C73.8954 81.9116 73.8913 82.0551 73.8741 82.1962C73.7802 82.7598 73.5737 83.2924 73.2904 83.7658C72.7059 84.7016 71.8574 85.3731 70.9667 85.8621C70.0676 86.3483 69.0961 86.6406 68.1183 86.8071C67.1384 86.9743 66.1445 86.9951 65.1648 86.8874C64.1863 86.7769 63.2129 86.5513 62.3022 86.1479C61.4 85.7395 60.5368 85.1704 59.9181 84.3614L59.6926 84.0583L59.5058 83.727C59.4757 83.6717 59.4439 83.6182 59.416 83.562L59.344 83.3863C59.2978 83.2689 59.2461 83.1559 59.2144 83.0344C59.0747 82.5522 59.0547 82.0477 59.148 81.5853C59.2721 82.047 59.4406 82.459 59.6818 82.822C59.9369 83.1761 60.2101 83.4987 60.5488 83.7615C61.1947 84.3091 61.9749 84.6842 62.7748 84.9719C63.5793 85.256 64.4284 85.4366 65.289 85.4892C66.1493 85.5416 67.017 85.4892 67.8562 85.335C68.6958 85.1785 69.504 84.897 70.2365 84.5129C70.963 84.1214 71.5899 83.5856 72.0095 82.9643C72.2073 82.6476 72.3435 82.3109 72.4144 81.9633L72.4426 81.6998C72.4468 81.6533 72.4549 81.6171 72.4571 81.562L72.461 81.3887L72.4767 80.6958C72.4979 79.7719 72.532 78.848 72.5768 77.9241L73.793 77.9241Z" fill="#611940"/>
<g opacity="0.3">
<path d="M70.0129 78.7512C70.7101 80.8047 69.6879 83.0711 67.6632 83.8482C66.677 84.2267 65.5468 84.4472 64.428 84.4472C62.0136 84.4472 59.9573 83.4322 59.1777 82.0112C59.5025 84.3793 62.5063 86.2347 66.1656 86.2347C70.0417 86.2347 73.184 84.1531 73.184 81.5853V77.9241L70.0129 78.7512Z" fill="#503B60"/>
<path d="M66.1651 86.3681C62.4453 86.3681 59.3843 84.5028 59.0452 82.0294L58.9473 81.3147L59.2942 81.9473C60.0708 83.3628 62.1337 84.314 64.4275 84.314C65.5067 84.314 66.6089 84.1099 67.6149 83.7239C69.5719 82.9728 70.5696 80.8073 69.8861 78.7941L69.84 78.6585L73.3169 77.7517V81.5854C73.317 84.2225 70.1086 86.3681 66.1651 86.3681ZM59.4886 82.683C60.2467 84.647 62.9976 86.1014 66.1651 86.1014C69.9617 86.1014 73.0503 84.0755 73.0503 81.5853V78.0967L70.1825 78.8447C70.8229 80.9546 69.7577 83.187 67.7105 83.9727C66.6743 84.3703 65.5391 84.5806 64.4276 84.5806C62.3786 84.5807 60.5001 83.8397 59.4886 82.683Z" fill="#611940"/>
</g>
<path d="M79.7442 73.221L79.7432 73.2199C79.0121 72.4845 78.018 72.071 76.9811 72.071H68.1234C67.0855 72.071 66.0906 72.4849 65.3588 73.221C65.0694 73.5122 64.938 73.9292 65.0203 74.3325C65.2867 75.6375 66.564 79.1148 72.5515 79.1148C78.539 79.1148 79.8163 75.6375 80.0827 74.3325C80.1651 73.9292 80.0337 73.5121 79.7442 73.221Z" fill="#611940"/>
<path d="M74.4266 74.9982C76.1141 74.9982 77.4821 74.5992 77.4821 74.107C77.4821 73.6148 76.1141 73.2158 74.4266 73.2158C72.7391 73.2158 71.3711 73.6148 71.3711 74.107C71.3711 74.5992 72.7391 74.9982 74.4266 74.9982Z" fill="white"/>
<path d="M74.4265 75.1201C72.8862 75.1201 71.249 74.765 71.249 74.107C71.249 73.449 72.8862 73.094 74.4265 73.094C75.9668 73.094 77.6038 73.449 77.6038 74.107C77.6038 74.765 75.9668 75.1201 74.4265 75.1201ZM74.4265 73.3378C72.6087 73.3378 71.4927 73.7857 71.4927 74.107C71.4927 74.4283 72.6087 74.8763 74.4265 74.8763C76.2441 74.8763 77.3601 74.4283 77.3601 74.107C77.3601 73.7857 76.2441 73.3378 74.4265 73.3378Z" fill="#611940"/>
<g opacity="0.3">
<path d="M81.8595 84.4473C80.758 84.4473 79.6761 84.236 78.7403 83.8713C76.8402 83.1307 75.7779 81.096 76.1638 79.0935L76.2746 78.5181L73.1035 77.9241V81.5853C73.1035 84.1531 76.2458 86.2347 80.1219 86.2347C81.0379 86.2347 81.9127 86.1184 82.7148 85.907C82.4791 85.4185 82.3258 84.9105 82.2269 84.4376C82.1052 84.4429 81.9832 84.4473 81.8595 84.4473Z" fill="#503B60"/>
<path d="M80.1216 86.3679C76.1781 86.3679 72.9697 84.2224 72.9697 81.5852V77.7634L76.4304 78.4117L76.2943 79.1186C75.9145 81.0892 76.9634 83.0357 78.7883 83.7469C79.8493 84.1605 81.0622 84.3536 82.2208 84.3044L82.3338 84.2996L82.357 84.4103C82.4671 84.9365 82.6278 85.4205 82.8344 85.849L82.9047 85.9947L82.7484 86.0358C81.9125 86.2563 81.0288 86.3679 80.1216 86.3679ZM73.2364 78.0848V81.5852C73.2364 84.0754 76.325 86.1014 80.1216 86.1014C80.95 86.1014 81.7579 86.0059 82.5258 85.8174C82.3564 85.4383 82.2202 85.0217 82.12 84.5753C80.9583 84.6165 79.7524 84.409 78.6914 83.9954C76.7466 83.2374 75.6284 81.1653 76.0324 79.0682L76.1179 78.6245L73.2364 78.0848Z" fill="#611940"/>
</g>
<path d="M84.307 75.905C84.307 75.905 77.2204 86.4706 88.2369 90.0783L84.307 75.905Z" fill="white"/>
<path d="M84.307 75.9048C83.7368 77.2765 83.2684 78.6563 82.9852 80.049C82.7009 81.4356 82.6156 82.842 82.9041 84.1331C83.0547 84.7753 83.2904 85.3853 83.623 85.9399C83.9687 86.4869 84.3967 86.9815 84.8883 87.4227C85.8925 88.2905 87.1289 88.9335 88.4405 89.4561L88.0332 90.7C86.5569 90.3097 85.1036 89.6342 83.8684 88.5886C83.2666 88.05 82.7195 87.4273 82.3103 86.7102C81.9026 85.9933 81.6314 85.2033 81.5038 84.4041C81.371 83.6052 81.3645 82.8 81.4676 82.0226C81.5598 81.2433 81.7627 80.4926 82.0193 79.7735C82.2848 79.0564 82.6099 78.3702 82.9928 77.7222C83.3754 77.0753 83.8003 76.4547 84.307 75.9048Z" fill="#611940"/>
<g opacity="0.3">
<path d="M89.8806 90.3262C89.819 90.3262 89.7567 90.3206 89.6939 90.3089C82.968 89.0568 81.861 83.6643 81.8171 83.4354C81.7119 82.8856 82.0721 82.3547 82.6219 82.2494C83.1693 82.1456 83.6997 82.5024 83.8071 83.0495C83.846 83.2395 84.7488 87.3265 90.065 88.3162C90.6152 88.4186 90.9783 88.9477 90.8758 89.4981C90.7851 89.9856 90.3592 90.3262 89.8806 90.3262Z" fill="#611940"/>
</g>
<path d="M52.1902 105.074C49.6516 111.127 42.6844 113.977 36.6313 111.438C30.5782 108.9 27.7281 101.932 30.2666 95.8793C30.3098 95.7763 30.3552 95.6741 30.4006 95.572C30.4524 95.4545 30.5087 95.3389 30.5671 95.2242C31.7945 93.2564 37.2644 93.5834 43.0939 96.0281C48.9234 98.4729 52.9902 102.145 52.4468 104.4C52.4059 104.522 52.3629 104.643 52.3154 104.763C52.2744 104.867 52.2334 104.97 52.1902 105.074Z" fill="white"/>
<path d="M41.2268 112.503C39.6511 112.503 38.0764 112.189 36.5797 111.561C33.6194 110.319 31.3194 107.999 30.1037 105.027C28.888 102.055 28.9022 98.7879 30.1438 95.8276C30.1863 95.7258 30.2312 95.6249 30.2761 95.5239C30.3315 95.3982 30.3888 95.2804 30.4484 95.1635C31.7212 93.1218 37.2959 93.4516 43.1455 95.905C48.9949 98.3581 53.1375 102.103 52.5765 104.431C52.5316 104.567 52.4877 104.69 52.4393 104.812C52.3982 104.916 52.3567 105.021 52.3131 105.125C51.0716 108.085 48.7512 110.385 45.7792 111.601C44.3098 112.202 42.7678 112.503 41.2268 112.503ZM34.2515 94.0671C32.489 94.0671 31.1953 94.4691 30.6803 95.2947C30.6287 95.3971 30.5735 95.5105 30.5227 95.6256C30.4757 95.7315 30.4315 95.8305 30.3897 95.9306C29.1757 98.8255 29.1618 102.02 30.3505 104.926C31.5393 107.832 33.7881 110.101 36.6828 111.315C39.5774 112.529 42.7721 112.543 45.6783 111.354C48.5843 110.165 50.8532 107.917 52.0673 105.022C52.1102 104.92 52.1508 104.817 52.1914 104.714C52.2383 104.596 52.2803 104.477 52.3204 104.358C52.8485 102.165 48.7745 98.5549 43.0425 96.151C39.7702 94.7787 36.5961 94.0671 34.2515 94.0671Z" fill="#611940"/>
<path d="M47.2273 102.093C47.2195 102.112 47.2105 102.13 47.2016 102.149C46.663 103.205 43.8676 103.06 40.8847 101.809C37.9017 100.558 35.8391 98.6655 36.2151 97.5411C36.2218 97.5219 36.2286 97.5028 36.2364 97.4841C36.2535 97.4434 36.2743 97.4031 36.2986 97.3667C36.9139 96.3802 39.6561 96.5441 42.5787 97.7698C45.5013 98.9955 47.5401 100.837 47.2677 101.967C47.2586 102.01 47.2444 102.053 47.2273 102.093Z" fill="#FFE00A"/>
<path d="M45.3058 103.384C43.9531 103.384 42.2497 102.959 40.6786 102.3C37.7948 101.091 35.1619 99.01 35.7094 97.3718C35.7224 97.3347 35.7327 97.3066 35.7443 97.2788C35.7761 97.203 35.8132 97.1334 35.8549 97.0708C36.728 95.671 40.0045 96.1117 42.785 97.2778C45.4801 98.4081 48.1946 100.397 47.7861 102.092C47.7743 102.149 47.7507 102.225 47.7193 102.3C47.7191 102.3 47.7188 102.301 47.7187 102.301C47.7067 102.329 47.6937 102.357 47.6801 102.384C47.3214 103.087 46.4362 103.384 45.3058 103.384ZM38.137 97.2578C37.3964 97.2578 36.9022 97.4067 36.7511 97.6488C36.7366 97.6709 36.7323 97.6807 36.7283 97.6904L36.718 97.7187C36.5089 98.3444 38.1058 100.065 41.091 101.317C44.0763 102.569 46.4228 102.502 46.7267 101.906L46.7365 101.885C46.7401 101.877 46.7437 101.868 46.7455 101.859C46.9088 101.18 45.3209 99.4979 42.3726 98.2613C40.6606 97.5432 39.1626 97.2578 38.137 97.2578Z" fill="#611940"/>
<path d="M41.227 112.978C39.5892 112.978 37.9522 112.651 36.3965 111.999C33.3192 110.708 30.9285 108.296 29.6647 105.207C28.4009 102.118 28.4158 98.7214 29.7064 95.6442C29.75 95.5397 29.7963 95.4354 29.8427 95.331C29.9011 95.1986 29.9622 95.0729 30.0258 94.948L30.0516 94.9023C31.6755 92.2986 37.9603 93.2155 43.3295 95.4673C48.6984 97.7189 53.7573 101.559 53.0384 104.543L53.0238 104.593C52.9793 104.726 52.9324 104.858 52.8807 104.988C52.8389 105.094 52.7964 105.202 52.7515 105.309H52.7514C51.4609 108.386 49.0487 110.777 45.9594 112.041C44.4318 112.665 42.8289 112.978 41.227 112.978ZM31.0964 95.526C31.0477 95.6222 31.0008 95.7191 30.9574 95.8175C30.9113 95.9211 30.8686 96.0169 30.8282 96.1138C29.6628 98.8922 29.6496 101.958 30.7903 104.746C31.9311 107.535 34.0891 109.712 36.8668 110.877C39.6447 112.042 42.7102 112.056 45.4989 110.915C48.2876 109.774 50.4649 107.616 51.6299 104.838H51.6298C51.6715 104.739 51.7108 104.64 51.7502 104.54C51.7907 104.438 51.8269 104.336 51.8614 104.234C52.2361 102.517 48.7244 99.0486 42.8593 96.5889C36.9937 94.1292 32.0581 94.0555 31.0964 95.526Z" fill="#611940"/>
<path d="M48.5713 106.771C45.9259 106.771 42.5283 105.924 39.4805 104.646C34.0579 102.372 28.8308 98.351 29.8244 95.3791C29.8449 95.321 29.8625 95.272 29.8826 95.2237C29.9345 95.1004 29.9946 94.9874 30.062 94.8865C31.6756 92.2987 37.9605 93.2156 43.3296 95.4674C48.6986 97.719 53.7574 101.559 53.0385 104.543C53.0181 104.642 52.9795 104.765 52.9282 104.887C52.9079 104.936 52.885 104.983 52.8618 105.031C52.2366 106.257 50.6322 106.771 48.5713 106.771ZM34.2601 94.5524C32.6228 94.5524 31.4828 94.906 31.0837 95.546C31.0493 95.5981 31.0254 95.6438 31.0043 95.6941C30.9936 95.7193 30.9845 95.7465 30.9749 95.7736C30.4236 97.4226 33.9724 101.017 39.9508 103.524C45.9293 106.032 50.9803 106.044 51.7743 104.486C51.7826 104.469 51.7954 104.444 51.8063 104.418L51.8064 104.418C51.8276 104.367 51.8433 104.319 51.852 104.276C52.2679 102.549 48.7511 99.0598 42.8594 96.5889C39.4959 95.1783 36.4381 94.5524 34.2601 94.5524Z" fill="#611940"/>
<g opacity="0.3">
<path d="M43.0939 96.0281C42.9533 95.9692 42.8131 95.9125 42.673 95.856C42.6979 95.8669 42.7221 95.8781 42.7469 95.889C42.2403 95.6836 41.7362 95.4907 41.2387 95.3173C44.1917 96.8254 46.1973 98.7253 46.2467 100.079C45.8307 99.748 45.3142 99.44 44.7258 99.1932C43.0445 98.4882 41.4077 98.5352 40.9788 99.2813C40.962 99.3088 40.9471 99.3391 40.9344 99.3694C40.9286 99.3833 40.9234 99.3974 40.9182 99.4116C40.6249 100.242 41.7496 101.478 43.4657 102.198C44.0039 102.424 44.5375 102.572 45.0286 102.645C44.7136 103.065 44.3645 103.451 43.9835 103.797C42.5629 103.462 41.0147 102.96 39.4313 102.296C34.0528 100.04 30.2752 96.7679 30.8798 94.915C30.8904 94.8844 30.901 94.8538 30.9134 94.824C30.7869 94.936 30.6792 95.0588 30.591 95.1922C30.5912 95.1916 30.5914 95.1908 30.5916 95.1901C30.5839 95.2018 30.5745 95.2125 30.5672 95.2242C30.5187 95.2968 30.4772 95.3773 30.4432 95.4584C30.4276 95.4957 30.4141 95.5339 30.4007 95.572C30.3553 95.6742 30.3099 95.7763 30.2666 95.8793C27.7281 101.932 30.5782 108.9 36.6313 111.438C42.6844 113.977 49.6517 111.127 52.1902 105.074C52.2335 104.971 52.2745 104.867 52.3155 104.763C52.3333 104.726 52.3511 104.69 52.3667 104.653C52.4007 104.572 52.4291 104.485 52.4468 104.4C52.9903 102.145 48.9234 98.4728 43.0939 96.0281ZM35.2512 105.301C31.6375 103.786 29.6732 99.9936 30.3209 96.2898C30.4956 98.5588 34.361 101.84 39.715 104.085C40.565 104.441 41.4067 104.751 42.2294 105.017C40.1357 106.101 37.5949 106.284 35.2512 105.301Z" fill="#611940"/>
</g>
<path d="M88.2371 122.822C95.9615 122.822 102.223 117.249 102.223 110.376C102.223 103.502 95.9615 97.9294 88.2371 97.9294C80.5128 97.9294 74.251 103.502 74.251 110.376C74.251 117.249 80.5128 122.822 88.2371 122.822Z" fill="#FFE00A"/>
<path d="M88.2369 123.43C80.1896 123.43 73.6426 117.574 73.6426 110.376C73.6426 103.178 80.1896 97.3215 88.2369 97.3215C96.2842 97.3215 102.831 103.178 102.831 110.376C102.831 117.574 96.2842 123.43 88.2369 123.43ZM88.2369 98.5377C80.8601 98.5377 74.8588 103.848 74.8588 110.376C74.8588 116.903 80.8601 122.214 88.2369 122.214C95.6136 122.214 101.615 116.903 101.615 110.376C101.615 103.848 95.6136 98.5377 88.2369 98.5377Z" fill="#611940"/>
<path d="M88.236 121.037C81.6662 121.037 76.3213 116.255 76.3213 110.376C76.3213 104.497 81.6662 99.7144 88.236 99.7144C94.8059 99.7144 100.151 104.497 100.151 110.376C100.151 116.255 94.8059 121.037 88.236 121.037ZM88.236 100.781C82.2542 100.781 77.3878 105.085 77.3878 110.376C77.3878 115.667 82.2542 119.971 88.236 119.971C94.2178 119.971 99.0843 115.667 99.0843 110.376C99.0843 105.085 94.2178 100.781 88.236 100.781Z" fill="#611940"/>
<path d="M88.2362 118.019C83.5364 118.019 79.7129 114.59 79.7129 110.376C79.7129 106.161 83.5364 102.732 88.2362 102.732C92.936 102.732 96.7595 106.161 96.7595 110.376C96.7595 114.59 92.936 118.019 88.2362 118.019ZM88.2362 103.799C84.1245 103.799 80.7794 106.749 80.7794 110.376C80.7794 114.002 84.1244 116.953 88.2362 116.953C92.3479 116.953 95.6929 114.002 95.6929 110.376C95.6929 106.749 92.3479 103.799 88.2362 103.799Z" fill="#611940"/>
<path d="M88.2366 115.627C85.019 115.627 82.4014 113.271 82.4014 110.376C82.4014 107.48 85.019 105.124 88.2366 105.124C91.4541 105.124 94.0718 107.48 94.0718 110.376C94.0718 113.271 91.4541 115.627 88.2366 115.627ZM88.2366 106.191C85.6071 106.191 83.4679 108.068 83.4679 110.376C83.4679 112.683 85.6071 114.56 88.2366 114.56C90.866 114.56 93.0052 112.683 93.0052 110.376C93.0052 108.068 90.866 106.191 88.2366 106.191Z" fill="#611940"/>
<path d="M88.2369 123.43C80.1896 123.43 73.6426 117.574 73.6426 110.376C73.6426 103.178 80.1896 97.3215 88.2369 97.3215C96.2842 97.3215 102.831 103.178 102.831 110.376C102.831 117.574 96.2842 123.43 88.2369 123.43ZM88.2369 98.5377C80.8601 98.5377 74.8588 103.848 74.8588 110.376C74.8588 116.903 80.8601 122.214 88.2369 122.214C95.6136 122.214 101.615 116.903 101.615 110.376C101.615 103.848 95.6136 98.5377 88.2369 98.5377Z" fill="#611940"/>
<path d="M84.3284 104.017C84.4681 103.107 84.2778 102.233 83.7245 101.611C83.1711 100.99 82.3595 100.738 81.4945 100.834C80.9818 100.258 80.1979 99.9528 79.2646 100.056C78.3314 100.159 77.4253 100.651 76.7149 101.362C75.85 101.458 74.9317 101.901 74.1652 102.668C73.3987 103.436 72.929 104.382 72.7893 105.293C72.0789 106.004 71.5641 106.935 71.4134 107.917C71.2627 108.9 71.5045 109.747 72.0174 110.323C71.8776 111.233 72.0679 112.107 72.6213 112.729C73.1747 113.351 73.9863 113.602 74.8512 113.507C75.3641 114.083 76.1479 114.387 77.0812 114.284C78.0145 114.181 78.9205 113.69 79.6309 112.978C80.4958 112.883 81.4141 112.44 82.1806 111.672C82.9472 110.905 83.4168 109.958 83.5565 109.048C84.2669 108.336 84.7817 107.405 84.9324 106.423C85.083 105.441 84.8412 104.593 84.3284 104.017Z" fill="white"/>
<path d="M76.7234 114.521C75.9476 114.521 75.2655 114.248 74.7655 113.732C73.8371 113.806 73.0209 113.503 72.4597 112.873C71.8997 112.244 71.6633 111.365 71.7893 110.39C71.2592 109.745 71.0498 108.86 71.1995 107.884C71.349 106.911 71.8407 105.956 72.5867 105.19C72.7522 104.219 73.2565 103.272 74.0121 102.515C74.7676 101.758 75.6894 101.278 76.6154 101.156C77.3816 100.41 78.3112 99.9434 79.2409 99.8405C80.1733 99.7373 81 100.009 81.5807 100.608C82.5097 100.534 83.3253 100.837 83.8865 101.467C84.4465 102.096 84.6829 102.975 84.5569 103.95C85.087 104.595 85.2964 105.48 85.1467 106.456C84.9971 107.43 84.5054 108.384 83.7595 109.15C83.594 110.121 83.0897 111.069 82.334 111.825C81.5785 112.582 80.6567 113.062 79.7307 113.184C78.9645 113.93 78.035 114.397 77.1051 114.5C76.9757 114.514 76.8484 114.521 76.7234 114.521ZM74.9388 113.279L75.0132 113.363C75.5002 113.91 76.2258 114.16 77.0575 114.069C77.9115 113.974 78.7711 113.533 79.4779 112.825L79.5316 112.771L79.6072 112.763C80.4611 112.668 81.3207 112.227 82.0275 111.519C82.7365 110.809 83.2037 109.92 83.3424 109.015L83.3533 108.945L83.4034 108.894C84.1124 108.184 84.5794 107.295 84.7183 106.39C84.8542 105.505 84.6583 104.713 84.1668 104.161L84.0991 104.085L84.1144 103.984C84.2504 103.099 84.0544 102.307 83.5628 101.755C83.0758 101.208 82.3493 100.958 81.5186 101.049L81.4074 101.061L81.3329 100.978C80.8456 100.43 80.1182 100.18 79.2885 100.271C78.4346 100.366 77.5751 100.808 76.8683 101.515L76.8145 101.569L76.7389 101.577C75.885 101.672 75.0255 102.113 74.3186 102.821C73.6095 103.531 73.1425 104.421 73.0037 105.326L72.9929 105.396L72.9427 105.446C72.2336 106.156 71.7666 107.045 71.6278 107.95C71.4919 108.835 71.6878 109.627 72.1793 110.179L72.247 110.255L72.2317 110.356C72.0958 111.241 72.2917 112.033 72.7833 112.585C73.2705 113.132 73.9964 113.383 74.8276 113.291L74.9388 113.279Z" fill="#611940"/>
<path d="M76.7354 115.011C75.9104 115.011 75.154 114.738 74.5797 114.233C73.5917 114.245 72.7032 113.885 72.0928 113.199C71.4769 112.507 71.1934 111.57 71.2802 110.532C70.7559 109.798 70.5553 108.845 70.7142 107.81C70.8717 106.782 71.3722 105.777 72.1307 104.957C72.3375 103.94 72.8764 102.957 73.6646 102.168C74.453 101.379 75.4119 100.862 76.3894 100.694C77.2111 99.936 78.196 99.4623 79.1867 99.3528C80.1733 99.2433 81.0948 99.5166 81.766 100.108C82.7429 100.085 83.6424 100.455 84.253 101.141C84.8689 101.833 85.1523 102.771 85.0655 103.808C85.5898 104.542 85.7904 105.495 85.6316 106.53C85.4738 107.558 84.9735 108.563 84.2151 109.383C84.0082 110.4 83.4692 111.383 82.6811 112.172C81.8928 112.961 80.9338 113.479 79.9564 113.646C79.1347 114.404 78.1496 114.878 77.1588 114.987C77.0163 115.003 76.8747 115.011 76.7354 115.011ZM75.1367 112.763L75.3797 113.036C75.7583 113.461 76.3355 113.655 77.0034 113.581C77.7468 113.499 78.5021 113.107 79.1303 112.478L79.3061 112.302L79.5532 112.275C80.2965 112.193 81.0518 111.801 81.68 111.172C82.316 110.535 82.7341 109.743 82.8572 108.94L82.8922 108.711L83.0559 108.548C83.6918 107.911 84.1098 107.118 84.2331 106.316C84.3464 105.578 84.1925 104.928 83.8001 104.487L83.5788 104.239L83.6293 103.91C83.7424 103.172 83.5886 102.523 83.1961 102.082C82.8175 101.656 82.2402 101.463 81.5724 101.537L81.2091 101.577L80.9662 101.304C80.5875 100.879 80.0103 100.686 79.3422 100.759C78.5989 100.842 77.8436 101.233 77.2154 101.862L77.0397 102.038L76.7925 102.065C76.0493 102.147 75.2939 102.539 74.6657 103.168C74.0298 103.805 73.6117 104.598 73.4885 105.4L73.4535 105.629L73.2899 105.793C72.6539 106.43 72.2358 107.222 72.1128 108.025C71.9994 108.763 72.1532 109.412 72.5457 109.853L72.767 110.101L72.7165 110.43C72.6033 111.168 72.7571 111.818 73.1497 112.259C73.5281 112.684 74.1046 112.877 74.7734 112.803L75.1367 112.763Z" fill="#611940"/>
<path d="M81.7793 103.577C80.5526 103.205 79.2518 103.258 78.1497 103.731C77.5884 103.953 77.1021 104.33 76.6496 104.73C76.4419 104.956 76.2106 105.154 76.0338 105.41L75.7511 105.775C75.6565 105.896 75.5863 106.027 75.5021 106.152C75.1937 106.665 75.002 107.23 74.9456 107.796C74.9287 108.079 74.9381 108.361 74.992 108.634C75.0503 108.906 75.1445 109.167 75.2752 109.408C75.5441 109.883 75.9603 110.272 76.4534 110.474C76.945 110.68 77.4956 110.701 78.0088 110.544C79.0503 110.249 79.8857 109.248 80.4367 108.215C80.6961 107.699 80.861 107.147 80.7926 106.671C80.7285 106.2 80.4237 105.82 79.9585 105.638C79.5007 105.448 78.9335 105.476 78.4558 105.681C78.214 105.787 77.9974 105.927 77.8026 106.124L77.6514 106.264L77.5275 106.419C77.4318 106.517 77.3821 106.633 77.3122 106.742C77.208 106.967 77.1188 107.209 77.1342 107.454C77.1402 107.698 77.2133 107.943 77.357 108.152C77.4988 108.362 77.7198 108.529 77.9908 108.594C78.2624 108.658 78.5701 108.623 78.8839 108.52L78.8856 108.52C78.8986 108.515 78.9127 108.522 78.9169 108.535C78.9201 108.545 78.917 108.555 78.9101 108.562C78.6656 108.784 78.3391 108.965 77.9594 108.982C77.5791 109.012 77.1867 108.848 76.8939 108.584C76.598 108.317 76.4054 107.942 76.3329 107.544C76.2542 107.142 76.3375 106.734 76.4742 106.366C76.5577 106.19 76.6376 106.006 76.7558 105.858C76.8108 105.779 76.8663 105.701 76.9244 105.625L77.1197 105.424C77.3683 105.149 77.7041 104.926 78.0518 104.768C78.7547 104.456 79.5799 104.39 80.3321 104.679C80.7044 104.824 81.0636 105.053 81.3313 105.38C81.6017 105.703 81.7765 106.107 81.8394 106.51C81.9631 107.329 81.7123 108.075 81.39 108.702C81.3125 108.865 81.2155 109.01 81.1285 109.164C81.0309 109.307 80.9377 109.456 80.835 109.594C80.6325 109.868 80.412 110.147 80.1573 110.399C79.6554 110.905 79.0311 111.34 78.2966 111.545C77.5686 111.76 76.7502 111.701 76.0549 111.386C75.3549 111.075 74.7914 110.514 74.4434 109.854C74.273 109.521 74.1557 109.165 74.0891 108.801C74.0259 108.436 74.0268 108.066 74.0626 107.705C74.1573 106.984 74.4243 106.305 74.8027 105.721C74.903 105.58 74.9941 105.428 75.1028 105.297L75.4282 104.905C75.6319 104.634 75.8999 104.412 76.1413 104.171C76.6667 103.734 77.2383 103.323 77.902 103.102C79.2098 102.63 80.704 102.766 81.8302 103.48C81.8558 103.496 81.8634 103.53 81.8472 103.556C81.8336 103.577 81.8079 103.586 81.7848 103.579L81.7793 103.577Z" fill="#FA5C98"/>
<path d="M62.8857 109.957C62.8857 109.957 65.5253 106.485 64.5891 105.295C63.6528 104.105 63.0828 103.561 63.7207 101.863C64.3585 100.165 60.5205 94.3231 56.2649 93.8668C52.0093 93.4105 51.477 95.5281 52.1442 98.9295C52.8113 102.331 50.0793 105.357 52.5843 107.641C55.0894 109.926 60.7806 112.517 62.8857 109.957Z" fill="#E52828"/>
<g opacity="0.3">
<path d="M62.8857 109.957C62.8857 109.957 65.5253 106.485 64.5891 105.295C63.6528 104.105 63.0828 103.561 63.7207 101.863C64.3585 100.165 60.5205 94.3231 56.2649 93.8668C52.0093 93.4105 51.477 95.5281 52.1442 98.9295C52.8113 102.331 50.0793 105.357 52.5843 107.641C55.0894 109.926 60.7806 112.517 62.8857 109.957Z" fill="#611940"/>
</g>
<path d="M60.2776 111.625C57.6219 111.625 54.1373 109.881 52.1743 108.09C50.4288 106.499 50.8502 104.588 51.2576 102.74C51.5213 101.543 51.7942 100.306 51.5471 99.0463C51.2345 97.453 51.018 95.4689 52.1274 94.2588C52.9402 93.3719 54.3145 93.0454 56.3293 93.2619C59.3269 93.5833 61.9559 96.2371 63.2964 98.4122C63.739 99.1304 64.7218 100.925 64.2893 102.077C63.814 103.342 64.0846 103.683 64.8875 104.693L65.0666 104.919C66.2051 106.366 64.0552 109.422 63.3693 110.325L63.3549 110.343C62.7306 111.102 61.8307 111.529 60.6804 111.611C60.5485 111.62 60.4142 111.625 60.2776 111.625ZM55.2037 94.4136C54.1617 94.4136 53.4307 94.6367 53.0239 95.0805C52.4533 95.7029 52.3632 96.8888 52.7405 98.8122C53.0364 100.321 52.7224 101.745 52.4452 103.002C52.0127 104.964 51.8249 106.126 52.9937 107.192C54.8275 108.864 58.2537 110.564 60.5936 110.398C61.3937 110.341 62.0043 110.065 62.4084 109.579C63.5163 108.117 64.4784 106.138 64.1108 105.671L63.9354 105.449C63.0962 104.394 62.4334 103.56 63.1509 101.649C63.2593 101.36 63.1117 100.43 62.2611 99.0502C60.9704 96.9561 58.5956 94.7281 56.1997 94.4711C55.8412 94.4327 55.5091 94.4136 55.2037 94.4136Z" fill="#611940"/>
<path d="M64.8864 108.703C64.8864 108.703 67.3821 105.528 66.4235 104.385C65.465 103.241 64.8868 102.714 65.4638 101.141C66.0408 99.568 62.0821 93.9756 57.8752 93.4188C53.6682 92.862 53.208 94.831 53.9684 98.04C54.7288 101.249 52.1286 104.003 54.6662 106.22C57.2037 108.438 62.8899 111.039 64.8864 108.703Z" fill="#E52828"/>
<g opacity="0.6">
<path d="M66.2635 104.83C66.6369 105.275 66.4494 106.05 66.104 106.803C66.5618 105.908 66.8743 104.922 66.4238 104.385C65.7234 103.549 65.2285 103.041 65.2365 102.215C64.9433 103.371 65.4586 103.869 66.2635 104.83Z" fill="white"/>
<path d="M55.2667 106.546C52.8936 104.472 55.3253 101.897 54.6142 98.896C53.903 95.895 54.3334 94.0535 58.2678 94.5742C61.8416 95.0472 65.2231 99.4053 65.4086 101.303C65.4263 101.249 65.4422 101.197 65.4628 101.141C66.0398 99.568 62.0811 93.9756 57.8742 93.4188C53.6672 92.862 53.207 94.831 53.9674 98.04C54.7279 101.249 52.1276 104.003 54.6652 106.22C55.5532 106.996 56.8271 107.819 58.1932 108.461C57.0585 107.891 56.0158 107.201 55.2667 106.546Z" fill="white"/>
</g>
<path d="M62.5001 110.229C59.6274 110.229 56.0082 108.201 54.2657 106.678C52.4955 105.131 52.8554 103.339 53.2035 101.607C53.4256 100.501 53.6554 99.3569 53.3766 98.1804C53.023 96.6881 52.7488 94.8292 53.7764 93.6923C54.5524 92.8334 55.9187 92.5463 57.9548 92.816C60.9182 93.2082 63.7965 95.9147 65.2167 98.2635C65.7704 99.1793 66.3617 100.458 66.0346 101.35C65.6168 102.489 65.8913 102.814 66.7064 103.777L66.8895 103.994C68.0731 105.407 66.0215 108.243 65.3644 109.079L65.3486 109.098C64.7806 109.763 63.9615 110.139 62.9138 110.215C62.7779 110.225 62.6398 110.229 62.5001 110.229ZM56.5833 93.933C55.6627 93.933 55.0244 94.1252 54.6786 94.5076C54.1799 95.0594 54.1423 96.1374 54.56 97.8999C54.9002 99.3354 54.6322 100.669 54.3958 101.846C54.0324 103.656 53.8843 104.73 55.0662 105.762C57.0067 107.458 60.5872 109.165 62.8254 109.002C63.5318 108.95 64.0668 108.72 64.4163 108.317C65.446 107.001 66.3224 105.211 65.9572 104.775L65.7779 104.563C64.9138 103.542 64.2312 102.735 64.8928 100.932C64.971 100.718 64.8447 99.999 64.1759 98.8929C62.9012 96.7848 60.3608 94.3613 57.7951 94.0216C57.3483 93.9625 56.9441 93.933 56.5833 93.933Z" fill="#611940"/>
<g opacity="0.4">
<path d="M62.4038 98.3737C62.4038 98.3737 62.0155 97.3995 61.0692 97.3752C60.1228 97.3509 58.9337 99.4379 59.6617 100.263C60.3897 101.088 60.8993 101.088 61.4332 102.981C61.967 104.874 63.9571 103.927 63.8235 102.981C63.6899 102.034 62.0884 99.3236 62.4038 98.3737Z" fill="white"/>
</g>
<g opacity="0.4">
<path d="M58.2463 97.3749C58.2463 97.3749 57.3404 99.6481 58.2463 100.505C59.1523 101.363 60.2166 101.913 60.2426 103.515C60.2685 105.116 61.1421 104.793 61.3039 105.796C61.4657 106.799 59.1361 107.187 57.3727 105.181C55.6093 103.175 55.5446 101.93 56.1109 100.724C56.6771 99.5186 56.8065 98.645 56.6286 97.5126C56.4506 96.3802 58.5537 96.3069 58.2463 97.3749Z" fill="white"/>
</g>
<g opacity="0.3">
<path d="M66.0816 103.98C65.6981 104.614 65.3214 105.094 65.3214 105.094C64.65 105.879 63.5098 106.037 62.2292 105.824C60.12 105.472 57.6298 104.112 56.2244 102.884C53.9657 100.91 56.2802 98.459 55.6033 95.6027C55.4115 94.7934 55.3073 94.073 55.3411 93.467C53.514 93.9518 53.4025 95.6522 53.9684 98.0402C54.7288 101.249 52.1286 104.003 54.6662 106.22C56.2451 107.6 59.0428 109.128 61.4124 109.523C62.8511 109.763 64.1322 109.586 64.8864 108.703C64.8864 108.703 67.382 105.529 66.4235 104.385C66.303 104.241 66.1886 104.107 66.0816 103.98Z" fill="#611940"/>
</g>
<path d="M58.5124 108.787C58.5124 108.787 59.4274 105.249 58.3184 104.633C57.2094 104.016 56.5926 103.781 56.5352 102.261C56.4779 100.742 51.6192 97.4712 48.1824 98.4974C44.7457 99.5236 45.0205 101.333 46.6381 103.745C48.2558 106.158 47.1247 109.381 49.8009 110.335C52.4772 111.289 57.7149 111.447 58.5124 108.787Z" fill="#E52828"/>
<path d="M53.7458 111.575C52.272 111.575 50.7571 111.322 49.5959 110.908C47.6777 110.224 47.379 108.583 47.0903 106.995C46.9083 105.995 46.7201 104.961 46.1323 104.084C45.3616 102.935 44.5385 101.444 45.0186 100.108C45.3709 99.1275 46.3487 98.4101 48.0077 97.9147C50.4628 97.1826 53.3872 98.3925 55.1458 99.6517C55.8745 100.174 57.103 101.203 57.1421 102.239C57.1827 103.315 57.4652 103.47 58.401 103.984L58.6128 104.101C60.0236 104.885 59.3425 108.003 59.1003 108.939L59.094 108.962C58.8495 109.777 58.2756 110.419 57.3883 110.868C56.4109 111.363 55.0957 111.575 53.7458 111.575ZM49.5964 98.9103C49.1651 98.9103 48.7474 98.9631 48.3556 99.0801C47.1103 99.4519 46.3728 99.9361 46.1633 100.519C45.9355 101.153 46.2465 102.07 47.1423 103.407C47.8714 104.494 48.0921 105.707 48.2868 106.777C48.5816 108.398 48.8067 109.335 50.0042 109.762C51.9446 110.454 55.1093 110.658 56.839 109.783C57.413 109.492 57.7787 109.102 57.9259 108.623C58.3244 107.07 58.3724 105.359 58.0223 105.164L57.8156 105.05C56.7975 104.491 55.9934 104.05 55.9269 102.285C55.9182 102.055 55.5063 101.406 54.4378 100.641C53.1225 99.6986 51.2602 98.9103 49.5964 98.9103Z" fill="#611940"/>
<path d="M60.1428 106.969C60.1428 106.969 61.0429 103.707 59.9315 103.133C58.8201 102.56 58.2025 102.34 58.1388 100.938C58.0751 99.535 53.2038 96.4956 49.7721 97.4284C46.3405 98.3611 46.6228 100.032 48.2502 102.266C49.8776 104.499 48.7602 107.47 51.4398 108.361C54.1194 109.253 59.3567 109.421 60.1428 106.969Z" fill="#E52828"/>
<path d="M55.4932 109.572C53.9031 109.572 52.3099 109.291 51.2492 108.938C49.3256 108.298 49.0037 106.7 48.7194 105.289C48.5348 104.373 48.344 103.425 47.76 102.624C46.989 101.565 46.1606 100.19 46.6015 98.9348C46.9347 97.9866 47.9201 97.3019 49.614 96.8416C52.0624 96.1762 55.198 97.3456 57.0749 98.714C57.8171 99.255 58.7097 100.075 58.7478 100.91C58.7912 101.868 59.0472 101.999 59.9995 102.484L60.2117 102.593C61.6499 103.335 60.9723 106.254 60.7303 107.131L60.7232 107.155C60.4912 107.878 59.9633 108.453 59.1542 108.864C58.1442 109.377 56.8198 109.572 55.4932 109.572ZM51.1438 97.8652C50.7199 97.8652 50.312 97.9122 49.933 98.0152C48.6717 98.358 47.9369 98.8031 47.749 99.3381C47.5567 99.8851 47.8819 100.726 48.743 101.907C49.4837 102.924 49.7111 104.053 49.9118 105.049C50.21 106.529 50.437 107.386 51.6333 107.784C53.6634 108.46 56.9489 108.619 58.6038 107.78C59.1079 107.524 59.43 107.192 59.5615 106.794C59.945 105.391 59.9912 103.848 59.6541 103.674L59.447 103.568C58.4198 103.044 57.6084 102.63 57.5328 100.965C57.5264 100.826 57.2312 100.333 56.3585 99.6967C54.9838 98.6945 52.9234 97.8652 51.1438 97.8652Z" fill="#611940"/>
<g opacity="0.4">
<path d="M52.7619 99.2715C52.7619 99.2715 55.6322 99.9471 56.1051 101.298C56.5781 102.65 57.0848 103.089 57.9632 103.697C58.8415 104.305 58.1321 106.1 56.6119 105.321C55.0916 104.542 55.0578 102.262 53.3349 101.172C51.612 100.082 52.02 99.3052 52.7619 99.2715Z" fill="white"/>
</g>
<g opacity="0.4">
<path d="M51.0413 100.601C51.0413 100.601 52.7304 101.492 53.2034 102.681C53.6763 103.87 53.5412 104.782 54.4871 105.694C55.433 106.606 52.476 107.451 51.5053 106.032C50.5345 104.613 51.6155 104.529 50.5345 103.051C49.4535 101.573 50.0596 99.9451 51.0413 100.601Z" fill="white"/>
</g>
<path d="M51.5057 103.997C52.2166 103.645 52.5835 102.937 52.3252 102.414C52.0669 101.891 51.2812 101.752 50.5704 102.104C49.8595 102.455 49.4926 103.163 49.7509 103.686C50.0092 104.209 50.7948 104.348 51.5057 103.997Z" fill="#65BE67"/>
<path d="M50.7077 104.727C50.0822 104.727 49.5327 104.443 49.2757 103.923C49.0767 103.52 49.0952 103.033 49.3265 102.586C49.5332 102.187 49.8922 101.846 50.3372 101.626C51.3272 101.136 52.4117 101.379 52.8063 102.178C53.201 102.977 52.7348 103.986 51.745 104.475C51.3997 104.646 51.0427 104.727 50.7077 104.727ZM51.3709 102.443C51.201 102.443 51.005 102.485 50.8097 102.582C50.5704 102.7 50.3751 102.88 50.2737 103.076C50.2303 103.16 50.1673 103.32 50.2319 103.45C50.3411 103.671 50.8096 103.747 51.2724 103.519C51.7356 103.29 51.9594 102.872 51.8502 102.651C51.787 102.523 51.6037 102.443 51.3709 102.443Z" fill="#611940"/>
<path d="M61.0578 106.114C61.3965 105.639 61.1479 104.881 60.5025 104.42C59.8571 103.96 59.0594 103.971 58.7207 104.445C58.382 104.92 58.6306 105.678 59.276 106.139C59.9214 106.599 60.7191 106.588 61.0578 106.114Z" fill="#65BE67"/>
<path d="M60.2732 107.011C59.8319 107.011 59.3724 106.856 58.9763 106.573C58.5723 106.285 58.2728 105.891 58.1327 105.464C57.976 104.986 58.0357 104.502 58.2967 104.136V104.136C58.5579 103.77 58.9961 103.556 59.4993 103.549C59.939 103.539 60.4186 103.698 60.8226 103.987C61.2266 104.275 61.5261 104.669 61.6662 105.096C61.8231 105.574 61.7632 106.058 61.5022 106.424C61.241 106.79 60.8028 107.003 60.2996 107.011C60.2909 107.011 60.282 107.011 60.2732 107.011ZM59.1649 104.756C59.0801 104.874 59.1168 105.042 59.1461 105.132C59.2148 105.341 59.3787 105.55 59.5959 105.705C59.8093 105.857 60.0555 105.944 60.2731 105.944C60.2769 105.944 60.2807 105.944 60.2846 105.944C60.3787 105.943 60.5494 105.923 60.6341 105.804C60.7188 105.686 60.6821 105.518 60.6528 105.428C60.5841 105.219 60.4202 105.01 60.203 104.855C59.9859 104.7 59.7454 104.613 59.5143 104.616C59.4201 104.617 59.2495 104.637 59.1649 104.756Z" fill="#611940"/>
<path d="M78.6189 97.5332C79.1509 96.7877 79.059 95.81 78.4137 95.3493C77.7683 94.8887 76.8138 95.1196 76.2817 95.8651C75.7497 96.6105 75.8415 97.5883 76.4869 98.0489C77.1323 98.5095 78.0868 98.2786 78.6189 97.5332Z" fill="#65BE67"/>
<path d="M77.2491 98.8954C76.849 98.8954 76.468 98.7762 76.143 98.5443C75.6851 98.2174 75.4023 97.712 75.3467 97.1211C75.2942 96.5631 75.4538 95.9917 75.7961 95.5121C76.5222 94.495 77.8593 94.2002 78.7765 94.8546C79.6938 95.5095 79.8494 96.8697 79.1235 97.8869C78.7812 98.3665 78.2927 98.7032 77.7478 98.835C77.5801 98.8754 77.413 98.8954 77.2491 98.8954ZM77.6629 95.7188C77.3529 95.7188 77.0143 95.8988 76.7861 96.2187C76.6136 96.4602 76.5325 96.7402 76.5576 97.0073C76.5796 97.2414 76.6832 97.4358 76.8495 97.5544C77.0159 97.6732 77.2332 97.7083 77.4619 97.6528C77.7226 97.5898 77.961 97.422 78.1334 97.1804C78.4699 96.7091 78.4414 96.1097 78.0699 95.8445C77.9505 95.7593 77.8098 95.7188 77.6629 95.7188Z" fill="#611940"/>
<path d="M92.1001 104.286C92.3679 103.656 91.9016 102.855 91.0586 102.496C90.2156 102.138 89.3151 102.359 89.0473 102.989C88.7796 103.619 89.2459 104.42 90.0889 104.778C90.9319 105.137 91.8324 104.916 92.1001 104.286Z" fill="#65BE67"/>
<path d="M90.9042 105.561C90.5609 105.561 90.1986 105.489 89.8421 105.337C89.3143 105.113 88.8791 104.742 88.6169 104.291C88.3256 103.791 88.2752 103.229 88.4786 102.75C88.6819 102.272 89.121 101.918 89.6835 101.781C90.1895 101.657 90.7595 101.712 91.2872 101.936C92.4568 102.433 93.0558 103.569 92.6507 104.523C92.3689 105.186 91.6867 105.561 90.9042 105.561ZM90.2318 102.932C90.1413 102.932 90.054 102.942 89.9728 102.962C89.8633 102.989 89.669 103.059 89.5979 103.226C89.5268 103.393 89.6113 103.582 89.6679 103.679C89.7972 103.901 90.0339 104.098 90.3175 104.218C90.871 104.453 91.4147 104.322 91.5312 104.048C91.6477 103.773 91.3647 103.291 90.8115 103.056C90.6204 102.974 90.4192 102.932 90.2318 102.932Z" fill="#611940"/>
<path d="M55.6375 121.006C61.8505 121.006 66.8872 116.58 66.8872 111.12C66.8872 105.661 61.8505 101.235 55.6375 101.235C49.4244 101.235 44.3877 105.661 44.3877 111.12C44.3877 116.58 49.4244 121.006 55.6375 121.006Z" fill="#FFE00A"/>
<path d="M55.6371 121.614C49.0987 121.614 43.7793 116.906 43.7793 111.12C43.7793 105.334 49.0987 100.626 55.6371 100.626C62.1756 100.626 67.495 105.334 67.495 111.12C67.495 116.906 62.1756 121.614 55.6371 121.614ZM55.6371 101.843C49.7692 101.843 44.9955 106.004 44.9955 111.12C44.9955 116.236 49.7692 120.397 55.6371 120.397C61.505 120.397 66.2788 116.236 66.2788 111.12C66.2787 106.005 61.505 101.843 55.6371 101.843Z" fill="#611940"/>
<path d="M55.6362 119.698C50.2943 119.698 45.9482 115.85 45.9482 111.12C45.9482 106.39 50.2943 102.542 55.6362 102.542C60.9781 102.542 65.3241 106.39 65.3241 111.12C65.3241 115.85 60.9781 119.698 55.6362 119.698ZM55.6362 103.609C50.8823 103.609 47.0148 106.979 47.0148 111.12C47.0148 115.262 50.8824 118.631 55.6362 118.631C60.39 118.631 64.2576 115.262 64.2576 111.12C64.2576 106.979 60.39 103.609 55.6362 103.609Z" fill="#611940"/>
<path d="M55.6367 117.301C51.799 117.301 48.6768 114.528 48.6768 111.12C48.6768 107.712 51.799 104.939 55.6367 104.939C59.4745 104.939 62.5967 107.712 62.5967 111.12C62.5967 114.528 59.4744 117.301 55.6367 117.301ZM55.6367 106.006C52.3871 106.006 49.7433 108.3 49.7433 111.12C49.7433 113.94 52.3871 116.234 55.6367 116.234C58.8864 116.234 61.5302 113.94 61.5302 111.12C61.5302 108.3 58.8864 106.006 55.6367 106.006Z" fill="#611940"/>
<path d="M55.6367 115.401C52.9912 115.401 50.8389 113.48 50.8389 111.12C50.8389 108.76 52.9912 106.839 55.6367 106.839C58.2822 106.839 60.4346 108.76 60.4346 111.12C60.4346 113.48 58.2822 115.401 55.6367 115.401ZM55.6367 107.906C53.5793 107.906 51.9054 109.348 51.9054 111.12C51.9054 112.892 53.5793 114.334 55.6367 114.334C57.6941 114.334 59.368 112.892 59.368 111.12C59.368 109.348 57.6941 107.906 55.6367 107.906Z" fill="#611940"/>
<path d="M55.6371 121.614C49.0987 121.614 43.7793 116.906 43.7793 111.12C43.7793 105.334 49.0987 100.626 55.6371 100.626C62.1756 100.626 67.495 105.334 67.495 111.12C67.495 116.906 62.1756 121.614 55.6371 121.614ZM55.6371 101.843C49.7692 101.843 44.9955 106.004 44.9955 111.12C44.9955 116.236 49.7692 120.397 55.6371 120.397C61.505 120.397 66.2788 116.236 66.2788 111.12C66.2787 106.005 61.505 101.843 55.6371 101.843Z" fill="#611940"/>
<path d="M115.814 110.012C115.712 108.682 114.607 107.653 113.272 107.653H79.5879H65.8583H59.5884H32.174C30.8395 107.653 29.7344 108.682 29.6326 110.012C29.0724 117.333 29.7658 139.736 57.4686 149.14C57.7323 149.229 58.0108 149.274 58.2893 149.274H59.5884H65.8583H79.5879H87.1571C87.4356 149.274 87.714 149.229 87.9778 149.14C115.68 139.736 116.374 117.333 115.814 110.012Z" fill="#F43F08"/>
<g opacity="0.3">
<path d="M115.814 110.012C115.712 108.682 114.607 107.653 113.272 107.653H99.4695C98.8221 128.164 81.9936 144.593 61.3258 144.593C52.5133 144.593 44.3996 141.605 37.9395 136.588C42.1244 141.515 48.3243 146.036 57.4686 149.14C57.7323 149.229 58.0108 149.274 58.2892 149.274H59.5884H65.8583H79.5879H87.157C87.4355 149.274 87.714 149.229 87.9777 149.14C115.68 139.736 116.374 117.333 115.814 110.012Z" fill="#611940"/>
</g>
<g opacity="0.6">
<path d="M115.813 110.012C115.712 108.682 114.606 107.653 113.272 107.653H79.5875H65.8579H59.588H32.1736C30.8391 107.653 29.7339 108.682 29.6321 110.012C29.555 111.021 29.5021 112.316 29.5398 113.823C29.5573 113.136 29.5911 112.517 29.6321 111.98C29.7339 110.65 30.8391 109.621 32.1736 109.621H59.588H63.567C63.403 109.834 63.315 110.058 63.315 110.288C63.315 111.744 66.7927 112.923 71.0826 112.923C75.3725 112.923 78.8502 111.744 78.8502 110.288C78.8502 110.058 78.7623 109.834 78.5984 109.621H79.5875H113.272C114.606 109.621 115.712 110.65 115.813 111.98C115.854 112.517 115.888 113.136 115.906 113.823C115.943 112.316 115.89 111.021 115.813 110.012Z" fill="white"/>
</g>
<path d="M87.1565 150.074H58.2888C57.9188 150.074 57.5562 150.014 57.2108 149.897C45.1174 145.792 36.7112 138.805 32.2257 129.132C28.5969 121.305 28.5433 113.755 28.8345 109.951C28.9674 108.214 30.434 106.854 32.1735 106.854H113.272C115.011 106.854 116.478 108.214 116.611 109.951C116.902 113.755 116.848 121.305 113.22 129.132C108.734 138.805 100.328 145.792 88.2343 149.897C87.8891 150.014 87.5265 150.074 87.1565 150.074ZM32.1735 108.453C31.2651 108.453 30.4991 109.165 30.4296 110.074C29.9214 116.714 30.388 139.103 57.7252 148.382C57.9046 148.443 58.0941 148.474 58.2888 148.474H87.1565C87.3511 148.474 87.5407 148.443 87.7199 148.382C115.057 139.102 115.524 116.714 115.016 110.074C114.946 109.165 114.18 108.453 113.272 108.453H32.1735Z" fill="#611940"/>
<path d="M32.408 112.379C31.917 116.952 30.7952 120.582 27.469 120.225C24.1429 119.868 21.8446 115.871 22.3356 111.298C22.8266 106.725 25.9211 103.307 29.2472 103.664C32.5733 104.021 32.899 107.806 32.408 112.379Z" fill="white"/>
<path d="M27.9025 120.391C27.7563 120.391 27.607 120.383 27.4542 120.366C24.0555 120.001 21.6959 115.926 22.1944 111.283C22.6932 106.639 25.8629 103.16 29.2628 103.523C32.9778 103.922 32.9709 108.473 32.5499 112.395C32.262 115.075 31.8101 116.926 31.1279 118.217C30.3651 119.661 29.2815 120.391 27.9025 120.391ZM28.7706 103.781C25.7066 103.781 22.9363 107.039 22.4774 111.313C21.9955 115.801 24.2418 119.735 27.4846 120.083C28.9721 120.243 30.0815 119.589 30.8762 118.085C31.5411 116.826 31.9829 115.008 32.2668 112.364C32.8712 106.735 31.9355 104.096 29.2323 103.806C29.078 103.789 28.9237 103.781 28.7706 103.781Z" fill="#611940"/>
<g opacity="0.3">
<path d="M29.2475 103.664C29.016 103.639 28.7859 103.635 28.5574 103.645C30.7182 104.35 30.8438 107.907 30.387 112.162C29.9301 116.417 29.0522 119.867 26.791 120.097C27.0119 120.156 27.2379 120.2 27.4694 120.225C30.7955 120.582 31.9173 116.952 32.4083 112.379C32.8993 107.806 32.5736 104.021 29.2475 103.664Z" fill="#503B60"/>
<path d="M27.9026 120.391C27.7563 120.391 27.607 120.383 27.4542 120.367C27.2264 120.342 26.9908 120.298 26.7544 120.234L26.0049 120.034L26.7767 119.955C28.616 119.768 29.6858 117.36 30.2455 112.147C30.8053 106.934 30.2711 104.354 28.5133 103.781L27.7753 103.54L28.5507 103.503C28.7947 103.492 29.0344 103.498 29.2627 103.523H29.2628C32.9779 103.922 32.9709 108.474 32.5499 112.395C32.2621 115.075 31.8102 116.926 31.128 118.217C30.3651 119.662 29.2815 120.391 27.9026 120.391ZM27.4465 120.079C27.4593 120.081 27.4719 120.082 27.4846 120.084C28.9722 120.243 30.0816 119.589 30.8763 118.085C31.5411 116.826 31.983 115.008 32.2669 112.364C32.8713 106.736 31.9355 104.096 29.2324 103.806C29.2197 103.804 29.207 103.803 29.1942 103.802C31.0233 105.059 30.8823 108.883 30.5286 112.178C30.1746 115.473 29.5006 119.239 27.4465 120.079Z" fill="#611940"/>
</g>
<path d="M27.9188 120.899C27.7499 120.899 27.5772 120.889 27.4006 120.87C23.724 120.475 21.1627 116.15 21.6912 111.229C22.2196 106.307 25.6411 102.622 29.3173 103.019C33.4789 103.466 33.5003 108.293 33.054 112.449C32.7591 115.195 32.2897 117.104 31.5763 118.454C30.7185 120.078 29.4897 120.899 27.9188 120.899ZM28.767 104.287C25.9603 104.287 23.4127 107.353 22.9815 111.367C22.5297 115.577 24.574 119.261 27.539 119.58C28.8144 119.717 29.7323 119.166 30.4286 117.848C31.0538 116.664 31.4905 114.853 31.7635 112.31C32.3305 107.03 31.5334 104.562 29.1787 104.309C29.0411 104.295 28.9036 104.287 28.767 104.287Z" fill="#611940"/>
<path d="M32.8514 109.14C32.7632 109.173 32.717 109.183 32.6552 109.198C32.5969 109.213 32.54 109.225 32.4842 109.234C32.3717 109.257 32.2615 109.268 32.1515 109.282C31.9318 109.301 31.715 109.31 31.5005 109.298C31.0722 109.278 30.6553 109.205 30.2619 109.08C29.8711 108.947 29.4968 108.79 29.1603 108.575C28.9857 108.481 28.8323 108.351 28.6716 108.243C28.5166 108.123 28.3724 107.991 28.2256 107.868C28.4032 107.947 28.5744 108.032 28.7513 108.101C28.9336 108.16 29.1045 108.238 29.2893 108.277C29.6476 108.383 30.0175 108.423 30.3743 108.441C30.7334 108.45 31.086 108.408 31.4189 108.328C31.5857 108.29 31.7464 108.234 31.9003 108.174C31.9753 108.141 32.052 108.11 32.1207 108.073C32.1567 108.055 32.1904 108.037 32.2214 108.018C32.2498 108.002 32.2921 107.976 32.2911 107.969L32.8514 109.14Z" fill="#611940"/>
<path d="M32.4114 114.006C32.3165 114.033 32.2621 114.043 32.1928 114.056C32.1266 114.069 32.0623 114.078 31.9989 114.087C31.8709 114.106 31.7459 114.114 31.6208 114.125C31.3712 114.138 31.1247 114.141 30.881 114.124C30.3938 114.094 29.9177 114.014 29.4618 113.883C29.0084 113.744 28.5674 113.585 28.1609 113.362C27.9519 113.265 27.7609 113.132 27.5647 113.018C27.3727 112.895 27.1917 112.755 27.0078 112.626C27.2195 112.709 27.4243 112.8 27.6358 112.872C27.8512 112.936 28.0573 113.016 28.2757 113.058C28.7016 113.173 29.14 113.218 29.5668 113.243C29.996 113.26 30.421 113.226 30.8294 113.152C31.0339 113.117 31.2333 113.064 31.4264 113.006C31.5213 112.973 31.6178 112.943 31.7067 112.905C31.7524 112.888 31.7966 112.869 31.8378 112.85C31.8765 112.832 31.9287 112.807 31.9392 112.796L32.4114 114.006Z" fill="#611940"/>
<path d="M31.5085 118.533C31.4181 118.564 31.3695 118.574 31.3054 118.588C31.2448 118.603 31.1856 118.614 31.1277 118.623C31.0105 118.645 30.896 118.655 30.7815 118.668C30.5529 118.685 30.3273 118.692 30.1043 118.678C29.6588 118.655 29.2245 118.58 28.8126 118.453C28.4035 118.319 28.0092 118.161 27.6517 117.944C27.4668 117.849 27.3021 117.719 27.1307 117.608C26.9646 117.488 26.8093 117.353 26.6514 117.228C26.8392 117.308 27.0203 117.395 27.2076 117.465C27.3996 117.525 27.5812 117.604 27.776 117.644C28.1544 117.753 28.5448 117.794 28.9226 117.814C29.3027 117.826 29.6772 117.786 30.0329 117.708C30.2111 117.67 30.3834 117.615 30.5492 117.556C30.6302 117.523 30.7128 117.492 30.7876 117.454C30.8265 117.437 30.8634 117.418 30.8974 117.399C30.9289 117.382 30.9742 117.357 30.9766 117.349L31.5085 118.533Z" fill="#611940"/>
<path d="M103.438 89.6807C103.438 89.6807 97.3567 86.1335 91.2207 88.5659C84.7603 91.1269 86.5974 97.4846 91.2207 100.576C95.844 103.667 108.462 111.769 115.178 109.292C119.437 107.721 122.894 100.407 103.438 89.6807Z" fill="#EDA64A"/>
<path d="M112.323 109.884C107.452 109.884 100.229 106.759 91.1464 100.686C88.3513 98.8176 86.6578 95.8277 86.9324 93.2462C87.0907 91.7584 87.9545 89.7171 91.1714 88.4419C97.2616 86.0277 103.373 89.4895 103.503 89.5645C117.1 97.0606 118.803 102.528 118.608 105.12C118.433 107.432 116.746 108.856 115.224 109.417C114.377 109.729 113.409 109.884 112.323 109.884ZM95.7868 87.8534C94.3459 87.8534 92.8069 88.0803 91.2696 88.6897C88.8214 89.6602 87.4133 91.2455 87.1976 93.2745C86.9332 95.7601 88.5797 98.6495 91.2946 100.465C102.326 107.84 110.569 110.849 115.132 109.167C116.575 108.634 118.177 107.286 118.342 105.1C118.532 102.572 116.841 97.2221 103.373 89.7974L103.37 89.7959C103.325 89.7697 99.9722 87.8534 95.7868 87.8534Z" fill="#611940"/>
<path d="M103.438 89.681C103.438 89.681 97.3567 86.1338 91.2207 88.5661C84.7603 91.1271 86.5974 97.4848 91.2207 100.576C95.844 103.667 108.462 111.769 115.178 109.292C119.437 107.721 122.894 100.407 103.438 89.681Z" fill="#F99B28"/>
<mask id="mask10_255_27667" style="mask-type:luminance" maskUnits="userSpaceOnUse" x="87" y="87" width="32" height="23">
<path d="M103.438 89.6807C103.438 89.6807 97.3567 86.1335 91.2207 88.5659C84.7603 91.1269 86.5974 97.4846 91.2207 100.576C95.844 103.667 108.462 111.769 115.178 109.292C119.437 107.721 122.894 100.407 103.438 89.6807Z" fill="white"/>
</mask>
<g mask="url(#mask10_255_27667)">
<path d="M94.828 107.06C101.878 107.06 107.594 101.779 107.594 95.2652C107.594 88.7513 101.878 83.4707 94.828 83.4707C87.7778 83.4707 82.0625 88.7513 82.0625 95.2652C82.0625 101.779 87.7778 107.06 94.828 107.06Z" fill="white"/>
</g>
<g opacity="0.3">
<path d="M115.117 98.0907C116.932 101.65 115.085 103.994 113.016 104.757C107.253 106.883 96.4244 99.9299 92.4569 97.2772C89.6563 95.4048 88.0511 92.1366 89.2966 89.6025C85.2265 92.5616 87.135 97.844 91.2208 100.576C95.8441 103.667 108.462 111.769 115.178 109.292C118.202 108.176 120.819 104.164 115.117 98.0907Z" fill="#611940"/>
</g>
<path d="M99.878 91.0743C99.548 90.5632 99.0837 90.1704 98.5966 89.8475C98.1041 89.5269 97.5658 89.2943 97.0169 89.1198L96.6029 88.998L96.1794 88.9088C95.903 88.839 95.6087 88.8234 95.3287 88.7791C95.043 88.751 94.7536 88.7428 94.4705 88.7234L93.6095 88.7336L93.5655 88.7342C93.1199 88.7395 92.7544 88.3825 92.7491 87.9369C92.7437 87.4913 93.1007 87.1257 93.5463 87.1204C93.6054 87.1197 93.6673 87.1264 93.7229 87.1378L94.6651 87.3371C94.976 87.4278 95.2855 87.5075 95.5898 87.6079C95.8917 87.7255 96.1965 87.8131 96.4867 87.9573L96.9226 88.1568L97.343 88.3894C97.8943 88.7108 98.4112 89.0887 98.8512 89.5391C99.2856 89.9902 99.6668 90.5004 99.878 91.0743Z" fill="#611940"/>
<path d="M94.76 90.9475C94.3006 90.7029 93.8093 90.5413 93.3155 90.4337C92.8213 90.3279 92.323 90.2735 91.832 90.2898C91.3419 90.3067 90.8608 90.3603 90.4 90.4908C90.1681 90.5392 89.9447 90.6309 89.7227 90.7051C89.5018 90.7856 89.2897 90.8961 89.0771 90.9867L89.0093 91.0156C88.5979 91.1909 88.1222 90.9995 87.9469 90.5881C87.7715 90.1767 87.9629 89.701 88.3743 89.5257C88.4359 89.4995 88.503 89.481 88.5662 89.4706C88.852 89.4258 89.1298 89.3663 89.414 89.3397C89.6999 89.3195 89.9796 89.2861 90.2643 89.2987C90.8286 89.2904 91.3886 89.3726 91.9242 89.4953C92.4615 89.6186 92.9736 89.8159 93.4515 90.0575C93.9284 90.3005 94.3765 90.593 94.76 90.9475Z" fill="#611940"/>
<path d="M92.683 94.596C92.2489 94.4218 91.7992 94.3078 91.3495 94.2343C90.9001 94.1597 90.4485 94.1346 90.0079 94.1538C89.5674 94.1698 89.1363 94.2323 88.727 94.3467C88.315 94.4457 87.9309 94.6205 87.5653 94.7984L87.5438 94.8088C87.1419 95.0045 86.6573 94.8372 86.4617 94.4352C86.2661 94.0332 86.4333 93.5487 86.8353 93.353C86.9044 93.3194 86.98 93.296 87.0521 93.2832C87.5726 93.1935 88.0895 93.1286 88.6034 93.1532C89.115 93.1623 89.6169 93.2363 90.0966 93.3588C90.5768 93.4782 91.0374 93.6438 91.4705 93.8531C91.9035 94.061 92.3148 94.3057 92.683 94.596Z" fill="#611940"/>
<path d="M112.276 110.561C107.255 110.561 100.047 107.44 90.7756 101.241C87.7334 99.2066 85.9645 96.041 86.2693 93.1759C86.5204 90.8142 88.174 88.913 90.9254 87.8223C97.2866 85.3007 103.457 88.7684 103.831 88.9845C117.052 96.2746 119.525 101.81 119.272 105.171C119.074 107.797 117.17 109.409 115.454 110.042C114.517 110.388 113.457 110.561 112.276 110.561ZM95.7905 88.5195C94.4239 88.5195 92.9667 88.734 91.515 89.3096C89.3119 90.1829 88.0479 91.5783 87.8601 93.3452C87.6212 95.591 89.1501 98.2295 91.6648 99.9107C105.369 109.073 111.864 109.661 114.901 108.541C116.15 108.08 117.536 106.921 117.677 105.05C117.855 102.682 116.193 97.6261 103.051 90.3813L103.034 90.3718C102.964 90.3315 99.7605 88.5195 95.7905 88.5195Z" fill="#611940"/>
<path d="M3.18156 148.874C8.96567 148.678 14.7498 148.56 20.534 148.45L29.2101 148.311L37.8864 148.207C49.4546 148.108 61.0229 148.053 72.5911 148.088C78.3752 148.098 84.1593 148.107 89.9435 148.15L98.6197 148.202L107.296 148.287C118.864 148.411 130.432 148.572 142.001 148.874C142.221 148.88 142.396 149.063 142.39 149.284C142.385 149.498 142.212 149.668 142.001 149.674C130.432 149.976 118.864 150.137 107.296 150.261L98.6197 150.346L89.9435 150.398C84.1593 150.441 78.3752 150.45 72.5911 150.459C61.0229 150.495 49.4546 150.44 37.8864 150.341L29.2101 150.237L20.534 150.098C14.7498 149.987 8.96573 149.87 3.18156 149.674C2.96068 149.666 2.78769 149.481 2.79515 149.26C2.8023 149.049 2.97342 148.882 3.18156 148.874Z" fill="#611940"/>
</svg>
