<svg width="2401" height="2535" viewBox="0 0 2401 2535" fill="none" xmlns="http://www.w3.org/2000/svg">
<path d="M227.446 1527.4C148.696 1538.77 163.864 1643.71 242.614 1632.34C181.144 1640.6 193.37 1731.75 254.84 1723.48C187.534 1739.28 211.973 1833.59 284.118 1806.66C294.91 1885.13 326.529 1876.49 365.566 1836.89C374.603 1916.6 408.161 1902.98 452.847 1847.13C483.348 1924.68 531.697 1910.62 585.635 1867.85C622.254 1952.17 658.055 1958.27 693.021 1870.91C756.446 1975.42 798.231 1950.88 828.11 1855.08C898.11 1989.35 937.82 1964.26 963.713 1866.55C1002.05 1966.49 1046.07 1960.27 1093.5 1888.89C1145.91 1999.39 1176.29 1959.22 1200.3 1875.69C1216 1949.3 1296.77 1968.48 1306.86 1909.22C1310.14 1890 1305.94 1862.45 1289.66 1825.88C1365.2 1928.5 1401.43 1909.01 1403.9 1784.21C1464.05 1878 1537.01 1867.34 1508.64 1725.35C1568.67 1811.79 1639.34 1761.18 1604.31 1651.06C1666.13 1719.63 1715.58 1667.72 1691.49 1572.88C1789.62 1621.53 1813.62 1586.35 1783.39 1489.81C1872.04 1576.26 1980.91 1464.54 1892.27 1378.15C1948.08 1420.71 2011.22 1338.01 1955.41 1295.45C2047.88 1359.5 2074.41 1334.57 2041.28 1229.02C2117.97 1281.26 2166.06 1228.14 2107.2 1132.29C2182.41 1219.06 2276.54 1137.48 2201.31 1050.66C2281.56 1134.51 2366.84 1052.86 2286.54 969.02C2395.7 967.72 2399.67 883.795 2300.33 877.345C2295.55 877.383 2290.62 877.225 2285.42 876.948C2290.65 876.871 2295.59 877.029 2300.33 877.345C2409.64 876.419 2409.49 791.296 2290.69 784.496C2405.28 740.21 2353.28 643.241 2250.79 678.597C2342.03 603.234 2320.41 548.364 2215.43 566.885C2264.1 552.698 2275.2 514.388 2263.33 481.726C2251.29 448.812 2215.86 421.75 2171.85 431.252C1825.7 424.82 1456.63 541.377 1072.8 737.813C851.882 850.869 626.047 990.361 396.781 1148.12C329.004 1194.71 260.937 1242.92 192.644 1292.51C162.533 1290.91 140.593 1300.03 127.113 1313.92C99.0058 1342.82 107.706 1392.54 156.127 1409.39C164.865 1412.49 174.861 1414.45 186.179 1415.04C103.55 1490.47 147.004 1516.22 227.446 1527.4Z" fill="white"/>
<path d="M1150.54 1958.89C1133.16 1958.89 1114.34 1937.59 1093.13 1893.91C1068.29 1930.23 1045.79 1946.76 1024.34 1944.39C1001.98 1941.92 982.253 1919.02 964.143 1874.45C950.351 1923.16 933.77 1947.97 913.547 1950.22C889.565 1952.84 861.843 1923.85 828.681 1861.52C812.089 1912.31 792.997 1938.37 770.397 1941.13C747.519 1943.95 722.287 1922.75 693.473 1876.42C676.82 1916.44 659.877 1936.04 641.737 1936.3C641.615 1936.3 641.49 1936.31 641.368 1936.31C622.462 1936.31 603.887 1915.2 584.639 1871.81C549.08 1899.49 521.87 1909.55 499.199 1903.44C479.817 1898.23 464.392 1881.38 452.124 1852C424.815 1885.44 404.873 1898.98 389.566 1894.56C376.365 1890.75 367.889 1873.63 363.709 1842.27C341.285 1864.14 324.427 1872.24 310.882 1867.75C296.575 1863 287.139 1844.11 282.073 1810.04C253.177 1819.76 235.713 1809.52 227.757 1802.37C215.308 1791.17 209.993 1773.29 214.219 1756.8C217.661 1743.36 226.807 1732.65 240.049 1726.09C216.17 1722.99 202.752 1703.82 200.147 1684.46C197.686 1666.14 204.593 1645.45 224.114 1635.38C212.874 1634.31 202.82 1630.59 194.446 1624.34C183.013 1615.79 175.571 1603.15 173.491 1588.74C170.095 1565.23 181.675 1537.92 213.974 1527.85C169.602 1520.29 146.142 1508.14 140.512 1490C134.787 1471.56 147.797 1447.68 180.265 1417.11C171.261 1416.24 162.882 1414.44 155.287 1411.75C131.627 1403.52 115.187 1386.69 110.197 1365.59C105.685 1346.52 111.34 1326.55 125.317 1312.18C140.478 1296.55 164.106 1288.71 191.884 1289.96C261.266 1239.6 329.721 1191.18 395.361 1146.06C640.981 977.045 862.199 842.78 1071.66 735.585C1486.76 523.139 1846.6 422.782 2171.61 428.747C2217.3 419.028 2253.5 447.578 2265.67 480.866C2272.34 499.213 2271.65 517.919 2263.73 533.547C2257.82 545.202 2248.07 554.724 2235.09 561.662C2273.47 558.027 2299.58 565.839 2307.94 583.947C2317.97 605.668 2301.09 637.697 2261.49 672.746C2310.72 659.921 2346.29 678.071 2355.62 703.588C2363.79 725.929 2353.89 759.291 2301.23 782.819C2358.46 788.62 2384.11 813.468 2383.58 835.248C2383.13 853.756 2364.44 872.562 2324.25 878.173C2359.24 886.068 2374.73 905.172 2374.25 923.107C2373.67 945.202 2347.68 969.23 2292.13 971.378C2316.43 998.509 2326.22 1027.86 2319.03 1052.54C2313.96 1069.96 2300.94 1082.43 2283.31 1086.74C2262.78 1091.77 2239.58 1085.17 2217.5 1068.51C2240.69 1106.88 2232.51 1140.95 2212.3 1158.46C2191.35 1176.62 2154.62 1179.46 2118.72 1147.57C2143.7 1195.96 2138.19 1227.7 2123.34 1241.86C2106.69 1257.74 2077.96 1255.05 2045.7 1234.89C2061.21 1286.63 2061.37 1317.24 2046.22 1328.39C2032.75 1338.31 2008.27 1332.03 1971.66 1309.17C1978.09 1319.22 1980.72 1330.7 1979.16 1342.78C1976.59 1362.79 1962.89 1380.75 1944.26 1388.53C1931.42 1393.89 1917.91 1393.8 1905.04 1388.46C1924.53 1412.74 1931.9 1440.42 1925.33 1466.26C1918.66 1492.47 1898.36 1513.3 1872.33 1520.62C1844.7 1528.4 1814.54 1520.08 1788.4 1497.78C1802.33 1545.75 1801.36 1575.72 1785.49 1589.28C1769.61 1602.85 1740.03 1598.98 1695.16 1577.45C1706.44 1626.71 1698.1 1667.9 1673.85 1680.87C1655.96 1690.45 1632.88 1682.9 1609.61 1660.19C1625.57 1718.96 1610.54 1756.33 1587.46 1767.7C1565.35 1778.59 1537.44 1766.3 1513.07 1735.54C1523.41 1795.62 1515.41 1835.42 1490.67 1845.4C1467.51 1854.76 1434.82 1833.98 1406.18 1792.19C1404.19 1853.81 1393.45 1886.9 1373.41 1893.26C1355.21 1899.04 1330.82 1882.35 1299.07 1842.33C1308.83 1868.8 1312.36 1891.82 1309.32 1909.63C1305.44 1932.42 1290.79 1946.28 1270.13 1946.7C1244.41 1947.28 1212.32 1925.88 1200.13 1885.09C1185.07 1934.52 1170.18 1957.35 1152.26 1958.81C1151.69 1958.87 1151.12 1958.89 1150.54 1958.89ZM1093.86 1883.82L1095.76 1887.82C1117.15 1932.91 1135.99 1955.13 1151.86 1953.84C1167.97 1952.52 1183.03 1926.73 1197.9 1875L1200.66 1865.39L1202.75 1875.17C1212.01 1918.61 1243.68 1941.72 1269.16 1941.72C1269.45 1941.72 1269.74 1941.72 1270.03 1941.71C1288.37 1941.33 1300.9 1929.34 1304.39 1908.8C1307.92 1888.15 1302.04 1859.83 1287.38 1826.9L1277.99 1805.8L1291.68 1824.4C1327.14 1872.58 1354.13 1894.13 1371.9 1888.5C1390.22 1882.68 1400.15 1847.58 1401.4 1784.16L1401.56 1775.94L1406 1782.86C1434.27 1826.93 1466.77 1849.67 1488.81 1840.77C1512.19 1831.33 1518.68 1788.37 1506.19 1725.85L1503.83 1714.05L1510.69 1723.93C1534.95 1758.86 1563.53 1773.93 1585.26 1763.22C1606.96 1752.53 1621.43 1713.12 1601.93 1651.82L1598.43 1640.8L1606.18 1649.39C1630.15 1675.98 1653.97 1685.85 1671.5 1676.47C1694.53 1664.15 1701.58 1622.77 1689.07 1573.49L1687.73 1568.22L1692.6 1570.64C1737.54 1592.92 1767.7 1597.92 1782.25 1585.48C1797.16 1572.74 1796.74 1540.81 1781.01 1490.56L1778.05 1481.11L1785.14 1488.03C1811.42 1513.65 1842.7 1523.78 1870.98 1515.82C1895.29 1508.97 1914.26 1489.51 1920.48 1465.04C1927.73 1436.57 1916.81 1405.55 1890.53 1379.94L1893.79 1376.16C1909.11 1387.85 1926.36 1390.6 1942.34 1383.92C1959.09 1376.93 1971.9 1360.14 1974.21 1342.15C1976.42 1324.99 1969.2 1309.11 1953.89 1297.44L1956.83 1293.4C2000.76 1323.83 2029.85 1334.25 2043.26 1324.37C2056.91 1314.32 2055.44 1282.49 2038.9 1229.77L2036.74 1222.9L2042.69 1226.96C2074.73 1248.78 2104.31 1253.11 2119.9 1238.25C2138.84 1220.19 2133.02 1179.11 2105.07 1133.6L2109.09 1130.65C2146.71 1174.06 2187.28 1173.55 2209.03 1154.69C2230.79 1135.83 2237.07 1095.74 2199.42 1052.3L2203.12 1048.93C2228.89 1075.86 2257.68 1087.88 2282.12 1081.89C2297.97 1078.01 2309.67 1066.8 2314.24 1051.15C2321.28 1026.98 2310.52 997.678 2284.73 970.752L2280.75 966.592L2286.51 966.524C2342.59 965.857 2368.72 943.484 2369.26 922.982C2369.75 904.398 2348.34 882.972 2300.17 879.845C2295.86 879.896 2291.09 879.757 2285.29 879.449L2285.39 874.451C2290.4 874.38 2295.33 874.512 2300.5 874.854C2353.44 874.4 2378.12 853.946 2378.58 835.132C2379.09 814.405 2351.75 790.501 2290.54 786.995L2279 786.336L2289.79 782.169C2343.8 761.295 2359.42 728.527 2350.93 705.311C2341.71 680.084 2303.77 662.979 2251.61 680.965L2238.56 685.469L2249.2 676.675C2292.74 640.711 2313 606.834 2303.41 586.047C2294.69 567.16 2262.78 561.086 2215.87 569.35L2214.73 564.489C2236 558.29 2251.4 546.808 2259.27 531.291C2266.56 516.911 2267.17 499.614 2260.98 482.585C2249.53 451.262 2215.44 424.416 2172.38 433.701L2172.1 433.762L2171.81 433.757C1847.47 427.768 1488.42 527.92 1073.94 740.044C864.675 847.136 643.64 981.294 398.198 1150.19C332.37 1195.44 263.706 1244 194.116 1294.53L193.398 1295.05L192.514 1295.01C165.8 1293.59 143.21 1300.93 128.908 1315.67C116.125 1328.81 110.952 1347.04 115.068 1364.44C119.658 1383.85 134.922 1399.37 156.948 1407.03C165.705 1410.14 175.581 1411.99 186.311 1412.55L192.285 1412.86L187.866 1416.89C154.358 1447.48 140.034 1471.58 145.293 1488.53C150.813 1506.31 177.026 1517.87 227.793 1524.92L245.276 1527.35L227.805 1529.87C210.232 1532.41 196.304 1539.96 187.527 1551.69C179.78 1562.04 176.555 1574.95 178.445 1588.03C180.335 1601.12 187.08 1612.59 197.444 1620.34C209.031 1628.99 224.282 1632.32 241.558 1629.97C241.79 1629.93 242.024 1629.9 242.259 1629.87C242.262 1629.87 242.274 1629.87 242.286 1629.86L242.975 1634.82C242.736 1634.85 242.494 1634.88 242.252 1634.92C225.846 1637.32 213.697 1646.25 207.999 1660.11C201.939 1674.86 204.41 1693.24 214.146 1705.86C223.418 1717.88 237.757 1723.27 254.51 1721.01L255.416 1725.92C236.405 1730.38 223.155 1742.09 219.068 1758.04C215.299 1772.75 220.023 1788.69 231.104 1798.65C243.846 1810.1 262.366 1812.12 283.248 1804.33L286.173 1803.23L286.598 1806.32C291.197 1839.76 299.901 1858.84 312.465 1863.01C324.538 1867.04 341.339 1857.91 363.793 1835.14L367.467 1831.41L368.058 1836.62C371.676 1868.54 379.381 1886.42 390.956 1889.76C404.235 1893.57 424.381 1878.71 450.9 1845.57L453.6 1842.19L455.18 1846.21C467.079 1876.47 481.906 1893.62 500.505 1898.62C522.053 1904.42 548.615 1894.02 584.087 1865.89L586.636 1863.87L587.932 1866.85C606.509 1909.63 624.49 1931.31 641.384 1931.31C641.479 1931.31 641.574 1931.31 641.67 1931.31C658.018 1931.07 674.514 1910.44 690.706 1869.98L692.566 1865.33L695.164 1869.61C723.536 1916.36 748.697 1938.79 769.798 1936.17C790.777 1933.6 809.595 1906.07 825.731 1854.34L827.535 1848.56L830.335 1853.93C863.201 1916.97 891.002 1947.7 912.998 1945.25C931.65 1943.17 947.903 1916.48 961.301 1865.91L963.283 1858.43L966.051 1865.66C983.93 1912.27 1003.73 1937.09 1024.89 1939.43C1044.72 1941.62 1067.08 1924.15 1091.42 1887.51L1093.86 1883.82Z" fill="#650000"/>
<g opacity="0.3">
<path d="M1091 1222.07L1113.16 1237.55L1088.8 1221.96L1091 1222.07Z" fill="#792937"/>
<path d="M1111.82 1239.65L1079.5 1218.97L1091.85 1219.62L1114.59 1235.49L1111.82 1239.65Z" fill="#650000"/>
</g>
<g opacity="0.3">
<path d="M2286.55 969.006C2366.82 1052.88 2281.55 1134.54 2201.28 1050.66C2276.53 1137.47 2182.42 1219.05 2107.22 1132.3C2166.04 1228.13 2117.96 1281.26 2041.26 1229.01C2074.39 1334.58 2047.91 1359.51 1955.42 1295.46C2011.23 1338.04 1948.09 1420.7 1892.28 1378.17C1980.91 1464.51 1872.02 1576.26 1783.4 1489.81C1813.61 1586.34 1789.64 1621.51 1691.46 1572.87C1715.55 1667.74 1666.11 1719.65 1604.34 1651.04C1639.32 1761.17 1568.69 1811.78 1508.66 1725.36C1537.03 1867.37 1464.04 1878.03 1403.87 1784.22C1401.41 1909 1365.23 1928.48 1289.64 1825.86C1305.96 1862.45 1310.13 1890.01 1306.87 1909.24C1300.84 1906.17 1296.02 1904.53 1292.32 1904.66C1235.62 1905.95 1224.64 1793.61 1224.64 1793.61C1213.66 1780.27 1207.88 1767.13 1204.99 1756.28C1201.39 1742.91 1203.73 1728.63 1210.8 1716.83C1212.59 1713.84 1214.15 1710.83 1215.59 1707.92C1227.01 1684.37 1223.21 1656.63 1208.24 1635.27C1204.79 1630.32 1201.56 1625.33 1198.54 1620.08C1183.1 1593.45 1182.06 1560.44 1195.89 1532.89C1196.3 1532.19 1196.59 1531.54 1196.89 1530.84C1210.06 1503.56 1199.08 1471.27 1172.8 1456.16C1172.05 1455.75 1171.3 1455.27 1170.49 1454.9C1160.6 1449.05 1152.89 1440.87 1147.41 1431.39C1146.69 1430.13 1145.98 1428.8 1145.32 1427.49C1098.99 1381.64 1113.16 1237.54 1113.16 1237.54L1072.79 737.793C1456.63 541.357 1825.67 424.844 2171.85 431.266C2259.44 412.315 2313.18 538.358 2215.41 566.855C2320.42 548.36 2342.04 603.26 2250.79 678.615C2353.25 643.232 2405.26 740.217 2290.7 784.494C2409.46 791.316 2409.61 876.428 2300.3 877.343C2399.65 883.788 2395.72 967.737 2286.55 969.006Z" fill="#650000"/>
</g>
<path d="M65.8578 1185.23C107.945 1259.22 186.34 1305.16 271.424 1308.07L823.697 1327.14C1062.51 1337.77 1156.09 1295.03 1200.92 1189C1211.61 1160.93 1223.54 1133.29 1236.67 1106.14C1245.44 1088 1254.77 1070.09 1264.62 1052.41C1432.09 751.249 1747.03 523.12 2081.61 473.978C2190.14 458.045 2257.56 344.03 2217.08 242.122C2188.35 169.901 2115.22 109.167 2000.33 69.5714C1828.62 10.2464 1563.79 -1.98965 1215.09 64.8174C696.027 175.513 -192.109 731.734 65.8578 1185.23Z" fill="#F44906"/>
<g opacity="0.55">
<path d="M75.0558 1183.27C105.777 1237.24 155.753 1276.26 213.599 1294.56C179.468 1273.57 150.5 1244.32 130.089 1208.4C-127.879 754.902 760.257 198.681 1279.32 87.9864C1628.02 21.1794 1892.85 33.4154 2064.56 92.7394C2073.03 95.6644 2081.3 98.7454 2089.36 101.875C2065.53 89.1864 2038.85 77.6844 2009.53 67.6094C1837.81 8.28436 1572.99 -3.95163 1224.28 62.8564C705.224 173.551 -182.912 729.772 75.0558 1183.27Z" fill="white"/>
</g>
<path d="M1273.49 54.2334C1159.96 194.27 1579.94 138.935 1762.1 191.086C1894.38 221.838 1919.13 428.145 1884.08 524.177L1821.76 560.452C1833.91 416.085 1882.85 253.057 1611.59 252.403C1319.95 253.686 1094.58 235.895 1136.19 141.258C1149.69 112.458 1116.74 103.102 1008.56 125.249" fill="white"/>
<path d="M226.948 608.418C292.751 775.336 635.86 727.306 887.193 744.542C966.016 749.948 1037.74 791.625 1081.71 857.272C1134.21 935.675 1212.83 971.404 1298.16 996.155L1228.2 1123.32C1217.43 988.858 1042.23 918.046 972.722 869.407C813.834 799.758 649.354 799.338 482.184 807.082C411.655 810.349 341.067 804.431 271.703 791.255C179.493 773.74 98.4138 790.319 42.9288 885.279" fill="white"/>
<path d="M890.671 1348.5C869.313 1348.5 846.748 1347.95 822.827 1346.89L270.732 1327.82C178.576 1324.64 93.5028 1273.75 48.7128 1195.02C-13.8332 1085.06 -16.1602 963.814 41.7988 834.635C116.101 669.027 292.9 491.578 539.631 334.972C756.989 197.011 1007.96 88.7984 1210.97 45.5044C1211.1 45.4754 1211.24 45.4484 1211.37 45.4214C1485.38 -7.07161 1727.52 -14.2126 1911.59 24.7644C2080.82 60.5994 2195.82 135.203 2235.41 234.83C2256.74 288.509 2252.2 348.365 2222.96 399.051C2193.27 450.511 2142.8 484.94 2084.48 493.514C1711.33 548.37 1355.6 837.252 1219.41 1196.02C1219.32 1196.25 1219.23 1196.48 1219.14 1196.71C1173.45 1304.71 1081.91 1348.5 890.671 1348.5ZM1219.01 84.1734C850.798 162.772 238.649 492.371 77.8338 850.804C25.3188 967.852 27.0718 1077.09 83.0438 1175.49C121.103 1242.39 193.542 1285.64 272.094 1288.35L824.384 1307.42C847.03 1308.43 868.259 1308.92 888.092 1308.92C1086.38 1308.93 1149.48 1259.71 1182.62 1181.65C1252.32 998.229 1374.93 831.57 1537.23 699.649C1699.95 567.386 1887.2 482.593 2078.73 454.437C2125.03 447.63 2165.13 420.25 2188.75 379.315C2211.92 339.151 2215.55 291.805 2198.7 249.415C2133.83 86.1953 1805.75 -28.1866 1219.01 84.1734Z" fill="#650000"/>
<path d="M1150.3 1976.13C1129.58 1976.14 1110.54 1960.25 1090.48 1925.77C1067.58 1952.32 1045.14 1964.05 1022.43 1961.54C1001.6 1959.24 983.227 1945.1 966.863 1918.61C955.589 1943.58 939.446 1964.7 915.427 1967.36C888.281 1970.35 861.775 1949.86 831.767 1901.64C818.823 1929.72 800.214 1954.86 772.492 1958.24C747.25 1961.33 722.546 1946.18 696.083 1910.94C683.341 1933.56 665.919 1953.21 641.984 1953.56C641.774 1953.56 641.562 1953.56 641.354 1953.56C613.087 1953.56 592.555 1926.03 578.009 1897.98C553.9 1914.18 524.005 1927.98 494.738 1920.11C476.242 1915.14 460.893 1902.73 448.288 1882.45C429.045 1902.3 406.933 1917.53 384.763 1911.13C367.729 1906.21 358.266 1891.02 352.761 1873.82C338.279 1883.54 321.894 1889.6 305.451 1884.13C283.691 1876.9 273.613 1853.55 268.356 1830.69C248.332 1832.91 230.06 1827.63 216.227 1815.19C199.057 1799.76 191.71 1775.16 197.511 1752.52C199.571 1744.48 203.065 1737.17 207.814 1730.75C207.047 1730.16 206.293 1729.55 205.551 1728.92C193.29 1718.49 185.297 1703.5 183.046 1686.72C180.966 1671.21 184.02 1655.89 191.659 1643.16C171.698 1631.86 159.44 1612.14 156.417 1591.23C153.675 1572.26 158.392 1553.49 169.701 1538.37C170.414 1537.42 171.18 1536.44 172.006 1535.45C149.228 1527.62 130.326 1515.37 124.042 1495.11C116.713 1471.48 129.613 1447.49 146.82 1427.05C134.398 1422.34 123.58 1415.57 114.735 1406.9C98.8488 1391.33 90.3868 1370.08 91.5218 1348.6C92.6548 1327.13 103.309 1306.89 120.748 1293.07C139.442 1278.27 164.627 1271.25 193.692 1272.78C204.583 1273.36 212.945 1282.65 212.371 1293.55C211.795 1304.44 202.564 1312.83 191.607 1312.23C172.354 1311.21 156.312 1315.29 145.271 1324.03C136.589 1330.91 131.506 1340.37 130.962 1350.68C129.905 1370.69 147.058 1393.2 187.219 1395.32C195.168 1395.74 202.09 1400.89 204.77 1408.39C207.453 1415.88 205.371 1424.26 199.489 1429.62C158.276 1467.24 161.283 1481.86 161.762 1483.4C162.897 1487.06 171.186 1499.63 230.163 1507.84C239.904 1509.19 247.165 1517.51 247.192 1527.34C247.219 1537.18 240.004 1545.54 230.268 1546.94C217.316 1548.82 207.309 1554.03 201.328 1562.03C196.343 1568.69 194.275 1577.06 195.508 1585.58C196.738 1594.1 201.091 1601.54 207.761 1606.52C215.63 1612.4 226.477 1614.59 239.162 1612.88C239.435 1612.84 239.711 1612.8 239.985 1612.76C250.786 1611.31 260.673 1618.85 262.173 1629.61C263.672 1640.37 256.194 1650.33 245.437 1651.88C245.173 1651.92 244.91 1651.96 244.646 1652C225.552 1654.84 220.598 1669.6 222.19 1681.47C223.801 1693.46 232.634 1706.54 252.212 1703.91C262.669 1702.5 272.356 1709.55 274.263 1719.91C276.167 1730.27 269.607 1740.3 259.351 1742.71C246.622 1745.7 238.248 1752.66 235.772 1762.32C233.577 1770.88 236.27 1780.1 242.63 1785.82C250.359 1792.76 262.635 1793.59 277.212 1788.16C282.822 1786.07 289.097 1786.63 294.243 1789.71C299.392 1792.78 302.864 1798.03 303.681 1803.97C308.915 1842.03 317.812 1846.61 317.9 1846.64C317.993 1846.67 326.787 1848.11 351.501 1823.03C356.845 1817.61 364.831 1815.75 372.016 1818.23C379.211 1820.71 384.335 1827.11 385.19 1834.67C388.43 1863.33 394.223 1871.31 395.832 1873.02C398.505 1872.45 410.781 1868.08 437.426 1834.79C441.83 1829.28 448.847 1826.55 455.798 1827.6C462.766 1828.65 468.645 1833.34 471.223 1839.9C480.857 1864.38 492.217 1878.53 504.993 1881.97C520.381 1886.09 543.387 1876.15 573.36 1852.38C578.172 1848.56 584.488 1847.2 590.43 1848.69C596.385 1850.18 601.306 1854.36 603.748 1859.98C626.985 1913.53 641.209 1914.06 641.412 1914.06C641.544 1914.06 654.796 1913.3 674.683 1863.57C677.464 1856.62 683.933 1851.84 691.395 1851.22C698.851 1850.63 706.021 1854.26 709.903 1860.66C744.205 1917.19 762.813 1919.63 767.701 1919.03C772.525 1918.45 789.779 1911.67 809.258 1849.2C811.638 1841.56 818.389 1836.12 826.353 1835.41C834.297 1834.67 841.929 1838.86 845.623 1845.95C888.433 1928.1 908.899 1928.38 911.07 1928.1C912.745 1927.92 927.928 1924.47 944.642 1861.47C946.839 1853.19 954.125 1847.28 962.679 1846.82C971.241 1846.42 979.107 1851.47 982.171 1859.47C1003.09 1914.02 1020.33 1921.57 1026.77 1922.28C1032.63 1922.89 1049.17 1919.89 1077.05 1877.94C1080.99 1872.01 1087.77 1868.66 1094.91 1869.17C1102.01 1869.68 1108.29 1873.97 1111.34 1880.4C1137.06 1934.65 1150.44 1936.61 1150.57 1936.62C1150.84 1936.5 1163.45 1932.34 1181.33 1870.24C1183.84 1861.53 1191.99 1855.71 1201 1855.97C1210.05 1856.28 1217.73 1862.72 1219.62 1871.58C1226.06 1901.77 1245.59 1919.43 1262.08 1923.54C1267.09 1924.79 1276.32 1925.85 1282.06 1919C1290.74 1908.66 1292.55 1880.88 1271.64 1833.9C1267.54 1824.69 1271.04 1813.86 1279.76 1808.8C1288.47 1803.74 1299.61 1806.04 1305.59 1814.17C1349.7 1874.13 1366.53 1872.11 1366.68 1872.06C1366.84 1872.01 1382.56 1864.77 1384.14 1783.83C1384.3 1775.13 1390.14 1767.57 1398.51 1765.21C1406.89 1762.85 1415.81 1766.23 1420.5 1773.54C1447.29 1815.3 1472.83 1828.65 1482.34 1824.79C1492.02 1820.88 1501.85 1792.2 1489.27 1729.2C1487.43 1720.02 1492.29 1710.82 1500.91 1707.16C1509.52 1703.51 1519.52 1706.39 1524.85 1714.07C1546.18 1744.78 1566.74 1753.11 1577.65 1747.73C1593.04 1740.16 1601.02 1705.81 1585.52 1657.06C1582.7 1648.2 1586.44 1638.57 1594.51 1633.94C1602.59 1629.32 1612.79 1630.95 1619.01 1637.85C1636.42 1657.17 1653.83 1666.35 1663.36 1661.26C1673.64 1655.76 1685.18 1628.22 1672.37 1577.73C1670.47 1570.25 1673.1 1562.35 1679.1 1557.5C1685.11 1552.66 1693.38 1551.75 1700.29 1555.18C1756.15 1582.89 1769.68 1573.52 1771.03 1572.36C1772.44 1571.16 1784.28 1558.75 1764.57 1495.7C1761.87 1487.07 1765.37 1477.71 1773.08 1472.97C1780.78 1468.24 1790.73 1469.35 1797.2 1475.66C1819.27 1497.18 1843.83 1505.54 1866.33 1499.2C1884.73 1494.02 1899.08 1479.3 1903.79 1460.78C1909.55 1438.11 1900.57 1413.78 1878.5 1392.26C1871.03 1384.97 1870.52 1373.12 1877.34 1365.22C1884.17 1357.31 1895.97 1356.09 1904.27 1362.43C1923.57 1377.16 1940.97 1368.57 1949.99 1356.73C1955.22 1349.88 1957.87 1341.56 1957.25 1333.89C1956.55 1325.25 1951.91 1317.59 1943.44 1311.12C1934.91 1304.61 1933.14 1292.48 1939.46 1283.8C1945.78 1275.13 1957.86 1273.08 1966.67 1279.2C2019.64 1315.91 2033.03 1310.46 2033.16 1310.39C2033.07 1310.39 2042.47 1298.78 2022.43 1234.95C2019.91 1226.93 2022.75 1218.19 2029.5 1213.18C2036.25 1208.17 2045.44 1207.98 2052.39 1212.72C2080.16 1231.64 2100.69 1232.76 2108 1225.78C2116.47 1217.69 2118.77 1188.87 2090.35 1142.63C2084.97 1133.87 2087.21 1122.44 2095.5 1116.36C2103.8 1110.28 2115.37 1111.59 2122.1 1119.35C2140.32 1140.38 2156.91 1147.03 2167.62 1148.9C2179.29 1150.95 2189.99 1148.38 2197.74 1141.65C2205.49 1134.93 2209.56 1124.7 2209.19 1112.86C2208.85 1102 2204.62 1084.63 2186.39 1063.61C2179.37 1055.51 2180.09 1043.3 2188.01 1036.08C2195.94 1028.86 2208.17 1029.28 2215.58 1037.02C2246.13 1068.91 2276.38 1071.94 2290.47 1058.44C2304.57 1044.95 2302.85 1014.59 2272.3 982.693C2266.86 977.012 2265.31 968.644 2268.35 961.391C2271.4 954.138 2278.46 949.382 2286.32 949.287C2308.9 949.006 2328.08 944.67 2340.32 937.073C2347.72 932.481 2352.1 926.914 2352.04 922.183C2351.99 917.451 2347.47 911.998 2339.95 907.589C2330.22 901.874 2316.26 898.264 2299.81 897.105C2294.83 897.134 2289.67 896.988 2284.3 896.683C2273.68 896.077 2265.45 887.164 2265.68 876.524C2265.92 865.887 2274.54 857.349 2285.18 857.22C2290.6 857.147 2295.88 857.279 2300.98 857.594C2342.53 857.115 2360.85 843.248 2361.32 834.909C2361.85 825.658 2341.35 807.157 2289.58 804.203C2280.3 803.673 2272.64 796.74 2271.19 787.553C2269.75 778.368 2274.91 769.421 2283.58 766.066C2326.44 749.496 2340.14 726.022 2334.73 711.222C2329.25 696.227 2301.59 681.967 2257.24 697.247C2248.22 700.36 2238.26 696.563 2233.58 688.233C2228.91 679.903 2230.87 669.427 2238.24 663.345C2281.72 627.444 2291.67 601.773 2287.74 593.277C2284.47 586.17 2263.41 578.458 2218.88 586.329C2208.56 588.162 2198.6 581.588 2196.22 571.371C2193.83 561.159 2199.85 550.863 2209.91 547.924C2252.11 535.605 2249.5 506.01 2246.42 493.859C2239.51 466.598 2211.28 442.958 2176.04 450.563C2165.39 452.865 2154.87 446.089 2152.57 435.427C2150.27 424.765 2157.05 414.257 2167.71 411.954C2226.3 399.295 2273.19 438.734 2284.71 484.151C2289.8 504.229 2287.91 526.447 2276.77 545.495C2306.29 550.825 2318.54 565.748 2323.61 576.722C2329.85 590.257 2333.32 615.511 2305.13 651.986C2339.28 655.731 2363.37 674.54 2371.82 697.665C2380.36 721.024 2374.07 750.285 2346.26 774.772C2385.22 788.432 2402.11 813.393 2400.76 837.16C2399.82 853.647 2390.08 869.709 2370.76 881.049C2376.32 885.712 2380.9 891.01 2384.39 896.896C2393.72 912.599 2393.94 930.739 2385.01 946.667C2374.4 965.578 2352.78 978.838 2323.59 984.964C2348.43 1027.09 2340.05 1065.65 2317.79 1086.97C2301.49 1102.58 2276.26 1110.36 2247.83 1102.94C2251.42 1131.26 2241.45 1156.04 2223.61 1171.5C2205.48 1187.22 2178.96 1193.53 2150.93 1185.35C2156.99 1214.36 2151.87 1238.51 2135.26 1254.36C2119.38 1269.5 2096.78 1273.14 2071.19 1265.6C2078.83 1305.14 2073.95 1329.4 2056.44 1342.29C2041.94 1352.95 2022.71 1353.04 1996.6 1341.99C1995.44 1355.71 1990.22 1369.14 1981.39 1380.7C1970.16 1395.42 1954.46 1405.31 1937.19 1408.57C1937.14 1408.58 1937.1 1408.58 1937.05 1408.59C1945.4 1428.83 1947.27 1450.06 1942.06 1470.52C1933.89 1502.67 1908.97 1528.23 1877.04 1537.22C1856.38 1543.04 1834.75 1541.57 1814 1533.39C1817.6 1560.31 1815.11 1586.67 1796.67 1602.41C1775.87 1620.17 1745.28 1615.67 1716.9 1605.46C1720.1 1648.51 1707.64 1682.37 1681.99 1696.09C1673.69 1700.53 1656.33 1706.55 1633.16 1697.17C1635.44 1742.12 1618.1 1771.85 1595.1 1783.18C1579.3 1790.95 1557.7 1791.67 1534.69 1778.19C1535.59 1835.7 1513.07 1854.98 1497.13 1861.42C1473.68 1870.89 1446.44 1861.45 1420.05 1835.9C1414.09 1879.39 1400.75 1902.69 1378.63 1909.71C1362.97 1914.69 1346.35 1910.5 1327.55 1896.33C1327.5 1920.98 1319.36 1936.01 1312.33 1944.39C1298.27 1961.16 1275.92 1967.69 1252.54 1961.87C1233.24 1957.07 1215.97 1944.96 1202.95 1928.05C1191.33 1954.17 1175.93 1974.19 1153.65 1976C1152.53 1976.09 1151.41 1976.13 1150.3 1976.13Z" fill="#650000"/>
<g opacity="0.6">
<path d="M1477.38 1464.02C1482.82 1469.8 1487.45 1476.25 1491.12 1483.36C1494.87 1490.43 1497.86 1498.08 1499.59 1506.41C1501.28 1514.71 1502.07 1523.68 1500.36 1533.25C1499.69 1538.02 1497.93 1542.97 1495.69 1547.85C1493.11 1552.73 1489.78 1557.53 1485.05 1561.56C1480.36 1565.54 1474.54 1568.51 1468.53 1569.92C1462.55 1571.24 1456.53 1571.17 1451.22 1570.13C1440.47 1567.99 1432.28 1562.73 1425.6 1556.96C1412.38 1545.15 1404.76 1530.57 1400.57 1515.53C1399.71 1512.43 1401.52 1509.21 1404.63 1508.34C1406.58 1507.8 1408.58 1508.32 1410 1509.54L1410.29 1509.79C1415.86 1514.66 1420.89 1519.51 1426.18 1523.71C1431.47 1527.86 1436.76 1531.53 1441.92 1534.23C1447.05 1536.87 1452.18 1538.58 1455.92 1538.58C1459.79 1538.6 1461.36 1537.64 1462.95 1536.18C1463.83 1535.47 1464.57 1534.08 1465.51 1532.61C1466.31 1530.87 1467.13 1528.94 1467.72 1526.52C1468.91 1521.79 1469.61 1515.99 1469.66 1509.83C1470.06 1497.37 1467.98 1483.71 1467.09 1468.66L1467.08 1468.46C1466.89 1465.17 1469.4 1462.35 1472.69 1462.16C1474.51 1462.05 1476.21 1462.8 1477.38 1464.02Z" fill="#650000"/>
<path d="M2140.95 789.229C2146.86 794.526 2152.02 800.56 2156.28 807.337C2160.61 814.062 2164.23 821.436 2166.66 829.589C2169.04 837.715 2170.59 846.584 2169.69 856.272C2169.42 861.079 2168.09 866.163 2166.28 871.213C2164.11 876.292 2161.2 881.357 2156.82 885.766C2152.49 890.129 2146.94 893.582 2141.07 895.495C2135.22 897.313 2129.22 897.753 2123.84 897.167C2112.95 895.937 2104.34 891.387 2097.2 886.201C2083.03 875.553 2074.21 861.664 2068.77 847.031C2067.64 844.011 2069.18 840.652 2072.2 839.529C2074.1 838.822 2076.13 839.168 2077.66 840.271L2077.97 840.498C2083.93 844.873 2089.35 849.283 2094.97 853.025C2100.6 856.712 2106.17 859.926 2111.54 862.18C2116.88 864.376 2122.13 865.644 2125.86 865.329C2129.72 865.024 2131.2 863.931 2132.66 862.341C2133.48 861.563 2134.1 860.118 2134.92 858.574C2135.56 856.77 2136.22 854.782 2136.61 852.315C2137.39 847.502 2137.6 841.669 2137.13 835.524C2136.47 823.07 2133.25 809.637 2131.1 794.717L2131.07 794.522C2130.6 791.26 2132.86 788.235 2136.12 787.764C2137.93 787.505 2139.68 788.104 2140.95 789.229Z" fill="#650000"/>
<path d="M1140.99 1708.51C1142.61 1716.28 1143.18 1724.19 1142.6 1732.18C1142.1 1740.16 1140.65 1748.25 1137.78 1756.26C1134.88 1764.21 1130.87 1772.27 1124.4 1779.54C1121.34 1783.26 1117.25 1786.56 1112.8 1789.55C1108.04 1792.36 1102.7 1794.72 1096.56 1795.68C1090.48 1796.62 1083.97 1796.11 1078.1 1794.18C1072.31 1792.17 1067.22 1788.97 1063.23 1785.31C1055.19 1777.87 1050.95 1769.1 1048.28 1760.69C1043.17 1743.72 1044.3 1727.3 1048.59 1712.29C1049.47 1709.19 1052.7 1707.4 1055.8 1708.28C1057.75 1708.84 1059.18 1710.32 1059.75 1712.11L1059.87 1712.48C1062.08 1719.54 1063.83 1726.3 1066.14 1732.65C1068.49 1738.95 1071.07 1744.84 1074.06 1749.84C1077.06 1754.78 1080.54 1758.91 1083.73 1760.87C1087.02 1762.9 1088.86 1762.91 1090.98 1762.49C1092.1 1762.35 1093.45 1761.55 1095.03 1760.79C1096.61 1759.72 1098.32 1758.51 1100.09 1756.75C1103.58 1753.34 1107.2 1748.76 1110.47 1743.53C1117.32 1733.11 1122.68 1720.38 1129.79 1707.09L1129.88 1706.92C1131.44 1704.01 1135.05 1702.91 1137.96 1704.47C1139.57 1705.33 1140.63 1706.85 1140.99 1708.51Z" fill="#650000"/>
</g>
<g opacity="0.3">
<path d="M979.695 1097.43C1019.06 1276.59 1147.15 1255.57 1236.68 1106.14C1246.5 1089.74 1255.89 1071.81 1264.62 1052.41C1432.09 751.249 1747.03 523.12 2081.61 473.978C2190.14 458.045 2257.56 344.03 2217.08 242.122C2188.35 169.901 2115.22 109.167 2000.33 69.5714C2145.59 189.347 1991.81 262.008 1743.6 320.654C1704.93 329.767 1666.87 341.229 1629.84 355.589C1344.87 466.151 1139.08 613.886 1027.43 805.876C976.166 893.943 957.845 997.949 979.695 1097.43Z" fill="#650000"/>
</g>
<path d="M2054.64 1304.29C2054.03 1435.25 1764.7 1678.04 1681.42 1671.88C1638.85 1372.29 1565.67 1084.43 1439.11 816.955C1423.12 788.777 1405.13 762.798 1385.26 738.814C1375.72 727.216 1365.67 716.155 1355.21 705.548C1144.61 490.698 763.678 463.316 337.337 499.829C337.337 499.829 407.703 244.541 798.085 211.797C1187.55 187.323 1551.32 249.431 1746.05 464.841C1770.56 491.95 1792.42 521.425 1811.28 553.53C1946.34 787.965 2017.33 1042.38 2054.64 1304.29Z" fill="#6D445B"/>
<g opacity="0.55">
<path d="M911.331 207.265C873.902 207.939 836.138 209.396 798.084 211.796C775.232 213.713 753.519 216.419 732.809 219.765C732.724 219.775 732.642 219.782 732.556 219.791L732.534 219.808C399.712 273.703 337.336 499.828 337.336 499.828C373.066 496.758 408.51 494.168 443.548 492.033C459.046 453.585 512.383 349.772 655.925 280.887C655.925 280.887 655.935 280.883 655.953 280.876C725.813 254.692 799.571 240.413 874.153 238.536C1107.63 232.659 1608.88 253.208 1790.59 521.076C1790.59 521.075 1591.41 187.479 911.331 207.265Z" fill="white"/>
</g>
<g opacity="0.55">
<path d="M832.626 495.902C708.691 490.171 575.834 495.338 438.193 507.085C438.193 507.085 439.698 501.576 443.549 492.031C580.757 483.832 711.929 483.695 832.626 495.902Z" fill="white"/>
<path d="M434.836 509.881L435.781 506.426C435.845 506.194 437.37 500.664 441.23 491.096L441.823 489.629L443.4 489.536C591.913 480.662 719.308 481.926 832.878 493.413L832.512 498.398C717.651 493.088 588.745 496.745 438.405 509.575L434.836 509.881ZM445.282 494.435C443.61 498.664 442.435 502.003 441.683 504.281C548.121 495.282 643.731 491.019 731.424 491.051C644.938 487.057 550.434 488.189 445.282 494.435Z" fill="#650000"/>
</g>
<path d="M1684.35 1691.73C1682.85 1691.73 1681.38 1691.68 1679.95 1691.57C1670.69 1690.89 1663.16 1683.85 1661.85 1674.65C1615.33 1347.26 1536.74 1069.67 1421.58 826.046C1340.14 683.104 1202.4 590.58 1000.52 543.177C831.854 503.577 615.474 495.831 339.022 519.505C332.579 520.023 326.285 517.422 322.152 512.454C318.021 507.486 316.583 500.811 318.299 494.58C319.07 491.775 338.033 425.032 407.186 354.287C470.101 289.922 588.704 209.541 796.434 192.114C1035.31 177.095 1242.09 195.156 1411.46 245.752C1606.05 303.889 1746.31 404.077 1828.32 543.533C1828.35 543.584 1828.38 543.635 1828.41 543.687C1951.61 757.52 2032.01 1005.41 2074.19 1301.51C2074.33 1302.46 2074.4 1303.43 2074.39 1304.39C2073.96 1394.92 1961.86 1508.28 1913.69 1552.82C1837.99 1622.8 1738.94 1691.73 1684.35 1691.73ZM625.722 466.668C774.423 466.668 901.323 479.314 1009.54 504.725C1223.03 554.849 1369.16 653.782 1456.28 807.174C1456.52 807.601 1456.75 808.038 1456.96 808.483C1571.8 1051.22 1650.78 1326.75 1698.24 1650.27C1736.06 1640.53 1809.43 1595.42 1886.88 1523.82C1977.13 1440.38 2033.65 1356.97 2034.88 1305.56C1993.36 1015.23 1914.65 772.509 1794.24 563.493C1717.44 432.951 1584.84 338.776 1400.15 283.598C1235.27 234.34 1033.12 216.818 799.321 231.506C645.984 244.375 520.59 295.798 437.111 380.188C400.229 417.473 378.901 453.765 367.529 477.542C460.163 470.297 546.069 466.668 625.722 466.668Z" fill="#650000"/>
<g opacity="0.3">
<path d="M2054.64 1304.29C2054.26 1389.41 1931.83 1521.84 1823.35 1602.37C1786.6 1624.46 1754.87 1637.28 1734.93 1635.79C1692.35 1336.21 1619.17 1048.34 1492.62 780.867C1492.58 780.812 1492.55 780.757 1492.52 780.702C1488.23 773.228 1492.94 763.968 1501.48 762.814C1647.1 743.136 1821.17 586.839 1746.05 464.839C1770.57 491.948 1792.42 521.423 1811.28 553.528C1946.34 787.965 2017.33 1042.38 2054.64 1304.29Z" fill="#650000"/>
</g>
<path d="M419.51 1451.19C429.61 1452.98 439.162 1455.77 448.56 1458.84C457.933 1461.95 467.116 1465.41 476.094 1469.24C494.071 1476.86 511.359 1485.74 528.211 1495.4L528.809 1495.74C538.6 1501.36 541.985 1513.85 536.37 1523.64C534.803 1526.37 532.614 1528.66 530.182 1530.34C513.848 1541.52 497.13 1552.15 479.75 1561.85C471.098 1566.76 462.232 1571.36 453.223 1575.76C444.173 1580.1 434.997 1584.27 425.348 1587.76C421.621 1589.12 417.505 1587.19 416.154 1583.46C415.26 1581 415.806 1578.36 417.348 1576.47C423.851 1568.53 430.825 1561.25 437.924 1554.16C445.065 1547.12 452.349 1540.28 459.847 1533.75C474.766 1520.57 490.347 1508.33 506.313 1496.63L508.284 1531.57C491.11 1522.49 474.372 1512.62 458.323 1501.5C450.288 1495.96 442.458 1490.04 434.818 1483.78C427.203 1477.48 419.742 1470.9 412.829 1463.32C410.108 1460.33 410.322 1455.71 413.305 1452.99C415.04 1451.41 417.364 1450.82 419.51 1451.19Z" fill="#650000"/>
<path d="M853.602 1450.04C847.269 1457.98 840.332 1464.97 833.227 1471.71C826.092 1478.4 818.759 1484.78 811.182 1490.77C803.611 1496.78 795.907 1502.58 787.983 1508.03C780.112 1513.57 772.01 1518.75 763.847 1523.83L763.489 1488.81C780.398 1499.49 796.941 1510.77 812.898 1523.01C820.896 1529.1 828.718 1535.47 836.397 1542.08C844.039 1548.75 851.568 1555.6 858.66 1563.17C861.372 1566.06 861.225 1570.6 858.333 1573.31C856.423 1575.1 853.781 1575.64 851.435 1574.97C841.47 1572.1 831.942 1568.51 822.526 1564.74C813.147 1560.91 803.911 1556.85 794.853 1552.49C776.696 1543.85 759.124 1534.25 741.918 1524.06C732.189 1518.29 728.976 1505.73 734.743 1496C736.367 1493.26 738.528 1491.04 741.015 1489.39L741.561 1489.03C749.593 1483.75 757.685 1478.55 766.008 1473.72C774.277 1468.8 782.768 1464.23 791.391 1459.87C800.008 1455.49 808.869 1451.5 817.928 1447.82C827.019 1444.18 836.275 1440.81 846.136 1438.38C850.057 1437.41 854.018 1439.8 854.985 1443.73C855.545 1446.01 854.948 1448.33 853.602 1450.04Z" fill="#650000"/>
<path d="M582.32 1606.7C592.529 1616.48 601.899 1623.46 611.939 1627.69C621.843 1631.98 632.115 1633.91 642.46 1633.46C652.805 1632.92 662.879 1629.66 671.951 1623.7C681.057 1617.71 688.911 1608.63 695.818 1596.71L695.949 1596.48C697.63 1593.58 701.348 1592.58 704.252 1594.27C706.017 1595.29 707.078 1597.1 707.26 1598.99C708.648 1614.56 703.285 1631.8 691.618 1644.91C680.115 1658.14 662.91 1666.56 645.219 1668.14C627.531 1669.91 609.117 1664.82 595.291 1654.01C581.448 1643.27 572.546 1627.3 571.604 1611.32C571.403 1607.9 574.011 1604.96 577.429 1604.76C579.212 1604.66 580.865 1605.32 582.066 1606.46L582.32 1606.7Z" fill="#650000"/>
<path d="M899.092 1706.55C929.213 1706.07 953.392 1690.73 953.097 1672.29C952.802 1653.86 928.145 1639.3 898.024 1639.78C867.903 1640.27 843.725 1655.6 844.02 1674.04C844.315 1692.48 868.971 1707.03 899.092 1706.55Z" fill="#F44906"/>
<path d="M391.511 1706.97C421.632 1706.49 445.81 1691.15 445.515 1672.72C445.22 1654.28 420.564 1639.72 390.443 1640.21C360.322 1640.69 336.143 1656.03 336.438 1674.46C336.733 1692.9 361.39 1707.45 391.511 1706.97Z" fill="#F44906"/>
<g opacity="0.2">
<path d="M1342.12 2534.95C1747.14 2534.95 2075.48 2483.31 2075.48 2419.62C2075.48 2355.92 1747.14 2304.29 1342.12 2304.29C937.1 2304.29 608.765 2355.92 608.765 2419.62C608.765 2483.31 937.1 2534.95 1342.12 2534.95Z" fill="#650000"/>
</g>
</svg>
