<svg width="335" height="400" viewBox="0 0 335 400" fill="none" xmlns="http://www.w3.org/2000/svg">
<g clip-path="url(#clip0_411_856)">
<path d="M251.083 251.083C297.307 204.86 297.307 129.918 251.083 83.6944C204.86 37.4713 129.918 37.4713 83.6945 83.6944C37.4713 129.918 37.4713 204.86 83.6945 251.083C129.918 297.307 204.86 297.307 251.083 251.083Z" fill="#F66161"/>
<path fill-rule="evenodd" clip-rule="evenodd" d="M126.397 213.207C145.303 253.682 219.142 224.501 230.954 213.207C230.954 213.207 248.917 215.995 269.004 229.75C269.004 229.75 232.708 288.25 168.467 295.879L168.09 295.923C102.777 289.711 80.7412 244.639 80.7412 244.639C112.938 213.622 126.397 213.207 126.397 213.207Z" fill="#EFE2BF"/>
<path fill-rule="evenodd" clip-rule="evenodd" d="M126.397 213.207C145.303 253.682 219.142 224.501 230.954 213.207C230.954 213.207 248.917 215.995 269.004 229.75C269.004 229.75 232.708 288.25 168.467 295.879L168.09 295.923C102.777 289.711 80.741 244.639 80.741 244.639C112.938 213.622 126.397 213.207 126.397 213.207ZM131.582 210.785C130.616 208.713 128.505 207.415 126.219 207.486C126.219 207.486 111.313 207.24 76.771 240.517C74.981 242.24 74.508 244.921 75.6 247.153C75.6 247.153 98.635 295.068 167.548 301.622L168.756 301.609L169.143 301.564C236.034 293.62 273.869 232.769 273.869 232.769C275.484 230.168 274.766 226.758 272.238 225.028C250.927 210.433 231.833 207.551 231.833 207.551C230.073 207.278 228.289 207.839 226.999 209.07C220.352 215.427 192.652 227.523 167.807 228.223C152.526 228.653 138.126 224.795 131.582 210.785Z" fill="#542919"/>
<path fill-rule="evenodd" clip-rule="evenodd" d="M251.256 219.808C251.256 219.808 263.521 225.711 267.786 228.929C267.786 228.929 263.779 237.534 256.513 246.004C256.513 246.004 247.666 240.143 238.233 237.361L251.256 219.808Z" fill="white"/>
<path fill-rule="evenodd" clip-rule="evenodd" d="M76.1853 148.247C76.1853 148.247 42.1793 153.878 26.1043 119.047C26.1043 119.047 14.4643 127.277 13.8623 143.395C13.8623 143.395 38.2743 169.093 74.0803 156.386C74.0803 156.386 73.0223 153.623 76.1853 148.247Z" fill="#EFE2BF"/>
<path fill-rule="evenodd" clip-rule="evenodd" d="M25.206 123.673C22.196 126.772 17.511 133 16.794 142.253C21.168 146.324 41.946 163.576 71.046 154.382C71.106 153.563 71.268 152.58 71.618 151.438C61.528 151.594 38.648 148.929 25.206 123.673ZM78.653 149.697C79.216 148.739 79.172 147.542 78.544 146.627C77.915 145.711 76.814 145.242 75.718 145.423C75.718 145.423 43.816 150.595 28.702 117.847C28.345 117.075 27.665 116.502 26.844 116.282C26.022 116.062 25.146 116.219 24.452 116.71C24.452 116.71 11.66 125.67 11.002 143.288C10.973 144.058 11.256 144.807 11.787 145.366C11.787 145.366 37.42 172.433 75.037 159.082C75.758 158.826 76.347 158.291 76.672 157.598C76.996 156.904 77.029 156.109 76.765 155.391L76.808 155.513C76.808 155.513 76.747 152.934 78.653 149.697Z" fill="#542919"/>
<path fill-rule="evenodd" clip-rule="evenodd" d="M27.4277 182.436C27.4277 182.436 32.5167 195.56 42.9787 198.979C42.9787 198.979 74.9767 191.243 77.0477 165.883L74.0797 156.384C74.0797 156.384 64.4987 181.26 27.4277 182.436Z" fill="#EFE2BF"/>
<path fill-rule="evenodd" clip-rule="evenodd" d="M73.3129 163.523C68.0749 171.031 56.0449 183.031 31.8519 185.049C33.8469 188.621 37.5599 193.832 43.0979 195.984C45.7709 195.228 54.6919 192.38 62.3779 186.252C68.1419 181.655 73.2369 175.169 74.1469 166.191L73.3129 163.523ZM27.3369 179.576C26.4089 179.605 25.5529 180.083 25.0409 180.857C24.5279 181.631 24.4239 182.606 24.7589 183.471C24.7589 183.471 30.5019 197.912 42.0889 201.7C42.5949 201.865 43.1349 201.886 43.6509 201.761C43.6509 201.761 55.7769 198.835 65.9449 190.726C72.9489 185.141 79.0009 177.145 79.9009 166.116C79.9309 165.749 79.8909 165.38 79.7819 165.029L76.8109 155.53C76.4499 154.368 75.3919 153.563 74.1739 153.523C72.9559 153.484 71.8479 154.218 71.4109 155.355C71.4109 155.355 62.2259 178.469 27.3369 179.576Z" fill="#542919"/>
<path d="M85.1655 172.841C92.9317 172.841 99.2275 165.918 99.2275 157.377C99.2275 148.837 92.9317 141.913 85.1655 141.913C77.3993 141.913 71.1035 148.837 71.1035 157.377C71.1035 165.918 77.3993 172.841 85.1655 172.841Z" fill="#EFE2BF"/>
<path fill-rule="evenodd" clip-rule="evenodd" d="M85.1652 144.775C91.4252 144.775 96.3652 150.493 96.3652 157.377C96.3652 164.261 91.4252 169.979 85.1652 169.979C78.9052 169.979 73.9652 164.261 73.9652 157.377C73.9652 150.493 78.9052 144.775 85.1652 144.775ZM85.1652 139.051C75.9012 139.051 68.2412 147.191 68.2412 157.377C68.2412 167.563 75.9012 175.703 85.1652 175.703C94.4262 175.703 102.089 167.563 102.089 157.377C102.089 147.191 94.4262 139.051 85.1652 139.051Z" fill="#542919"/>
<path d="M173.714 287.679C200.028 287.679 221.359 270.601 221.359 249.533C221.359 228.466 200.028 211.387 173.714 211.387C147.401 211.387 126.069 228.466 126.069 249.533C126.069 270.601 147.401 287.679 173.714 287.679Z" fill="#EFE2BF"/>
<path fill-rule="evenodd" clip-rule="evenodd" d="M99.2266 228.369C118.179 213.46 126.398 213.207 126.398 213.207C147.616 258.633 186.95 271.109 186.95 271.109L176.852 284.398C158.749 280.573 120.663 268.028 99.2266 228.369Z" fill="#F66161"/>
<path fill-rule="evenodd" clip-rule="evenodd" d="M168.09 295.923C168.09 295.923 210.686 232.585 230.955 213.206C230.955 213.206 238.347 214.353 248.951 218.808C236.567 238.83 209.972 274.777 168.441 295.746L168.09 295.923Z" fill="#F66161"/>
<path fill-rule="evenodd" clip-rule="evenodd" d="M171.067 72.9202C171.067 72.9202 125.447 76.3672 110.849 87.4782C110.849 87.4782 83.1691 76.8962 53.2781 75.2362C53.2781 75.2362 39.2261 121.293 84.3791 150.343L82.5791 202.535C82.5791 202.535 99.1951 235.722 142.611 240.338C192.284 245.619 222.178 228.746 237.9 214.53C263.168 191.683 259.618 158.614 259.618 158.614L222.349 102.036C222.349 102.036 230.548 54.5972 206.467 35.5322C206.47 35.5322 188.385 41.1542 171.067 72.9202Z" fill="#FEA726"/>
<path fill-rule="evenodd" clip-rule="evenodd" d="M108.895 90.6664L104.895 96.7424C104.895 96.7424 69.8027 81.4754 53.3457 78.5764C53.3457 78.5764 79.1887 79.8834 108.895 90.6664Z" fill="white"/>
<path fill-rule="evenodd" clip-rule="evenodd" d="M203.82 39.1614C208.77 36.9964 219.559 91.2994 218.53 94.7564C218.53 94.7564 223.999 55.1464 203.82 39.1614Z" fill="white"/>
<path fill-rule="evenodd" clip-rule="evenodd" d="M173.966 240.755C164.526 241.596 154.098 241.559 142.613 240.338C99.197 235.722 82.581 202.535 82.581 202.535L84.381 150.343C39.228 121.293 53.28 75.2363 53.28 75.2363C54.484 75.3033 55.685 75.3843 56.883 75.4793L64.86 92.1103C64.86 92.1103 68.384 135.674 103.571 132.145L163.14 122.849C163.14 122.849 82.885 139.072 116.299 188.656C116.299 188.656 124.796 234.973 218.53 224.781L173.966 240.755Z" fill="#FE8226"/>
<path fill-rule="evenodd" clip-rule="evenodd" d="M82.6241 201.239C87.5081 191.287 96.6491 177.397 110.85 173.503C133.686 167.242 134.566 190.972 153.201 179.336C171.835 167.701 179.849 162.731 194.989 160.905C206.176 159.556 207.228 172.779 218.715 166.885C227.791 162.23 235.963 135.714 250.395 144.61L259.62 158.614C259.62 158.614 263.17 191.683 237.902 214.53C222.179 228.746 192.286 245.619 142.613 240.338C99.1971 235.722 82.5811 202.535 82.5811 202.535L82.6241 201.239Z" fill="#FEFEFE"/>
<path fill-rule="evenodd" clip-rule="evenodd" d="M108.957 174.09C110.754 179.486 113.139 184.55 116.299 188.655C116.299 188.655 126.748 236.427 220.482 226.236C211.602 234.02 196.544 238.61 173.965 240.754L173.568 240.789L173.505 240.794L173.138 240.825L173.045 240.833L172.694 240.862L172.585 240.871L172.241 240.898L172.125 240.907L171.784 240.932L171.665 240.941L171.324 240.965L171.205 240.973L170.858 240.997L170.752 241.004L170.391 241.027L170.315 241.032C169.6 241.077 168.882 241.117 168.161 241.152L168.075 241.156L167.731 241.172L167.595 241.178L167.274 241.192L167.115 241.199L166.804 241.212L166.632 241.219L166.328 241.23L166.146 241.236L165.848 241.246L165.659 241.252L165.361 241.261L165.172 241.266L164.874 241.274L164.685 241.279L164.387 241.287L164.202 241.291L163.894 241.298L163.725 241.301L163.401 241.307L163.312 241.308L162.922 241.314L162.515 241.319L162.442 241.32L162.138 241.323L161.939 241.325L161.658 241.327L161.44 241.328L161.165 241.329H160.937H160.666H160.431L160.163 241.328L159.925 241.327L159.66 241.325L159.415 241.323L159.154 241.321L158.903 241.318L158.645 241.315L158.39 241.311L158.132 241.307L157.871 241.302L157.62 241.297L157.349 241.291L157.107 241.286L156.796 241.279L156.591 241.274L156.082 241.26L155.877 241.254L155.563 241.244L155.335 241.236L155.041 241.226L154.803 241.217L154.518 241.206L154.273 241.196L153.988 241.184L153.746 241.174L153.461 241.161L153.216 241.15L152.928 241.137L152.683 241.125L152.395 241.111L152.153 241.098L151.858 241.082L151.62 241.069L151.316 241.052L151.084 241.039L150.763 241.02L150.548 241.007L150.178 240.984L150.012 240.973L149.473 240.937L149.36 240.929L148.93 240.899L148.732 240.885L148.388 240.86L148.166 240.843L147.845 240.818L147.61 240.8L147.296 240.775L147.058 240.755L146.747 240.729L146.505 240.709L146.197 240.682L145.952 240.661L145.641 240.634L145.396 240.612L145.085 240.583L144.843 240.56L144.522 240.529L144.287 240.507L143.95 240.474L143.728 240.452L143.354 240.414L143.169 240.395L142.61 240.336C99.1941 235.72 82.5781 202.533 82.5781 202.533L82.6211 201.237C87.2891 191.737 95.8321 178.644 108.957 174.09Z" fill="#D0DEE2"/>
<path fill-rule="evenodd" clip-rule="evenodd" d="M203.82 39.1613C199.443 41.1723 185.258 49.2873 171.448 74.6213C170.981 75.4743 170.118 76.0323 169.149 76.1063C169.149 76.1063 147.074 77.7703 128.886 82.5343C121.412 84.4923 114.596 86.9313 110.45 90.0873C109.663 90.6873 108.617 90.8373 107.694 90.4833C107.694 90.4833 81.8703 80.6123 53.3463 78.5763C51.3483 87.7723 46.2824 124.128 83.7964 148.265C84.6434 148.811 85.1434 149.763 85.1104 150.771L83.3334 202.189C85.8014 206.603 102.457 233.747 140.781 237.821C189.283 242.978 218.498 226.617 233.847 212.737C255.969 192.736 255.016 164.55 254.692 159.909L217.827 103.941C217.427 103.333 217.275 102.596 217.397 101.879C217.397 101.879 220.266 85.2613 217.503 67.9593C215.804 57.3303 212.009 46.3823 203.82 39.1613ZM167.167 70.5273C184.978 38.6423 203.486 33.1293 203.486 33.1293C204.389 32.8483 205.372 33.0313 206.113 33.6183C216.307 41.6903 221.151 54.5103 223.156 67.0573C225.631 82.5573 223.818 97.5383 223.212 101.712L259.875 157.371C260.126 157.752 260.282 158.187 260.332 158.64C260.332 158.64 264.051 193.148 237.687 216.986C221.594 231.538 191.025 248.923 140.174 243.517C95.0773 238.723 77.8853 204.149 77.8853 204.149C77.6703 203.721 77.5674 203.246 77.5844 202.768L79.3284 152.185C33.9174 121.861 48.4054 74.7324 48.4054 74.7324C48.7894 73.4714 49.9863 72.6363 51.3033 72.7093C77.5773 74.1683 102.17 82.4213 108.288 84.6063C112.947 81.5173 119.862 78.9793 127.432 76.9963C143.175 72.8723 161.754 71.0083 167.167 70.5273Z" fill="#542919"/>
<path fill-rule="evenodd" clip-rule="evenodd" d="M234.673 120.742C234.673 120.742 243.17 112.312 230.292 101.705C217.415 91.0984 184.374 95.1804 155.5 101.374C126.629 107.568 58.8838 127.214 84.0428 160.115C84.0428 160.115 97.9198 134.022 167.428 119.903C234.025 106.376 234.673 120.742 234.673 120.742Z" fill="#EFE2BF"/>
<path fill-rule="evenodd" clip-rule="evenodd" d="M208.819 189.715C208.819 189.715 220.641 204.263 214.378 214.861C209.918 222.412 194.331 227.977 192.872 217.839C191.416 207.701 190.202 194.678 190.202 194.678C190.202 194.678 200.164 192.099 198.454 187.73" fill="#FC6B80"/>
<path fill-rule="evenodd" clip-rule="evenodd" d="M195.088 188.918C195.366 188.7 195.472 188.505 195.217 188.377C195.042 188.29 195.026 188.661 195.088 188.918ZM195.082 188.922C194.44 187.114 195.35 185.107 197.147 184.402C198.987 183.682 201.061 184.589 201.782 186.426C202.732 189.081 202.057 191.463 200.105 193.386C198.454 195.009 195.678 196.229 193.627 196.97L195.304 217.49C195.658 221.485 199.311 221.821 203.053 221.066C207.358 220.198 211.963 217.984 214.379 214.862C213.171 217.707 210.673 220.437 207.679 222.438C205.591 223.834 203.285 224.779 201.095 225.192C195.91 226.169 191.569 224.041 190.444 218.189C189.772 214.452 189.121 210.327 188.575 206.596C187.632 200.193 186.993 194.978 186.993 194.978C186.847 193.403 187.867 191.955 189.395 191.559C189.395 191.559 191.317 190.979 193.16 189.99C193.679 189.711 194.615 189.286 195.082 188.922Z" fill="#542919"/>
<path fill-rule="evenodd" clip-rule="evenodd" d="M195.671 185.927C195.671 185.927 196.581 187.416 197.587 190.401C197.948 191.472 198.226 192.706 198.593 194.146C198.878 195.278 199.096 196.53 199.443 197.882C199.804 199.278 200.293 200.74 200.723 202.383C201.292 204.566 201.964 206.824 202.367 209.533C202.347 210.017 202.728 210.426 203.211 210.445C203.694 210.464 204.104 210.086 204.121 209.602C204.799 206.625 205.19 204.03 205.269 201.541C205.309 200.373 205.249 199.281 205.123 198.23C205.03 197.467 204.895 196.736 204.7 196.051C204.124 194.032 203.34 192.333 202.496 190.923C199.704 186.263 196.871 184.649 196.871 184.649C196.52 184.317 195.964 184.334 195.63 184.687C195.3 185.039 195.317 185.595 195.671 185.927Z" fill="#542919"/>
<path fill-rule="evenodd" clip-rule="evenodd" d="M208.125 89.1323C208.125 89.1323 209.637 63.7903 203.824 51.4133C200.648 49.8243 195.159 56.8923 191.251 66.3023C191.251 66.3023 197.028 70.8514 199.523 75.5664C202.018 80.2814 185.957 76.8893 185.957 76.8893C185.957 76.8893 203.919 84.8073 208.125 89.1323Z" fill="#542919"/>
<path fill-rule="evenodd" clip-rule="evenodd" d="M81.0718 132.145C81.0718 132.145 91.5898 107.853 103.571 99.3893L87.3587 106.006C87.3587 106.006 88.2557 99.3853 89.3437 95.7493C89.3437 95.7493 81.1017 95.7843 76.7707 99.7193C76.7707 99.7193 69.6377 89.6482 62.2127 87.1462C62.2127 87.1462 56.2668 108.357 81.0718 132.145Z" fill="#542919"/>
<path fill-rule="evenodd" clip-rule="evenodd" d="M196.213 181.444C202.096 179.712 210.771 167.526 210.771 167.526C210.771 167.526 202.635 157.315 189.596 161.922C173.883 167.474 172.391 178.786 172.391 178.786C172.391 178.786 193.881 182.131 196.213 181.444Z" fill="#542919"/>
<path fill-rule="evenodd" clip-rule="evenodd" d="M131.757 161.529C131.757 161.529 134.996 160.48 139.625 160.369C141.858 160.315 144.356 160.667 147.113 161.357C148.483 161.7 149.929 162.044 151.424 162.622C154.468 163.796 157.73 165.426 161.036 168.452C161.546 169.059 162.452 169.137 163.061 168.626C163.666 168.115 163.746 167.208 163.233 166.601C160.421 162.207 157.347 159.206 154.121 157.206C152.324 156.093 150.485 155.323 148.672 154.901C145.099 154.067 141.721 154.354 138.918 155.04C133.548 156.354 130.309 159.046 130.309 159.046C129.624 159.445 129.392 160.326 129.793 161.011C130.192 161.697 131.072 161.928 131.757 161.529Z" fill="#542919"/>
<path fill-rule="evenodd" clip-rule="evenodd" d="M227.742 132.564C227.742 132.564 223.775 132.456 219.03 134.625C216.555 135.757 213.888 137.53 211.748 140.254C210.663 141.635 209.766 143.293 209.114 145.177C207.943 148.559 207.48 152.569 208.045 157.456C208.025 158.249 208.654 158.908 209.448 158.926C210.239 158.945 210.897 158.316 210.917 157.523C211.592 153.396 213.058 150.336 214.603 147.716C215.357 146.435 216.214 145.357 217.005 144.314C218.596 142.214 220.178 140.494 221.812 139.225C225.226 136.579 228.165 135.407 228.165 135.407C228.949 135.29 229.492 134.558 229.373 133.774C229.257 132.989 228.526 132.447 227.742 132.564Z" fill="#542919"/>
<path fill-rule="evenodd" clip-rule="evenodd" d="M194.331 188.917L191.949 172.876C191.751 171.661 192.571 170.511 193.785 170.309C195.003 170.107 196.151 170.93 196.353 172.145L199.638 190.042C199.827 191.177 199.231 192.297 198.182 192.774L174.495 203.85C173.628 204.245 172.619 204.173 171.818 203.66C171.818 203.66 168.188 201.422 164.278 198.584C159.113 194.836 153.488 190.156 153.488 190.156C152.879 189.767 152.701 188.956 153.088 188.347C153.478 187.738 154.289 187.56 154.898 187.95C154.898 187.95 161.505 191.095 167.074 194.213C169.761 195.718 172.183 197.222 173.582 198.115L194.331 188.917Z" fill="#542919"/>
<path fill-rule="evenodd" clip-rule="evenodd" d="M211.523 187.054C212.089 186.02 212.899 184.581 213.846 182.988C214.551 181.8 215.328 180.53 216.159 179.289C219.226 174.704 222.531 170.368 222.531 170.368C222.882 169.736 223.679 169.508 224.311 169.859C224.943 170.21 225.171 171.009 224.821 171.641C224.821 171.641 222.882 176.736 220.606 181.761C219.991 183.122 219.322 184.452 218.684 185.679C216.997 188.928 215.538 191.407 215.538 191.407C214.982 192.403 213.88 192.964 212.752 192.826L199.203 191.028C198.161 190.901 197.291 190.171 196.983 189.166L191.027 168.176C190.666 166.998 191.331 165.75 192.509 165.391C193.687 165.032 194.934 165.697 195.295 166.875L201.519 185.941L211.523 187.054Z" fill="#542919"/>
<path fill-rule="evenodd" clip-rule="evenodd" d="M191.773 113.732C203.194 112.245 211.638 111.925 217.878 112.249C218.599 110.193 218.692 108.397 218.308 106.826C217.607 103.937 215.353 101.863 212.875 100.344C210.205 98.7054 207.234 97.7134 205.288 97.1814C199.538 97.0644 193.274 97.4334 186.783 98.1394C187.461 98.5374 188.159 99.0334 188.838 99.6524C190.019 100.724 191.095 102.195 191.832 104.111C192.077 104.742 192.259 105.432 192.378 106.17C192.53 107.129 192.606 108.16 192.537 109.282C192.451 110.66 192.207 112.126 191.773 113.732ZM214.785 97.9104C217.819 99.8384 220.43 102.528 221.3 106.1C221.753 107.966 221.743 110.087 221.035 112.483C225.67 112.939 228.827 113.789 230.974 114.715C232.685 115.453 233.882 116.264 234.719 117.044C235.166 116.02 235.513 114.689 235.404 113.129C235.209 110.353 233.568 106.99 229.022 103.247C225.611 100.437 220.691 98.7714 214.785 97.9104ZM182.949 98.5934C174.022 99.7254 164.774 101.428 155.92 103.328C155.434 103.432 154.937 103.54 154.428 103.652C160.609 108.969 161.945 115.451 162.18 118.967C163.768 118.619 165.383 118.278 167.031 117.944C175.581 116.207 183.065 114.93 189.616 114.022C189.589 113.363 189.543 112.733 189.494 112.118C189.375 110.657 189.127 109.399 188.859 108.238C188.657 107.37 188.393 106.597 188.148 105.868C187.873 105.05 187.612 104.304 187.288 103.637C186.759 102.555 186.206 101.647 185.571 100.912C184.646 99.8484 183.697 99.0934 182.949 98.5934ZM129.722 128.229C138.063 125.181 147.797 122.256 159.136 119.651C159.014 116.604 157.879 109.633 150.547 104.537C142.676 106.387 133.005 109.005 123.373 112.396C125.252 120.981 128.24 126.088 129.722 128.229ZM103.157 140.693C109.248 136.995 116.987 133.092 126.761 129.338C125.034 126.696 122.274 121.531 120.455 113.446C112.504 116.383 104.706 119.851 98.1085 123.852C96.1465 129.51 96.5795 133.401 97.9695 136.052C99.3955 138.769 101.771 140.11 103.157 140.693ZM94.2015 126.388C93.1795 127.102 92.1935 127.83 91.2535 128.575C85.0335 133.509 80.8245 139.075 80.5595 145.425C80.4135 148.944 81.4955 152.666 84.0265 156.617C86.3095 153.675 91.1235 148.486 100.146 142.59C98.4825 141.588 96.5565 139.98 95.2465 137.485C93.8865 134.896 93.1525 131.31 94.2015 126.388ZM232.688 120.973C232.668 120.923 232.427 120.377 231.841 119.855C230.802 118.932 228.916 117.945 225.588 117.199C217.22 115.325 200.654 115.192 167.825 121.86C99.5745 135.724 85.8075 161.052 85.8075 161.052C85.4895 161.653 84.8875 162.05 84.2095 162.105C83.5315 162.161 82.8695 161.868 82.4565 161.327C78.0855 155.609 76.3585 150.236 76.5665 145.256C76.8775 137.852 81.5165 131.195 88.7725 125.441C105.838 111.909 137.535 103.182 155.081 99.4184C172.571 95.6664 191.575 92.6974 206.789 93.2234C217.36 93.5884 226.145 95.6964 231.564 100.161C237.321 104.904 239.144 109.329 239.392 112.845C239.792 118.52 236.08 122.159 236.08 122.159C235.521 122.714 234.69 122.888 233.956 122.605C233.26 122.338 232.774 121.707 232.688 120.973Z" fill="#542919"/>
<path fill-rule="evenodd" clip-rule="evenodd" d="M235.457 155.454C239.725 151.561 245.433 150.858 248.195 153.885C250.958 156.912 249.733 162.531 245.465 166.424C241.2 170.317 235.493 171.02 232.73 167.993C229.968 164.966 231.193 159.347 235.457 155.454Z" fill="#FC6B80"/>
<path fill-rule="evenodd" clip-rule="evenodd" d="M134.672 144.056C133.183 146.967 138.9 151.423 146.583 152.989C154.266 154.556 165.562 155.129 164.119 148.357C162.677 141.585 139.165 135.266 134.672 144.056Z" fill="#FEFEFE"/>
<path fill-rule="evenodd" clip-rule="evenodd" d="M216.423 122.489C219.857 124.506 218.924 129.046 213.237 134.569C207.612 140.033 201.382 149.342 197.508 143.601C194.117 138.569 198.166 134.211 201.465 128.876C205.246 122.757 211.873 119.819 216.423 122.489Z" fill="#FEFEFE"/>
<path fill-rule="evenodd" clip-rule="evenodd" d="M213.339 229.226C213.339 229.226 198.831 245.872 183.756 267.627C181.943 270.24 180.113 272.918 178.373 275.698C177.235 277.52 176.116 279.364 175.081 281.273C172.487 286.059 170.287 290.98 168.073 295.914C168.07 295.922 168.073 295.933 168.08 295.938C168.09 295.943 168.1 295.94 168.107 295.932C170.863 292.343 173.778 288.93 176.607 285.346C178.476 282.979 180.296 280.605 182.063 278.207C189.322 268.361 196.201 258.851 202.16 251.244C210.958 240.018 217.251 232.585 217.251 232.585C218.178 231.507 218.055 229.879 216.976 228.951C215.897 228.025 214.269 228.148 213.339 229.226Z" fill="#542919"/>
<path fill-rule="evenodd" clip-rule="evenodd" d="M246.737 217.339C246.737 217.339 227.51 246.069 201.62 270.282C190.093 281.065 177.281 291.007 164.146 296.982C163.292 297.358 162.909 298.356 163.282 299.208C163.659 300.061 164.658 300.447 165.509 300.071C179.134 294.238 192.597 284.417 204.617 273.538C231.321 249.369 251.014 220.216 251.014 220.216C251.808 219.036 251.494 217.433 250.312 216.64C249.135 215.845 247.531 216.16 246.737 217.339Z" fill="#542919"/>
<path fill-rule="evenodd" clip-rule="evenodd" d="M207.297 236.444C207.297 236.444 167.279 264.94 105.903 272.839C105.903 272.839 89.5682 261.785 80.7412 244.64C80.7412 244.64 91.4842 233.917 101.261 226.793C101.261 226.793 117.156 242.073 153.902 244.049C184.693 245.704 207.297 236.444 207.297 236.444Z" fill="#D1A66C"/>
<path fill-rule="evenodd" clip-rule="evenodd" d="M127.628 239.83C134.791 241.869 143.513 243.49 153.902 244.049C184.692 245.705 207.297 236.444 207.297 236.444C207.297 236.444 178.396 257.023 132.058 268.05C128.243 262.566 126.069 256.251 126.069 249.533C126.07 246.181 126.612 242.93 127.628 239.83Z" fill="#D1A66C"/>
<path fill-rule="evenodd" clip-rule="evenodd" d="M101.261 226.793C101.311 226.841 115.118 240.063 146.662 243.467C152.353 249.612 158.156 254.524 163.52 258.4C155.096 261.584 145.61 264.664 135.198 267.281C122.066 258.736 108.937 246.334 99.2256 228.369C99.9176 227.825 100.596 227.3 101.261 226.793Z" fill="#DB3E3E"/>
<path fill-rule="evenodd" clip-rule="evenodd" d="M214.785 97.9104C214.898 97.9444 239.173 99.8814 234.925 117.255C225.846 112.37 230.365 103.632 214.785 97.9104Z" fill="white"/>
<path fill-rule="evenodd" clip-rule="evenodd" d="M191.31 97.7003C195.783 97.1583 200.366 96.8303 205.289 97.1813C205.289 97.1813 222.431 99.7323 217.878 112.249L202.202 112.617C202.202 112.617 208.359 100.804 191.31 97.7003Z" fill="white"/>
<path fill-rule="evenodd" clip-rule="evenodd" d="M189.616 114.022C189.616 114.022 189.887 102.315 182.949 98.5923C182.949 98.5923 173.655 99.0963 169.797 100.392C169.797 100.392 179.415 105.36 174.257 116.382C174.257 116.382 184.941 114.977 189.616 114.022Z" fill="white"/>
<path fill-rule="evenodd" clip-rule="evenodd" d="M157.145 120.115C157.145 120.115 155.894 109.662 148.542 105.015L137.349 107.965C137.349 107.965 148.063 110.377 146.441 122.875C146.441 122.875 152.88 121.091 157.145 120.115Z" fill="white"/>
<path fill-rule="evenodd" clip-rule="evenodd" d="M126.761 129.339C126.761 129.339 121.821 120.989 120.455 113.447C120.455 113.447 115.36 115.59 109.444 117.946C109.444 117.946 114.52 119.515 116.806 124.866C119.092 130.217 116.28 133.756 116.28 133.756C116.28 133.756 123.979 130.487 126.761 129.339Z" fill="white"/>
<path fill-rule="evenodd" clip-rule="evenodd" d="M142.673 242.882C142.673 242.882 147.451 249.1 156.943 255.942C159.332 257.664 161.995 259.431 165.019 261.056C167.692 262.492 170.581 263.73 173.704 264.97C173.714 264.975 173.724 264.972 173.73 264.963C173.733 264.954 173.73 264.943 173.723 264.939C169.726 262.118 166.358 259.16 163.208 256.44C160.763 254.33 158.506 252.399 156.558 250.549C150.106 244.422 146.787 239.779 146.787 239.779C145.93 238.644 144.312 238.418 143.177 239.275C142.044 240.129 141.816 241.746 142.673 242.882Z" fill="#542919"/>
<path fill-rule="evenodd" clip-rule="evenodd" d="M96.9728 229.622C96.9728 229.622 108.077 249.316 130.288 265.375C136.495 269.862 143.562 274.081 151.513 277.4C158.627 280.368 166.428 282.558 174.869 283.814C174.879 283.816 174.889 283.81 174.889 283.8C174.892 283.79 174.886 283.781 174.876 283.779C166.694 281.736 159.295 278.708 152.509 275.247C145.038 271.435 138.381 267.028 132.535 262.406C111.849 246.057 101.477 227.116 101.477 227.116C100.785 225.873 99.2168 225.426 97.9728 226.117C96.7318 226.808 96.2818 228.379 96.9728 229.622Z" fill="#542919"/>
<path fill-rule="evenodd" clip-rule="evenodd" d="M110.562 183.327C117.719 181.124 124.812 183.512 126.397 188.655C127.978 193.799 123.456 199.763 116.299 201.965C109.146 204.168 102.049 201.78 100.467 196.637C98.8819 191.494 103.405 185.53 110.562 183.327Z" fill="#FC6B80"/>
<path fill-rule="evenodd" clip-rule="evenodd" d="M217.286 116.136C217.286 116.136 225.022 117.154 226.746 117.483C226.746 117.483 247.124 148.816 252.524 156.616C252.524 156.616 229.095 124.65 217.286 116.136Z" fill="white"/>
<path fill-rule="evenodd" clip-rule="evenodd" d="M213.713 258.208C226.154 244.752 237.009 231.296 246.505 217.839L239.421 215.192C239.421 215.192 228.781 235.351 213.713 258.208Z" fill="white"/>
<path fill-rule="evenodd" clip-rule="evenodd" d="M198.612 163.577C201.487 163.577 203.823 164.985 203.823 166.72C203.823 168.455 201.487 169.863 198.612 169.863C195.733 169.863 193.401 168.455 193.401 166.72C193.401 164.985 195.734 163.577 198.612 163.577Z" fill="white"/>
<path d="M106.944 364.215C105.369 364.43 103.937 364.358 102.647 364C101.358 363.642 100.195 363.087 99.1562 362.335C98.1536 361.583 97.2764 360.688 96.5244 359.649C95.8083 358.611 95.2174 357.501 94.752 356.319C94.4297 353.884 94.5192 351.682 95.0205 349.713C95.5218 347.708 96.2559 345.864 97.2227 344.181C98.1895 342.498 99.2816 340.922 100.499 339.454C101.752 337.986 102.952 336.572 104.098 335.211C104.348 335.318 104.545 335.318 104.688 335.211C104.868 335.104 105.011 334.96 105.118 334.781C105.261 334.602 105.405 334.423 105.548 334.244C105.727 334.065 105.924 333.94 106.139 333.868C106.282 333.546 106.461 333.277 106.676 333.062C106.926 332.848 107.177 332.651 107.428 332.472C107.714 332.257 107.965 332.042 108.18 331.827C108.43 331.612 108.645 331.344 108.824 331.021C109.182 330.95 109.487 330.825 109.737 330.646C110.024 330.466 110.274 330.27 110.489 330.055C110.74 329.84 110.991 329.643 111.241 329.464C111.492 329.285 111.796 329.142 112.154 329.034V328.336C112.942 327.978 113.515 327.584 113.873 327.154C114.231 326.725 114.661 326.17 115.162 325.489C115.556 325.453 115.86 325.436 116.075 325.436C116.326 325.436 116.702 325.4 117.203 325.328C117.525 324.719 117.83 324.272 118.116 323.985C118.403 323.699 118.814 323.377 119.352 323.019C119.889 323.305 120.462 323.484 121.07 323.556C121.679 323.591 122.234 323.86 122.735 324.361C122.771 324.791 122.896 325.131 123.111 325.382C123.326 325.597 123.559 325.812 123.81 326.026C124.06 326.205 124.311 326.402 124.562 326.617C124.812 326.832 124.973 327.136 125.045 327.53C125.224 327.53 125.331 327.494 125.367 327.423C125.439 327.351 125.564 327.333 125.743 327.369C125.815 327.656 125.886 327.888 125.958 328.067C126.03 328.246 126.101 328.408 126.173 328.551C126.28 328.694 126.37 328.855 126.441 329.034C126.549 329.213 126.638 329.428 126.71 329.679C126.531 330.108 126.37 330.574 126.227 331.075C126.083 331.541 125.797 331.863 125.367 332.042C125.367 332.328 125.475 332.49 125.689 332.525C125.904 332.525 126.03 332.651 126.065 332.901C126.101 333.224 126.048 333.492 125.904 333.707C126.907 335.39 127.82 337.162 128.644 339.024C129.467 340.851 130.398 342.605 131.437 344.288C131.365 344.789 131.383 345.291 131.49 345.792C131.633 346.257 131.795 346.723 131.974 347.188C132.188 347.654 132.385 348.119 132.564 348.585C132.743 349.05 132.869 349.516 132.94 349.981C133.012 350.59 133.012 351.253 132.94 351.969C132.869 352.649 132.726 353.312 132.511 353.956C132.296 354.601 132.009 355.209 131.651 355.782C131.293 356.319 130.882 356.731 130.416 357.018C129.843 357.734 129.127 358.325 128.268 358.79C127.408 359.22 126.62 359.739 125.904 360.348C125.403 360.634 124.866 360.849 124.293 360.992C123.72 361.1 123.129 361.225 122.521 361.368C122.055 361.655 121.5 361.941 120.855 362.228C120.211 362.478 119.549 362.711 118.868 362.926C118.188 363.141 117.507 363.32 116.827 363.463C116.147 363.57 115.538 363.588 115.001 363.517C113.712 363.982 112.459 364.304 111.241 364.483C110.024 364.662 108.591 364.573 106.944 364.215ZM107.643 344.664C107.285 345.488 106.855 346.24 106.354 346.92C105.888 347.564 105.423 348.227 104.957 348.907C104.492 349.588 104.08 350.322 103.722 351.109C103.399 351.861 103.22 352.757 103.185 353.795C103.901 354.404 104.742 354.78 105.709 354.923C106.712 355.03 107.732 355.048 108.771 354.977C109.809 354.869 110.847 354.726 111.886 354.547C112.924 354.368 113.855 354.278 114.679 354.278C114.679 353.956 114.822 353.795 115.108 353.795C116.612 353.652 118.009 353.24 119.298 352.56C120.587 351.843 121.93 351.127 123.326 350.411C123.505 349.981 123.738 349.605 124.024 349.283C124.311 348.961 124.472 348.495 124.508 347.887C124.329 347.564 124.203 347.296 124.132 347.081C124.096 346.866 124.078 346.544 124.078 346.114C123.147 344.825 122.341 343.429 121.661 341.925C120.981 340.385 120.193 338.935 119.298 337.574C119.226 337.753 119.083 337.932 118.868 338.111C118.653 338.29 118.421 338.255 118.17 338.004C118.062 338.362 117.901 338.613 117.687 338.756C117.472 338.863 117.221 338.917 116.935 338.917C116.684 338.917 116.415 338.863 116.129 338.756C115.878 338.648 115.646 338.505 115.431 338.326C114.177 339.329 112.924 340.296 111.671 341.227C110.453 342.158 109.343 343.25 108.341 344.503C108.162 344.61 108.054 344.646 108.019 344.61C107.983 344.575 107.857 344.592 107.643 344.664ZM134.713 339.83C134.964 339.078 135.357 338.434 135.895 337.896C136.467 337.359 137.076 336.912 137.721 336.554C138.401 336.16 139.099 335.838 139.815 335.587C140.532 335.336 141.212 335.121 141.856 334.942C143.289 334.334 144.811 333.761 146.422 333.224C148.069 332.651 149.734 332.149 151.417 331.72C153.136 331.29 154.89 331.021 156.681 330.914C158.471 330.771 160.351 330.986 162.32 331.559C162.428 331.917 162.589 332.257 162.804 332.579C163.019 332.901 163.233 333.224 163.448 333.546C163.699 333.868 163.914 334.19 164.093 334.513C164.272 334.799 164.379 335.104 164.415 335.426C164.773 335.748 165.06 336.106 165.274 336.5C165.489 336.858 165.525 337.341 165.382 337.95C165.024 338.237 164.666 338.505 164.308 338.756C163.985 338.971 163.627 339.168 163.233 339.347C161.909 339.024 160.566 338.917 159.205 339.024C157.844 339.132 156.627 339.221 155.553 339.293C155.23 338.971 154.837 338.81 154.371 338.81C153.941 338.81 153.476 338.881 152.975 339.024C152.509 339.168 152.026 339.311 151.524 339.454C151.059 339.597 150.611 339.633 150.182 339.562C149.824 339.848 149.376 340.045 148.839 340.152C148.338 340.224 147.783 340.296 147.174 340.367C147.138 340.546 147.174 340.672 147.281 340.743C147.389 340.779 147.407 340.886 147.335 341.065C147.55 341.316 147.818 341.495 148.141 341.603C148.499 341.71 148.857 341.817 149.215 341.925C149.609 342.032 149.949 342.175 150.235 342.354C150.522 342.498 150.719 342.748 150.826 343.106C151.363 343.106 151.829 343.232 152.223 343.482C152.617 343.733 152.939 344.037 153.189 344.396C153.44 344.754 153.619 345.147 153.727 345.577C153.87 345.971 153.941 346.329 153.941 346.651C154.049 346.938 154.174 347.063 154.317 347.027C154.461 346.992 154.622 347.063 154.801 347.242C154.908 347.708 155.177 348.191 155.606 348.692C156.036 349.158 156.376 349.677 156.627 350.25C156.699 351.145 156.752 351.951 156.788 352.667C156.824 353.347 156.699 354.046 156.412 354.762C155.875 356.087 155.123 357.268 154.156 358.307C153.225 359.345 152.151 360.276 150.934 361.1C149.752 361.887 148.481 362.568 147.12 363.141C145.759 363.714 144.435 364.197 143.146 364.591C143.002 364.555 142.859 364.555 142.716 364.591C142.573 364.627 142.537 364.537 142.608 364.322C142.322 364.573 142 364.734 141.642 364.806C141.319 364.877 140.961 364.895 140.567 364.859C140.174 364.859 139.762 364.841 139.332 364.806C138.938 364.77 138.562 364.788 138.204 364.859C137.953 364.609 137.721 364.358 137.506 364.107C137.327 363.893 137.184 363.606 137.076 363.248C136.897 363.248 136.808 363.159 136.808 362.979C136.843 362.8 136.79 362.711 136.646 362.711C136.861 362.353 136.951 362.156 136.915 362.12C136.915 362.049 136.861 361.995 136.754 361.959C136.682 361.923 136.611 361.887 136.539 361.852C136.467 361.78 136.45 361.69 136.485 361.583C136.629 361.297 136.682 360.974 136.646 360.616C136.611 360.222 136.575 359.828 136.539 359.435C136.503 359.041 136.521 358.665 136.593 358.307C136.7 357.949 136.969 357.662 137.398 357.447C138.616 357.59 139.762 357.555 140.836 357.34C141.946 357.089 142.984 356.749 143.951 356.319C144.918 355.89 145.831 355.424 146.69 354.923C147.586 354.422 148.463 353.974 149.322 353.58C149.43 353.258 149.573 352.989 149.752 352.774C149.967 352.56 150.182 352.363 150.396 352.184C150.611 352.005 150.808 351.808 150.987 351.593C151.166 351.378 151.292 351.109 151.363 350.787C151.399 350.536 151.327 350.393 151.148 350.357C151.005 350.286 150.934 350.143 150.934 349.928L150.343 349.767C149.662 349.373 148.893 349.05 148.033 348.8C147.174 348.513 146.44 348.209 145.831 347.887C145.437 348.102 145.061 348.155 144.703 348.048C144.381 347.94 143.951 347.833 143.414 347.726C142.197 347.654 141.015 347.529 139.869 347.35C138.759 347.171 137.685 346.848 136.646 346.383C136.575 346.204 136.485 346.043 136.378 345.899C136.271 345.756 136.074 345.72 135.787 345.792C135.572 345.506 135.357 345.237 135.143 344.986C134.928 344.7 134.731 344.396 134.552 344.073C134.623 343.644 134.677 343.285 134.713 342.999C134.749 342.677 134.641 342.372 134.391 342.086C134.534 341.62 134.641 341.244 134.713 340.958C134.785 340.672 134.785 340.296 134.713 339.83ZM186.866 358.79C186.938 359.721 186.83 360.491 186.544 361.1C186.257 361.708 185.864 362.228 185.362 362.657C184.861 363.087 184.288 363.427 183.644 363.678C182.999 363.928 182.372 364.161 181.764 364.376C181.477 364.197 181.191 364.018 180.904 363.839C180.654 363.624 180.349 363.463 179.991 363.355C179.526 362.496 179.078 361.744 178.648 361.1C178.219 360.419 178.022 359.649 178.058 358.79C178.058 358.754 178.076 358.557 178.111 358.199C178.183 357.841 178.255 357.447 178.326 357.018C178.434 356.588 178.505 356.194 178.541 355.836C178.613 355.442 178.648 355.227 178.648 355.191C177.825 355.263 176.965 355.442 176.07 355.729C175.175 356.015 174.298 356.355 173.438 356.749C172.615 357.143 171.827 357.537 171.075 357.931C170.359 358.325 169.768 358.665 169.303 358.951C169.303 359.059 169.231 359.327 169.088 359.757C168.945 360.151 168.766 360.58 168.551 361.046C168.336 361.476 168.103 361.869 167.853 362.228C167.602 362.586 167.351 362.765 167.101 362.765C167.136 362.872 167.19 362.979 167.262 363.087C167.333 363.194 167.333 363.338 167.262 363.517C166.76 363.66 166.313 363.839 165.919 364.054C165.525 364.304 165.113 364.501 164.684 364.645C164.254 364.824 163.788 364.913 163.287 364.913C162.786 364.913 162.195 364.734 161.515 364.376C161.515 364.161 161.425 363.982 161.246 363.839C161.067 363.66 160.87 363.517 160.655 363.409C160.476 363.266 160.315 363.159 160.172 363.087C160.029 362.979 159.957 362.89 159.957 362.818C159.778 362.854 159.706 362.729 159.742 362.442C159.778 362.156 159.921 362.084 160.172 362.228C159.778 361.726 159.527 361.297 159.42 360.938C159.348 360.545 159.151 360.061 158.829 359.488C158.901 359.417 158.972 359.291 159.044 359.112C159.08 358.933 159.116 358.772 159.151 358.629C159.187 358.486 159.241 358.378 159.312 358.307C159.384 358.235 159.474 358.253 159.581 358.36C159.509 358.038 159.509 357.77 159.581 357.555C159.653 357.34 159.724 357.143 159.796 356.964C159.868 356.785 159.921 356.606 159.957 356.427C159.993 356.248 159.939 356.051 159.796 355.836C160.369 355.048 160.745 354.207 160.924 353.312C161.103 352.381 161.21 351.539 161.246 350.787C161.497 350.536 161.712 350.178 161.891 349.713C162.105 349.247 162.267 348.782 162.374 348.316C162.481 347.815 162.517 347.35 162.481 346.92C162.481 346.454 162.428 346.078 162.32 345.792C162.356 345.613 162.553 345.559 162.911 345.631C163.126 344.449 163.269 343.124 163.341 341.656C163.448 340.152 163.609 338.738 163.824 337.413C164.039 336.052 164.397 334.871 164.898 333.868C165.4 332.83 166.205 332.149 167.315 331.827C167.53 332.579 167.799 333.242 168.121 333.814C168.479 334.387 168.855 334.942 169.249 335.479C169.679 335.981 170.09 336.5 170.484 337.037C170.914 337.574 171.308 338.183 171.666 338.863C171.63 339.544 171.559 340.331 171.451 341.227C171.344 342.122 171.201 343.035 171.021 343.966C170.878 344.897 170.717 345.792 170.538 346.651C170.395 347.511 170.252 348.245 170.108 348.854C170.144 349.033 170.234 349.14 170.377 349.176C170.556 349.212 170.592 349.373 170.484 349.659C171.344 349.444 172.239 349.247 173.17 349.068C174.101 348.889 175.032 348.692 175.963 348.478C176.894 348.263 177.789 348.03 178.648 347.779C179.544 347.493 180.367 347.153 181.119 346.759C181.298 345.362 181.531 343.966 181.817 342.569C182.104 341.173 182.14 339.741 181.925 338.272C182.104 338.129 182.247 337.95 182.354 337.735C182.462 337.521 182.641 337.377 182.892 337.306C182.713 336.625 182.641 335.909 182.677 335.157C182.713 334.405 182.838 333.689 183.053 333.009C183.303 332.328 183.644 331.756 184.073 331.29C184.539 330.789 185.094 330.466 185.738 330.323C186.132 330.896 186.472 331.523 186.759 332.203C187.045 332.848 187.332 333.51 187.618 334.19C187.94 334.835 188.263 335.462 188.585 336.07C188.943 336.643 189.391 337.145 189.928 337.574C190.035 338.613 190.107 339.687 190.143 340.797C190.214 341.907 190.268 343.035 190.304 344.181C190.017 345.541 189.695 346.866 189.337 348.155C189.015 349.409 188.782 350.751 188.639 352.184C188.388 352.47 188.191 352.792 188.048 353.15C187.905 353.508 187.761 353.884 187.618 354.278C187.475 354.636 187.314 354.994 187.135 355.353C186.956 355.675 186.741 355.961 186.49 356.212C186.633 356.642 186.651 357.053 186.544 357.447C186.472 357.805 186.58 358.253 186.866 358.79ZM202.765 360.24C202.944 361.314 202.872 362.156 202.55 362.765C202.263 363.373 201.834 363.821 201.261 364.107C200.724 364.43 200.097 364.609 199.381 364.645C198.665 364.68 197.984 364.645 197.34 364.537C196.982 364.036 196.66 363.409 196.373 362.657C196.087 361.905 195.818 361.135 195.567 360.348C195.317 359.524 195.084 358.718 194.869 357.931C194.69 357.143 194.529 356.445 194.386 355.836C194.565 355.406 194.672 354.923 194.708 354.386C194.78 353.813 194.815 353.24 194.815 352.667C194.851 352.094 194.869 351.521 194.869 350.948C194.905 350.34 194.959 349.767 195.03 349.229C195.281 347.726 195.639 346.293 196.104 344.933C196.606 343.572 197 342.158 197.286 340.689C197.358 340.367 197.322 340.063 197.179 339.776C197.071 339.49 197.053 339.221 197.125 338.971C197.161 338.827 197.268 338.738 197.447 338.702C197.626 338.631 197.734 338.505 197.77 338.326C197.877 337.932 197.895 337.61 197.823 337.359C197.787 337.109 197.859 336.804 198.038 336.446C198.217 336.16 198.432 335.748 198.683 335.211C198.969 334.638 199.076 334.047 199.005 333.438C199.327 333.224 199.632 332.973 199.918 332.687C200.204 332.4 200.491 332.149 200.777 331.935C201.1 331.684 201.44 331.469 201.798 331.29C202.192 331.111 202.657 331.021 203.194 331.021C203.481 331.38 203.66 331.773 203.731 332.203C203.839 332.633 203.928 333.062 204 333.492C204.107 333.922 204.251 334.334 204.43 334.728C204.609 335.086 204.913 335.372 205.343 335.587C205.343 335.873 205.343 336.231 205.343 336.661C205.343 337.091 205.361 337.521 205.396 337.95C205.432 338.344 205.504 338.72 205.611 339.078C205.755 339.4 205.969 339.615 206.256 339.723C205.611 341.441 205.003 343.142 204.43 344.825C203.893 346.508 203.445 348.209 203.087 349.928C202.729 351.611 202.496 353.312 202.389 355.03C202.317 356.749 202.442 358.486 202.765 360.24ZM220.006 354.225C219.684 354.296 219.451 354.493 219.308 354.815C219.164 355.102 219.021 355.406 218.878 355.729C218.771 356.051 218.645 356.355 218.502 356.642C218.395 356.892 218.215 357.018 217.965 357.018C217.929 357.304 217.822 357.555 217.643 357.77C217.499 357.984 217.356 358.217 217.213 358.468C217.07 358.683 216.962 358.933 216.891 359.22C216.819 359.47 216.855 359.775 216.998 360.133C216.712 360.348 216.533 360.652 216.461 361.046C216.389 361.44 216.3 361.816 216.192 362.174C216.121 362.532 215.978 362.836 215.763 363.087C215.548 363.338 215.154 363.445 214.581 363.409C214.474 363.552 214.456 363.642 214.527 363.678C214.599 363.714 214.653 363.839 214.688 364.054C214.295 363.982 213.99 364 213.775 364.107C213.596 364.251 213.364 364.34 213.077 364.376C212.397 364.161 211.824 363.785 211.358 363.248C210.929 362.711 210.535 362.12 210.177 361.476C209.854 360.795 209.55 360.115 209.264 359.435C209.013 358.754 208.762 358.163 208.512 357.662C208.619 357.268 208.637 356.892 208.565 356.534C208.494 356.14 208.368 355.818 208.189 355.567C209.944 351.843 211.86 347.869 213.937 343.644C216.013 339.418 217.983 335.247 219.845 331.129C220.668 331.451 221.474 331.827 222.262 332.257C223.085 332.651 223.819 333.116 224.464 333.653C225.144 334.19 225.717 334.817 226.183 335.533C226.648 336.214 226.952 336.983 227.096 337.843C227.024 338.058 226.935 338.147 226.827 338.111C226.756 338.04 226.684 338.058 226.612 338.165C226.756 338.344 226.827 338.469 226.827 338.541C226.863 338.613 226.863 338.684 226.827 338.756C226.827 338.827 226.827 338.935 226.827 339.078C226.827 339.186 226.881 339.347 226.988 339.562C226.845 339.526 226.738 339.544 226.666 339.615C226.63 339.687 226.523 339.687 226.344 339.615C226.487 340.009 226.523 340.331 226.451 340.582C226.415 340.833 226.344 341.065 226.236 341.28C226.129 341.459 226.039 341.674 225.968 341.925C225.896 342.14 225.914 342.426 226.021 342.784C225.914 342.784 225.825 342.82 225.753 342.892C225.717 342.927 225.681 342.981 225.646 343.053C225.61 343.089 225.556 343.142 225.484 343.214C225.449 343.25 225.377 343.25 225.27 343.214C225.377 344.002 225.413 344.789 225.377 345.577C225.341 346.365 225.305 347.171 225.27 347.994C225.27 348.782 225.287 349.623 225.323 350.519C225.359 351.378 225.484 352.273 225.699 353.204C226.988 352.452 228.009 351.485 228.761 350.304C229.549 349.122 230.175 347.797 230.641 346.329C231.142 344.861 231.518 343.285 231.769 341.603C232.019 339.92 232.288 338.201 232.574 336.446C232.896 336.124 233.147 335.73 233.326 335.265C233.505 334.799 233.666 334.316 233.81 333.814C233.953 333.277 234.096 332.758 234.239 332.257C234.382 331.72 234.562 331.236 234.776 330.807C235.313 330.878 235.761 331.057 236.119 331.344C236.513 331.594 236.871 331.881 237.193 332.203C237.516 332.49 237.856 332.776 238.214 333.062C238.572 333.313 239.02 333.474 239.557 333.546C239.986 334.155 240.38 334.745 240.738 335.318C241.096 335.891 241.329 336.5 241.437 337.145C241.257 337.431 241.114 337.753 241.007 338.111C240.935 338.469 240.846 338.827 240.738 339.186C240.631 339.544 240.488 339.884 240.309 340.206C240.13 340.493 239.879 340.743 239.557 340.958C239.449 341.889 239.306 342.748 239.127 343.536C238.984 344.288 238.823 345.04 238.644 345.792C238.5 346.544 238.375 347.332 238.268 348.155C238.16 348.943 238.124 349.82 238.16 350.787C237.874 351.611 237.569 352.488 237.247 353.419C236.925 354.35 236.674 355.191 236.495 355.943C235.922 356.409 235.475 356.964 235.152 357.608C234.83 358.253 234.49 358.897 234.132 359.542C233.989 359.685 233.899 359.721 233.863 359.649C233.827 359.578 233.702 359.524 233.487 359.488C233.523 359.632 233.523 359.739 233.487 359.811C233.451 359.882 233.398 359.954 233.326 360.025C233.29 360.061 233.255 360.133 233.219 360.24C233.219 360.348 233.255 360.491 233.326 360.67C232.825 360.885 232.377 361.189 231.983 361.583C231.59 361.977 231.16 362.335 230.694 362.657C230.265 362.979 229.728 363.194 229.083 363.302C228.474 363.409 227.669 363.284 226.666 362.926C225.198 361.852 223.891 360.616 222.745 359.22C221.635 357.823 220.722 356.158 220.006 354.225Z" fill="white"/>
</g>
<defs>
<clipPath id="clip0_411_856">
<rect width="334.78" height="400" fill="white"/>
</clipPath>
</defs>
</svg>
