<svg width="1568" height="366" viewBox="0 0 1568 366" fill="none" xmlns="http://www.w3.org/2000/svg">
<g clip-path="url(#clip0_195_120)">
<path d="M288.9 313.3C259.5 343.9 220.8 359.2 172.8 359.2C124.8 359.2 86.1 343.9 56.7 313.3C27.3 282.4 12.6 241.9 12.6 191.8C12.6 141.7 27.3 101.2 56.7 70.3C86.1 39.7 124.8 24.4 172.8 24.4C220.8 24.4 259.5 39.7 288.9 70.3C318 100.6 332.55 141.1 332.55 191.8C332.55 242.5 318 283 288.9 313.3ZM76.05 191.8C76.05 226.9 84.9 254.65 102.6 275.05C120.3 295.45 143.7 305.65 172.8 305.65C202.2 305.65 225.75 295.45 243.45 275.05C260.85 254.95 269.55 227.2 269.55 191.8C269.55 156.4 260.85 128.65 243.45 108.55C225.75 88.15 202.2 77.95 172.8 77.95C143.7 77.95 120.3 88.15 102.6 108.55C84.9 128.95 76.05 156.7 76.05 191.8ZM534.945 359.2C491.445 359.2 457.695 349.45 433.695 329.95C409.995 310.45 397.995 282.55 397.695 246.25H457.545C457.845 269.05 464.595 285.4 477.795 295.3C491.295 305.2 510.945 310.15 536.745 310.15C557.745 310.15 573.795 306.25 584.895 298.45C595.995 290.35 601.545 278.8 601.545 263.8C601.545 251.2 596.745 241.6 587.145 235C577.845 228.4 560.745 222.55 535.845 217.45L508.845 212.05C440.145 199.15 405.795 166.75 405.795 114.85C405.795 87.25 416.295 65.35 437.295 49.15C458.295 32.65 487.395 24.4 524.595 24.4C566.895 24.4 598.845 33.4 620.445 51.4C642.345 69.4 653.895 94.6 655.095 127H596.145C594.945 108.7 588.795 95.2 577.695 86.5C566.895 77.8 549.495 73.45 525.495 73.45C506.895 73.45 492.645 76.9 482.745 83.8C472.845 90.7 467.895 100.45 467.895 113.05C467.895 125.95 472.395 135.85 481.395 142.75C490.695 149.65 507.045 155.5 530.445 160.3L558.345 165.7C595.845 173.2 622.845 184.45 639.345 199.45C656.145 214.15 664.545 234.55 664.545 260.65C664.545 291.85 653.145 316.15 630.345 333.55C607.545 350.65 575.745 359.2 534.945 359.2ZM954.218 160.3V31.6H1014.97V352H954.218V215.2H805.268V352H744.518V31.6H805.268V160.3H954.218ZM1172.83 352H1112.08V31.6H1172.83V352ZM1482.41 115.3V31.6H1540.91V352H1473.41L1384.31 209.35C1360.01 171.25 1340.96 139.15 1327.16 113.05C1328.36 146.65 1328.96 198.4 1328.96 268.3V352H1270.46V31.6H1337.96L1427.51 174.25C1454.21 217.45 1473.11 249.55 1484.21 270.55C1483.01 225.85 1482.41 174.1 1482.41 115.3Z" fill="#F43233"/>
</g>
<defs>
<clipPath id="clip0_195_120">
<rect width="1568" height="366" fill="white"/>
</clipPath>
</defs>
</svg>
