<svg width="510" height="480" viewBox="0 0 510 480" fill="none" xmlns="http://www.w3.org/2000/svg">
<path d="M432.429 372.037C433.063 313.348 353.806 264.909 255.404 263.846C157.002 262.783 76.7172 309.499 76.0833 368.188C75.4494 426.877 154.706 475.315 253.108 476.378C351.51 477.441 431.795 430.726 432.429 372.037Z" fill="#84A3BF"/>
<path d="M256.435 479.354C255.258 479.354 254.085 479.347 252.905 479.334C221.158 478.971 189.997 473.614 162.789 463.841C136.266 454.314 113.974 440.805 98.3252 424.777C81.5858 407.632 72.8705 388.006 73.1215 368.021C73.4916 338.548 92.8857 311.174 127.732 290.94C162.094 270.988 207.513 260.29 255.641 260.852C287.387 261.215 318.549 266.572 345.756 276.345C372.28 285.872 394.571 299.38 410.22 315.408C426.96 332.554 435.675 352.18 435.424 372.165C435.054 401.637 415.66 429.012 380.813 449.245C347.295 468.707 303.242 479.354 256.435 479.354ZM252.131 266.777C157.08 266.777 79.7727 311.811 79.066 368.096C78.8353 386.468 86.9661 404.632 102.579 420.624C133.667 452.466 191.295 472.685 252.972 473.389C254.117 473.402 255.274 473.409 256.413 473.409C351.464 473.414 428.773 428.374 429.479 372.09C429.71 353.718 421.579 335.554 405.966 319.562C374.878 287.72 317.251 267.501 255.573 266.797C254.429 266.784 253.27 266.777 252.131 266.777Z" fill="#371A45"/>
<path d="M507.023 314.997C506.897 325.057 505.115 334.871 501.836 344.337C499.623 350.732 496.731 356.97 493.197 363.024C480.067 385.528 458.167 405.514 429.932 421.553C384.153 447.566 321.732 463.214 253.11 462.43C154.532 461.305 69.5985 426.573 28.8023 376.911C20.1475 366.376 13.4781 355.178 9.08969 343.476C4.94783 332.455 2.83128 320.991 2.97891 309.241C4.02104 226.232 117.7 160.225 256.884 161.815C388.863 163.322 496.389 225.059 506.284 302.219C506.826 306.432 507.077 310.698 507.023 314.997Z" fill="#BAD7E8"/>
<g opacity="0.3">
<path d="M506.279 302.22C506.58 304.548 506.779 306.899 506.91 309.253C506.929 309.693 506.936 310.135 506.958 310.588C506.97 311.056 506.995 311.522 507.007 311.991C507.031 312.982 507.031 313.991 507.019 315.004C507.012 316.217 506.967 317.439 506.905 318.652C506.904 318.706 506.9 318.747 506.896 318.788C506.829 319.975 506.746 321.152 506.635 322.322C506.627 322.404 506.618 322.487 506.61 322.57C506.506 323.711 506.363 324.861 506.217 325.998C506.202 326.11 506.184 326.208 506.179 326.303C506.017 327.431 505.84 328.548 505.65 329.669C505.622 329.783 505.61 329.907 505.581 330.021C505.388 331.128 505.164 332.216 504.929 333.32C504.905 333.447 504.879 333.574 504.854 333.701C504.601 334.782 504.348 335.863 504.069 336.949C504.031 337.079 503.993 337.209 503.971 337.349C503.677 338.426 503.379 339.49 503.056 340.56C503.018 340.69 502.98 340.819 502.942 340.949C502.606 342.022 502.258 343.098 501.893 344.164C501.866 344.224 501.852 344.281 501.838 344.338C499.623 350.726 496.724 356.961 493.194 363.03C493.008 363.341 492.823 363.653 492.637 363.965C492.452 364.276 492.276 364.572 492.088 364.871C491.892 365.198 491.684 365.528 491.476 365.858C491.291 366.17 491.092 366.484 490.894 366.799C490.696 367.113 490.485 367.431 490.276 367.761C490.065 368.078 489.854 368.396 489.646 368.726C489.444 369.028 489.233 369.345 489.032 369.646C488.801 369.995 488.554 370.334 488.311 370.686C488.119 370.972 487.938 371.242 487.744 371.515C487.326 372.109 486.907 372.702 486.473 373.286C486.309 373.512 486.144 373.738 485.977 373.951C485.691 374.353 485.391 374.758 485.089 375.15C484.895 375.423 484.685 375.686 484.488 375.946C484.206 376.307 483.936 376.665 483.651 377.012C483.444 377.288 483.234 377.551 483.024 377.815C482.729 378.178 482.447 378.539 482.152 378.902C481.952 379.15 481.739 379.4 481.539 379.648C481.191 380.077 480.837 380.481 480.5 380.894C480.342 381.092 480.182 381.276 480.022 381.461C479.521 382.046 479.02 382.632 478.503 383.207C478.323 383.423 478.127 383.63 477.947 383.846C477.6 384.221 477.244 384.612 476.9 384.999C476.672 385.24 476.456 385.478 476.23 385.731C475.906 386.088 475.57 386.447 475.23 386.794C475.002 387.034 474.773 387.275 474.544 387.516C474.198 387.891 473.836 388.256 473.476 388.634C473.268 388.843 473.062 389.065 472.853 389.274C472.337 389.796 471.822 390.317 471.293 390.842C471.16 390.966 471.026 391.091 470.906 391.213C470.4 391.718 469.888 392.199 469.38 392.691C469.158 392.903 468.937 393.115 468.712 393.315C468.337 393.683 467.946 394.041 467.558 394.412C467.311 394.63 467.067 394.861 466.82 395.079C466.442 395.434 466.048 395.78 465.657 396.138C465.423 396.353 465.175 396.571 464.941 396.786C464.502 397.169 464.063 397.552 463.614 397.95C463.422 398.115 463.23 398.28 463.028 398.461C462.407 398.992 461.763 399.543 461.116 400.081C460.957 400.212 460.801 400.355 460.628 400.488C460.128 400.899 459.64 401.306 459.127 401.719C458.903 401.918 458.662 402.108 458.422 402.297C457.977 402.655 457.532 403.012 457.087 403.369C456.834 403.561 456.596 403.763 456.343 403.955C455.872 404.319 455.402 404.682 454.931 405.045C454.714 405.216 454.483 405.389 454.266 405.56C453.646 406.038 453.023 406.503 452.387 406.971C452.319 407.027 452.238 407.086 452.169 407.142C451.453 407.669 450.723 408.198 449.993 408.728C449.831 408.846 449.656 408.966 449.494 409.084C448.924 409.483 448.369 409.893 447.798 410.292C447.575 410.437 447.355 410.595 447.131 410.74C446.596 411.118 446.049 411.498 445.498 411.866C445.291 412.021 445.08 412.163 444.869 412.306C444.235 412.719 443.603 413.146 442.969 413.56C442.852 413.64 442.723 413.724 442.606 413.804C441.022 414.852 439.42 415.877 437.786 416.882C437.693 416.943 437.599 417.005 437.492 417.07C436.783 417.514 436.059 417.948 435.335 418.383C435.205 418.466 435.076 418.55 434.956 418.617C434.196 419.073 433.446 419.513 432.686 419.969C432.625 419.997 432.554 420.04 432.495 420.08C386.495 446.974 323.021 463.227 253.111 462.434C203.824 461.87 157.942 452.909 119.287 437.872C80.6315 422.835 49.2092 401.748 28.7974 376.912C28.7945 376.9 28.7945 376.9 28.7916 376.887C27.1707 374.927 25.6398 372.946 24.157 370.942C24.1383 370.919 24.1325 370.893 24.1137 370.871C23.6611 370.247 23.2114 369.636 22.7746 369.022C22.5332 368.673 22.3075 368.334 22.0561 368C21.9039 367.806 21.7744 367.593 21.632 367.383C21.4996 367.158 21.3573 366.948 21.2149 366.738C20.7722 366.098 20.3553 365.453 19.9411 364.82C19.9254 364.81 19.9225 364.797 19.9196 364.785C19.0482 363.448 18.2153 362.103 17.4239 360.762C17.3376 360.62 17.2641 360.475 17.1807 360.346C16.8728 359.824 16.5805 359.312 16.2854 358.786C16.1776 358.609 16.0824 358.429 15.9744 358.251C15.6979 357.749 15.4215 357.246 15.1607 356.754C15.0657 356.574 14.9734 356.406 14.8813 356.238C14.5746 355.662 14.2678 355.086 13.9739 354.507C13.9277 354.423 13.8818 354.339 13.8327 354.242C13.4869 353.554 13.138 352.852 12.8051 352.161C12.8022 352.148 12.8022 352.148 12.8022 352.148C12.475 351.482 12.1606 350.813 11.859 350.142C11.7984 349.994 11.7406 349.859 11.67 349.727C11.4233 349.177 11.1737 348.615 10.9399 348.062C10.8792 347.914 10.8186 347.767 10.7451 347.622C10.5025 347.031 10.2599 346.44 10.0172 345.849C9.98099 345.749 9.93486 345.666 9.89881 345.566C5.23084 333.906 2.82431 321.744 2.9851 309.24C3.00731 307.323 3.09651 305.405 3.24277 303.5C3.87926 316.186 7.16029 328.512 12.7706 340.28C39.7669 317.595 89.1376 292.936 133.766 292.663C135.289 294.013 136.926 295.336 138.667 296.636C140.618 298.09 142.681 299.505 144.87 300.877C124.008 307.179 91.2756 320.09 60.7111 344.827C44.2134 358.199 44.9269 383.605 62.1727 395.967C107.985 428.788 176.473 450.06 253.257 450.93C307.2 451.551 357.302 442.006 398.516 425.264C416.131 418.1 422.872 396.624 412.372 380.813C389.004 345.665 351.544 324.027 336.259 316.241C349.194 312.055 360.427 306.856 369.415 300.864C414 308.222 460.904 336.001 488.562 359.05C490.305 356.512 491.934 353.947 493.446 351.34C496.719 345.68 495.262 338.459 490.107 334.436C452.813 305.289 411.064 293.676 383.274 289.062C383.722 288.542 384.171 288.023 384.593 287.509C387.721 283.996 390.71 280.353 393.547 276.569C433.203 273.255 477.806 286.667 506.279 302.22Z" fill="white"/>
</g>
<path d="M258.063 465.429C256.403 465.429 254.744 465.42 253.079 465.401C208.311 464.889 164.375 457.337 126.02 443.561C88.6786 430.147 57.3098 411.145 35.3055 388.606C11.8628 364.595 -0.34344 337.138 0.00735348 309.205C0.525086 267.969 27.7389 229.622 76.6364 201.23C125.05 173.12 189.089 158.057 256.921 158.839C301.689 159.35 345.625 166.903 383.98 180.68C421.321 194.093 452.69 213.095 474.694 235.634C498.137 259.645 510.343 287.102 509.993 315.035C509.475 356.271 482.261 394.618 433.363 423.01C386.138 450.43 324.053 465.429 258.063 465.429ZM251.976 164.756C116.867 164.756 6.95984 228.998 5.95188 309.279C5.62142 335.6 17.2427 361.595 39.5596 384.453C83.7514 429.717 165.593 458.457 253.147 459.455C254.773 459.474 256.405 459.484 258.024 459.484C393.133 459.484 503.04 395.242 504.048 314.96C504.379 288.64 492.757 262.645 470.44 239.787C426.248 194.523 344.407 165.783 256.853 164.784C255.227 164.766 253.595 164.756 251.976 164.756Z" fill="#371A45"/>
<path d="M463.063 301.683C465.179 294.667 458.419 286.424 447.965 283.272C437.511 280.119 427.321 283.251 425.206 290.267C423.09 297.283 429.85 305.526 440.304 308.678C450.758 311.83 460.947 308.699 463.063 301.683Z" fill="#4AEEFF"/>
<path d="M434.814 234.275C435.199 227.608 428.43 221.795 419.694 221.291C410.959 220.787 403.566 225.783 403.182 232.449C402.797 239.116 409.566 244.929 418.302 245.433C427.037 245.937 434.43 240.941 434.814 234.275Z" fill="#4AEEFF"/>
<path d="M424.882 293.746C425.487 300.901 433.768 307.833 443.973 309.526C454.644 311.288 463.362 306.65 463.456 299.164C463.486 296.718 462.589 294.261 460.987 292.009C461.026 292.327 461.036 292.653 461.032 292.978C460.938 300.464 452.22 305.102 441.549 303.34C434.378 302.155 428.154 298.372 424.882 293.746Z" fill="#4DD9FF"/>
<g opacity="0.7">
<path d="M427.463 300.152C427.33 299.451 427.261 298.75 427.27 298.043C427.364 290.557 436.082 285.919 446.746 287.681C453.811 288.851 459.951 292.526 463.26 297.054C461.92 290.315 453.978 284.009 444.311 282.414C433.646 280.645 424.929 285.289 424.835 292.776C424.803 295.307 425.763 297.842 427.463 300.152Z" fill="white"/>
</g>
<path d="M403.175 232.811C403.075 238.502 408.267 243.751 415.84 245.117C424.409 246.657 432.772 242.638 434.519 236.131C435.225 233.495 434.741 230.852 433.339 228.545C433.322 229.295 433.221 230.05 433.02 230.804C431.266 237.31 422.903 241.33 414.334 239.79C409.243 238.876 405.223 236.193 403.175 232.811Z" fill="#4DD9FF"/>
<g opacity="0.7">
<path d="M409.301 242.66C407.898 240.353 407.421 237.717 408.128 235.088C409.875 228.582 418.237 224.562 426.807 226.103C429.267 226.548 431.481 227.4 433.338 228.553C431.29 225.157 427.27 222.481 422.172 221.56C413.61 220.013 405.24 224.039 403.493 230.545C402.252 235.176 404.695 239.821 409.301 242.66Z" fill="white"/>
</g>
<path d="M448.361 313.235C446.751 313.235 445.097 313.099 443.427 312.823C431.009 310.769 421.372 301.944 421.487 292.732C421.534 289.008 423.21 285.576 426.206 283.068C430.601 279.387 437.574 277.908 444.86 279.113C457.279 281.167 466.915 289.993 466.799 299.205C466.753 302.928 465.077 306.36 462.081 308.869C458.693 311.706 453.773 313.235 448.361 313.235ZM439.832 285.38C436.027 285.38 432.69 286.361 430.5 288.195C428.98 289.469 428.198 291.023 428.175 292.816C428.102 298.606 435.587 304.747 444.519 306.225C449.906 307.115 454.865 306.188 457.786 303.741C459.306 302.468 460.089 300.914 460.111 299.121C460.184 293.33 452.7 287.19 443.768 285.712C442.421 285.489 441.1 285.38 439.832 285.38Z" fill="#371A45"/>
<path d="M419.598 248.798C418.169 248.798 416.713 248.671 415.244 248.407C409.488 247.37 404.649 244.349 401.968 240.118C399.924 236.894 399.319 233.185 400.263 229.674C402.487 221.404 412.372 216.395 422.765 218.266C428.521 219.303 433.36 222.324 436.041 226.554C438.085 229.778 438.69 233.488 437.746 236.999C435.837 244.1 428.277 248.798 419.598 248.798ZM418.532 224.577C412.882 224.577 407.813 227.355 406.722 231.411C406.142 233.567 406.889 235.389 407.617 236.538C409.274 239.153 412.569 241.129 416.429 241.824C423.197 243.043 430.003 240.038 431.287 235.262C431.867 233.106 431.121 231.284 430.392 230.135C428.735 227.52 425.441 225.544 421.58 224.849C420.559 224.665 419.536 224.577 418.532 224.577Z" fill="#371A45"/>
<g opacity="0.5">
<path d="M356.066 286.115C301.303 311.983 351.758 286.017 351.758 286.017C351.758 286.017 353.275 285.999 356.066 286.115Z" fill="white"/>
</g>
<g opacity="0.5">
<path d="M162.394 296.34C165.129 295.771 166.627 295.533 166.627 295.533C166.627 295.533 220.649 312.851 162.394 296.34Z" fill="white"/>
</g>
<path d="M283.562 381.673C283.682 368.523 270.772 357.744 254.727 357.598C238.682 357.452 225.579 367.994 225.459 381.144C225.339 394.294 238.249 405.072 254.294 405.218C270.339 405.364 283.443 394.823 283.562 381.673Z" fill="#4AEEFF"/>
<path d="M283.541 381.749C283.376 394.899 270.233 405.411 254.192 405.228C238.144 405.044 225.276 394.235 225.441 381.086C225.456 379.856 225.585 378.655 225.819 377.477C227.809 388.926 239.737 397.822 254.283 397.989C268.822 398.155 280.977 389.533 283.253 378.133C283.458 379.316 283.556 380.519 283.541 381.749Z" fill="#4DD9FF"/>
<g opacity="0.7">
<path d="M283.541 381.75C283.525 383.022 283.389 384.272 283.14 385.493C281.093 374.093 269.185 365.26 254.696 365.095C240.199 364.929 228.08 373.487 225.748 384.837C225.53 383.611 225.425 382.359 225.441 381.086C225.606 367.937 238.741 357.425 254.79 357.608C270.831 357.791 283.706 368.601 283.541 381.75Z" fill="white"/>
</g>
<path d="M254.599 408.572C254.449 408.572 254.3 408.571 254.15 408.569C244.529 408.46 235.518 404.818 229.426 398.578C224.617 393.653 222.014 387.426 222.094 381.044C222.28 366.2 236.72 354.263 254.376 354.263C254.526 354.263 254.674 354.264 254.825 354.265C264.445 354.375 273.456 358.016 279.548 364.256C284.357 369.181 286.961 375.409 286.881 381.791C286.695 396.635 272.254 408.572 254.599 408.572ZM254.374 360.951C240.366 360.951 228.922 369.94 228.782 381.128C228.723 385.789 230.601 390.208 234.212 393.906C239.073 398.886 246.368 401.792 254.226 401.882C254.351 401.883 254.478 401.884 254.602 401.884C268.609 401.884 280.053 392.894 280.193 381.708C280.252 377.047 278.374 372.627 274.763 368.929C269.902 363.949 262.607 361.043 254.749 360.953C254.624 360.952 254.498 360.951 254.374 360.951Z" fill="#371A45"/>
<path d="M404.137 364.69C408.704 354.688 403.219 342.385 391.887 337.212C380.554 332.038 367.666 335.953 363.099 345.955C358.533 355.958 364.018 368.261 375.35 373.434C386.683 378.608 399.571 374.693 404.137 364.69Z" fill="#4AEEFF"/>
<path d="M374.041 200.858C374.338 195.699 369.1 191.201 362.341 190.811C355.581 190.421 349.86 194.287 349.562 199.446C349.265 204.605 354.503 209.103 361.263 209.493C368.022 209.883 373.743 206.017 374.041 200.858Z" fill="#4AEEFF"/>
<path d="M362.257 212.85C361.109 212.85 359.94 212.748 358.761 212.536C354.099 211.696 350.171 209.235 347.983 205.783C346.286 203.107 345.785 200.023 346.572 197.099C348.394 190.323 356.422 186.205 364.849 187.723C369.511 188.563 373.439 191.024 375.627 194.476C377.324 197.152 377.825 200.236 377.039 203.16C375.471 208.988 369.311 212.85 362.257 212.85ZM361.409 194.104C357.379 194.104 353.788 196.021 353.031 198.836C352.728 199.962 352.93 201.095 353.632 202.202C354.803 204.05 357.164 205.452 359.947 205.953C364.813 206.829 369.683 204.756 370.58 201.423C370.882 200.297 370.681 199.164 369.979 198.057C368.808 196.209 366.447 194.806 363.664 194.305C362.907 194.169 362.15 194.104 361.409 194.104Z" fill="#371A45"/>
<path d="M125.148 286.675C124.117 286.675 123.099 286.2 122.445 285.304C121.878 284.528 121.399 283.831 120.98 283.174C119.991 281.62 120.445 279.559 121.995 278.564C123.544 277.57 125.608 278.014 126.609 279.561C126.991 280.152 127.408 280.758 127.849 281.364C128.935 282.856 128.607 284.946 127.115 286.033C126.52 286.467 125.831 286.675 125.148 286.675Z" fill="#371A45"/>
<path d="M131.694 370.6C143.127 365.627 148.843 353.428 144.46 343.354C140.078 333.28 127.257 329.145 115.824 334.118C104.391 339.091 98.6756 351.29 103.058 361.364C107.44 371.438 120.261 375.573 131.694 370.6Z" fill="#4AEEFF"/>
<path d="M145.312 355.311C142.416 366.421 130.422 374.104 118.523 372.469C106.78 370.858 99.5228 360.756 102.126 349.805C103.749 357.156 109.976 362.961 118.627 364.149C130.526 365.79 142.52 358.108 145.417 346.99C145.454 346.85 145.491 346.709 145.521 346.567C146.132 349.318 146.101 352.287 145.312 355.311Z" fill="#4DD9FF"/>
<g opacity="0.7">
<path d="M145.942 350.313C143.581 344.177 137.836 339.523 130.181 338.474C118.29 336.832 106.295 344.515 103.399 355.632C102.96 357.324 102.755 358.997 102.769 360.624C101.459 357.215 101.196 353.351 102.23 349.383C105.127 338.266 117.114 330.582 129.013 332.217C139.1 333.612 145.878 341.248 145.942 350.313Z" fill="white"/>
</g>
<path d="M68.2864 304.417C78.8124 301.488 85.7537 293.394 83.7903 286.338C81.8268 279.283 71.7021 275.938 61.1762 278.867C50.6502 281.796 43.7089 289.891 45.6723 296.946C47.6358 304.002 57.7604 307.347 68.2864 304.417Z" fill="#4AEEFF"/>
<path d="M84.0522 289.854C83.2681 296.993 74.8145 303.734 64.5706 305.193C53.8581 306.711 45.2593 301.876 45.3533 294.39C45.3841 291.944 46.343 289.508 48.0006 287.293C47.9541 287.61 47.9358 287.935 47.9317 288.261C47.8377 295.747 56.4365 300.583 67.149 299.065C74.3474 298.044 80.6646 294.404 84.0522 289.854Z" fill="#4DD9FF"/>
<g opacity="0.7">
<path d="M81.3073 296.2C81.4577 295.502 81.5445 294.803 81.5534 294.096C81.6474 286.609 73.0486 281.774 62.3433 283.292C55.2514 284.3 49.0206 287.835 45.5986 292.285C47.1072 285.578 55.2059 279.456 64.9101 278.082C75.6155 276.557 84.2142 281.399 84.1202 288.886C84.0886 291.417 83.0649 293.929 81.3073 296.2Z" fill="white"/>
</g>
<path d="M91.8937 241.688C100.638 241.356 107.522 235.678 107.269 229.006C107.016 222.333 99.722 217.193 90.9773 217.525C82.2326 217.856 75.3487 223.534 75.6018 230.207C75.8548 236.879 83.149 242.02 91.8937 241.688Z" fill="#4AEEFF"/>
<path d="M107.281 229.432C107.237 235.124 101.915 240.253 94.3106 241.446C85.7049 242.79 77.4455 238.58 75.8624 232.036C75.2225 229.384 75.7728 226.753 77.2329 224.479C77.2305 225.229 77.3132 225.986 77.495 226.745C79.0853 233.289 87.3448 237.498 95.9504 236.154C101.062 235.357 105.148 232.767 107.281 229.432Z" fill="#4DD9FF"/>
<g opacity="0.7">
<path d="M100.907 239.138C102.367 236.864 102.91 234.24 102.27 231.595C100.687 225.051 92.428 220.842 83.8224 222.186C81.3514 222.575 79.1163 223.376 77.2314 224.486C79.3639 221.138 83.4499 218.554 88.5693 217.75C97.1677 216.399 105.434 220.615 107.017 227.16C108.142 231.818 105.583 236.406 100.907 239.138Z" fill="white"/>
</g>
<path d="M121.697 376.03C120.491 376.03 119.28 375.949 118.069 375.783C111.174 374.834 105.395 371.349 101.797 365.97C98.3869 360.872 97.3907 354.682 98.9918 348.536C102.296 335.855 115.967 327.042 129.468 328.905C136.364 329.854 142.143 333.339 145.741 338.718C149.151 343.816 150.147 350.006 148.546 356.152C145.538 367.697 133.938 376.03 121.697 376.03ZM125.767 335.341C116.485 335.341 107.717 341.575 105.464 350.223C104.352 354.492 105.023 358.764 107.356 362.251C109.876 366.019 114.005 368.472 118.981 369.157C129.236 370.577 139.595 363.977 142.073 354.465C143.185 350.196 142.514 345.924 140.182 342.437C137.661 338.669 133.532 336.216 128.556 335.532C127.625 335.403 126.693 335.341 125.767 335.341Z" fill="#371A45"/>
<path d="M60.7564 308.809C55.0792 308.809 49.9335 307.155 46.4811 304.12C43.5485 301.541 41.9591 298.071 42.0059 294.347C42.0059 294.347 42.0059 294.347 42.0059 294.347C42.1214 285.138 51.9739 276.539 64.4365 274.77C71.7523 273.732 78.688 275.37 82.9919 279.153C85.9245 281.731 87.5139 285.202 87.4671 288.926C87.3516 298.134 77.4991 306.733 65.0368 308.503C63.5897 308.708 62.1563 308.809 60.7564 308.809ZM48.6937 294.431C48.6711 296.221 49.4124 297.791 50.8972 299.096C53.754 301.608 58.689 302.65 64.0965 301.881C73.0668 300.607 80.7067 294.636 80.7791 288.842C80.8017 287.051 80.0605 285.481 78.5756 284.176C75.7188 281.664 70.7843 280.624 65.3767 281.392C56.406 282.665 48.7663 288.637 48.6937 294.431Z" fill="#371A45"/>
<path d="M91.0167 245.046C82.1016 245.046 74.3807 240.121 72.6121 232.823C71.7569 229.294 72.4535 225.603 74.5731 222.429C77.3576 218.26 82.2706 215.35 88.0516 214.444C98.4927 212.808 108.251 218.047 110.268 226.37C111.123 229.899 110.426 233.59 108.307 236.764C105.522 240.933 100.609 243.843 94.8283 244.748C93.5433 244.949 92.2673 245.046 91.0167 245.046ZM79.1121 231.248C80.2755 236.048 86.9989 239.205 93.7937 238.14C97.675 237.533 101.021 235.629 102.745 233.049C103.501 231.916 104.293 230.112 103.767 227.945C102.604 223.145 95.8815 219.988 89.0859 221.052C85.2046 221.66 81.8581 223.563 80.1349 226.144C79.3786 227.276 78.5868 229.081 79.1121 231.248Z" fill="#371A45"/>
<path d="M149.808 207.065C156.575 206.808 161.902 202.414 161.706 197.251C161.51 192.087 155.866 188.109 149.099 188.366C142.331 188.623 137.004 193.017 137.2 198.18C137.396 203.344 143.041 207.321 149.808 207.065Z" fill="#4AEEFF"/>
<path d="M149.135 210.416C141.891 210.416 135.602 206.368 134.151 200.379C133.439 197.44 134.015 194.372 135.775 191.738C138.046 188.336 142.034 185.965 146.717 185.232C155.18 183.904 163.108 188.21 164.761 195.029C165.473 197.967 164.896 201.037 163.137 203.671C160.865 207.072 156.877 209.444 152.195 210.177C151.163 210.338 150.14 210.416 149.135 210.416ZM140.651 198.804C141.463 202.151 146.275 204.335 151.16 203.569C153.959 203.13 156.357 201.78 157.575 199.956C158.304 198.864 158.535 197.736 158.26 196.604C157.449 193.257 152.638 191.073 147.751 191.839C144.953 192.278 142.555 193.628 141.336 195.452C140.607 196.544 140.377 197.671 140.651 198.804Z" fill="#371A45"/>
<path d="M125.148 286.675C124.117 286.675 123.099 286.2 122.445 285.304C121.878 284.528 121.399 283.831 120.98 283.174C119.991 281.62 120.445 279.559 121.995 278.564C123.544 277.57 125.608 278.014 126.609 279.561C126.991 280.152 127.408 280.758 127.849 281.364C128.935 282.856 128.607 284.946 127.115 286.033C126.52 286.467 125.831 286.675 125.148 286.675Z" fill="#371A45"/>
<g opacity="0.7">
<path d="M274.767 380.948C274.788 376.479 270.884 372.837 266.046 372.814C261.208 372.791 257.269 376.395 257.248 380.864C257.226 385.333 261.131 388.974 265.969 388.997C270.806 389.021 274.746 385.417 274.767 380.948Z" fill="white"/>
</g>
<g opacity="0.7">
<path d="M139.435 346.994C139.457 344.49 137.049 342.439 134.056 342.413C131.063 342.386 128.62 344.395 128.598 346.898C128.575 349.402 130.984 351.453 133.976 351.479C136.969 351.505 139.413 349.497 139.435 346.994Z" fill="white"/>
</g>
<path d="M361.995 357.786C364.612 368.959 376.41 376.913 388.346 375.551C400.127 374.208 407.635 364.274 405.307 353.267C403.501 360.579 397.13 366.24 388.451 367.23C376.515 368.6 364.716 360.645 362.1 349.465C362.066 349.323 362.033 349.181 362.006 349.04C361.327 351.775 361.283 354.744 361.995 357.786Z" fill="#4DD9FF"/>
<g opacity="0.7">
<path d="M361.49 352.774C364.004 346.694 369.865 342.172 377.543 341.298C389.473 339.928 401.271 347.883 403.887 359.063C404.284 360.764 404.447 362.442 404.391 364.067C405.787 360.69 406.147 356.833 405.212 352.842C402.596 341.662 390.805 333.707 378.868 335.07C368.749 336.234 361.781 343.713 361.49 352.774Z" fill="white"/>
</g>
<g opacity="0.7">
<path d="M378.972 349.725C378.994 347.222 376.586 345.171 373.593 345.144C370.6 345.118 368.157 347.126 368.135 349.63C368.113 352.134 370.521 354.184 373.513 354.211C376.506 354.237 378.95 352.229 378.972 349.725Z" fill="white"/>
</g>
<path d="M385.701 379.045C373.229 379.045 361.502 370.354 358.738 358.544C357.293 352.369 358.442 346.206 361.973 341.191C365.703 335.893 371.568 332.54 378.487 331.749C392.036 330.191 405.483 339.32 408.469 352.078C409.914 358.254 408.766 364.417 405.234 369.432C401.504 374.729 395.639 378.082 388.72 378.873C387.712 378.989 386.703 379.045 385.701 379.045ZM381.568 338.262C380.797 338.262 380.023 338.305 379.247 338.394C374.25 338.965 370.058 341.326 367.442 345.041C365.024 348.475 364.247 352.729 365.251 357.021C367.488 366.583 377.672 373.398 387.96 372.229C392.957 371.657 397.149 369.296 399.766 365.581C402.183 362.148 402.961 357.894 401.956 353.602C399.888 344.761 391.021 338.262 381.568 338.262Z" fill="#371A45"/>
<g opacity="0.6">
<path d="M258.877 3.6286C164.415 2.55007 86.8778 78.0755 85.6944 172.333C85.1573 215.103 100.438 254.378 126.115 284.622C129.4 288.845 133.623 292.867 138.67 296.636C162.793 314.666 205.723 326.964 254.803 327.524C303.891 328.084 347.125 316.77 371.693 299.29C376.863 295.616 381.199 291.677 384.596 287.509C410.996 257.874 427.238 218.981 427.774 176.239C428.958 81.9816 353.339 4.70712 258.877 3.6286Z" fill="#4AEEFF"/>
</g>
<path d="M315.609 308.304C297.052 312.531 276.083 314.638 254.966 314.397C210.758 313.892 169.221 303.059 146.566 286.125C142.422 283.033 139.041 279.818 136.513 276.566L136.34 276.344L136.158 276.13C111.624 247.231 98.3747 210.422 98.8503 172.483C99.3041 136.386 111.63 102.568 134.496 74.6837C156.699 47.6076 187.63 28.4344 221.591 20.6962C233.689 17.9396 246.179 16.6145 258.711 16.7574C345.767 17.7518 415.706 89.2273 414.616 176.09C414.139 214.006 399.987 250.481 374.764 278.793L374.574 279.009L374.391 279.232C371.783 282.432 368.308 285.584 364.064 288.601C352.346 296.938 335.595 303.75 315.617 308.302C315.614 308.302 315.612 308.303 315.609 308.304Z" fill="#4AEEFF"/>
<path d="M411.725 143.977C413.752 154.354 414.756 165.098 414.615 176.09C414.143 214.005 399.982 250.487 374.767 278.798L374.571 279.004L374.394 279.233C371.775 282.428 368.31 285.588 364.057 288.603C352.351 296.939 335.586 303.748 315.62 308.297C315.607 308.3 315.607 308.3 315.607 308.3C297.053 312.528 276.086 314.639 254.962 314.403C210.749 313.894 169.217 303.054 146.557 286.123C142.423 283.026 139.032 279.813 136.51 276.564L136.339 276.347L136.155 276.133C111.618 247.229 98.3715 210.421 98.8504 172.478C100.894 164.596 121.811 222.676 185.748 237.628C289.896 261.984 332.791 168.977 345.537 169.116C384.121 169.561 402.909 154.159 411.725 143.977Z" fill="#4DC9FF"/>
<path d="M258.293 330.517C257.118 330.517 255.949 330.511 254.769 330.497C206.594 329.947 162.527 318.179 136.891 299.018C131.617 295.079 127.215 290.867 123.808 286.498C96.7876 254.648 82.1969 214.094 82.7217 172.296C83.9236 76.5576 163.012 -0.4332 258.911 0.656943C305.465 1.18835 348.985 19.7967 381.455 53.0539C413.823 86.2072 431.328 129.968 430.747 176.276C430.222 218.05 414.638 258.234 386.859 289.439C383.341 293.743 378.818 297.873 373.414 301.713C347.95 319.832 305.11 330.516 258.293 330.517ZM256.89 6.59054C165.096 6.59054 89.8194 80.5559 88.6664 172.37C88.1596 212.754 102.264 251.935 128.381 282.698C128.408 282.73 128.435 282.763 128.461 282.797C131.547 286.764 135.58 290.619 140.449 294.255C165.114 312.69 207.875 324.016 254.837 324.552C301.818 325.098 344.852 314.74 369.969 296.868C374.96 293.321 379.106 289.541 382.292 285.632C382.319 285.598 382.348 285.565 382.376 285.532C409.228 255.391 424.295 216.563 424.802 176.202C425.364 131.483 408.459 89.2231 377.201 57.2072C345.842 25.0871 303.808 7.11494 258.843 6.60148C258.192 6.5943 257.538 6.59054 256.89 6.59054Z" fill="#371A45"/>
<g opacity="0.7">
<path d="M371.614 66.7432C383.424 74.8496 409.342 104.286 415.617 159.614C419.507 193.906 408.784 221.262 404.108 221.062C392.791 220.578 409.638 157.799 342.586 103.523C310.864 77.8454 344.634 48.2253 371.614 66.7432Z" fill="white"/>
</g>
<g opacity="0.7">
<path d="M329.269 55.5633C326.635 66.273 314.45 73.1847 304.293 68.855C289.957 62.7442 286.934 52.8015 289.815 42.1549C293.079 30.0891 302.782 25.7178 313.484 28.4505C328.318 32.2383 332.57 42.1439 329.269 55.5633Z" fill="white"/>
</g>
<path d="M366.419 293.418L353.852 314L330.421 321.317C329.562 320.451 328.72 319.587 327.886 318.716C317.148 307.547 308.659 295.863 308.023 282.392C307.992 281.822 307.978 281.245 307.989 280.671C307.982 280.662 307.99 280.655 307.99 280.655C307.98 280.128 307.994 279.595 308.024 279.063C308.033 278.902 308.041 278.741 308.058 278.581C308.247 276.259 309.035 274.023 310.267 272.044C314.319 265.55 319.627 260.699 325.693 256.842L359.01 271.599L366.419 293.418Z" fill="#62ED2E"/>
<path d="M339.543 303.314C337.057 308.203 334.563 313.098 332.076 317.995C330.71 318.438 329.302 318.666 327.887 318.716C317.15 307.546 308.66 295.862 308.025 282.392L308.486 281.921C308.242 281.539 308.083 281.11 307.99 280.671C307.983 280.662 307.992 280.655 307.992 280.655C307.844 279.968 307.869 279.249 308.059 278.58C308.21 278.053 308.456 277.552 308.8 277.125C309.883 275.802 311.833 275.265 313.434 275.851C315.23 276.505 316.336 278.279 317.309 279.926C322.895 289.352 329.417 299.133 339.543 303.314Z" fill="#40D326"/>
<path d="M330.421 323.546C329.837 323.546 329.265 323.316 328.84 322.889C316.366 310.353 304.94 296.353 305.795 278.953C305.933 276.146 306.826 273.348 308.378 270.86C312.303 264.565 317.575 259.364 324.495 254.961C325.124 254.561 325.912 254.502 326.595 254.803L359.911 269.559C360.481 269.812 360.919 270.291 361.119 270.881L368.532 292.701C368.744 293.327 368.668 294.016 368.323 294.58L355.754 315.161C355.472 315.623 355.032 315.966 354.516 316.127L331.085 323.445C330.867 323.512 330.643 323.546 330.421 323.546ZM325.894 259.37C320.037 263.265 315.538 267.805 312.161 273.22C311.011 275.065 310.349 277.122 310.249 279.172C309.499 294.419 319.675 307.224 331.051 318.784L352.385 312.121L363.974 293.147L357.212 273.241L325.894 259.37Z" fill="#371A45"/>
<path d="M464.258 272.811C471.776 282.544 476.741 294.227 477.51 309.113C477.746 313.68 475.981 318.15 472.667 321.3C458.096 335.145 437.83 342.676 416.48 343.101L398.495 321.007C398.495 321.007 398.721 295.11 400.406 294.473C402.091 293.836 435.572 275.399 435.572 275.399L464.258 272.811Z" fill="#62ED2E"/>
<path d="M472.858 319.39C459.893 331.279 443.241 339.09 425.824 341.483C424.764 341.626 423.698 341.751 422.634 341.861C424.053 338.369 425.2 334.769 426.054 331.098C426.124 330.806 426.194 330.521 426.257 330.228C437.106 326.723 447.43 321.618 456.81 315.136C458.919 313.684 461.006 312.14 463.393 311.21C465.781 310.281 468.569 310.032 470.857 311.173C473.154 312.316 474.706 315.108 473.89 317.535L474.121 316.943C474.332 317.888 473.564 318.741 472.858 319.39Z" fill="#40D326"/>
<path d="M438.325 299.791C443.442 295.203 450.227 292.517 457.099 292.359C463.97 292.2 470.871 294.571 476.195 298.919C473.693 292.208 471.191 285.497 468.689 278.786C463.283 278.812 457.838 278.841 452.536 279.895C447.234 280.95 442.023 283.107 438.146 286.874C437.6 287.404 437.065 287.996 436.87 288.732C436.696 289.391 436.817 290.088 436.938 290.759C437.466 293.675 437.994 296.591 438.522 299.507" fill="#40D326"/>
<path d="M416.479 345.33C415.809 345.33 415.173 345.029 414.75 344.508L396.765 322.414C396.437 322.011 396.26 321.506 396.265 320.987C396.504 293.564 398.087 292.966 399.617 292.387C401.134 291.745 421.311 280.706 434.495 273.445C434.765 273.297 435.064 273.206 435.371 273.178L464.056 270.59C464.818 270.528 465.556 270.846 466.021 271.448C474.512 282.441 478.999 294.724 479.735 308.998C480.006 314.243 477.989 319.316 474.202 322.915C459.461 336.923 438.976 344.883 416.523 345.33C416.508 345.33 416.493 345.33 416.479 345.33ZM400.731 320.224L417.517 340.844C438.429 340.192 457.433 332.699 471.13 319.683C473.972 316.982 475.486 313.171 475.283 309.228C474.616 296.309 470.67 285.146 463.227 275.142L436.237 277.577C428.573 281.797 406.781 293.774 402.028 296.164C401.338 298.937 400.84 310.074 400.731 320.224ZM401.323 296.504C401.271 296.527 401.229 296.545 401.195 296.557C401.239 296.541 401.282 296.523 401.323 296.504Z" fill="#371A45"/>
<path d="M437.425 275.485C436.597 286.084 438.253 296.589 441.263 306.763C437.743 302.433 436.006 297.098 434.823 291.731C433.62 286.374 433.245 280.783 433.713 275.314C433.748 274.241 434.677 273.397 435.752 273.506C436.756 273.603 437.495 274.485 437.425 275.485Z" fill="#371A45"/>
<path d="M425.728 331.897C425.512 332.573 425.304 333.242 425.089 333.918C412.507 373.32 396.433 406.183 365.711 411.608C344.553 415.963 327.847 425.995 315.815 442.04C311.036 448.409 302.943 451.419 295.237 449.412C286.304 447.079 277.156 442.501 270.074 435.53C268.639 434.118 267.517 432.394 266.99 430.454C266.707 429.392 266.596 428.336 266.64 427.318C266.663 426.538 266.774 425.787 266.967 425.059C268.55 419.091 275.313 414.692 282.641 416.045C291.023 403.663 301.175 392.33 312.872 381.889L326.784 364.685C322.957 359.862 319.122 355.046 315.295 350.223C319.508 341.06 323.715 331.889 327.928 322.726C330.366 318.669 333.034 314.485 335.947 310.211C338.028 307.157 340.109 304.244 342.175 301.464L354.481 288.281L417.546 301.093C420.273 311.363 423 321.626 425.728 331.897Z" fill="#62ED2E"/>
<path d="M350.898 294.066C369.574 309.483 397.266 313.018 419.216 302.786C411.851 297.091 401.46 298.976 392.155 299.282C385.542 299.5 378.899 298.765 372.492 297.115C365.651 295.354 358.961 292.539 351.898 292.392" fill="#40D326"/>
<path d="M426.768 330.158C423.35 341.579 418.234 355.119 410.419 369.545C405.313 378.97 399.944 387.131 394.812 394.069C383.517 404.846 373.226 409.435 365.711 411.608C360.24 413.19 357.735 413.059 350.966 415.621C346.618 417.267 337.603 420.769 328.732 428.524C321.061 435.23 320.694 435.537 315.815 442.04C311.036 448.409 302.943 451.419 295.237 449.413C286.304 447.079 277.156 442.501 270.074 435.53C268.84 434.316 267.536 432.733 266.99 430.455C266.304 427.594 267.178 425.068 267.733 423.796C269.017 426.433 271.293 430.357 275.164 434.2C277.86 436.877 281.017 440.01 286.289 441.684C287.938 442.207 294.152 444.156 300.774 441.528C305.099 439.811 308.473 436.385 311.713 433.056C317.784 426.813 323.849 420.571 329.92 414.328C331.949 412.24 334.112 409.854 334.186 406.934C334.275 403.129 330.738 400.215 327.193 398.818C323.655 397.421 319.709 396.849 316.618 394.627C327.854 390.725 337.263 381.86 341.825 370.876C348.833 373.194 350.899 382.187 356.548 386.935C363.08 392.427 373.306 391.015 380.373 386.222C386.538 382.04 390.542 377.653 397.183 367.115C408.271 349.522 409.812 338.746 421.566 332.387C423.727 331.219 425.617 330.532 426.768 330.158Z" fill="#40D326"/>
<path d="M425.728 331.899C422.859 347.272 417.681 362.206 410.35 376.051C401.319 393.557 386.758 410.535 366.353 413.967C350.393 417.173 335.062 424.597 323.822 436.49C322.155 438.205 320.365 440.261 318.901 442.155C313.913 449.421 305.401 453.744 296.525 452.212C291.188 451.142 286.089 449.124 281.264 446.631C276.488 444.109 272.053 440.974 268.155 437.086C266.539 435.449 265.198 433.332 264.607 431.041C261.822 420.192 273.03 411.551 283.087 413.644L280.616 414.676C289.287 401.873 299.614 390.231 311.097 379.898L310.799 380.21L324.631 362.941L324.887 366.703L312.272 354.855C311.476 354.107 311.218 353.002 311.511 352.023C314.446 342.448 318.719 333.298 323.898 324.742C329.132 316.348 335.011 308.326 342.179 301.462C341.323 303.833 340.312 306.101 339.222 308.317C337.097 312.734 334.595 317.015 332.002 321.164C325.396 331.198 320.361 342.174 316.829 353.641L316.08 350.807L328.662 362.69C329.716 363.673 329.809 365.305 328.915 366.406L314.925 383.548C306.418 391.178 298.375 399.334 291.317 408.329C288.978 411.269 286.766 414.309 284.683 417.431C284.129 418.262 283.154 418.644 282.23 418.482C273.537 416.703 264.663 426.08 271.776 433.532C276.958 438.644 283.556 442.541 290.439 445.046C292.697 445.854 295.03 446.614 297.384 447.046C303.428 448.075 309.834 445.325 313.466 440.411C315.438 437.829 317.664 435.083 319.926 432.753C333.235 418.59 350.146 411.435 368.886 407.757C402.366 398.214 411.24 359.333 425.728 331.899Z" fill="#371A45"/>
<path d="M284.806 414.942C287.472 419.785 291.844 423.507 297.048 425.624C291.135 424.883 285.416 422.021 281.236 417.623C278.999 415.12 283.023 412.093 284.806 414.942Z" fill="#371A45"/>
<path d="M390.808 303.834C432.239 307.975 460.02 291.686 474.427 265.946C499.571 221.026 475.809 169.048 434.585 156.587C389.721 143.025 346.86 158.962 329.009 212.656C316.796 249.389 319.352 292.801 379.066 302.189" fill="#62ED2E"/>
<path d="M390.808 303.834C432.239 307.975 460.02 291.686 474.427 265.946C499.571 221.026 475.809 169.048 434.585 156.587C389.721 143.025 346.86 158.962 329.009 212.656C316.796 249.389 319.352 292.801 379.066 302.189L390.808 303.834Z" fill="#62ED2E"/>
<path d="M377.739 298.057C378.369 298.167 378.997 298.271 379.64 298.372L391.271 300.001C410.346 301.897 427.098 299.416 441.058 292.626C453.828 286.416 463.919 276.806 471.051 264.065C482.287 243.992 483.928 220.608 475.556 199.909C471.761 190.53 465.978 181.979 458.829 175.179C451.434 168.145 442.9 163.133 433.463 160.28C429.215 158.996 424.946 157.978 420.776 157.253C401.268 153.865 383.116 156.754 368.284 165.608C352.094 175.273 340.116 191.51 332.682 213.87C327.131 230.569 322.826 254.333 333.845 272.711C341.716 285.838 356.484 294.366 377.739 298.057Z" fill="#62ED2E"/>
<g opacity="0.7">
<path d="M407.936 163.493C406.887 167.718 412.742 172.794 421.009 174.837C429.281 176.877 436.837 175.106 437.886 170.881C437.993 170.445 438.029 169.996 437.998 169.544C445.532 172.879 452.463 177.537 458.686 183.453C466.805 191.174 473.373 200.887 477.681 211.54C478.745 214.169 479.664 216.84 480.441 219.537C479.748 212.858 478.121 206.257 475.555 199.911C471.759 190.531 465.978 181.977 458.828 175.18C451.434 168.144 442.901 163.132 433.463 160.279C429.214 158.996 424.947 157.977 420.777 157.253C401.27 153.865 383.115 156.753 368.285 165.61C366.846 166.469 365.438 167.38 364.062 168.351C377.33 162.507 392.46 160.382 408.556 162.124C408.266 162.543 408.057 163.001 407.936 163.493Z" fill="white"/>
</g>
<path d="M326.879 267.192C333.344 284.037 348.923 297.45 379.069 302.188L390.81 303.835C432.242 307.975 460.02 291.686 474.43 265.946C479.993 256.005 483.162 245.718 484.273 235.588C467.903 291.121 420.383 299.901 388.926 296.53C350.255 292.387 334.837 281.738 326.879 267.192Z" fill="#40D326"/>
<path d="M390.809 303.835C410.751 303.094 431.187 301.243 448.248 290.398C464.991 280.011 476.391 262.069 480.488 242.915C488.701 206.591 466.138 166.014 428.966 157.961C407.71 152.397 383.847 153.802 365.25 166.203C340.646 182.496 327.685 213.717 325.658 242.415C324.536 263.206 332.691 280.991 351.198 291.179C359.713 296.115 369.277 299.287 379.067 302.19C368.784 301.908 358.398 299.587 349.184 294.877C334.981 287.858 324.424 273.64 321.84 257.903C317.577 233.329 326.496 204.239 340.085 183.724C362.178 150.55 401.425 142.207 437.884 154.702C473.615 166.819 494.037 207.847 485.49 243.996C475.973 287.674 434.289 314.059 390.809 303.835Z" fill="#371A45"/>
<path d="M336.448 196.148C331.127 200.469 324.887 213.713 329.516 230.482C334.144 247.25 349.103 252.572 355.091 247.264C359.688 243.189 365.058 230.481 360.43 213.712C355.801 196.943 341.898 191.724 336.448 196.148Z" fill="#371A45"/>
<g opacity="0.5">
<path d="M358.94 241.818C360.239 236.065 360.395 228.766 358.106 220.476C353.478 203.706 339.575 198.485 334.126 202.909C332.328 204.368 330.424 206.848 328.871 210.14C330.424 203.433 333.572 198.483 336.447 196.148C341.896 191.725 355.798 196.945 360.429 213.711C363.746 225.724 361.927 235.652 358.94 241.818Z" fill="white"/>
</g>
<g opacity="0.35">
<path d="M355.09 247.267C349.102 252.572 334.143 247.248 329.517 230.484C326.13 218.219 328.559 207.84 332.189 201.462C331.324 206.686 331.444 212.809 333.289 219.493C337.915 236.262 352.873 241.586 358.863 236.275C359.812 235.434 360.796 234.221 361.717 232.679C360.597 239.79 357.715 244.938 355.09 247.267Z" fill="#111A28"/>
</g>
<path d="M430.474 228.599C433.347 235.576 431.443 250.233 415.705 260.417C399.967 270.602 380.625 264.819 377.679 256.614C375.418 250.315 377.902 236.664 393.64 226.48C409.378 216.295 427.531 221.454 430.474 228.599Z" fill="#371A45"/>
<g opacity="0.5">
<path d="M429.525 244.697C430.004 241.04 429.578 237.789 428.605 235.422C425.662 228.278 407.509 223.117 391.77 233.302C383.967 238.35 379.419 244.255 377.097 249.69C377.91 242.815 382.387 233.76 393.64 226.479C409.378 216.298 427.532 221.455 430.474 228.599C432.024 232.363 432.185 238.364 429.525 244.697Z" fill="white"/>
</g>
<g opacity="0.35">
<path d="M415.713 260.364C399.98 270.546 380.636 264.765 377.688 256.562C376.398 252.964 376.657 246.967 380.047 240.587C380.032 242.424 380.295 244.046 380.762 245.346C383.708 253.554 403.052 259.335 418.785 249.153C425.06 245.09 429.136 240.321 431.59 235.608C431.333 243.084 427.219 252.919 415.713 260.364Z" fill="#111A28"/>
</g>
<path d="M349.315 250.665C347.919 250.665 346.439 250.443 344.918 249.992C338.869 248.199 331.287 242.231 328.148 230.859C323.252 213.126 330.093 199.482 335.554 195.047C337.961 193.092 341.587 192.689 345.499 193.941C351.303 195.798 358.633 201.869 361.797 213.334C366.625 230.823 360.823 244.078 356.032 248.326C354.289 249.871 351.953 250.665 349.315 250.665ZM341.201 196.071C339.652 196.071 338.305 196.469 337.343 197.25C332.076 201.527 326.589 214.547 330.883 230.104C333.714 240.357 340.406 245.694 345.724 247.271C349.111 248.275 352.261 247.876 354.149 246.202C358.428 242.409 363.546 230.336 359.061 214.089C356.198 203.715 349.731 198.276 344.634 196.644C343.434 196.26 342.269 196.071 341.201 196.071Z" fill="#371A45"/>
<path d="M397.287 267.252C393.39 267.252 389.82 266.614 386.906 265.629C381.483 263.796 377.633 260.685 376.343 257.094C373.965 250.47 376.348 235.978 392.868 225.287C401.791 219.513 412.673 217.803 421.975 220.709C426.923 222.256 430.499 224.934 431.786 228.058V228.058C434.757 235.276 433.229 250.766 416.475 261.608C410.108 265.729 403.308 267.252 397.287 267.252ZM412.698 222.208C407.094 222.208 400.593 223.67 394.41 227.67C379.267 237.47 376.93 250.33 379.015 256.134C379.995 258.865 383.285 261.409 387.814 262.939C394.604 265.234 405.293 265.462 414.933 259.225C429.428 249.845 431.978 235.985 429.161 229.139C428.211 226.832 425.208 224.693 421.129 223.418C418.754 222.676 415.87 222.208 412.698 222.208Z" fill="#371A45"/>
<path d="M363.931 253.259C364.185 254.459 363.849 255.546 363.181 255.687C362.513 255.828 361.765 254.969 361.512 253.77C361.258 252.57 361.593 251.483 362.262 251.342C362.93 251.201 363.677 252.06 363.931 253.259Z" fill="#371A45"/>
<path d="M365.841 253.88C364.927 254.7 364.555 255.775 365.011 256.282C365.468 256.788 366.579 256.535 367.494 255.715C368.408 254.896 368.78 253.821 368.324 253.314C367.867 252.807 366.756 253.061 365.841 253.88Z" fill="#371A45"/>
<path d="M416.209 204.378C425.646 187.039 435.133 186.588 439.927 191.828C442.326 194.451 443.227 199.054 443.472 202.342C441.032 203.522 439.276 205.944 439.078 208.838C438.784 213.145 442.045 216.874 446.358 217.166C450.676 217.458 454.415 214.204 454.709 209.897C454.912 206.93 453.428 204.236 451.073 202.755C451.295 197.06 450.177 186.561 442.581 181.715C427.196 171.898 412.649 188.305 407.53 197.4L416.209 204.378Z" fill="#62ED2E"/>
<path d="M446.002 214.405C446.179 214.436 446.361 214.457 446.542 214.47C449.362 214.661 451.814 212.527 452.006 209.713C452.135 207.834 451.223 206.043 449.627 205.039L448.305 204.208L448.365 202.65C448.49 199.436 448.338 188.594 441.12 183.99C439.176 182.749 437.171 181.943 435.159 181.594C424.909 179.814 415.546 189.847 411.069 196.775L415.437 200.287C423.703 186.671 431.419 185.663 435.42 186.358C437.885 186.786 440.135 188.047 441.927 190.006C445.091 193.465 445.944 199.093 446.172 202.14L446.308 203.97L444.652 204.772C443.005 205.569 441.904 207.197 441.779 209.021C441.6 211.641 443.416 213.955 446.002 214.405Z" fill="#62ED2E"/>
<path d="M442.134 207.485C441.939 207.968 441.817 208.488 441.783 209.022C441.604 211.64 443.418 213.957 446.002 214.406C446.181 214.437 446.362 214.456 446.545 214.468C449.362 214.66 451.817 212.528 452.006 209.713C452.017 209.538 452.02 209.366 452.014 209.197C451.211 211.204 449.175 212.563 446.904 212.411C446.722 212.399 446.541 212.376 446.362 212.345C443.954 211.926 442.209 209.884 442.134 207.485Z" fill="#2BC614"/>
<g opacity="0.7">
<path d="M411.11 192.037C418.244 183.94 429.57 176.409 441.181 184.021C446.896 187.768 449.022 198.911 448.814 203.38C454.484 205.296 453.783 209.791 453.578 212.827C453.561 213.083 453.529 213.335 453.489 213.583C454.179 212.512 454.619 211.256 454.711 209.897C454.911 206.931 453.427 204.236 451.074 202.754C451.296 197.061 450.179 186.559 442.582 181.714C429.933 173.645 417.854 183.296 411.11 192.037Z" fill="white"/>
</g>
<path d="M416.21 204.378C418.589 199.079 421.679 193.605 426.43 190.02C433.657 184.471 442.376 187.808 444.525 196.531C445.171 198.83 445.336 201.153 445.359 203.489L444.281 204.014C441.888 205.14 440.463 207.952 441.042 210.545C441.718 214.623 446.948 216.721 450.276 214.271C453.766 212.022 453.662 206.435 450.083 204.327L449.229 203.742L449.216 202.682C449.092 196.197 448.008 189.433 443.513 184.793C436.19 177.69 426.26 179.429 418.729 185.288C414.384 188.592 410.577 192.732 407.53 197.4C411.387 189.89 417.126 182.988 424.856 179.219C432.37 175.437 442.199 177.391 447.681 183.781C452.008 189.025 453.354 196.189 452.929 202.827L452.062 201.181C457.896 204.705 458.068 213.585 452.38 217.334C448.875 219.813 443.763 219.543 440.558 216.678C435.31 212.327 436.483 203.527 442.663 200.669L441.619 202.479C440.928 196.576 438.523 189.092 431.141 190.771C429.191 191.179 427.324 192.356 425.706 193.507C421.893 196.501 418.985 200.352 416.21 204.378Z" fill="#371A45"/>
<path d="M367.878 182.457C368.189 181.781 368.911 154.152 350.558 148.629C340.959 145.739 333.065 150.991 329.914 153.126C328.915 152.551 327.771 152.192 326.544 152.109C322.225 151.817 318.485 155.072 318.19 159.38C317.896 163.683 321.159 167.413 325.477 167.706C329.791 167.998 333.531 164.743 333.826 160.439C333.849 160.103 333.85 159.769 333.829 159.439C338.704 157.564 356.347 154.596 356.815 182.176L367.878 182.457Z" fill="#62ED2E"/>
<path d="M365.264 179.689C365.205 176.99 364.833 172.282 363.394 167.317C360.862 158.591 356.281 153.173 349.776 151.216C349.103 151.013 348.417 150.85 347.737 150.732C340.202 149.424 334.059 153.584 331.435 155.361L330.031 156.313L328.56 155.467C328.05 155.173 327.494 154.973 326.906 154.871C326.727 154.84 326.544 154.817 326.36 154.805C323.538 154.614 321.086 156.749 320.893 159.564C320.714 162.182 322.532 164.496 325.121 164.946C325.298 164.977 325.48 164.999 325.662 165.011C327.027 165.104 328.347 164.66 329.379 163.761C330.411 162.863 331.031 161.618 331.124 160.257C331.139 160.038 331.14 159.821 331.127 159.609L331.002 157.631L332.856 156.918C334.077 156.449 338.463 154.986 343.621 155.882C350.369 157.054 358.417 162.162 359.428 179.54L365.264 179.689Z" fill="#62ED2E"/>
<path d="M320.893 159.565C320.714 162.183 322.529 164.496 325.121 164.946C325.296 164.976 325.48 165.001 325.659 165.012C327.025 165.104 328.344 164.66 329.377 163.762C330.41 162.864 331.028 161.619 331.124 160.257C331.139 160.04 331.138 159.821 331.124 159.611L331.114 159.421C330.814 160.054 330.389 160.623 329.843 161.096C328.81 161.994 327.491 162.439 326.125 162.347C325.946 162.335 325.761 162.315 325.586 162.284C323.272 161.883 321.58 159.994 321.371 157.733C321.104 158.293 320.937 158.911 320.893 159.565Z" fill="#2BC614"/>
<g opacity="0.7">
<path d="M318.349 158.266C319.879 156.138 322.955 152.796 325.765 152.986C326.991 153.07 329.238 154.275 330.415 155.59C333.565 153.453 340.712 148.922 349.266 151.537C364.133 156.082 367.88 182.457 367.88 182.457C368.19 181.782 368.913 154.154 350.561 148.628C340.961 145.738 333.064 150.991 329.913 153.128C328.915 152.551 327.772 152.192 326.545 152.108C322.606 151.839 319.152 154.526 318.349 158.266Z" fill="white"/>
</g>
<path d="M367.879 182.457C367.022 172.886 364.276 161.556 357.24 154.814C349.525 147.697 339.165 149.173 330.956 154.664L329.964 155.314C327.441 153.461 323.967 153.438 321.719 155.767C318.723 158.71 319.96 164.133 323.933 165.492C327.791 167.051 332.355 163.7 331.975 159.556L331.866 158.176L333.163 157.705C339.863 154.731 348.53 156.587 352.766 162.727C356.792 168.452 357.21 175.528 356.816 182.176C356.106 176.048 354.801 169.108 350.635 164.444C346.673 159.818 339.969 159.579 334.497 161.173L335.684 159.322C335.987 163.651 333.089 167.872 328.933 169.125C319.362 172.056 312.128 160.444 319.056 153.175C322.028 150.043 327.109 149.311 330.841 151.516C330.843 151.514 328.862 151.591 328.875 151.586C337.964 144.254 351.279 143.043 360.002 151.961C367.476 159.646 369.662 172.214 367.879 182.457Z" fill="#371A45"/>
<path d="M368.021 217.67C366.601 208.434 362.343 199.525 354.649 194.013C353.592 193.142 352.39 192.516 351.292 191.675C352.598 192.103 353.967 192.48 355.192 193.119C364.147 197.377 369.419 207.94 368.021 217.67Z" fill="#371A45"/>
<path d="M417.391 215.791C404.781 213.648 393.92 216.864 384.318 225.248C391.267 214.66 405.901 210.404 417.391 215.791Z" fill="#371A45"/>
<path d="M377.721 286.801C385.807 286.732 393.002 281.881 390.993 274.327C388.123 266.256 380.549 270.819 368.868 266.143C361.926 263.365 360.354 259.963 356.487 261.402C352.956 262.716 350.698 269.14 353.999 274.933C357.839 281.672 367.761 286.886 377.721 286.801Z" fill="#5E3519"/>
<path d="M378.299 286.788C378.107 286.794 377.915 286.8 377.72 286.8C370.477 286.861 363.256 284.125 358.377 280.03C356.548 278.496 355.045 276.773 353.998 274.931C350.701 269.143 352.958 262.717 356.487 261.404C358.251 260.745 359.54 261.096 361.081 261.936C362.912 262.939 365.096 264.635 368.87 266.144C374.852 268.541 379.759 268.509 383.507 268.999C387.077 269.459 389.594 270.391 390.991 274.328C392.956 281.7 386.15 286.497 378.299 286.788Z" fill="#371A45"/>
<path d="M366.426 270.31C360.894 267.624 360.455 264.53 361.081 261.936C362.913 262.939 365.097 264.634 368.871 266.143C374.853 268.54 379.76 268.509 383.508 268.999C382.635 271.914 381.345 273.093 379.669 273.32C378.635 273.46 377.472 273.366 376.95 273.317C374.01 273.242 370.332 272.204 366.426 270.31Z" fill="white"/>
<path d="M378.298 286.788C378.106 286.794 377.915 286.8 377.719 286.8C370.477 286.861 363.256 284.124 358.377 280.03C361.614 277.512 366.836 277.224 370.591 280.366C374.511 279.594 377.525 282.269 378.144 286.037C378.207 286.3 378.254 286.549 378.298 286.788Z" fill="#FFA4D0"/>
<path d="M370.581 277.146C370.581 277.146 373.479 280.291 372.355 280.247C371.025 280.194 368.499 280.833 367.684 282.035C367.684 282.035 368.194 278.98 370.581 277.146Z" fill="#371A45"/>
<path d="M377.483 287.866C367.42 287.866 357.186 282.675 353.075 275.459C351.219 272.201 350.819 268.305 352.006 265.037C352.834 262.757 354.332 261.069 356.116 260.405C358.975 259.342 360.9 260.535 363.338 262.049C364.82 262.969 366.664 264.114 369.264 265.155C373.836 266.985 377.845 267.364 381.066 267.668C386.09 268.142 390.058 268.517 391.997 273.97L392.022 274.053C392.845 277.148 392.312 280.054 390.481 282.457C387.935 285.797 383.168 287.819 377.731 287.865C377.648 287.866 377.565 287.866 377.483 287.866ZM358.229 262.126C357.798 262.126 357.356 262.215 356.859 262.4C355.678 262.839 354.612 264.097 354.007 265.764C353.031 268.452 353.374 271.683 354.925 274.406C358.62 280.892 368.291 285.738 377.491 285.738C377.565 285.738 377.639 285.737 377.713 285.737C382.426 285.697 386.67 283.946 388.788 281.167C390.218 279.291 390.617 277.096 389.976 274.642C388.489 270.507 385.777 270.251 380.866 269.787C377.509 269.47 373.33 269.076 368.473 267.132C365.699 266.021 363.767 264.822 362.215 263.858C360.423 262.745 359.365 262.126 358.229 262.126Z" fill="#371A45"/>
<path d="M330.642 339.498C328.854 334.693 324.017 332.052 319.84 333.6C315.662 335.147 313.725 340.296 315.514 345.101C317.302 349.906 322.139 352.547 326.316 351" fill="#62ED2E"/>
<path d="M315.51 345.099C317.3 349.909 322.141 352.547 326.314 351.002C326.314 351.002 328.786 350.087 330.136 346.519C331.486 342.95 330.638 339.496 330.638 339.496C330.059 337.939 329.159 336.604 328.059 335.574C330.303 339.918 329.572 344.813 326.26 346.807C322.766 348.912 317.718 346.962 314.986 342.449C314.948 342.388 314.911 342.327 314.88 342.264C314.954 343.205 315.159 344.157 315.51 345.099Z" fill="#2BC614"/>
<path d="M330.642 339.498C327.589 333.726 319.208 331.711 316.631 338.852C315.179 343.036 317.356 348.461 321.523 350.365C322.942 351.071 324.607 351.293 326.316 350.999C325.563 351.425 324.706 351.699 323.808 351.812C316.826 352.464 311.792 344.369 314.062 337.984C317.104 329.124 328.876 330.773 330.642 339.498Z" fill="#371A45"/>
<path d="M320.802 345.282C321.077 345.309 321.464 344.566 322.737 342.989C324.758 343.338 325.878 343.515 326.082 343.311C326.286 343.106 325.52 342.197 323.578 341.874C324.678 340.002 324.42 338.169 324.144 338.201C323.868 338.233 323.485 340.027 322.208 341.61C320.187 341.261 319.067 340.004 318.864 340.167C318.66 340.329 319.421 341.976 321.367 342.704C320.267 344.171 320.526 345.255 320.802 345.282Z" fill="#371A45"/>
<path d="M334.859 397.11C330.883 399.067 326.094 399.248 320.652 396.86C291.366 389.564 267.657 377.161 270.165 353.969C271.435 342.209 281.87 333.348 293.629 334.554C302.847 335.499 312.974 341.397 320.117 354.685C324.576 350.144 330.57 348.248 335.911 348.925C340.725 349.532 344.688 352.992 346.101 357.616C346.151 357.759 346.192 357.909 346.234 358.059C350.416 373.676 345.595 391.86 334.859 397.11Z" fill="#62ED2E"/>
<path d="M334.859 397.109C330.883 399.067 326.094 399.248 320.652 396.86C291.366 389.564 267.657 377.161 270.165 353.969C270.477 351.077 271.347 348.363 272.65 345.929C271.248 368.206 294.563 380.261 323.242 387.405C324.125 387.795 324.992 388.111 325.841 388.36C326.229 395.163 328.91 399.593 334.859 397.109Z" fill="#2BC614"/>
<path d="M347.253 376.227C347.121 377.113 346.967 377.988 346.781 378.852C346.761 378.971 346.733 379.082 346.706 379.193C346.656 379.438 346.599 379.684 346.541 379.929C346.47 380.229 346.39 380.529 346.311 380.829C346.233 381.12 346.153 381.42 346.067 381.711C345.966 382.057 345.867 382.395 345.759 382.732C345.678 382.975 345.597 383.21 345.516 383.445C345.433 383.703 345.342 383.953 345.252 384.203C345.13 384.523 345.008 384.842 344.887 385.154C344.779 385.418 344.672 385.674 344.557 385.93C344.45 386.179 344.345 386.419 344.231 386.658C343.699 387.818 343.101 388.915 342.445 389.942C342.347 390.102 342.251 390.254 342.146 390.405C342.001 390.633 341.84 390.86 341.688 391.079C341.528 391.298 341.368 391.516 341.208 391.727C341.049 391.937 340.891 392.139 340.724 392.341C340.549 392.55 340.374 392.751 340.2 392.951C340.026 393.144 339.853 393.337 339.672 393.521C339.489 393.721 339.291 393.911 339.094 394.102C338.958 394.241 338.815 394.373 338.664 394.503C338.61 394.554 338.556 394.605 338.503 394.648C338.334 394.801 338.157 394.945 337.98 395.089C337.785 395.255 337.591 395.406 337.39 395.555C336.986 395.854 336.577 396.136 336.154 396.392C335.998 396.489 335.843 396.579 335.688 396.668C335.413 396.826 335.139 396.969 334.857 397.11C328.908 399.594 326.228 395.164 325.84 388.36C330.215 389.692 334.119 389.298 337.446 387.655C341.719 385.566 345.043 381.428 347.253 376.227Z" fill="#2BC614"/>
<path d="M328.359 400.828C325.643 400.828 322.809 400.214 319.934 398.979C282.669 389.664 265.665 374.862 267.949 353.729C269.365 340.613 280.997 331.013 293.857 332.337C300.157 332.982 311.741 336.329 320.692 351.188C325.162 347.686 330.773 346.031 336.188 346.713C342.045 347.45 346.834 351.677 348.389 357.481C352.315 372.14 348.606 388.921 339.764 396.516C336.431 399.378 332.534 400.827 328.359 400.828ZM291.491 336.674C281.837 336.674 273.465 344.18 272.381 354.207C270.376 372.773 286.342 386.017 321.192 394.697C321.314 394.727 321.433 394.768 321.548 394.819C327.413 397.389 332.564 396.823 336.859 393.134C344.488 386.58 347.594 371.748 344.082 358.634C342.998 354.59 339.681 351.646 335.631 351.136C330.672 350.516 325.469 352.424 321.707 356.248C321.21 356.754 320.505 356.991 319.802 356.892C319.101 356.792 318.489 356.365 318.154 355.741C310.021 340.611 299.155 337.362 293.402 336.772C292.76 336.706 292.123 336.674 291.491 336.674Z" fill="#371A45"/>
<path d="M324.657 353.528C320.982 356.431 317.589 359.644 314.944 363.546C314.026 364.847 313.175 366.219 312.308 367.654C312.891 364.399 314.138 361.243 315.876 358.409C317.633 355.543 319.832 352.918 322.327 350.635C323.085 349.941 324.261 349.993 324.954 350.751C325.712 351.568 325.562 352.885 324.657 353.528Z" fill="#371A45"/>
</svg>
